<?xml version='1.0' encoding='utf-8'?>
<svg xmlns="http://www.w3.org/2000/svg" version="1.1" id="圖層_1" x="0px" y="0px" width="472.09px" height="476.484px" viewBox="0 0 472.09 476.484" enable-background="new 0 0 472.09 476.484"> <line fill="none" stroke="#2EA7E0" stroke-width="0.8341" stroke-miterlimit="10" x1="313.984" y1="413.096" x2="319.957" y2="410.479"/> <line fill="none" stroke="#2EA7E0" stroke-width="0.8341" stroke-miterlimit="10" x1="313.984" y1="413.096" x2="319.957" y2="410.479"/> <circle fill="#66BB6A" cx="399.16" cy="378.879" r="16.401"/> <circle fill="#FFF176" cx="461.081" cy="208.77" r="4.192"/> <circle fill="#D4E157" cx="436.167" cy="160.027" r="3.659"/> <circle fill="#FFEE58" cx="409.642" cy="128.981" r="3.045"/> <circle fill="#66BB6A" cx="421.319" cy="352.959" r="3.792"/> <circle fill="#81C784" cx="410.834" cy="319.563" r="3.109"/> <path fill="#66BB6A" d="M372.199,407.117c0,2.096-1.697,3.793-3.791,3.793c-2.096,0-3.791-1.697-3.791-3.793 c0-2.092,1.695-3.791,3.791-3.791C370.502,403.326,372.199,405.025,372.199,407.117z"/> <circle fill="#FFD54F" cx="341.737" cy="425.344" r="3.22"/> <circle fill="#EC407A" cx="339.183" cy="473.097" r="2.554"/> <path fill="#A5D6A7" d="M440.383,299c0,1.148-0.93,2.074-2.074,2.074s-2.07-0.926-2.07-2.074c0-1.143,0.926-2.072,2.07-2.072 S440.383,297.857,440.383,299z"/> <circle fill="#A5D6A7" cx="451.752" cy="255.484" r="2.072"/> <circle fill="#2EA7E0" cx="195.742" cy="376.289" r="18.203"/> <circle fill="#2EA7E0" cx="231.201" cy="375.051" r="3.438"/> <circle fill="#2EA7E0" cx="261.822" cy="387.693" r="2.287"/> <circle fill="#B39DDB" cx="280.612" cy="422.98" r="3.036"/> <circle fill="#2EA7E0" cx="165.356" cy="392.602" r="5.089"/> <circle fill="#2EA7E0" cx="156.176" cy="358.604" r="6.668"/> <circle fill="#AB47BC" cx="57.162" cy="283.213" r="2.306"/> <circle fill="#AB47BC" cx="27.598" cy="241.892" r="3.104"/> <circle fill="#4FC3F7" cx="18.348" cy="210.935" r="3.104"/> <circle fill="#8C9EFF" cx="36.01" cy="155.343" r="3.104"/> <circle fill="#AB47BC" cx="67.921" cy="317.48" r="18.204"/> <circle fill="#AB47BC" cx="36.096" cy="312.287" r="3.653"/> <circle fill="#AB47BC" cx="32.653" cy="269.804" r="5.056"/> <circle fill="#AB47BC" cx="92.56" cy="337.564" r="3.571"/> <circle fill="#64B5F6" cx="111.135" cy="314.08" r="2.196"/> <circle fill="#EC407A" cx="135.148" cy="44.349" r="18.541"/> <circle fill="#EC407A" cx="157.557" cy="24.476" r="3.869"/> <circle fill="#EC407A" cx="201.835" cy="40.827" r="2.905"/> <circle fill="#EF5350" cx="238.71" cy="36.068" r="2.905"/> <circle fill="#EC407A" cx="107.663" cy="75.318" r="2.905"/> <circle fill="#7E57C2" cx="54.856" cy="112.028" r="2.905"/> <circle fill="#BA68C8" cx="87.881" cy="101.379" r="2.905"/> <circle fill="#EC407A" cx="98.117" cy="107.735" r="2.905"/> <circle fill="#FF7043" cx="362.7" cy="43.292" r="18.204"/> <circle fill="#FF7043" cx="321.866" cy="37.541" r="5.751"/> <circle fill="#FF7043" cx="349.264" cy="9.677" r="3.134"/> <circle fill="#FF9100" cx="274.295" cy="46.918" r="2.311"/> <circle fill="#FF7043" cx="388.455" cy="71.077" r="4.103"/> <circle fill="#FFCA28" cx="400.74" cy="104.582" r="2.803"/> <path fill="#FFFFFF" d="M144.068,49.754v2.126h-17.84v-2.126l5.947-3.821v-1.487c-0.367,0-0.707-0.369-1.019-1.107 s-0.469-1.361-0.469-1.866V38.5c0-1.229,0.437-2.279,1.309-3.152c0.872-0.873,1.922-1.309,3.151-1.309s2.28,0.436,3.151,1.309 c0.873,0.873,1.309,1.923,1.309,3.152v2.973c0,0.505-0.156,1.127-0.469,1.866c-0.313,0.738-0.651,1.107-1.018,1.107v1.487 L144.068,49.754z"/> <path fill="#FFFFFF" d="M372.604,43.627h-3.047v9.141h-4.57v-6.095h-4.57v6.095h-4.57v-9.141h-3.047l9.993-9.812L372.604,43.627z"/> <path fill="#FFFFFF" d="M391.925,382.877l3.208,3.209l-4.79,1.611L391.925,382.877z M393.219,381.713l8.831-8.83l3.079,3.078 l-8.833,8.83L393.219,381.713z M403.287,371.645l1.351-1.393c0.146-0.125,0.304-0.188,0.476-0.188c0.174,0,0.331,0.063,0.475,0.188 l2.2,2.199c0.124,0.133,0.188,0.295,0.188,0.484c0,0.186-0.064,0.342-0.188,0.467l-1.425,1.322L403.287,371.645z"/> <path fill="#FFFFFF" d="M71.331,317.055h-6.888v5.168h-3.824c-0.907,0-1.685-0.328-2.333-0.982 c-0.648-0.652-0.973-1.441-0.973-2.359c0-0.793,0.244-1.496,0.731-2.111c0.489-0.611,1.11-1,1.869-1.16 c-0.024-0.137-0.035-0.352-0.035-0.637c0-1.758,0.621-3.252,1.86-4.486c1.24-1.234,2.732-1.852,4.477-1.852 c1.264,0,2.414,0.342,3.453,1.025c1.039,0.682,1.811,1.58,2.316,2.693c0.505-0.16,1.021-0.24,1.549-0.24 c1.378,0,2.555,0.496,3.531,1.49c0.976,0.992,1.463,2.176,1.463,3.555c0,1.402-0.488,2.596-1.463,3.582 c-0.976,0.99-2.153,1.482-3.531,1.482h-2.204V317.055z M69.608,318.777h-3.444v5.166H62.72l5.167,5.166l5.166-5.166h-3.444V318.777z "/> <path fill="#FFFFFF" d="M203.378,379.416l-7.859,7.859l-10.987-11.002v-7.469c0-0.113,0.037-0.207,0.109-0.279 c0.074-0.074,0.167-0.113,0.283-0.113h7.45L203.378,379.416z M189.53,373.412c0.315-0.307,0.472-0.676,0.472-1.117 s-0.157-0.811-0.472-1.119c-0.303-0.311-0.677-0.469-1.116-0.469c-0.439,0-0.813,0.158-1.117,0.469 c-0.314,0.309-0.471,0.678-0.471,1.119s0.157,0.811,0.471,1.117c0.304,0.313,0.677,0.471,1.117,0.471 C188.854,373.883,189.227,373.725,189.53,373.412z M208.095,379.416l-7.86,7.859l-0.786-0.787l7.073-7.072l-11.003-11.004h1.571 L208.095,379.416z"/> <g id="XMLID_4_"> <g> <polygon fill="#9CCC65" points="440.96,220.671 440.96,267.255 382.186,218.221 "/> <polygon fill="#D4E157" points="437.323,187.172 440.96,220.671 385.126,184.53 418.181,150.61 "/> <polygon fill="#9CCC65" points="440.96,267.255 422.009,300.693 366.688,274.629 395.723,255.487 "/> <polygon fill="#FFEE58" points="440.96,220.671 382.186,218.221 385.126,184.53 "/> <polygon fill="#D4E157" points="440.96,267.255 395.723,255.487 382.186,218.221 "/> <polygon fill="#81C784" points="422.009,300.693 387.806,312.944 366.688,274.629 "/> <polygon fill="#FFEE58" points="418.181,150.61 385.126,184.53 342.125,156.583 "/> <polygon fill="#FFCA28" points="418.181,150.61 342.125,156.583 393.487,128.979 "/> <polygon fill="#D4E157" points="382.186,218.221 395.723,255.487 366.688,274.629 "/> <polygon fill="#FFCA28" points="382.951,106.966 393.487,128.979 339.567,122.525 "/> <polygon fill="#FFA726" points="393.487,128.979 342.125,156.583 339.567,122.525 "/> <polygon fill="#66BB6A" points="387.806,312.944 389.85,338.717 345.632,324.651 "/> <polygon fill="#81C784" points="389.85,338.717 364.835,365.264 345.632,324.651 "/> <polygon fill="#9CCC65" points="366.688,274.629 387.806,312.944 345.632,324.651 "/> <polygon fill="#FFCA28" points="385.126,184.53 382.186,218.221 333.144,206.896 "/> <polygon fill="#FFA726" points="385.126,184.53 333.144,206.896 306.773,181.828 342.125,156.583 "/> <polygon fill="#FF7043" points="352.714,75.381 382.951,106.966 301.03,103.283 316.153,62.173 "/> <polygon fill="#FFA726" points="382.951,106.966 339.567,122.525 301.03,103.283 "/> <polygon fill="#FFEE58" points="382.186,218.221 366.688,274.629 344.958,249.453 333.144,206.896 "/> <polygon fill="#9CCC65" points="344.958,249.453 366.688,274.629 309.706,284.354 "/> <polygon fill="#66BB6A" points="366.688,274.629 345.632,324.651 309.706,284.354 "/> <polygon fill="#66BB6A" points="345.632,324.651 364.835,365.264 320.417,345.723 "/> <polygon fill="#81C784" points="364.835,365.264 335.479,379.046 320.417,345.723 "/> <polygon fill="#66BB6A" points="309.706,284.354 345.632,324.651 290.693,328.097 "/> <polygon fill="#66BB6A" points="345.632,324.651 320.417,345.723 290.693,328.097 "/> <polygon fill="#FFF176" points="333.144,206.896 344.958,249.453 297.485,248.014 "/> <polygon fill="#81C784" points="344.958,249.453 309.706,284.354 297.485,248.014 "/> <polygon fill="#EF5350" points="339.567,122.525 342.125,156.583 271.682,135.281 "/> <polygon fill="#FF7043" points="342.125,156.583 306.773,181.828 271.682,135.281 "/> <polygon fill="#FF7043" points="339.567,122.525 271.682,135.281 301.03,103.283 "/> <polygon fill="#66BB6A" points="320.417,345.723 335.479,379.046 265.801,366.534 "/> <polygon fill="#4FC3F7" points="335.479,379.046 326.298,401.251 320.678,414.772 297.202,410.562 "/> <polygon fill="#4DD0E1" points="335.479,379.046 297.202,410.562 276.528,382.231 265.801,366.534 "/> <polygon fill="#FFB74D" points="328.595,436.212 333.189,449.489 299.499,427.789 320.678,414.772 "/> <polygon fill="#FF7043" points="333.189,449.489 332.807,459.565 327.324,457.161 "/> <polygon fill="#FF7043" points="333.189,449.489 327.324,457.161 319.407,467.521 313.664,449.611 "/> <polygon fill="#FFB74D" points="333.189,449.489 313.664,449.611 299.499,427.789 "/> <polygon fill="#DCE775" points="333.144,206.896 297.485,248.014 257.386,244.254 288.649,219.982 "/> <polygon fill="#FFF176" points="333.144,206.896 288.649,219.982 306.773,181.828 "/> <polygon fill="#EC407A" points="332.807,459.565 319.407,467.521 327.324,457.161 "/> <polygon fill="#CE93D8" points="320.678,414.772 299.499,427.789 297.202,410.562 "/> <polygon fill="#26A69A" points="320.417,345.723 265.801,366.534 290.693,328.097 "/> <polygon fill="#EF5350" points="316.153,62.173 301.03,103.283 242.585,108.98 "/> <polygon fill="#FF7043" points="316.153,62.173 242.585,108.98 262.746,56.178 "/> <polygon fill="#4DB6AC" points="297.485,248.014 309.706,284.354 257.386,244.254 "/> <polygon fill="#4DB6AC" points="309.706,284.354 290.693,328.097 257.386,300.724 "/> <polygon fill="#4DB6AC" points="309.706,284.354 257.386,300.724 257.386,244.254 "/> <polygon fill="#EC407A" points="271.682,135.281 306.773,181.828 260.579,179.561 "/> <polygon fill="#DCE775" points="306.773,181.828 288.649,219.982 220.442,205.97 "/> <polygon fill="#E57373" points="306.773,181.828 220.442,205.97 260.579,179.561 "/> <polygon fill="#EF5350" points="301.03,103.283 271.682,135.281 242.585,108.98 "/> <polygon fill="#81C784" points="290.693,328.097 265.801,366.534 232.884,352.369 "/> <polygon fill="#4DD0E1" points="290.693,328.097 232.884,352.369 257.386,300.724 "/> <polygon fill="#AED581" points="288.649,219.982 257.386,244.254 220.442,205.97 "/> <polygon fill="#EC407A" points="271.682,135.281 260.579,179.561 242.585,108.98 "/> <polygon fill="#EF5350" points="262.746,56.178 242.585,108.98 212.976,54.646 "/> <polygon fill="#F06292" points="242.585,108.98 260.579,179.561 260.495,179.53 205.067,160.028 "/> <polygon fill="#EC407A" points="260.579,179.561 220.442,205.97 205.067,160.028 260.495,179.53 "/> <polygon fill="#26C6DA" points="257.386,244.254 257.386,300.724 212.019,299.001 "/> <polygon fill="#7E57C2" points="220.442,205.97 257.386,244.254 196.729,251.329 196.706,251.268 "/> <polygon fill="#26A69A" points="257.386,244.254 212.019,299.001 196.729,251.329 "/> <polygon fill="#9FA8DA" points="257.386,300.724 232.884,352.369 225.227,333.993 "/> <polygon fill="#90CAF9" points="257.386,300.724 225.227,333.993 212.019,299.001 "/> <polygon fill="#EC407A" points="212.976,54.646 242.585,108.98 173.176,97.931 166.269,73.023 "/> <polygon fill="#EC407A" points="242.585,108.98 182.731,132.425 173.176,97.931 "/> <polygon fill="#9FA8DA" points="212.019,299.001 225.227,333.993 192.303,336.673 "/> <polygon fill="#26C6DA" points="212.019,299.001 192.303,336.673 158.421,284.354 "/> <polygon fill="#42A5F5" points="196.729,251.329 212.019,299.001 158.421,284.354 149.424,254.721 196.706,251.268 "/> <polygon fill="#F06292" points="155.282,198.535 205.067,160.028 220.442,205.97 "/> <polygon fill="#90CAF9" points="158.421,284.354 192.303,336.673 152.104,330.547 "/> <polygon fill="#E57373" points="155.282,147.501 182.731,132.425 242.585,108.98 205.067,160.028 "/> <polygon fill="#7986CB" points="155.282,198.535 220.442,205.97 196.706,251.268 149.424,254.721 "/> <polygon fill="#F06292" points="152.104,134.378 140.749,75.32 166.269,73.023 173.176,97.931 182.731,132.425 "/> <polygon fill="#B39DDB" points="130.665,313.319 158.421,284.354 152.104,330.547 "/> <polygon fill="#F06292" points="140.749,75.32 152.104,134.378 98.123,107.732 "/> <polygon fill="#4DD0E1" points="158.421,284.354 130.665,313.319 111.14,284.354 149.424,254.721 "/> <polygon fill="#AB47BC" points="118.544,167.685 152.104,134.378 182.731,132.425 155.282,147.501 "/> <polygon fill="#7E57C2" points="118.544,167.685 155.282,147.501 205.067,160.028 155.282,198.535 "/> <polygon fill="#7986CB" points="155.282,198.535 107.357,214.377 104.762,201.628 118.544,167.685 "/> <polygon fill="#90CAF9" points="110.122,227.914 149.424,254.721 111.14,284.354 "/> <polygon fill="#26C6DA" points="107.357,214.377 155.282,198.535 149.424,254.721 110.122,227.914 "/> <polygon fill="#B39DDB" points="110.122,227.914 111.14,284.354 69.792,269.805 "/> <polygon fill="#AB47BC" points="152.104,134.378 118.544,167.685 98.123,107.732 "/> <polygon fill="#26C6DA" points="110.122,227.914 69.792,269.805 51.416,246.834 "/> <polygon fill="#7E57C2" points="98.123,107.732 118.544,167.685 54.862,150.228 "/> <polygon fill="#42A5F5" points="107.357,214.377 110.122,227.914 51.416,246.834 104.762,201.628 "/> <polygon fill="#5C6BC0" points="118.544,167.685 104.762,201.628 36.355,189.155 54.862,150.228 "/> <polygon fill="#29B6F6" points="32.657,229.093 104.762,201.628 51.416,246.834 "/> <polygon fill="#29B6F6" points="36.355,189.155 104.762,201.628 32.657,229.093 "/> </g> <g> <polyline fill="none" stroke="#FFFFFF" stroke-width="0.2297" stroke-miterlimit="10" points="166.269,73.023 173.176,97.931 182.731,132.425 155.282,147.501 118.544,167.685 "/> <polygon fill="none" stroke="#FFFFFF" stroke-width="0.2297" stroke-miterlimit="10" points="262.746,56.178 316.153,62.173 352.714,75.381 382.951,106.966 393.487,128.979 418.181,150.61 437.323,187.172 440.96,220.671 440.96,267.255 422.009,300.693 387.806,312.944 389.85,338.717 364.835,365.264 335.479,379.046 326.298,401.251 320.678,414.772 328.595,436.212 333.189,449.489 332.807,459.565 319.407,467.521 313.664,449.611 299.499,427.789 297.202,410.562 276.528,382.231 265.801,366.534 232.884,352.369 225.227,333.993 192.303,336.673 152.104,330.547 130.665,313.319 111.14,284.354 69.792,269.805 51.416,246.834 32.657,229.093 36.355,189.155 54.862,150.228 98.123,107.732 140.749,75.32 166.269,73.023 212.976,54.646 "/> <polyline fill="none" stroke="#FFFFFF" stroke-width="0.2297" stroke-miterlimit="10" points="173.176,97.931 242.585,108.98 205.067,160.028 155.282,147.501 "/> <polyline fill="none" stroke="#FFFFFF" stroke-width="0.2297" stroke-miterlimit="10" points="140.749,75.32 152.104,134.378 98.123,107.732 118.544,167.685 152.104,134.378 "/> <polyline fill="none" stroke="#FFFFFF" stroke-width="0.2297" stroke-miterlimit="10" points="54.862,150.228 118.544,167.685 104.762,201.628 51.416,246.834 110.122,227.914 "/> <polyline fill="none" stroke="#FFFFFF" stroke-width="0.2297" stroke-miterlimit="10" points="36.355,189.155 104.762,201.628 32.657,229.093 "/> <polyline fill="none" stroke="#FFFFFF" stroke-width="0.2297" stroke-miterlimit="10" points="118.544,167.685 155.282,198.535 205.067,160.028 220.442,205.97 "/> <polyline fill="none" stroke="#FFFFFF" stroke-width="0.2297" stroke-miterlimit="10" points="104.762,201.628 107.357,214.377 110.122,227.914 149.424,254.721 155.282,198.535 107.357,214.377 "/> <polyline fill="none" stroke="#FFFFFF" stroke-width="0.2297" stroke-miterlimit="10" points="69.792,269.805 110.122,227.914 111.14,284.354 149.424,254.721 158.421,284.354 "/> <polyline fill="none" stroke="#FFFFFF" stroke-width="0.2297" stroke-miterlimit="10" points="130.665,313.319 158.421,284.354 152.104,330.547 "/> <polygon fill="none" stroke="#FFFFFF" stroke-width="0.2297" stroke-miterlimit="10" points="192.303,336.673 158.421,284.354 212.019,299.001 "/> <polygon fill="none" stroke="#FFFFFF" stroke-width="0.2297" stroke-miterlimit="10" points="257.386,300.724 212.019,299.001 225.227,333.993 "/> <polygon fill="none" stroke="#FFFFFF" stroke-width="0.2297" stroke-miterlimit="10" points="232.884,352.369 257.386,300.724 290.693,328.097 "/> <polyline fill="none" stroke="#FFFFFF" stroke-width="0.2297" stroke-miterlimit="10" points="319.407,467.521 327.324,457.161 333.189,449.489 299.499,427.789 320.678,414.772 297.202,410.562 335.479,379.046 265.801,366.534 290.693,328.097 309.706,284.354 257.386,300.724 257.386,244.254 212.019,299.001 196.729,251.329 196.706,251.268 149.424,254.721 "/> <line fill="none" stroke="#FFFFFF" stroke-width="0.2297" stroke-miterlimit="10" x1="313.664" y1="449.611" x2="333.189" y2="449.489"/> <line fill="none" stroke="#FFFFFF" stroke-width="0.2297" stroke-miterlimit="10" x1="332.807" y1="459.565" x2="327.324" y2="457.161"/> <polyline fill="none" stroke="#FFFFFF" stroke-width="0.2297" stroke-miterlimit="10" points="155.282,198.535 220.442,205.97 196.706,251.268 "/> <polyline fill="none" stroke="#FFFFFF" stroke-width="0.2297" stroke-miterlimit="10" points="335.479,379.046 320.417,345.723 290.693,328.097 345.632,324.651 "/> <polyline fill="none" stroke="#FFFFFF" stroke-width="0.2297" stroke-miterlimit="10" points="389.85,338.717 345.632,324.651 320.417,345.723 "/> <polyline fill="none" stroke="#FFFFFF" stroke-width="0.2297" stroke-miterlimit="10" points="422.009,300.693 366.688,274.629 387.806,312.944 345.632,324.651 "/> <polyline fill="none" stroke="#FFFFFF" stroke-width="0.2297" stroke-miterlimit="10" points="265.801,366.534 320.417,345.723 364.835,365.264 345.632,324.651 309.706,284.354 297.485,248.014 344.958,249.453 366.688,274.629 395.723,255.487 440.96,267.255 382.186,218.221 440.96,220.671 385.126,184.53 418.181,150.61 342.125,156.583 393.487,128.979 339.567,122.525 382.951,106.966 301.03,103.283 316.153,62.173 242.585,108.98 182.731,132.425 152.104,134.378 "/> <polyline fill="none" stroke="#FFFFFF" stroke-width="0.2297" stroke-miterlimit="10" points="257.386,244.254 297.485,248.014 333.144,206.896 288.649,219.982 257.386,244.254 196.729,251.329 195.618,251.459 "/> <polyline fill="none" stroke="#FFFFFF" stroke-width="0.2297" stroke-miterlimit="10" points="345.632,324.651 366.688,274.629 309.706,284.354 344.958,249.453 333.144,206.896 382.186,218.221 366.688,274.629 "/> <polyline fill="none" stroke="#FFFFFF" stroke-width="0.2297" stroke-miterlimit="10" points="205.067,160.028 260.495,179.53 260.579,179.561 242.585,108.98 271.682,135.281 260.579,179.561 "/> <polyline fill="none" stroke="#FFFFFF" stroke-width="0.2297" stroke-miterlimit="10" points="309.706,284.354 257.386,244.254 220.442,205.97 288.649,219.982 306.773,181.828 342.125,156.583 385.126,184.53 333.144,206.896 306.773,181.828 271.682,135.281 342.125,156.583 339.567,122.525 "/> <polygon fill="none" stroke="#FFFFFF" stroke-width="0.2297" stroke-miterlimit="10" points="260.579,179.561 220.442,205.97 306.773,181.828 "/> <polygon fill="none" stroke="#FFFFFF" stroke-width="0.2297" stroke-miterlimit="10" points="301.03,103.283 339.567,122.525 271.682,135.281 "/> <polyline fill="none" stroke="#FFFFFF" stroke-width="0.2297" stroke-miterlimit="10" points="395.723,255.487 382.186,218.221 385.126,184.53 "/> <polyline fill="none" stroke="#FFFFFF" stroke-width="0.2297" stroke-miterlimit="10" points="212.976,54.646 242.585,108.98 301.03,103.283 "/> <line fill="none" stroke="#FFFFFF" stroke-width="0.2297" stroke-miterlimit="10" x1="262.746" y1="56.178" x2="242.585" y2="108.98"/> </g> </g> <g> <circle fill="#FFFFFF" stroke="#E0E0E0" stroke-miterlimit="10" cx="225.221" cy="333.996" r="3.446"/> <circle fill="#FFFFFF" stroke="#E0E0E0" stroke-miterlimit="10" cx="232.878" cy="352.371" r="3.446"/> <circle fill="#FFFFFF" stroke="#E0E0E0" stroke-miterlimit="10" cx="265.803" cy="366.537" r="3.445"/> <circle fill="#FFFFFF" stroke="#E0E0E0" stroke-miterlimit="10" cx="297.197" cy="410.564" r="3.445"/> <circle fill="#FFFFFF" stroke="#E0E0E0" stroke-miterlimit="10" cx="299.493" cy="427.791" r="3.446"/> <circle fill="#FFFFFF" stroke="#E0E0E0" stroke-miterlimit="10" cx="313.659" cy="449.613" r="3.446"/> <circle fill="#FFFFFF" stroke="#E0E0E0" stroke-miterlimit="10" cx="319.401" cy="467.525" r="3.446"/> <circle fill="#FFFFFF" stroke="#E0E0E0" stroke-miterlimit="10" cx="332.8" cy="459.568" r="3.446"/> <circle fill="#FFFFFF" stroke="#E0E0E0" stroke-miterlimit="10" cx="333.183" cy="449.486" r="3.446"/> <circle fill="#FFFFFF" stroke="#E0E0E0" stroke-miterlimit="10" cx="320.677" cy="414.775" r="3.446"/> <circle fill="#FFFFFF" stroke="#E0E0E0" stroke-miterlimit="10" cx="335.481" cy="379.043" r="3.445"/> <path fill="#FFFFFF" stroke="#E0E0E0" stroke-miterlimit="10" d="M368.275,365.262c0,1.902-1.541,3.443-3.442,3.443 c-1.905,0-3.446-1.541-3.446-3.443s1.541-3.447,3.446-3.447C366.734,361.814,368.275,363.359,368.275,365.262z"/> <circle fill="#FFFFFF" stroke="#E0E0E0" stroke-miterlimit="10" cx="389.845" cy="338.719" r="3.446"/> <circle fill="#FFFFFF" stroke="#E0E0E0" stroke-miterlimit="10" cx="387.803" cy="312.939" r="3.446"/> <circle fill="#FFFFFF" stroke="#E0E0E0" stroke-miterlimit="10" cx="422.003" cy="300.689" r="3.446"/> <circle fill="#FFFFFF" stroke="#E0E0E0" stroke-miterlimit="10" cx="440.955" cy="267.252" r="3.446"/> <circle fill="#FFFFFF" stroke="#E0E0E0" stroke-miterlimit="10" cx="440.955" cy="220.673" r="3.446"/> <circle fill="#FFFFFF" stroke="#E0E0E0" stroke-miterlimit="10" cx="437.317" cy="187.175" r="3.446"/> <circle fill="#FFFFFF" stroke="#E0E0E0" stroke-miterlimit="10" cx="418.174" cy="150.614" r="3.447"/> <circle fill="#FFFFFF" stroke="#E0E0E0" stroke-miterlimit="10" cx="393.481" cy="128.982" r="3.446"/> <circle fill="#FFFFFF" stroke="#E0E0E0" stroke-miterlimit="10" cx="382.952" cy="106.969" r="3.446"/> <circle fill="#FFFFFF" stroke="#E0E0E0" stroke-miterlimit="10" cx="352.708" cy="75.385" r="3.445"/> <circle fill="#FFFFFF" stroke="#E0E0E0" stroke-miterlimit="10" cx="316.147" cy="62.177" r="3.444"/> <circle fill="#FFFFFF" stroke="#E0E0E0" stroke-miterlimit="10" cx="212.971" cy="54.647" r="3.446"/> <circle fill="#FFFFFF" stroke="#E0E0E0" stroke-miterlimit="10" cx="166.264" cy="73.023" r="3.445"/> <circle fill="#FFFFFF" stroke="#E0E0E0" stroke-miterlimit="10" cx="140.741" cy="75.321" r="3.445"/> <circle fill="#FFFFFF" stroke="#E0E0E0" stroke-miterlimit="10" cx="98.117" cy="107.735" r="3.446"/> <circle fill="#FFFFFF" stroke="#E0E0E0" stroke-miterlimit="10" cx="182.726" cy="132.428" r="3.446"/> <circle fill="#FFFFFF" stroke="#E0E0E0" stroke-miterlimit="10" cx="152.098" cy="134.378" r="3.446"/> <circle fill="#FFFFFF" stroke="#E0E0E0" stroke-miterlimit="10" cx="155.279" cy="147.503" r="3.446"/> <circle fill="#FFFFFF" stroke="#E0E0E0" stroke-miterlimit="10" cx="118.536" cy="167.686" r="3.445"/> <circle fill="#FFFFFF" stroke="#E0E0E0" stroke-miterlimit="10" cx="205.059" cy="160.028" r="3.446"/> <circle fill="#FFFFFF" stroke="#E0E0E0" stroke-miterlimit="10" cx="155.279" cy="198.532" r="3.446"/> <circle fill="#FFFFFF" stroke="#E0E0E0" stroke-miterlimit="10" cx="104.754" cy="201.628" r="3.446"/> <circle fill="#FFFFFF" stroke="#E0E0E0" stroke-miterlimit="10" cx="107.353" cy="214.381" r="3.446"/> <circle fill="#FFFFFF" stroke="#E0E0E0" stroke-miterlimit="10" cx="110.113" cy="227.917" r="3.445"/> <circle fill="#FFFFFF" stroke="#E0E0E0" stroke-miterlimit="10" cx="149.418" cy="254.717" r="3.445"/> <circle fill="#FFFFFF" stroke="#E0E0E0" stroke-miterlimit="10" cx="158.415" cy="284.354" r="3.446"/> <circle fill="#FFFFFF" stroke="#E0E0E0" stroke-miterlimit="10" cx="212.013" cy="299" r="3.446"/> <circle fill="#FFFFFF" stroke="#E0E0E0" stroke-miterlimit="10" cx="257.381" cy="300.723" r="3.445"/> <circle fill="#FFFFFF" stroke="#E0E0E0" stroke-miterlimit="10" cx="290.688" cy="328.096" r="3.445"/> <circle fill="#FFFFFF" stroke="#E0E0E0" stroke-miterlimit="10" cx="345.626" cy="324.652" r="3.444"/> <circle fill="#FFFFFF" stroke="#E0E0E0" stroke-miterlimit="10" cx="320.409" cy="345.723" r="3.444"/> <circle fill="#FFFFFF" stroke="#E0E0E0" stroke-miterlimit="10" cx="366.682" cy="274.627" r="3.446"/> <circle fill="#FFFFFF" stroke="#E0E0E0" stroke-miterlimit="10" cx="395.715" cy="255.484" r="3.445"/> <circle fill="#FFFFFF" stroke="#E0E0E0" stroke-miterlimit="10" cx="382.188" cy="218.222" r="3.445"/> <circle fill="#FFFFFF" stroke="#E0E0E0" stroke-miterlimit="10" cx="385.124" cy="184.532" r="3.446"/> <circle fill="#FFFFFF" stroke="#E0E0E0" stroke-miterlimit="10" cx="342.118" cy="156.583" r="3.446"/> <circle fill="#FFFFFF" stroke="#E0E0E0" stroke-miterlimit="10" cx="339.565" cy="122.524" r="3.444"/> <circle fill="#FFFFFF" stroke="#E0E0E0" stroke-miterlimit="10" cx="301.025" cy="103.284" r="3.445"/> <circle fill="#FFFFFF" stroke="#E0E0E0" stroke-miterlimit="10" cx="271.674" cy="135.279" r="3.445"/> <circle fill="#FFFFFF" stroke="#E0E0E0" stroke-miterlimit="10" cx="260.572" cy="179.563" r="3.446"/> <circle fill="#FFFFFF" stroke="#E0E0E0" stroke-miterlimit="10" cx="306.768" cy="181.824" r="3.445"/> <circle fill="#FFFFFF" stroke="#E0E0E0" stroke-miterlimit="10" cx="288.646" cy="219.981" r="3.445"/> <path fill="#FFFFFF" stroke="#E0E0E0" stroke-miterlimit="10" d="M336.58,206.897c0,1.903-1.543,3.445-3.447,3.445 c-1.9,0-3.445-1.542-3.445-3.445s1.545-3.446,3.445-3.446C335.037,203.451,336.58,204.995,336.58,206.897z"/> <circle fill="#FFFFFF" stroke="#E0E0E0" stroke-miterlimit="10" cx="344.95" cy="249.451" r="3.444"/> <circle fill="#FFFFFF" stroke="#E0E0E0" stroke-miterlimit="10" cx="297.478" cy="248.013" r="3.446"/> <circle fill="#FFFFFF" stroke="#E0E0E0" stroke-miterlimit="10" cx="309.703" cy="284.354" r="3.445"/> <circle fill="#FFFFFF" stroke="#E0E0E0" stroke-miterlimit="10" cx="257.381" cy="244.254" r="3.445"/> <circle fill="#FFFFFF" stroke="#E0E0E0" stroke-miterlimit="10" cx="196.7" cy="251.271" r="3.446"/> <circle fill="#FFFFFF" stroke="#E0E0E0" stroke-miterlimit="10" cx="220.436" cy="205.97" r="3.446"/> <circle fill="#FFFFFF" stroke="#E0E0E0" stroke-miterlimit="10" cx="173.167" cy="97.934" r="3.446"/> <circle fill="#FFFFFF" stroke="#E0E0E0" stroke-miterlimit="10" cx="242.577" cy="108.982" r="3.445"/> <circle fill="#FFFFFF" stroke="#E0E0E0" stroke-miterlimit="10" cx="54.856" cy="150.23" r="3.446"/> <circle fill="#FFFFFF" stroke="#E0E0E0" stroke-miterlimit="10" cx="36.352" cy="189.153" r="3.446"/> <circle fill="#FFFFFF" stroke="#E0E0E0" stroke-miterlimit="10" cx="32.651" cy="229.095" r="3.446"/> <circle fill="#FFFFFF" stroke="#E0E0E0" stroke-miterlimit="10" cx="51.41" cy="246.835" r="3.446"/> <circle fill="#FFFFFF" stroke="#E0E0E0" stroke-miterlimit="10" cx="69.787" cy="269.806" r="3.446"/> <circle fill="#FFFFFF" stroke="#E0E0E0" stroke-miterlimit="10" cx="111.135" cy="284.354" r="3.446"/> <circle fill="#FFFFFF" stroke="#E0E0E0" stroke-miterlimit="10" cx="130.659" cy="313.32" r="3.446"/> <circle fill="#FFFFFF" stroke="#E0E0E0" stroke-miterlimit="10" cx="152.098" cy="330.549" r="3.446"/> <circle fill="#FFFFFF" stroke="#E0E0E0" stroke-miterlimit="10" cx="192.297" cy="336.676" r="3.445"/> <circle fill="#FFFFFF" stroke="#E0E0E0" stroke-miterlimit="10" cx="262.74" cy="56.178" r="3.445"/> </g> </svg>