<?xml version="1.0" standalone="no"?>
<!DOCTYPE svg PUBLIC "-//W3C//DTD SVG 20010904//EN"
 "http://www.w3.org/TR/2001/REC-SVG-20010904/DTD/svg10.dtd">
<svg version="1.0" xmlns="http://www.w3.org/2000/svg"
 width="1500.000000pt" height="1500.000000pt" viewBox="0 0 1500.000000 1500.000000"
 preserveAspectRatio="xMidYMid meet">

<g transform="translate(0.000000,1500.000000) scale(0.100000,-0.100000)"
fill="#000000" stroke="none">
<path d="M7396 12333 c-132 -561 -205 -940 -251 -1296 l-6 -47 93 49 c184 98
449 191 544 191 30 0 34 3 34 25 0 78 -129 741 -196 1010 -32 126 -114 416
-123 432 -4 7 -46 -157 -95 -364z m133 -318 c43 -154 126 -546 137 -647 7 -57
6 -57 -22 -63 -94 -19 -161 -42 -253 -86 -57 -27 -106 -48 -108 -45 -13 12 57
387 133 721 61 263 64 278 69 273 2 -2 22 -70 44 -153z"/>
<path d="M7745 11043 c-156 -22 -453 -142 -613 -246 -88 -58 -112 -116 -149
-351 -29 -187 -21 -599 13 -719 5 -14 9 -16 20 -6 8 6 63 33 122 59 59 27 179
82 267 123 254 118 410 170 516 171 l67 1 6 65 c10 104 7 371 -5 482 -20 183
-82 383 -126 406 -24 13 -81 21 -118 15z m-31 -228 c23 -23 55 -117 71 -212
16 -89 21 -409 7 -428 -4 -5 -32 -11 -62 -12 -84 -3 -250 -67 -573 -223 -20
-9 -39 -15 -41 -11 -3 3 -10 54 -17 111 -20 178 1 435 46 548 21 51 67 85 193
145 181 85 338 119 376 82z"/>
<path d="M7794 9870 c-104 -27 -273 -95 -489 -197 -104 -50 -207 -96 -229
-104 -48 -17 -87 -61 -130 -147 -134 -266 -199 -698 -146 -962 17 -80 50 -180
61 -180 5 0 69 25 142 56 431 181 949 350 1143 371 l69 8 5 115 c12 272 -20
575 -82 770 -44 141 -102 256 -138 275 -39 20 -119 18 -206 -5z m84 -186 c50
-34 113 -199 143 -373 23 -134 35 -348 25 -442 l-7 -66 -57 -6 c-31 -4 -93
-16 -137 -27 -177 -46 -590 -192 -759 -269 -38 -17 -72 -31 -76 -31 -4 0 -17
35 -30 77 -63 211 -19 570 96 793 46 90 53 97 125 126 35 14 95 42 134 61 184
93 401 172 475 173 26 0 55 -7 68 -16z"/>
<path d="M2183 9625 c-56 -40 -111 -192 -134 -370 -19 -144 -16 -541 5 -749
98 -951 371 -1640 823 -2076 129 -125 227 -199 391 -297 98 -58 108 -62 127
-48 37 26 125 75 135 75 27 0 0 22 -102 83 -148 88 -381 255 -489 349 -294
258 -522 670 -684 1237 -104 365 -130 553 -122 891 7 285 33 416 103 507 20
27 32 33 62 33 80 0 284 -113 686 -380 126 -83 295 -192 375 -242 576 -358
1036 -727 1249 -1004 l63 -81 77 4 c110 6 137 11 155 31 16 17 10 26 -90 138
-261 294 -597 606 -929 865 -484 378 -1176 828 -1529 995 -112 53 -143 60
-172 39z"/>
<path d="M12710 9617 c-214 -88 -753 -415 -1155 -700 -632 -449 -1032 -802
-1445 -1275 -119 -137 -227 -279 -218 -287 2 -2 26 2 53 10 83 25 152 16 219
-30 42 -29 46 -30 46 -12 0 27 80 176 141 262 78 109 303 338 459 467 238 197
510 388 850 600 102 64 273 174 380 245 443 295 631 390 698 354 32 -17 80
-126 103 -231 13 -64 22 -153 26 -275 11 -353 -34 -640 -168 -1061 -152 -478
-374 -856 -639 -1090 -120 -106 -401 -303 -556 -390 -35 -20 -64 -40 -64 -46
0 -6 8 -7 18 -3 158 64 219 70 281 26 l32 -23 51 31 c491 306 843 880 1018
1662 145 650 165 1403 44 1669 -28 60 -79 120 -103 120 -9 0 -41 -11 -71 -23z"/>
<path d="M8125 8523 c-208 -31 -810 -234 -1185 -398 -120 -53 -144 -71 -176
-140 -34 -72 -30 -79 24 -38 73 56 128 77 197 76 52 0 85 9 245 73 343 135
649 229 783 241 l67 6 40 -41 c75 -79 124 -311 101 -474 -16 -117 -47 -175
-113 -215 -44 -27 -141 -69 -220 -96 -12 -4 -18 -17 -18 -37 l0 -31 63 44
c112 80 142 91 237 92 69 0 92 4 120 22 56 34 80 66 107 140 31 84 42 274 24
405 -22 148 -82 301 -140 352 -22 20 -95 29 -156 19z"/>
<path d="M6775 7522 c-38 -14 -72 -27 -73 -28 -2 -2 -1 -21 3 -43 6 -36 13
-45 53 -68 26 -14 78 -49 115 -76 l68 -50 87 6 c75 5 279 36 350 52 17 4 22
12 22 38 l0 33 -102 -18 c-57 -10 -156 -21 -220 -24 -100 -6 -121 -5 -142 10
-36 23 -55 65 -63 136 -3 34 -11 60 -17 59 -6 0 -42 -12 -81 -27z"/>
<path d="M9606 7495 c-14 -38 -4 -95 34 -180 22 -49 40 -90 40 -92 0 -6 -86
29 -131 54 -27 14 -50 24 -52 22 -1 -2 -8 -20 -15 -38 -14 -42 -17 -39 91 -81
l78 -30 57 62 c37 40 56 69 54 82 -6 51 -38 133 -67 170 -34 45 -78 60 -89 31z"/>
<path d="M7196 7129 c-60 -71 -46 -175 43 -315 12 -18 9 -27 -34 -85 -44 -59
-130 -217 -123 -224 2 -2 15 -1 29 2 20 4 32 17 50 56 30 64 85 143 157 224
52 59 83 76 97 54 9 -16 110 -34 149 -27 85 16 89 87 8 195 -29 39 -113 81
-163 81 -49 0 -64 -34 -55 -123 7 -61 6 -63 -25 -92 -25 -24 -31 -26 -25 -10
17 46 26 123 20 160 -12 73 -54 135 -92 135 -6 0 -22 -14 -36 -31z"/>
<path d="M5527 6983 c-4 -3 -7 -21 -7 -39 l0 -33 -62 -3 c-57 -3 -63 -5 -66
-25 -2 -16 4 -26 22 -35 14 -6 26 -14 26 -17 0 -4 -27 -18 -59 -32 -67 -30
-98 -67 -82 -97 25 -47 138 -66 248 -41 47 11 49 11 123 -35 43 -27 66 -46 55
-46 -11 0 -60 -5 -110 -10 -186 -21 -235 -41 -235 -95 0 -36 32 -49 105 -42
81 8 181 45 246 92 l53 37 65 -21 c83 -27 89 -26 129 8 l32 28 -57 12 c-75 17
-186 63 -253 105 l-53 34 2 79 c2 85 -8 125 -41 161 -20 21 -67 30 -81 15z"/>
<path d="M6028 6733 c-58 -15 49 -102 169 -138 49 -15 53 -8 24 39 -43 69
-133 115 -193 99z"/>
<path d="M4434 6679 c-42 -12 -47 -39 -20 -92 28 -52 105 -102 185 -117 31 -6
67 -15 81 -20 21 -7 16 -9 -25 -9 -70 -2 -176 -18 -272 -42 l-83 -20 -39 31
c-21 17 -56 38 -77 45 -68 23 -94 -9 -94 -119 0 -52 5 -70 33 -116 43 -71 78
-97 114 -84 38 13 70 65 84 135 13 66 5 61 159 96 82 18 315 28 406 17 l69 -8
-92 -7 c-107 -8 -166 -32 -213 -86 -17 -19 -29 -37 -27 -40 3 -2 22 0 44 7 21
6 83 13 138 16 l100 6 46 50 45 51 94 -27 c86 -25 165 -54 278 -103 l43 -18
-100 0 c-57 0 -105 -5 -111 -11 -7 -7 21 -26 96 -63 l106 -53 59 39 59 39 92
-22 c51 -12 127 -30 168 -39 41 -10 93 -26 115 -38 35 -17 37 -21 20 -27 -11
-4 -45 -11 -75 -15 -30 -3 -72 -11 -92 -16 -28 -7 -45 -6 -66 5 -52 27 -146
41 -180 27 -42 -17 -67 -76 -58 -137 8 -62 53 -142 90 -161 27 -14 33 -14 63
3 39 20 94 91 123 157 23 51 7 46 240 86 63 11 132 26 154 34 l38 13 -27 18
c-24 16 -36 17 -71 9 -35 -8 -46 -7 -65 9 -48 38 -96 56 -214 82 -73 16 -175
49 -265 85 -236 96 -215 84 -230 138 -36 134 -101 222 -182 243 -87 24 -116
-35 -62 -127 26 -44 130 -123 162 -123 9 0 13 -2 10 -5 -2 -3 -47 6 -99 19
-88 23 -228 43 -328 49 -43 2 -46 4 -85 69 -83 137 -173 194 -262 167z"/>
<path d="M6380 6599 c-36 -10 -77 -18 -92 -18 -37 -1 -35 -11 12 -43 37 -26
40 -26 90 -13 29 8 53 15 55 17 7 9 15 78 8 77 -4 -1 -37 -10 -73 -20z"/>
<path d="M7440 6553 c-14 -2 -54 -14 -90 -25 l-65 -21 45 -19 c25 -11 62 -35
82 -55 33 -32 41 -35 74 -30 51 8 74 32 74 77 0 56 -48 85 -120 73z"/>
<path d="M6966 6509 c-9 -45 -8 -47 14 -54 12 -4 32 3 54 18 l35 23 -45 22
c-24 12 -46 22 -48 22 -2 0 -6 -14 -10 -31z"/>
<path d="M6417 6463 c-15 -18 -15 -21 13 -62 l29 -44 -6 44 c-3 24 -9 52 -12
62 -7 17 -8 17 -24 0z"/>
<path d="M7885 6397 c-52 -25 -118 -89 -130 -126 -3 -12 -15 -21 -25 -21 -28
0 -116 19 -189 41 -35 11 -65 18 -66 17 -1 -2 0 -20 2 -40 5 -35 8 -38 61 -53
72 -21 196 -45 233 -45 24 0 34 -8 52 -37 l22 -38 6 40 c3 22 13 54 22 72 l17
32 -58 3 -57 3 80 41 c88 46 129 82 123 111 -5 26 -36 26 -93 0z"/>
<path d="M5881 6376 c-14 -17 -5 -43 22 -57 19 -11 20 -9 13 21 -3 18 -6 36
-6 41 0 14 -16 11 -29 -5z"/>
<path d="M10110 6107 c0 -31 7 -41 66 -88 60 -49 65 -56 60 -84 -30 -164 -31
-183 -10 -231 26 -63 74 -90 133 -74 68 18 100 84 70 143 -6 12 -41 53 -78 90
l-66 69 55 -35 c97 -61 221 -118 340 -157 63 -21 156 -56 207 -78 135 -60 225
-85 284 -80 87 9 129 77 77 125 -32 29 -55 39 -120 53 -32 7 -58 17 -58 22 0
4 5 8 11 8 6 0 9 10 7 22 -3 25 -52 57 -92 60 -20 2 -25 6 -20 18 4 8 9 32 12
53 4 35 2 37 -23 37 -43 0 -89 -34 -160 -121 -37 -43 -71 -79 -76 -79 -24 0
-212 76 -289 117 -89 48 -162 100 -267 191 l-63 54 0 -35z"/>
<path d="M8360 5320 c-69 -11 -291 -53 -495 -95 -453 -92 -546 -107 -658 -108
-78 0 -90 2 -112 23 -20 19 -27 21 -40 10 -21 -17 -19 -56 4 -79 41 -41 205
-40 431 3 69 13 127 22 130 19 20 -18 28 -862 10 -1108 -38 -513 -116 -779
-255 -860 -55 -33 -111 -32 -177 1 -50 25 -52 26 -65 8 -12 -17 -11 -22 14
-41 15 -13 61 -35 102 -50 307 -112 527 133 605 672 41 287 59 733 46 1150 -5
159 -8 290 -6 292 2 2 93 23 202 48 360 80 521 94 594 53 44 -25 64 -18 49 19
-24 63 -155 78 -379 43z"/>
<path d="M5653 5265 l-33 -14 0 -255 c0 -156 -4 -257 -10 -261 -34 -21 -170
-309 -229 -483 -114 -342 -166 -744 -126 -976 25 -142 66 -201 148 -212 173
-24 306 186 372 586 8 52 18 106 21 118 4 21 16 8 83 -88 239 -342 468 -574
608 -616 54 -16 116 -6 147 25 l20 21 -21 27 c-12 17 -28 27 -39 25 -51 -8
-104 1 -154 25 -97 47 -324 288 -513 545 l-57 77 103 -6 c110 -6 176 6 290 52
190 78 386 281 496 516 127 270 118 503 -25 646 -70 70 -128 92 -337 129 -173
30 -309 6 -461 -81 -44 -25 -81 -45 -83 -45 -2 0 -3 44 -3 98 0 118 -5 136
-36 151 -34 15 -122 13 -161 -4z m760 -214 c85 -33 137 -77 174 -148 39 -76
49 -151 35 -252 -16 -111 -86 -300 -143 -385 -53 -80 -167 -199 -247 -258
-133 -98 -352 -166 -404 -125 -15 11 -15 25 -2 152 9 80 17 307 21 528 l6 388
31 24 c34 26 157 80 216 95 65 17 249 5 313 -19z m-802 -751 c-24 -552 -62
-884 -121 -1054 -22 -65 -55 -116 -75 -116 -28 0 -64 60 -81 136 -22 102 -14
407 15 564 44 239 129 520 208 690 65 139 69 122 54 -220z"/>
<path d="M4405 5225 c-115 -30 -196 -184 -379 -715 -37 -107 -83 -240 -102
-295 l-35 -100 -97 -50 c-240 -124 -478 -356 -573 -558 -57 -124 -79 -279 -49
-342 35 -70 161 -96 255 -51 160 76 282 281 466 786 l67 185 48 27 c54 31 267
103 334 114 l43 7 -6 -59 c-23 -246 -30 -462 -19 -582 29 -325 118 -413 355
-353 102 26 131 43 202 115 106 107 225 313 320 555 51 130 54 144 24 139 -16
-2 -33 -32 -78 -143 -167 -405 -329 -615 -475 -615 -49 0 -89 39 -111 111 -32
99 -31 470 2 782 6 56 6 57 38 57 52 0 127 -27 168 -60 33 -28 37 -37 37 -76
0 -36 3 -44 19 -44 34 0 41 51 14 107 -23 49 -91 89 -185 110 -58 12 -78 21
-78 32 0 9 7 81 15 161 39 381 38 619 -3 699 -34 66 -109 85 -217 56z m50
-151 c8 -125 1 -220 -41 -570 l-27 -222 -114 -27 c-62 -15 -150 -43 -195 -61
-45 -18 -84 -31 -86 -29 -6 5 165 525 214 653 58 150 126 280 173 331 61 66
68 59 76 -75z m-637 -1136 c-81 -289 -261 -651 -366 -738 -52 -43 -95 -55
-143 -41 -58 17 -79 51 -79 126 0 198 172 449 430 628 47 33 160 96 172 97 3
0 -3 -33 -14 -72z"/>
<path d="M10129 4507 c-104 -79 -192 -327 -244 -687 -17 -116 -49 -209 -127
-365 -99 -196 -208 -295 -262 -236 -32 35 -38 87 -45 371 -6 237 -10 292 -25
325 -27 63 -53 85 -101 85 -98 0 -216 -142 -326 -392 l-50 -113 3 193 3 193
-35 9 c-32 8 -103 0 -117 -14 -3 -3 -8 -47 -10 -98 -5 -89 -8 -98 -64 -208
-113 -223 -158 -274 -174 -198 -7 32 0 211 14 325 8 73 8 73 -80 73 -54 0 -60
-2 -69 -25 -16 -43 -30 -298 -20 -382 13 -119 32 -153 81 -153 58 0 128 85
244 297 l65 118 0 -88 c0 -49 5 -97 10 -107 16 -30 81 -46 115 -29 34 17 31
12 99 172 78 185 195 367 235 367 7 0 19 -17 28 -37 14 -32 17 -80 18 -298 1
-294 9 -341 70 -402 30 -30 38 -33 92 -33 89 1 131 14 176 57 55 53 122 158
176 277 l46 101 1 -190 c1 -104 6 -203 11 -220 9 -30 10 -30 84 -30 l74 0 6
97 c3 54 8 100 11 103 2 3 33 -32 69 -77 80 -104 186 -209 245 -244 125 -73
224 4 358 278 l63 127 11 -61 c28 -150 137 -224 257 -174 98 41 206 193 288
406 4 8 3 -25 -1 -75 -24 -316 8 -455 105 -455 136 1 250 154 369 493 34 100
42 139 25 122 -6 -6 -31 -66 -56 -135 -83 -222 -156 -353 -228 -410 l-27 -22
-17 39 c-25 54 -24 302 2 483 28 203 33 185 -55 185 l-74 0 -27 -90 c-14 -49
-31 -101 -37 -115 l-10 -25 -7 30 c-30 132 -112 195 -254 195 -57 0 -74 -4
-113 -29 -72 -46 -99 -93 -144 -250 -29 -99 -146 -343 -199 -414 -45 -60 -73
-72 -121 -52 -42 17 -162 131 -241 228 -46 56 -53 70 -43 82 7 8 18 15 25 15
7 0 43 16 81 34 115 58 184 148 184 238 0 44 -3 50 -32 68 -101 62 -228 -12
-356 -206 -26 -39 -53 -79 -60 -90 -15 -23 -10 94 14 301 l15 130 68 115 c173
291 222 438 170 504 -17 22 -28 26 -69 26 -39 0 -57 -6 -91 -33z m155 -45 c20
-32 -79 -267 -173 -412 -44 -70 -44 -70 -14 55 32 136 84 266 135 338 19 27
42 35 52 19z m913 -689 c44 -29 66 -81 71 -164 4 -75 3 -80 -33 -146 -111
-203 -208 -253 -267 -139 -27 52 -36 176 -18 255 23 107 86 199 145 214 27 7
75 -3 102 -20z m-882 -72 c9 -30 -31 -113 -78 -159 -41 -40 -143 -99 -154 -89
-3 3 8 29 24 59 29 55 169 208 190 208 6 0 14 -9 18 -19z"/>
<path d="M8517 4219 c-62 -36 -63 -179 -1 -208 53 -24 104 33 104 117 0 80
-48 123 -103 91z"/>
<path d="M5750 2465 c0 -149 2 -175 15 -175 13 0 15 26 15 175 0 149 -2 175
-15 175 -13 0 -15 -26 -15 -175z"/>
<path d="M7160 2610 c0 -20 5 -30 15 -30 10 0 15 10 15 30 0 20 -5 30 -15 30
-10 0 -15 -10 -15 -30z"/>
<path d="M7741 2614 c-25 -32 -27 -62 -5 -93 16 -22 15 -24 -9 -45 -48 -41
-58 -85 -31 -137 34 -66 125 -71 177 -9 l24 29 34 -35 c18 -19 39 -34 46 -34
24 0 13 26 -26 64 l-40 39 30 58 c34 68 34 69 14 69 -8 0 -26 -23 -41 -51
l-26 -51 -34 33 -34 33 23 13 c35 18 52 64 36 95 -18 35 -40 47 -81 48 -28 0
-41 -6 -57 -26z m97 -16 c34 -34 -17 -108 -54 -78 -27 23 -36 48 -24 70 12 23
59 27 78 8z m-10 -171 l43 -43 -22 -28 c-27 -35 -57 -46 -88 -34 -56 21 -66
74 -22 119 16 16 33 29 38 29 5 0 28 -19 51 -43z"/>
<path d="M8720 2465 c0 -149 2 -175 15 -175 9 0 15 9 15 21 l0 20 26 -20 c32
-25 101 -28 144 -6 62 32 84 133 43 191 -31 43 -93 68 -140 55 -19 -6 -44 -18
-54 -27 -18 -17 -19 -15 -19 49 0 53 -3 67 -15 67 -13 0 -15 -26 -15 -175z
m201 26 c64 -65 20 -171 -71 -171 -60 0 -100 41 -100 103 0 38 5 49 31 71 44
37 101 36 140 -3z"/>
<path d="M5505 2545 c-147 -51 -110 -255 45 -255 33 0 55 6 74 21 l26 20 0
-20 c0 -12 6 -21 15 -21 13 0 15 21 15 130 0 109 -2 130 -15 130 -8 0 -15 -9
-15 -20 0 -20 0 -20 -27 -1 -40 27 -72 32 -118 16z m116 -54 c23 -23 29 -38
29 -71 0 -91 -106 -135 -171 -71 -64 65 -20 171 71 171 33 0 48 -6 71 -29z"/>
<path d="M6634 2549 c-18 -5 -46 -25 -63 -44 -26 -30 -31 -44 -31 -87 0 -45 4
-54 39 -89 35 -35 44 -39 88 -39 35 0 58 6 76 20 14 11 28 20 31 20 3 0 6 -9
6 -20 0 -11 7 -20 15 -20 13 0 15 21 15 130 0 109 -2 130 -15 130 -8 0 -15 -9
-15 -20 0 -11 -4 -20 -10 -20 -5 0 -10 3 -10 8 0 25 -80 45 -126 31z m108 -58
c27 -24 33 -36 33 -71 0 -101 -144 -138 -191 -49 -53 104 71 198 158 120z"/>
<path d="M7349 2550 c-71 -21 -99 -60 -99 -136 0 -41 5 -51 39 -85 35 -35 44
-39 89 -39 43 0 57 5 87 31 56 49 40 72 -17 24 -43 -36 -100 -34 -139 4 -53
54 -44 61 86 61 l115 0 0 26 c0 72 -90 136 -161 114z m102 -59 c16 -16 29 -34
29 -40 0 -7 -35 -11 -100 -11 -65 0 -100 4 -100 11 0 6 13 24 29 40 23 23 38
29 71 29 33 0 48 -6 71 -29z"/>
<path d="M8476 2550 c-82 -25 -121 -124 -76 -197 37 -62 124 -82 188 -43 32
20 32 20 32 0 0 -11 7 -20 15 -20 13 0 15 21 15 130 0 109 -2 130 -15 130 -8
0 -15 -9 -15 -20 0 -21 0 -21 -27 -1 -35 24 -79 32 -117 21z m95 -40 c22 -12
49 -61 49 -89 0 -81 -100 -130 -163 -81 -33 26 -51 79 -38 112 21 56 99 86
152 58z"/>
<path d="M9126 2550 c-55 -17 -96 -73 -96 -132 1 -101 119 -162 208 -108 32
20 32 20 32 0 0 -11 7 -20 15 -20 13 0 15 21 15 130 0 109 -2 130 -15 130 -8
0 -15 -9 -15 -20 0 -21 0 -21 -27 -1 -35 24 -79 32 -117 21z m100 -48 c54 -43
58 -100 10 -148 -26 -26 -42 -34 -70 -34 -48 0 -95 42 -103 92 -5 33 -2 41 30
73 28 28 43 35 74 35 21 0 48 -8 59 -18z"/>
<path d="M9845 2549 c-17 -4 -44 -22 -60 -39 -26 -28 -30 -39 -30 -90 0 -54 3
-63 32 -91 42 -43 115 -52 168 -21 34 21 35 21 35 2 0 -11 7 -20 15 -20 13 0
15 21 15 130 0 109 -2 130 -15 130 -8 0 -15 -9 -15 -20 0 -21 0 -21 -27 -1
-35 24 -79 32 -118 20z m101 -47 c54 -43 58 -100 10 -148 -43 -43 -90 -46
-135 -8 -53 45 -50 116 8 161 24 18 93 15 117 -5z"/>
<path d="M4980 2420 c0 -109 2 -130 15 -130 12 0 15 17 15 93 0 111 12 137 66
137 60 0 74 -25 74 -136 0 -86 2 -95 18 -92 14 3 17 17 20 98 3 108 15 130 68
130 56 0 74 -35 74 -141 0 -72 3 -89 15 -89 12 0 15 17 15 91 0 94 -8 122 -44
151 -30 25 -97 23 -124 -3 l-22 -20 -27 20 c-31 25 -95 28 -117 5 -15 -14 -16
-14 -16 0 0 9 -7 16 -15 16 -13 0 -15 -21 -15 -130z"/>
<path d="M5892 2530 c-81 -50 -76 -182 9 -226 87 -45 199 19 199 114 0 106
-115 168 -208 112z m129 -23 c55 -43 61 -112 12 -161 -59 -60 -164 -14 -167
73 -1 36 4 47 32 72 35 31 93 39 123 16z"/>
<path d="M6132 2539 c2 -8 24 -67 49 -132 37 -100 47 -117 64 -115 15 2 25 22
46 88 15 47 29 78 32 70 3 -8 16 -48 28 -88 20 -61 26 -72 43 -70 15 2 31 31
68 128 26 68 48 126 48 127 0 2 -8 3 -17 3 -14 0 -28 -27 -57 -106 -21 -57
-41 -102 -45 -99 -3 4 -17 43 -31 88 -17 54 -31 82 -40 82 -10 0 -25 -30 -43
-88 -16 -49 -32 -86 -35 -82 -3 3 -23 50 -43 103 -25 67 -41 98 -54 101 -12 2
-16 -2 -13 -10z"/>
<path d="M6870 2420 c0 -109 2 -130 15 -130 12 0 15 15 15 74 0 115 22 156 84
156 65 0 86 -37 86 -150 0 -66 3 -80 16 -80 14 0 15 14 12 101 -3 99 -3 101
-36 130 -25 23 -42 29 -76 29 -27 0 -48 -6 -56 -15 -7 -8 -16 -15 -21 -15 -5
0 -9 7 -9 15 0 8 -7 15 -15 15 -13 0 -15 -21 -15 -130z"/>
<path d="M7160 2420 c0 -109 2 -130 15 -130 13 0 15 21 15 130 0 109 -2 130
-15 130 -13 0 -15 -21 -15 -130z"/>
<path d="M8170 2535 c0 -10 16 -15 65 -17 l66 -3 -71 -98 c-38 -53 -70 -104
-70 -112 0 -12 17 -15 95 -15 78 0 95 3 95 15 0 12 -14 15 -70 15 -38 0 -70 3
-70 6 0 3 29 46 65 97 36 51 65 100 65 109 0 16 -11 18 -85 18 -68 0 -85 -3
-85 -15z"/>
<path d="M9340 2548 c0 -2 21 -59 48 -128 60 -157 73 -163 111 -47 14 42 28
77 31 77 3 0 17 -35 31 -77 19 -59 30 -79 45 -81 16 -2 27 18 67 124 26 70 45
129 43 132 -15 15 -37 -16 -65 -95 -17 -48 -35 -94 -40 -102 -6 -9 -18 15 -38
75 -18 53 -35 89 -43 89 -8 0 -25 -36 -43 -88 -16 -49 -31 -86 -34 -84 -2 3
-21 49 -42 103 -24 66 -43 100 -54 102 -9 2 -17 2 -17 0z"/>
</g>
</svg>
