<?xml version="1.0" standalone="no"?>
<svg xmlns:xlink="http://www.w3.org/1999/xlink" id="wave" style="transform:rotate(0deg); transition: 0.3s" viewBox="0 0 1440 100" version="1.1" xmlns="http://www.w3.org/2000/svg"><defs><linearGradient id="sw-gradient-0" x1="0" x2="0" y1="1" y2="0"><stop stop-color="rgba(90, 161, 219, 1)" offset="0%"/><stop stop-color="rgba(100, 181, 246, 1)" offset="100%"/></linearGradient></defs><path style="transform:translate(0, 0px); opacity:1" fill="url(#sw-gradient-0)" d="M0,20L21.8,26.7C43.6,33,87,47,131,43.3C174.5,40,218,20,262,18.3C305.5,17,349,33,393,38.3C436.4,43,480,37,524,30C567.3,23,611,17,655,20C698.2,23,742,37,785,50C829.1,63,873,77,916,76.7C960,77,1004,63,1047,50C1090.9,37,1135,23,1178,25C1221.8,27,1265,43,1309,56.7C1352.7,70,1396,80,1440,85C1483.6,90,1527,90,1571,90C1614.5,90,1658,90,1702,75C1745.5,60,1789,30,1833,26.7C1876.4,23,1920,47,1964,46.7C2007.3,47,2051,23,2095,20C2138.2,17,2182,33,2225,46.7C2269.1,60,2313,70,2356,71.7C2400,73,2444,67,2487,66.7C2530.9,67,2575,73,2618,78.3C2661.8,83,2705,87,2749,81.7C2792.7,77,2836,63,2880,48.3C2923.6,33,2967,17,3011,20C3054.5,23,3098,47,3120,58.3L3141.8,70L3141.8,100L3120,100C3098.2,100,3055,100,3011,100C2967.3,100,2924,100,2880,100C2836.4,100,2793,100,2749,100C2705.5,100,2662,100,2618,100C2574.5,100,2531,100,2487,100C2443.6,100,2400,100,2356,100C2312.7,100,2269,100,2225,100C2181.8,100,2138,100,2095,100C2050.9,100,2007,100,1964,100C1920,100,1876,100,1833,100C1789.1,100,1745,100,1702,100C1658.2,100,1615,100,1571,100C1527.3,100,1484,100,1440,100C1396.4,100,1353,100,1309,100C1265.5,100,1222,100,1178,100C1134.5,100,1091,100,1047,100C1003.6,100,960,100,916,100C872.7,100,829,100,785,100C741.8,100,698,100,655,100C610.9,100,567,100,524,100C480,100,436,100,393,100C349.1,100,305,100,262,100C218.2,100,175,100,131,100C87.3,100,44,100,22,100L0,100Z"/></svg>