<?xml version="1.0" encoding="UTF-8"?>
<svg viewBox="0 0 519.16 850.01" xmlns="http://www.w3.org/2000/svg" xmlns:xlink="http://www.w3.org/1999/xlink">
 <defs>
  <filter id="p">
   <feGaussianBlur stdDeviation="8.84375"/>
  </filter>
  <linearGradient id="o" x1=".54925" x2=".53731" y1="1.103" y2="-.37316" xlink:href="#m"/>
  <linearGradient id="q" x1=".4199" x2=".39591" y1=".24826" y2=".24009" xlink:href="#l" spreadMethod="reflect"/>
  <linearGradient id="n" x1=".53453" x2=".56901" y1=".09434" y2="1" xlink:href="#m"/>
  <linearGradient id="k" x1=".5" x2=".5" y1="1.6971" y2=".15245">
   <stop stop-color="#ebdbd9" offset="0"/>
   <stop stop-color="#ebdbd9" stop-opacity="0" offset="1"/>
  </linearGradient>
  <linearGradient id="r" x1=".38301" x2=".41826" y1=".23443" y2=".22672" xlink:href="#l" spreadMethod="reflect"/>
  <linearGradient id="j" x1=".4333" x2=".54529" y2="1.1991">
   <stop stop-color="#eeeeec" offset="0"/>
   <stop stop-color="#eeeeec" stop-opacity="0" offset="1"/>
  </linearGradient>
  <linearGradient id="m">
   <stop stop-color="#2a2c2a" stop-opacity=".384" offset="0"/>
   <stop stop-color="#babdb6" stop-opacity="0" offset="1"/>
  </linearGradient>
  <linearGradient id="l">
   <stop stop-color="#f1b551" offset="0"/>
   <stop stop-color="#802b0a" offset="1"/>
  </linearGradient>
 </defs>
 <g transform="matrix(.94955 0 0 .94955 149.06 -76.973)">
  <path d="m220.47 501.64c8.6683 0.4267 23.021-5.9386 29.508 1.2506-0.54416 9.0845-12.045 26.792-11.454 36.168 7.3755 9.1208 16.774 9.8687 14.177 15.086-12.461-3.2078-26.363-5.9128-43.859 0.56702-1.6969-10.268 7.5974-11.982 14.579-16.811 0.85492-12.087-9.9528-23.887-2.9508-36.26z" fill="#c00" fill-rule="evenodd"/>
  <g stroke-linecap="round" stroke-linejoin="bevel" stroke-width="2">
   <path d="m389.76 266.78c0 102.51-72.468 231.71-158.57 261.71-84.674-28.571-158.57-159.2-158.57-261.71s71.04-185.71 158.57-185.71c87.531 0 158.57 83.2 158.57 185.71z" fill="#c00"/>
   <path d="m233.93 88.219c-67.235 0-123.06 57.533-133.52 132.83 0 0 38.226-7.356 107.93-42.659 79.611-40.322 159.12 42.659 159.12 42.659-10.464-75.297-66.289-132.83-133.52-132.83z" fill="url(#j)"/>
   <path d="m321.77 445.92c-25.885 16.765-55.875 26.381-87.854 26.381-31.839 0-61.738-9.5283-87.546-26.157 24.479 35.215 55.136 62.831 87.546 73.767 32.859-11.449 63.498-39.012 87.854-73.991z" fill="url(#k)"/>
  </g>
  <path d="m231.2 81.063c-87.531 0-158.59 83.204-158.59 185.72 0 98.408 68.112 222.71 148.47 257.78 1.383 4.4342 2.6598 8.8746 2.3438 13.344-6.9819 4.8287-16.259 6.5445-14.562 16.812 17.496-6.4798 31.383-3.8015 43.844-0.59375 2.5964-5.217-6.812-5.9416-14.188-15.062-0.25067-3.9761 1.6902-9.476 4.0312-15.156 81.022-36.836 147.22-159.15 147.22-257.12 0-102.51-71.031-185.72-158.56-185.72z" fill="#007f00" fill-rule="evenodd"/>
  <g stroke-linecap="round" stroke-linejoin="bevel" stroke-width="2">
   <path d="m233.93 88.219c-67.235 0-123.06 57.533-133.52 132.83 0 0 38.226-7.356 107.93-42.659 79.611-40.322 159.12 42.659 159.12 42.659-10.464-75.297-66.289-132.83-133.52-132.83z" fill="url(#j)"/>
   <path d="m321.77 445.92c-25.885 16.765-55.875 26.381-87.854 26.381-31.839 0-61.738-9.5283-87.546-26.157 24.479 35.215 55.136 62.831 87.546 73.767 32.859-11.449 63.498-39.012 87.854-73.991z" fill="url(#k)"/>
  </g>
  <g fill-rule="evenodd">
   <path d="m223.8 527.4c0.51587 2.829 1.049 5.6602 1.5243 8.4928-0.46912 1.5676-1.2126 3.0733-1.7874 4.6171-1.3016 3.2366-2.6032 6.4733-3.9048 9.7099 2.6916-5 5.3832-10 8.0749-15 1.7174-6.7994 5.16-0.42041 6.1783 1.9062 2.2819 4.5312 4.5638 9.0625 6.8456 13.594-1.3892-4.75-2.7784-9.5-4.1676-14.25 0.18201-0.92224-0.083069-2.0012 0.47894-2.7854 1.4273-2.872 2.8976-5.7244 4.3399-8.5896-6.5391 1.3823-11.804 1.3058-17.81 0.09375-0.66547-1.7853 0.11984 1.6633 0.22815 2.2115z" fill="url(#n)"/>
   <path d="m238.79 533.44c8.1344 0.79163-14.845 13.852-17.251 4.0633-8.271 15.556 3.5016 43.274-12.627 62.043-34.724 48.082-26.796 86.905 1.0876 133.88 41.794 59.954 64.485 104.46 54.61 98.777m-43.75-299.5c-8.3036 6.6932 26.969 2.4585 17.639-2.9888" fill="none" stroke="url(#q)" stroke-width="3"/>
   <path d="m209.76 552.83l13.75-3.625 15.75 0.5 12.375 3.125s-0.5-1.75-1-2.375-12-5.5-12-5.5l-17.875 1-8.625 0.75-2.375 6.125z" fill="url(#o)"/>
  </g>
 </g>
 <path d="m345.16 252.15a147 156 0 1 1 -294 0 147 156 0 1 1 294 0z" fill="#555753" filter="url(#p)" opacity=".183" stroke-linecap="round" stroke-linejoin="bevel" stroke-width="3"/>
 <path d="m147.86 499.58c8.6683 0.4267 23.021-5.9386 29.508 1.2506-0.54416 9.0845-12.045 26.792-11.454 36.168 7.3755 9.1208 16.774 9.8687 14.177 15.086-12.461-3.2078-26.363-5.9128-43.859 0.56702-1.6969-10.268 7.5974-11.982 14.579-16.811 0.85492-12.087-9.9528-23.887-2.9508-36.26z" fill="#c00" fill-rule="evenodd"/>
 <g stroke-linecap="round" stroke-linejoin="bevel" stroke-width="2">
  <path d="m317.16 264.72c0 102.51-72.468 231.71-158.57 261.71-84.674-28.571-158.57-159.2-158.57-261.71s71.04-185.71 158.57-185.71c87.531 0 158.57 83.2 158.57 185.71z" fill="#c00"/>
  <path d="m161.32 86.162c-67.235 0-123.06 57.533-133.52 132.83 0 0 38.226-7.356 107.93-42.659 79.611-40.322 159.12 42.659 159.12 42.659-10.464-75.297-66.289-132.83-133.52-132.83z" fill="url(#j)"/>
  <path d="m249.16 443.87c-25.885 16.765-55.875 26.381-87.854 26.381-31.839 0-61.738-9.5283-87.546-26.157 24.479 35.215 55.136 62.831 87.546 73.767 32.859-11.449 63.498-39.012 87.854-73.991z" fill="url(#k)"/>
 </g>
 <path d="m158.59 79.006c-87.531 0-158.59 83.204-158.59 185.72 0 98.408 68.112 222.71 148.47 257.78 1.383 4.4342 2.6598 8.8746 2.3438 13.344-6.9819 4.8287-16.259 6.5445-14.562 16.812 17.496-6.4798 31.383-3.8015 43.844-0.59375 2.5964-5.217-6.812-5.9416-14.188-15.062-0.25067-3.9761 1.6902-9.476 4.0312-15.156 81.022-36.836 147.22-159.15 147.22-257.12 0-102.51-71.031-185.72-158.56-185.72z" fill="#f0f" fill-rule="evenodd"/>
 <g stroke-linecap="round" stroke-linejoin="bevel" stroke-width="2">
  <path d="m161.32 86.162c-67.235 0-123.06 57.533-133.52 132.83 0 0 38.226-7.356 107.93-42.659 79.611-40.322 159.12 42.659 159.12 42.659-10.464-75.297-66.289-132.83-133.52-132.83z" fill="url(#j)"/>
  <path d="m249.16 443.87c-25.885 16.765-55.875 26.381-87.854 26.381-31.839 0-61.738-9.5283-87.546-26.157 24.479 35.215 55.136 62.831 87.546 73.767 32.859-11.449 63.498-39.012 87.854-73.991z" fill="url(#k)"/>
 </g>
 <g fill-rule="evenodd">
  <path d="m151.2 525.34c0.51587 2.829 1.049 5.6602 1.5243 8.4928-0.46912 1.5676-1.2126 3.0733-1.7874 4.6171-1.3016 3.2366-2.6032 6.4733-3.9048 9.7099 2.6916-5 5.3832-10 8.0749-15 1.7174-6.7994 5.16-0.42041 6.1782 1.9062 2.2819 4.5312 4.5638 9.0625 6.8457 13.594-1.3892-4.75-2.7784-9.5-4.1676-14.25 0.18201-0.92224-0.083038-2.0012 0.47894-2.7854 1.4273-2.872 2.8976-5.7244 4.3399-8.5896-6.539 1.3823-11.804 1.3058-17.81 0.09375-0.66547-1.7853 0.11984 1.6633 0.22815 2.2115z" fill="url(#n)"/>
  <path d="m149.48 531.38c-8.1344 0.79163 14.845 13.852 17.251 4.0633 8.271 15.556-3.5016 43.274 12.627 62.043 34.724 48.082 26.796 86.905-1.0876 133.88-41.794 59.954-32.485 122.46-22.61 116.78m11.75-317.5c8.3036 6.6932-26.969 2.4585-17.639-2.9888" fill="none" stroke="url(#r)" stroke-width="3"/>
  <path d="m137.16 550.77l13.75-3.625 15.75 0.5 12.375 3.125s-0.5-1.75-1-2.375-12-5.5-12-5.5l-17.875 1-8.625 0.75-2.375 6.125z" fill="url(#o)"/>
 </g>
</svg>
