<?xml version="1.0" encoding="UTF-8"?>
<svg viewBox="0 0 433.75 596.25" xmlns="http://www.w3.org/2000/svg" xmlns:xlink="http://www.w3.org/1999/xlink">
 <defs>
  <linearGradient id="b">
   <stop stop-color="#ff1000" offset="0"/>
   <stop stop-color="#b00b00" offset="1"/>
  </linearGradient>
  <linearGradient id="a">
   <stop stop-color="#ff1000" stop-opacity="0" offset="0"/>
   <stop stop-color="#b00b00" offset="1"/>
  </linearGradient>
  <linearGradient id="k" x1="219.49" x2="478.62" y1="240.03" y2="552.64" gradientTransform="matrix(.92128 0 0 1.0854 -43.332 -125.24)" gradientUnits="userSpaceOnUse" xlink:href="#b"/>
  <linearGradient id="j" x2="0" y1="95.375" y2="311.61" gradientUnits="userSpaceOnUse" xlink:href="#a"/>
  <linearGradient id="i" x1="482.22" x2="215.89" y1="331.97" y2="469.89" gradientTransform="matrix(.92128 0 0 1.0854 -43.332 -125.24)" gradientUnits="userSpaceOnUse" xlink:href="#a"/>
  <linearGradient id="h" x1="219.49" x2="478.62" y1="240.03" y2="552.64" gradientTransform="matrix(.92128 6.2104e-17 -1.4101e-16 1.0854 -43.332 -125.24)" gradientUnits="userSpaceOnUse" xlink:href="#b"/>
  <linearGradient id="g" x2="0" y1="203.25" y2="402.46" gradientTransform="matrix(.92128 6.2104e-17 -1.4101e-16 1.0854 -43.332 -125.24)" gradientUnits="userSpaceOnUse" xlink:href="#a"/>
  <linearGradient id="f" x1="482.22" x2="215.89" y1="331.97" y2="469.89" gradientTransform="matrix(.92128 6.2104e-17 -1.4101e-16 1.0854 -43.332 -125.24)" gradientUnits="userSpaceOnUse" xlink:href="#a"/>
  <linearGradient id="e" x1="219.49" x2="478.62" y1="240.03" y2="552.64" gradientTransform="matrix(.92128 1.3377e-16 -2.9883e-16 1.0854 -43.332 -125.24)" gradientUnits="userSpaceOnUse" xlink:href="#b"/>
  <linearGradient id="d" x2="0" y1="203.25" y2="402.46" gradientTransform="matrix(.92128 1.3377e-16 -2.9883e-16 1.0854 -43.332 -125.24)" gradientUnits="userSpaceOnUse" xlink:href="#a"/>
  <linearGradient id="c" x1="482.22" x2="215.89" y1="331.97" y2="469.89" gradientTransform="matrix(.92128 1.3377e-16 -2.9883e-16 1.0854 -43.332 -125.24)" gradientUnits="userSpaceOnUse" xlink:href="#a"/>
 </defs>
 <path transform="matrix(.5437 .31283 -.31283 .5437 213.17 -31.373)" d="m302.88 495.97c-2.8791-53.264-61.901-130.28-89.973-155.47s-100.05-64.781-95.011-148.28 44.627-94.292 72.698-100.05 46.066-5.7583 77.017 13.676 32.39 65.5 32.39 65.5-5.0385-59.022 28.791-77.737 64.061-26.632 97.171-12.236 59.742 59.022 45.346 120.92-79.896 130.28-100.05 149.71-65.446 113.48-68.5 144.01" fill="url(#e)" fill-rule="evenodd" stroke="#000" stroke-width="3.75"/>
 <path transform="matrix(.5437 .31283 -.31283 .5437 213.17 -31.373)" d="m302.88 495.97c-2.8791-53.264-61.901-130.28-89.973-155.47s-100.05-64.781-95.011-148.28 44.627-94.292 72.698-100.05 46.066-5.7583 77.017 13.676 32.39 65.5 32.39 65.5-5.0385-59.022 28.791-77.737 64.061-26.632 97.171-12.236 59.742 59.022 45.346 120.92-79.896 130.28-100.05 149.71-65.446 113.48-68.5 144.01" fill="url(#d)" fill-rule="evenodd" opacity=".6" stroke="#000" stroke-width="3.75"/>
 <path transform="matrix(.5437 .31283 -.31283 .5437 213.17 -31.373)" d="m302.88 495.97c-2.8791-53.264-61.901-130.28-89.973-155.47s-100.05-64.781-95.011-148.28 44.627-94.292 72.698-100.05 46.066-5.7583 77.017 13.676 32.39 65.5 32.39 65.5-5.0385-59.022 28.791-77.737 64.061-26.632 97.171-12.236 59.742 59.022 45.346 120.92-79.896 130.28-100.05 149.71-65.446 113.48-68.5 144.01" fill="url(#c)" fill-rule="evenodd" stroke="#000" stroke-width="3.75"/>
 <path transform="matrix(.5437 .31283 -.31283 .5437 213.17 -31.373)" d="m220.83 110.17c-2.8791-10.797-32.353-11.887-61.182 6.478-16.989 12.62-27.431 37.502-20.154 41.747 8.6374 5.0385 15.387-13.976 35.269-25.192 18.953-10.692 44.627-5.0385 46.066-23.033z" fill="#ff6257" fill-rule="evenodd"/>
 <path transform="matrix(.62727 0 0 .62727 23.818 -37.784)" d="m302.88 495.97c-2.8791-53.264-61.901-130.28-89.973-155.47s-100.05-64.781-95.011-148.28 44.627-94.292 72.698-100.05 46.066-5.7583 77.017 13.676 32.39 65.5 32.39 65.5-5.0385-59.022 28.791-77.737 64.061-26.632 97.171-12.236 59.742 59.022 45.346 120.92-79.896 130.28-100.05 149.71-65.446 113.48-68.5 144.01" fill="url(#k)" fill-rule="evenodd" stroke="#000" stroke-width="3.75"/>
 <path transform="matrix(.62727 0 0 .62727 23.818 -37.784)" d="m302.88 495.97c-2.8791-53.264-61.901-130.28-89.973-155.47s-100.05-64.781-95.011-148.28 44.627-94.292 72.698-100.05 46.066-5.7583 77.017 13.676 32.39 65.5 32.39 65.5-5.0385-59.022 28.791-77.737 64.061-26.632 97.171-12.236 59.742 59.022 45.346 120.92-79.896 130.28-100.05 149.71-65.446 113.48-68.5 144.01" fill="url(#j)" fill-rule="evenodd" opacity=".6" stroke="#000" stroke-width="3.75"/>
 <path transform="matrix(.62727 0 0 .62727 23.818 -37.784)" d="m302.88 495.97c-2.8791-53.264-61.901-130.28-89.973-155.47s-100.05-64.781-95.011-148.28 44.627-94.292 72.698-100.05 46.066-5.7583 77.017 13.676 32.39 65.5 32.39 65.5-5.0385-59.022 28.791-77.737 64.061-26.632 97.171-12.236 59.742 59.022 45.346 120.92-79.896 130.28-100.05 149.71-65.446 113.48-68.5 144.01" fill="url(#i)" fill-rule="evenodd" stroke="#000" stroke-width="3.75"/>
 <path transform="matrix(.62727 0 0 .62727 23.818 -37.784)" d="m220.83 110.17c-2.8791-10.797-32.353-11.887-61.182 6.478-16.989 12.62-27.431 37.502-20.154 41.747 8.6374 5.0385 15.387-13.976 35.269-25.192 18.953-10.692 44.627-5.0385 46.066-23.033z" fill="#ff6257" fill-rule="evenodd"/>
 <path transform="matrix(.59642 -.19428 .19428 .59642 -98.259 117.1)" d="m302.88 495.97c-2.8791-53.264-61.901-130.28-89.973-155.47s-100.05-64.781-95.011-148.28 44.627-94.292 72.698-100.05 46.066-5.7583 77.017 13.676 32.39 65.5 32.39 65.5-5.0385-59.022 28.791-77.737 64.061-26.632 97.171-12.236 59.742 59.022 45.346 120.92-79.896 130.28-100.05 149.71-65.446 113.48-68.5 144.01" fill="url(#h)" fill-rule="evenodd" stroke="#000" stroke-width="3.75"/>
 <path transform="matrix(.59642 -.19428 .19428 .59642 -98.259 117.1)" d="m302.88 495.97c-2.8791-53.264-61.901-130.28-89.973-155.47s-100.05-64.781-95.011-148.28 44.627-94.292 72.698-100.05 46.066-5.7583 77.017 13.676 32.39 65.5 32.39 65.5-5.0385-59.022 28.791-77.737 64.061-26.632 97.171-12.236 59.742 59.022 45.346 120.92-79.896 130.28-100.05 149.71-65.446 113.48-68.5 144.01" fill="url(#g)" fill-rule="evenodd" opacity=".6" stroke="#000" stroke-width="3.75"/>
 <path transform="matrix(.59642 -.19428 .19428 .59642 -98.259 117.1)" d="m302.88 495.97c-2.8791-53.264-61.901-130.28-89.973-155.47s-100.05-64.781-95.011-148.28 44.627-94.292 72.698-100.05 46.066-5.7583 77.017 13.676 32.39 65.5 32.39 65.5-5.0385-59.022 28.791-77.737 64.061-26.632 97.171-12.236 59.742 59.022 45.346 120.92-79.896 130.28-100.05 149.71-65.446 113.48-68.5 144.01" fill="url(#f)" fill-rule="evenodd" stroke="#000" stroke-width="3.75"/>
 <path transform="matrix(.59642 -.19428 .19428 .59642 -98.259 117.1)" d="m220.83 110.17c-2.8791-10.797-32.353-11.887-61.182 6.478-16.989 12.62-27.431 37.502-20.154 41.747 8.6374 5.0385 15.387-13.976 35.269-25.192 18.953-10.692 44.627-5.0385 46.066-23.033z" fill="#ff6257" fill-rule="evenodd"/>
 <path d="m177.81 351.4s18.963 62.307-22.575 108.36 24.381 125.52 24.381 125.52" fill="none" stroke="#000" stroke-width="2.3523"/>
 <path d="m213.52 272.77s-8.9944 30.214-2.5541 61.936c5.3797 26.584 33.203 69.598 38.311 110.46 5.4687 43.75-51.081 74.068-52.358 117.49" fill="none" stroke="#000" stroke-width="2.3523"/>
 <path d="m225.65 328.96s-48.527 50.443-39.588 97.693 73.429 105.99 61.936 147.5" fill="none" stroke="#000" stroke-width="2.3523"/>
</svg>
