<?xml version="1.0" encoding="UTF-8"?>
<svg viewBox="0 0 728.09003 729.35999" xmlns="http://www.w3.org/2000/svg">
 <defs>
  <linearGradient id="b" x1="176.23" x2="1059.6" y1="494.67" y2="1045.6" gradientUnits="userSpaceOnUse">
   <stop stop-color="#0074a5" offset="0"/>
   <stop stop-color="#6ad2ff" stop-opacity=".4357" offset="1"/>
  </linearGradient>
  <linearGradient id="a" x1="129.17" x2="542.03" y1="397.52" y2="992.52" gradientUnits="userSpaceOnUse">
   <stop stop-color="#fff" offset="0"/>
   <stop stop-color="#25bec6" offset="1"/>
  </linearGradient>
 </defs>
 <g transform="translate(0 -323)">
  <path d="m356.84 477.95c-66.42 0-122.68 41.107-141.79 97.825-5.0258-0.45088-10.166-0.68445-15.321-0.68445-85.086 0-154.06 62.877-154.06 140.42s68.969 140.42 154.06 140.42c31.734 0 61.205-8.8094 85.715-23.798 18.864 17.153 45.911 27.905 75.975 27.905 28.837 0 54.878-9.9071 73.605-25.851 13.925 5.8549 29.631 9.1612 46.28 9.1612 31.167 0 59.103-11.538 78.028-29.8 13.014 9.428 28.763 14.953 45.701 14.953 44.848 0 81.187-38.626 81.187-86.294 0-42.73-29.193-78.192-67.551-85.083-13.806-51.638-63.902-90.317-124.36-92.507-22.351-50.874-75.488-86.663-137.47-86.663z" fill="url(#a)"/>
  <path d="m357.53 493.13c-61.384 0-113.38 37.841-131.04 90.052-4.6446-0.41507-9.3947-0.63007-14.16-0.63007-78.634 0-142.37 57.882-142.37 129.26s63.74 129.26 142.37 129.26c29.328 0 56.564-8.1094 79.215-21.907 17.433 15.79 42.429 25.688 70.214 25.688 26.65 0 50.717-9.12 68.024-23.797 12.869 5.3897 27.384 8.4333 42.771 8.4333 28.803 0 54.621-10.621 72.111-27.433 12.027 8.6789 26.582 13.765 42.235 13.765 41.448 0 75.031-35.557 75.031-79.438 0-39.335-26.979-71.979-62.428-78.323-12.759-47.535-59.057-83.141-114.93-85.157-20.656-46.832-69.764-79.777-127.05-79.777z" fill="url(#b)"/>
 </g>
</svg>
