<?xml version="1.0" encoding="UTF-8"?>
<svg viewBox="0 0 348.8125 364.75" xmlns="http://www.w3.org/2000/svg">
 <defs>
  <linearGradient id="a" x1="561.04" x2="695.25" y1="547.96" y2="413.75" gradientUnits="userSpaceOnUse">
   <stop stop-color="#4d9dda" offset="0"/>
   <stop stop-color="#4d9dda" stop-opacity="0" offset="1"/>
  </linearGradient>
 </defs>
 <g transform="translate(-399.88 -392.84)">
  <path d="m452.63 474.25-52.75-8.125 61.156 111.72-57.344 113.72 125.12-23.656 90.438 89.688 16.188-126.31 40.781-21c-6.228-1.8118-12.483-3.4917-18.688-5.4062-7.6433-2.3583-15.287-4.8198-22.875-7.4062s-15.147-5.2929-22.656-8.1875-14.967-5.9675-22.375-9.25-14.747-6.7809-22.031-10.531-14.519-7.7645-21.656-12.062-14.189-8.8869-21.156-13.812c-3.4839-2.4628-6.9378-4.9903-10.375-7.625s-6.8624-5.371-10.25-8.1875-6.7272-5.7104-10.062-8.7188-6.6574-6.1336-9.9375-9.3438-6.528-6.5155-9.75-9.9375-6.4015-6.95-9.5625-10.594-6.309-7.4057-9.4062-11.281c-0.95042-1.1892-1.8683-2.4758-2.8125-3.6875z" fill="#0073cc"/>
  <path d="m452.63 474.25c0.94424 1.2117 1.8621 2.4982 2.8125 3.6875 3.0973 3.8756 6.2452 7.6375 9.4062 11.281s6.3405 7.1718 9.5625 10.594 6.47 6.7273 9.75 9.9375 6.6022 6.3354 9.9375 9.3438 6.6748 5.9022 10.062 8.7188 6.8128 5.5528 10.25 8.1875 6.8911 5.1622 10.375 7.625c6.9677 4.9256 14.019 9.5145 21.156 13.812s14.372 8.3122 21.656 12.062 14.623 7.2488 22.031 10.531 14.866 6.3554 22.375 9.25 15.069 5.601 22.656 8.1875 15.232 5.0479 22.875 7.4062c6.205 1.9145 12.459 3.5944 18.688 5.4062l72.469-37.312-115.16-54.406-20.438-125.72-87.344 92.688-73.125-11.281z" fill="url(#a)"/>
 </g>
</svg>
