<?xml version="1.0" encoding="UTF-8"?>
<svg viewBox="0 0 263.16263 923.89343" xmlns="http://www.w3.org/2000/svg">
 <defs>
  <filter id="b" x="-.2396" y="-.10416" width="1.4792" height="1.2083">
   <feGaussianBlur stdDeviation="14.4384"/>
  </filter>
  <radialGradient id="a" cx="433.31" cy="301.48" r="180.53" gradientTransform="matrix(1.5552 -.45716 .80072 2.7239 -464.26 -415.89)" gradientUnits="userSpaceOnUse">
   <stop stop-color="#67d5fe" offset="0"/>
   <stop stop-color="#1f78fe" stop-opacity="0" offset="1"/>
  </radialGradient>
 </defs>
 <g transform="translate(-651.28 -35.633)">
  <g transform="matrix(.72886 0 0 .72886 594.67 100.02)">
   <g transform="translate(-75.901 -162.06)">
    <path d="m334.12 91.969c-13.435 3e-6 -26.549 2.0694-38.906 5.9688s-23.949 9.6016-34.625 16.844-20.427 16.005-29.312 25.969-16.93 21.142-24.281 33.25-14.011 25.157-20.125 38.969-11.685 28.386-16.531 43.656-8.9841 31.235-11.969 47.938-4.8044 34.146-4.8125 52.438 1.8436 36.574 5.625 54.844 9.5052 36.501 16.844 54.562 16.285 35.965 26.125 53.344 20.558 34.246 31.312 50.188 21.514 30.936 31.594 44.469 19.45 25.589 27.844 35.625 15.795 18.06 22.5 23.531c4.3146 3.5202 8.3569 5.9672 12.312 7.2812-4.0805 7.2643-8.8776 13.974-16.219 20.938 18.76-3.2214 25.452-0.38353 45.188 2.25-9.0267-6.2557-12.499-13.561-16.812-22.875 4.2537-1.2131 8.5733-3.7712 13.219-7.5625 6.6912-5.4609 14.068-13.472 22.438-23.5s17.73-22.068 27.781-35.594 20.771-28.531 31.5-44.469 21.428-32.81 31.25-50.188 18.764-35.249 26.094-53.312 13.03-36.321 16.812-54.594 5.6547-36.578 5.6562-54.875-1.8088-35.73-4.7812-52.438-7.1015-32.693-11.938-47.969-10.392-29.84-16.5-43.656-12.774-26.888-20.125-39-15.392-23.284-24.281-33.25-18.631-18.725-29.312-25.969-22.296-12.944-34.656-16.844-25.472-5.9688-38.906-5.9688z" fill="#1f78fe"/>
    <path d="m334.12 91.969c-13.435 3e-6 -26.549 2.0694-38.906 5.9688s-23.949 9.6016-34.625 16.844-20.427 16.005-29.312 25.969-16.93 21.142-24.281 33.25-14.011 25.157-20.125 38.969-11.685 28.386-16.531 43.656-8.9841 31.235-11.969 47.938-4.8044 34.146-4.8125 52.438 1.8436 36.574 5.625 54.844 9.5052 36.501 16.844 54.562 16.285 35.965 26.125 53.344 20.558 34.246 31.312 50.188 21.514 30.936 31.594 44.469 19.45 25.589 27.844 35.625 15.795 18.06 22.5 23.531c4.3146 3.5202 8.3569 5.9672 12.312 7.2812-4.0805 7.2643-8.8776 13.974-16.219 20.938 18.76-3.2214 25.452-0.38353 45.188 2.25-9.0267-6.2557-12.499-13.561-16.812-22.875 4.2537-1.2131 8.5733-3.7712 13.219-7.5625 6.6912-5.4609 14.068-13.472 22.438-23.5s17.73-22.068 27.781-35.594 20.771-28.531 31.5-44.469 21.428-32.81 31.25-50.188 18.764-35.249 26.094-53.312 13.03-36.321 16.812-54.594 5.6547-36.578 5.6562-54.875-1.8088-35.73-4.7812-52.438-7.1015-32.693-11.938-47.969-10.392-29.84-16.5-43.656-12.774-26.888-20.125-39-15.392-23.284-24.281-33.25-18.631-18.725-29.312-25.969-22.296-12.944-34.656-16.844-25.472-5.9688-38.906-5.9688z" fill="url(#a)"/>
   </g>
   <path d="m307.71-49.233c102.62 90.994 99.777 239.98 90.261 328.22-5.4702-87.819-34.326-192.89-112.83-256.42-64.711-52.375 2.6382-89.468 22.565-71.799z" fill="#fff" filter="url(#b)" opacity=".5"/>
  </g>
  <path d="m778.09 478.47 8.8541 0.37743c-6.9021 14.109-13.429 28.402-19.571 42.858-7.9339 18.674-15.259 37.733-19.306 57.615s-4.7158 40.732 0.59059 60.315c4.6071 17.002 13.508 32.459 21.165 48.323s14.247 32.896 13.671 50.502c-0.67203 20.553-11.067 39.607-23.638 55.881s-27.523 30.635-39.592 47.285c-24.408 33.675-36 76.408-31.956 117.8" fill="none" stroke="#707070" stroke-width="2.1866"/>
 </g>
</svg>
