<?xml version="1.0" encoding="UTF-8"?>
<svg viewBox="0 0 640 480" xmlns="http://www.w3.org/2000/svg">
 <defs>
  <filter id="p" x="-320" y="-240" width="200%" height="200%">
   <feGaussianBlur stdDeviation="7.7"/>
  </filter>
  <filter id="r" x="-320" y="-240" width="200%" height="200%">
   <feGaussianBlur stdDeviation="7.3"/>
  </filter>
  <filter id="o" x="-320" y="-240" width="200%" height="200%">
   <feGaussianBlur stdDeviation="10"/>
  </filter>
  <filter id="q" x="-320" y="-240" width="200%" height="200%">
   <feGaussianBlur stdDeviation="8.3"/>
  </filter>
  <filter id="s" x="-320" y="-240" width="200%" height="200%">
   <feGaussianBlur stdDeviation="7"/>
  </filter>
  <filter id="n" x="-320" y="-240" width="200%" height="200%">
   <feGaussianBlur stdDeviation="8.8"/>
  </filter>
  <filter id="t" x="-320" y="-240" width="200%" height="200%">
   <feGaussianBlur stdDeviation="9.3"/>
  </filter>
  <filter id="m" x="-320" y="-240" width="200%" height="200%">
   <feGaussianBlur stdDeviation="9.2"/>
  </filter>
  <filter id="k" x="-320" y="-240" width="200%" height="200%">
   <feGaussianBlur stdDeviation="7.1"/>
  </filter>
  <filter id="l" x="-320" y="-240" width="200%" height="200%">
   <feGaussianBlur stdDeviation="10"/>
  </filter>
 </defs>
 <g opacity=".75">
  <path d="m312.19 92.098c-37.514 0-69.203 23.923-79.062 56.594-4.105-2.321-8.827-3.657-13.875-3.657-15.613 0-28.282 12.669-28.282 28.282 0 0.159-0.001999 0.31 0 0.468-4.676-0.95801-9.58-1.5-14.656-1.5-30.947 0-56.062 19.018-56.062 42.438 0 23.419 25.115 42.437 56.062 42.437 12.257 0 23.583-3.006 32.813-8.062 5.512 16.492 21.067 28.406 39.406 28.406 12.427 0 23.569-5.471 31.187-14.125 7.391 3.866 16.082 6.094 25.375 6.094 12.645 0 24.184-4.113 32.844-10.875 11.67 12.111 28.829 19.781 47.969 19.781 23.481 0 44.002-11.553 55.031-28.687 1.661 0.243 3.364 0.375 5.094 0.375 18.68 0 33.812-14.691 33.812-32.813s-15.132-32.844-33.812-32.844c-3.343 0-6.575 0.498-9.625 1.375-10.066-11.865-25.115-20.09-42.313-22.093-3.517-40.082-38.849-71.594-81.906-71.594z" fill="#4bb8f0" stroke-width="0"/>
 </g>
 <g fill="#fff" stroke="#fff" stroke-width="5">
  <ellipse cx="282" cy="133" rx="34" ry="27" filter="url(#m)" opacity=".75"/>
  <ellipse cx="322" cy="131" rx="34" ry="25" filter="url(#n)" opacity=".75"/>
  <ellipse cx="188" cy="211" rx="44" ry="26" filter="url(#o)" opacity=".75"/>
  <ellipse cx="213" cy="171" rx="13" ry="15" filter="url(#p)" opacity=".75"/>
  <ellipse cx="235" cy="239" rx="26" ry="23" filter="url(#q)" opacity=".75"/>
  <ellipse cx="293" cy="226" rx="28" ry="25" filter="url(#r)" opacity=".75"/>
  <ellipse cx="367" cy="227" rx="45" ry="29" filter="url(#s)" opacity=".75"/>
  <ellipse cx="426" cy="219" rx="17" ry="24" filter="url(#t)" opacity=".75"/>
  <ellipse cx="390" cy="193" rx="21" ry="19" filter="url(#k)" opacity=".75"/>
  <ellipse cx="305" cy="190" rx="89" ry="52" filter="url(#l)" opacity=".75"/>
 </g>
</svg>
