<?xml version="1.0" encoding="UTF-8"?>
<svg width="1e3" height="1e3" version="1.1" viewBox="0 0 999.99999 999.99999" xmlns="http://www.w3.org/2000/svg">
 <g transform="translate(0 -52.362)">
  <g transform="matrix(2.7949 0 0 2.7949 1041.3 -1567.8)" fill-rule="evenodd">
   <path d="m-98.888 796.9c-0.14983-0.72401 2.938-1.5243 7.7128-4.4628 4.5238-2.784 11.389-8.2006 15.13-17.033-2e-6 0 3e-6 -1e-5 3e-6 -1e-5 1.7088-3.9511 2.6451-8.2367 3.6495-13.503 0.80546-4.3621 1.6799-9.765 3.2738-14.952 2.7253-8.7639 7.8667-17.565 15.617-24.755 6.7365-5.1088 15.428-8.5885 25.273-9.3271-7.4852-4.2331-15.68-7.7419-24.461-10.38-25.493-7.6596-50.941-6.6235-71.939-1.1982-20.133 4.4163-35.683 12.873-45.872 19.439-10.296 6.6351-15.552 11.455-16.314 10.693-0.51236-0.51315 3.5252-6.5961 13.359-14.723 9.7021-8.0185 25.462-18.126 46.81-23.745 22.052-4.9887 49.012-4.118 76.147 6.7446 9.3289 3.7344 18.024 8.4055 25.949 13.795-8.682 3.4413-16.537 8.9816-22.746 15.571-6.6562 5.8274-11.333 13.146-14.004 20.504-1.5888 4.3241-2.7045 9.5016-3.8205 13.926-1.3188 5.3565-2.8056 10.171-5.1583 14.68h-6e-6c-5.4027 10.206-13.941 15.291-19.375 17.371-5.7705 2.209-9.1401 1.7914-9.2302 1.3561z" fill="#d40000"/>
   <path d="m-323.21 705.64c2e-3 -1e-3 -10.43-10.024-10.921-33.849v-1e-5c-0.13918-7.446 0.82057-14.996 2.4873-23.677 1.2481-6.5738 3.2358-15.402 4.2692-22.62v-1e-5c2.719-12.379 4.2044-26.002 3.6313-40.144 8.4792 4.4057 16.953 9.4165 25.28 15.072 18.056 12.263 33.137 25.998 45.288 40.068 16.796 21.371 26.809 42.084 32.47 57.22 5.6611 15.138 7.0139 24.47 6.1798 24.729-1.1238 0.34856-4.3234-8.3841-11.29-22.524-6.9897-14.186-17.762-33.565-34.504-53.643-10.662-14.122-23.591-28.317-39.112-41.237-7.1735-5.9713-14.498-11.334-21.905-16.111 3.268 13.381 3.9589 26.244 2.7624 38l-1e-5 1e-5c-1.4224 7.8922-3.7332 16.378-5.3219 22.871-2.0416 8.4221-3.403 15.252-3.7962 22.111-1.2852 21.595 6.4547 32.744 4.4835 33.735z" fill="#d40000"/>
   <path d="m-322.98 827.56c-0.50284-0.23106 0.0316-8.2186 9.4562-17.819 4.3975-4.4469 9.4761-7.9419 16.046-12.018 13.675-7.4189 29.367-14.729 48.168-22.876-0.27424-0.0521-0.54841-0.1052-0.8225-0.15931-10.985-2.1685-20.772-5.742-29.252-10.321l-1e-5 -1e-5c-15.777-10.835-26.057-23.557-32.041-33.277-6.0012-9.7493-7.7154-16.267-6.8845-16.7 1.0752-0.55979 4.5961 4.9728 11.603 13.304 7.0266 8.3549 17.547 19.362 32.509 28.816 8.2471 6.4584 17.66 12.618 28.018 17.631 0.25911 0.12542 0.51823 0.24984 0.77733 0.37324-19.133 12.063-33.301 21.321-48.061 30.216-6.9191 3.6468-11.521 6.0521-16.01 9.539-9.2884 7.1512-12.084 13.946-13.507 13.292z" fill="#d40000"/>
   <path d="m-167.4 893.36c-0.74398 0.46287-9.764-8.2219-15.591-27.591-1.8771-6.2633-2.9034-11.793-4.4682-19.043v-1e-5c-2.2791-14.985-5.5307-32.18-10.732-50.052-0.47412-1.629-0.95832-3.2425-1.4526-4.8406 11.144 3.9024 22.413 6.2443 33.009 7.5092 17.352 3.9379 32.641 3.565 43.47 2.6085 10.825-0.9562 17.166-2.3951 17.52-1.2718 0.27045 0.85795-5.5059 4.2092-16.607 6.8452-11.049 2.6236-27.339 4.384-46.242 0.89763-9.4682-2.8466-19.199-7.422-28.76-13.976 0.7241 1.4655 1.4388 2.9448 2.1428 4.4376 7.7857 16.508 13.007 31.993 16.175 46.256 1.2566 7.9776 1.6638 12.435 2.955 18.867 3.6524 18.306 10.153 28.375 8.5808 29.353z" fill="#d40000"/>
   <path d="m-359.39 855.21c-0.31479-0.22408 2.0095-12.322 19.668-19.618 7.8923-3.252 18.175-4.6823 28.947-1.837 4.5632 1.2382 8.6604 3.0014 12.766 4.8124 1.3688 0.60385 2.6756 1.184 3.9736 1.7352 5.4464 2.1977 10.189 3.847 14.727 3.715 4.1191 0.0258 8.3054-1.3858 11.905-3.0923 4.2428-2.0306 8.3908-5.044 11.534-7.3386 7.6969-5.6502 12.294-9.3622 13.249-8.4807 0.8369 0.77211-2.112 6.0498-8.9861 13.298-2.8328 3.0022-6.7749 6.7655-11.741 9.843-4.1668 2.5975-9.4759 4.7843-15.594 5.2096-6.6572 0.30348-12.982-1.4088-18.921-3.939-1.4236-0.57909-2.8097-1.1798-4.1862-1.7861-4.149-1.8275-7.7177-3.4751-11.363-4.5281-8.4393-2.5163-16.869-1.9883-23.637-0.053-7.0761 2.0147-12.481 5.5397-16.033 8.1289-3.6116 2.6326-5.589 4.4432-6.3092 3.9306z" fill="#d40000"/>
   <path d="m-160.38 927.08c-1.3602 0.24848-2.934-5.2549-7.555-13.015-4.5854-7.6998-12.432-17.73-24.719-24.245h-1e-5c-3.1033-1.6648-6.3401-3.0227-10.067-4.7406-1.2994-0.59896-2.5992-1.2161-3.9014-1.8752-5.2374-2.5755-10.129-5.9159-13.973-10.521-3.8175-4.7702-5.8361-10.126-6.7903-14.944-1.149-5.7251-1.1081-11.163-0.85202-15.295 0.59306-9.9736 2.4787-15.74 3.6316-15.651 1.3184 0.10124 1.7383 6.008 2.8851 15.464 0.47938 3.8666 1.1247 8.9298 2.5404 13.417 1.2133 3.7996 3.0317 7.8191 5.8379 10.848 2.6944 3.093 6.5752 5.4042 11.186 7.757 1.1666 0.57631 2.3701 1.138 3.6194 1.7126 3.5575 1.636 7.0625 3.1897 10.639 5.2125v1e-5c14.468 8.2579 22.351 20.747 25.795 30.116 3.5042 9.5319 2.7114 15.578 1.7224 15.759z" fill="#d40000"/>
   <path d="m-185.4 695.79c-0.0325-0.26156 2.6171-0.55847 6.9356-1.9942 4.2838-1.4242 10.277-4.0519 16.009-9.034 3.4495-3.0062 6.8768-6.9255 8.9422-11.71 0.59211-1.3725 1.0733-2.8239 1.4131-4.3224 0.77642-3.4238 0.7618-6.8477-0.0894-9.9591-0.4213-1.5326-1.0087-2.9444-1.8721-4.1073-0.9076-1.2188-2.0828-2.1706-3.3829-2.6059-1.2777-0.44257-2.6863-0.406-3.8888 7e-3 -1.3124 0.44802-2.4155 1.3489-3.1328 2.4045-0.73638 1.0816-1.0919 2.3425-1.111 3.5158-0.0236 1.362 0.39509 2.6264 1.0106 3.6054 0.78247 1.2471 1.8823 2.065 2.8671 2.5294 2.4237 1.1448 3.8618 0.45043 3.928 0.78529-0.0176-0.0889-1.3993 1.0084-4.2446-0.0164-1.1543-0.41645-2.487-1.247-3.5004-2.6561-0.79653-1.1094-1.3791-2.5764-1.4294-4.2355-0.0421-1.4312 0.3211-2.9818 1.1899-4.3671 0.85082-1.3545 2.1805-2.5195 3.851-3.1485 1.5361-0.57566 3.323-0.66982 5.0236-0.12797 1.7114 0.56001 3.2163 1.699 4.3288 3.1812 1.0527 1.3991 1.7688 3.019 2.2398 4.7177 0.96016 3.4476 1.0087 7.2009 0.16923 10.92-0.36742 1.6278-0.89365 3.1969-1.5466 4.6759-2.27 5.1446-5.9254 9.2356-9.5983 12.286-6.0851 5.067-12.397 7.5368-16.872 8.6944-4.52 1.1694-7.2242 1.0888-7.24 0.96138z"/>
   <path d="m-228.79 794.03c0.0462 0.91726-2.357 0.43308-4.4929 3.5696-0.81107 1.1776-1.4148 2.9455-1.122 4.7553 0.21646 1.409 1.0278 2.9448 2.3255 3.9001 1.1036 0.82967 2.6887 1.2988 4.1616 1.0813 1.3392-0.14129 2.7205-0.93361 4.0455-2.0383 1.2485-1.0644 2.3149-2.4937 3.5245-4.164 3.2946-4.6327 6.3631-9.839 9.0278-15.625 0.48168-1.0459 0.94167-2.0924 1.3806-3.1381 5.5886-13.314 7.3866-25.755 7.95-35.195 0.55435-9.2884-0.0433-15.078 0.85012-15.222 0.66159-0.10733 2.7407 5.4842 3.265 15.229 0.52866 9.8251-0.67234 23.242-6.5354 37.486v1e-5c-0.45997 1.1175-0.94639 2.2348-1.4599 3.35-2.8407 6.1693-6.2337 11.677-9.9305 16.484-1.3284 1.7563-2.8036 3.4757-4.6592 4.9572-1.9901 1.6141-4.4278 2.6574-7.0206 2.8616h-1e-5c-2.9543 0.17167-5.6263-0.92837-7.5142-2.6554-2.1743-2.0111-3.1412-4.6643-3.1864-7.0502-0.0429-3.0352 1.3335-5.424 2.832-6.8488 3.9312-3.7102 6.5692-1.522 6.5583-1.7369z" fill="#501616"/>
   <path d="m-229.02 791.37c-0.75664-0.33628 3.6581-11.924 9.8543-25.866s11.839-24.983 12.596-24.647c0.75664 0.33628-3.6581 11.924-9.8543 25.866s-11.839 24.983-12.596 24.647z" fill="#501616"/>
   <path d="m-199.63 707.17c-0.10396-0.33882 1.1344-1.1787 3.5793-1.9641 2.0113-0.6633 5.7383-1.5394 9.68-0.28686 1.5721 0.51734 3.1822 1.4556 4.4904 2.9244 1.2048 1.3551 2.0518 3.177 2.1603 5.2452 0.0533 1.54-0.31116 3.06-1.0339 4.4054-0.26737 0.49808-0.57307 0.96989-0.912 1.4133-0.54992 0.71936-1.1759 1.349-1.8445 1.8869-2.2788 1.8024-4.8608 2.7198-7.0885 3.2869-10.535 2.8062-17.891 0.73286-17.846 0.0889 0.0688-0.98617 7.3611-0.61146 16.784-3.6888 1.9997-0.68004 4.1233-1.4669 5.619-2.7667 0.44639-0.37865 0.85927-0.7946 1.2067-1.2429 0.21429-0.27652 0.40126-0.56223 0.55591-0.85617 0.41199-0.78416 0.64923-1.626 0.62841-2.401 9e-3 -1.0331-0.45389-2.1125-1.0996-2.9631l-1e-5 -1e-5c-0.71406-0.94181-1.7644-1.6513-2.8321-2.1343-2.6035-1.2203-6.1325-0.9841-8.0709-0.87171-2.4158 0.16169-3.8582 0.30972-3.9763-0.0752z" fill="#501616"/>
   <path d="m-194.72 711.3c-0.0437 0.14246-0.47928 0.12596-1.1942 0.10245-0.57231-0.0123-1.6093-0.0559-2.329 0.30391-0.29665 0.14178-0.58595 0.34315-0.77426 0.60157-0.16944 0.23227-0.29154 0.52307-0.28424 0.78858-5e-3 0.19964 0.0604 0.4225 0.17032 0.63287 0.0414 0.0791 0.0922 0.15647 0.15078 0.23187 0.095 0.12223 0.20902 0.23713 0.3326 0.3431 0.41265 0.36554 1.0239 0.5936 1.6077 0.79961 2.7491 0.92228 4.9081 0.87901 4.9329 1.2348 0.0178 0.25538-2.1652 0.93578-5.3313 0.11513-0.66929-0.16366-1.4525-0.44072-2.1588-0.99469-0.20692-0.16571-0.40084-0.36072-0.57179-0.58459-0.10536-0.13798-0.20063-0.28514-0.28431-0.44079-0.22644-0.42085-0.33945-0.89803-0.32239-1.3845 0.0368-0.65368 0.3029-1.2229 0.68199-1.6444 0.41113-0.45603 0.91036-0.74315 1.3962-0.89782 1.2209-0.37193 2.3334-0.0883 2.9324 0.13056 0.72579 0.25741 1.0849 0.53336 1.0453 0.66231z"/>
   <path d="m-198.5 694.28c0.0803-0.6968 5.1488 1.0211 12.899-2.5879 3.3867-1.5762 7.0833-4.2432 9.9301-8.2609 1.7282-2.4428 3.144-5.3911 3.7416-8.6354 0.54621-2.9635 0.41594-6.2175-0.68763-9.225-0.8175-2.2311-2.1782-4.3406-3.9984-5.9844-0.49262-0.44486-1.0139-0.85098-1.5605-1.2134-2.6205-1.7416-5.8083-2.4754-8.7148-2.0441-2.7285 0.39258-5.2149 1.7844-7.0113 3.6376-1.9736 2.0326-3.1537 4.6374-3.5924 7.167-0.24387 1.4441-0.2634 2.838 0.0374 4.1135 0.3281 1.3863 1.0013 2.6059 1.9373 3.4382 0.93739 0.84622 2.1285 1.3118 3.2528 1.4068 1.3124 0.11299 2.5594-0.26161 3.5016-0.85411 1.209-0.75805 1.961-1.8697 2.3418-2.8463 0.96694-2.4728 4e-3 -3.734 0.35078-3.8522-0.14267 0.0486 1.2039 1.2044 0.36696 4.0936-0.33174 1.1418-1.0927 2.4864-2.4732 3.4744-1.0803 0.77132-2.5397 1.3031-4.1631 1.2404-1.393-0.0556-2.8779-0.55984-4.1075-1.5868-1.209-1.022-2.1004-2.4744-2.5287-4.1365-0.39212-1.5174-0.42649-3.1348-0.17963-4.7571 0.42254-2.8522 1.6906-5.8024 3.916-8.1773 2.0341-2.1674 4.8627-3.7926 8.0612-4.2906 3.4155-0.51848 7.0788 0.29118 10.112 2.3095 0.62937 0.41969 1.2278 0.88642 1.7918 1.3953 2.0843 1.8808 3.6165 4.2629 4.5221 6.7928 1.2163 3.4025 1.3342 7.0002 0.68456 10.256-0.71025 3.5576-2.2897 6.7161-4.2033 9.2918-3.1447 4.2387-7.1594 6.9408-10.797 8.4523h-1e-5c-8.3541 3.4693-13.399 1.1255-13.429 1.3828z"/>
   <path d="m-122.72 797c-0.75992-1.6438 7.8817-4.7886 16.269-16.661 4.782-6.6926 7.8134-14.117 11.705-25.035 4.4514-10.357 9.227-21.913 13.674-34.394-3.575-0.40137-7.2215-0.64781-10.931-0.72999-18.127-0.40156-34.779 3.1594-48.867 8.1585-14.302 4.2831-25.538 10.091-33.256 14.436-7.7401 4.3581-12.059 7.2476-12.706 6.4826-0.53209-0.62944 2.6767-4.8628 9.8802-10.647 7.1591-5.7485 18.385-13.023 33.369-18.452 15.666-4.867 34.726-7.2288 55.586-4.8253 4.2537 0.49014 8.4285 1.162 12.507 1.997-3.2115 15.233-6.9985 28.975-11.131 41.08-4.4291 10.854-8.8176 19.129-14.856 25.924-11.085 12.359-21.079 13.021-21.243 12.666z" fill="#f55"/>
   <path d="m-301.88 717.14c-0.95306 0.2969-5.7243-8.6795-9.0495-25.253v-1e-5c-1.5918-7.9189-2.8662-17.883-2.5411-28.901 1.3906-12.009 4.9625-25.279 11.417-38.794 5.4543 4.2379 10.962 8.7455 16.453 13.526 11.489 10.002 21.632 20.086 30.427 30.008 26.518 33.429 37.554 61.382 36.024 62.201-2.1489 1.1493-16.415-24.813-43.221-56.286-7.3621-9.7371-15.598-19.909-24.887-30.067-4.458-4.8755-8.9324-9.5007-13.429-13.895-3.2495 11.617-4.3367 23.17-4.2108 33.785-0.85763 10.182-0.36983 19.772 0.34192 27.484 1.497 16.151 4.0422 25.766 2.6764 26.192z" fill="#f55"/>
   <path d="m-244.81 762.27c-18.833-11.598-33.31-29.729-40.446-50.265-4.4726-13.269-5.9254-27.431-4.3454-41.131 6.2679 3.8925 12.006 8.5963 17.05 13.924 6.7252 6.0713 12.547 13.244 17.088 21.227 9.4398 16.68 13.256 36.867 10.28 56.415zm0.11999 0.26616c4.7225-19.299 2.8506-40.483-5.6105-59.129-4.038-8.9486-9.5683-17.275-16.293-24.595-7.145-6.7424-15.309-12.353-24.136-16.52a3.5012 3.3496 16.032 0 0 -4.9488 2.5981c-1.7214 16.517 0.74208 33.304 6.9727 48.408 8.4302 20.968 24.184 38.671 43.641 49.407z" fill="#a51d1e"/>
   <path d="m-184.97 782.52c20.414-0.45226 40.806-6.0681 58.735-16.283 13.252-7.4204 25.2-17.322 35.032-29.105a2.811 2.7217 20.159 0 0 -2.1637 -4.4829c-8.725-0.24705-17.496 0.51717-26.093 2.2575-8.5649 2.3177-16.826 5.6047-24.566 9.7837-16.68 8.9399-30.91 22.002-41.118 37.509zm0.15637-0.0848c11.328-14.63 26.235-26.23 42.837-33.549 7.7262-3.3769 15.812-5.8304 24.03-7.3361 6.1043-1.5571 12.356-2.5909 18.662-3.0737-8.0544 9.7809-17.691 18.336-28.475 25.209-17.064 10.695-36.915 17.125-57.228 18.429z" fill="#a51d1e"/>
   <path d="m-216.79 817.22c0.17654 10.898 2.8459 21.799 7.7886 31.624 4.0004 8.0408 9.5112 15.372 16.193 21.494a1.3956 1.4313 17.751 0 0 2.3341 -1.2396c-0.53652-5.1808-1.5147-10.323-2.9171-15.357-1.7819-5.2927-4.033-10.41-6.7191-15.27-4.4372-7.9136-10.021-15.121-16.488-21.333zm0.031 0.073c5.9397 6.6898 10.851 14.22 14.549 22.25 2.2938 4.8999 4.1348 9.9936 5.5053 15.194 1.1479 3.5502 2.0764 7.1762 2.7755 10.85-5.4217-5.0398-10.078-10.947-13.723-17.456-5.2191-9.4182-8.3061-20.07-8.9157-30.92z" fill="#dd2a2b"/>
   <path d="m-251.43 798.22c-5.5483 8.8543-13.015 16.443-21.691 22.099-6.2132 4.0177-13.03 7.0471-20.117 8.9695 2.271-2.7567 4.7045-5.3741 7.2813-7.8354 3.5506-3.787 7.4399-7.2775 11.617-10.41 6.9667-5.2832 14.75-9.5739 23.036-12.666zm0.0585-0.0468c-8.5206 2.4454-16.73 6.1558-24.273 11.002-4.4894 2.9176-8.7344 6.2374-12.672 9.9088-3.4966 3.6258-6.694 7.5293-9.5477 11.661a1.3497 1.3835 10.499 0 0 1.4255 2.1301c8.6868-2.2804 16.911-6.1519 24.149-11.337 8.6165-6.1247 15.841-14.112 21.045-23.208z" fill="#dd2a2b"/>
   <path d="m-222.71 780.05c0.26906-0.31465 2.3732 1.0425 4.6967 3.0293s3.9909 3.8547 3.7218 4.1694c-0.26906 0.31465-2.3732-1.0425-4.6967-3.0293s-3.9909-3.8547-3.7218-4.1694z" fill="#501616"/>
   <path d="m-214.52 760.88c0.26906-0.31465 2.3732 1.0425 4.6967 3.0293s3.9909 3.8547 3.7218 4.1694c-0.26906 0.31465-2.3732-1.0425-4.6967-3.0293s-3.9909-3.8547-3.7218-4.1694z" fill="#501616"/>
   <path d="m-217.8 770.46c0.26906-0.31465 2.3732 1.0425 4.6967 3.0293s3.9909 3.8547 3.7218 4.1694c-0.26906 0.31465-2.3732-1.0425-4.6967-3.0293s-3.9909-3.8547-3.7218-4.1694z" fill="#501616"/>
  </g>
 </g>
</svg>
