<?xml version="1.0" encoding="UTF-8"?>
<svg viewBox="0 0 300 310" xmlns="http://www.w3.org/2000/svg" xmlns:xlink="http://www.w3.org/1999/xlink">
 <defs>
  <clipPath id="i">
   <path d="m363.19 342.94c-9.1094 20.504-13.546 39.48-14.447 65.407-0.47487 13.668 2.6769 31.184 8.3483 45.943-23.162 0.143-33.105 26.921 3.1972 68.069-14.905 4.3041-10.072 14.081-3.8485 16.37-65.607 23.735-67.995 82.024-36.324 98.614-4.119-36.064 13.529-54.84 51.333-59.974 13.934-3.6716 26.062-9.1867 36.354-16.118l0.14802-0.10793c26.176-19.603 40.327-48.844 41.209-80.014-3.1e-4 -0.01183 3.3e-4 -0.02414 0-0.03598-0.80035-29.915-14.807-62.121-43.222-90.051-20.765-19.23-41.055-28.206-42.748-48.102z" fill-rule="evenodd"/>
  </clipPath>
  <clipPath id="l">
   <path transform="matrix(.98186 0 0 .95488 8.7198 24.105)" d="m472.41 495.66c-2.1936-0.14207-4.7004 0.49698-6.875 2.0625-3.8123 2.7445-4.4828 5.4194-6.6562 8.7188s-5.7755 6.8786-15 10.781c-21.372 9.042-41.622 23.564-45.062 41.875-1.7403 9.2627-2.3262 18.097-1.3125 23.156 0.50687 2.5296 1.4151 3.9284 2.3125 4.25 0.44868 0.16078 0.99795 0.13478 1.8125-0.21875s1.8418-1.071 3.0312-2.2188c2.3313-2.2495 2.8453-3.71 4.5625-5.8125s4.5259-4.6084 11.281-8.75c13.987-8.5752 18.507-15.615 26.344-34.75 3.8119-9.3081 9.1367-16.676 20.344-23.094 8.136-4.6591 10.815-8.8323 10.844-11.438 0.01451-1.3026-0.54055-2.329-1.5312-3.125s-2.4471-1.3309-4.0938-1.4375z" fill-rule="evenodd"/>
  </clipPath>
  <filter id="h">
   <feGaussianBlur stdDeviation="11.88772"/>
  </filter>
  <filter id="k">
   <feGaussianBlur stdDeviation="2.53402"/>
  </filter>
  <linearGradient id="a">
   <stop stop-color="#f0f" offset="0"/>
   <stop stop-color="#f0f" stop-opacity="0" offset="1"/>
  </linearGradient>
  <linearGradient id="b">
   <stop stop-color="#ffe680" offset="0"/>
   <stop stop-color="#f9c" offset="1"/>
  </linearGradient>
  <linearGradient id="g" x1="299.87" x2="452.5" gradientUnits="userSpaceOnUse" xlink:href="#b"/>
  <linearGradient id="f" x1="411.89" x2="401.75" y1="433.9" y2="471.75" gradientUnits="userSpaceOnUse" xlink:href="#a"/>
  <linearGradient id="e" x2="0" y1="472.53" y2="507.97" gradientUnits="userSpaceOnUse" xlink:href="#a"/>
  <linearGradient id="d" x1="399.52" x2="398" y1="554.04" y2="524.79" gradientUnits="userSpaceOnUse" xlink:href="#a"/>
  <linearGradient id="c" x1="383.92" x2="375.36" y1="397.92" y2="429.86" gradientUnits="userSpaceOnUse" xlink:href="#a"/>
  <linearGradient id="j" x1="428.93" x2="411.89" y1="558" y2="535.87" gradientUnits="userSpaceOnUse" xlink:href="#b"/>
 </defs>
 <g transform="translate(-238.07 -335.77)">
  <g transform="matrix(.96593 -.25882 .25882 .96593 -177.13 98.517)" fill-rule="evenodd">
   <path d="m410 409.51c-27.919-22.614-55-29.286-38.571-63.571-19.286 26.429-27.917 45.785-29.286 77.143-0.52862 12.116 2.9724 27.921 9.2857 41.429-25.784-1.4649-36.84 21.647 3.5714 60.714-16.592 2.801-11.213 11.824-4.2857 14.286-80.839 18.36-75.44 79.649-27.857 89.286-4.3832-32.31 13.52-49.099 52.093-53.681 88.602-20.42 106.15-104.47 35.05-165.6z"/>
   <path d="m364.43 369.84c-9.3318 17.81-13.877 34.292-14.799 56.812-0.48646 11.872 2.7422 27.087 8.5521 39.906-23.728 0.12421-33.913 23.384 3.2753 59.125-15.269 3.7386-10.318 12.231-3.9424 14.219-67.209 20.617-69.655 71.246-37.211 85.656-4.2195-31.326 13.86-47.634 52.586-52.094 14.274-3.1892 26.698-7.9796 37.241-14l0.15163-0.09375c26.815-17.027 41.311-42.426 42.215-69.5-3.2e-4 -0.01028 3.3e-4 -0.02097 0-0.03125-0.81989-25.984-15.168-53.959-44.277-78.219-21.272-16.703-42.057-24.5-43.791-41.781z" fill="url(#g)"/>
   <path d="m442.2 519.27c7.7935-25.198-4.1122-58.964-12.515-71.616-19.721-29.693-46.305-31.033-57.827-15.423-13.901 18.833-4.854 43.366 25.699 49.267 27.239 5.2607 39.05 19.354 44.643 37.773z" fill="url(#f)"/>
   <path d="m441.39 519.75c-3.3308-20.092-23.257-39.318-33.45-45.163-23.923-13.719-42.779-5.4859-45.347 9.2673-3.0982 17.799 11.654 31.631 34.835 25.182 20.667-5.7499 33.717-0.08303 43.963 10.714z" fill="url(#e)"/>
   <path d="m442.77 517.21c-4.456 15.743-22.05 29.338-30.692 33.109-20.283 8.8505-34.56 0.62605-35.28-11.373-0.86951-14.477 12.12-24.221 30.001-17.041 15.942 6.4014 26.843 3.0234 35.972-4.695z" fill="url(#d)"/>
   <path d="m391.88 422.38c-8.1825-0.01778-15.35 3.5023-20.031 9.8438-1.4775 2.0017-2.6642 4.0862-3.625 6.1875 11.348-14.355 36.315-14.368 56.812 11.625 9.0571 11.486 22.832 42.916 17.375 68.438 7.3046-25.108-4.404-58.293-12.719-70.812-11.709-17.63-25.853-25.255-37.812-25.281z"/>
   <path d="m442.31 518.62c-5.0914 14.645-21.846 25.992-30.219 28.875-19.383 6.6754-33.27-1.7413-35.094-13.031-0.21531 1.4308-0.2809 2.9137-0.1875 4.4688 0.72072 11.999 14.999 20.226 35.281 11.375 8.3828-3.658 25.15-16.549 30.219-31.688z"/>
   <path d="m362.78 493.75c2.8509 12.548 16.026 20.465 34.656 15.281 20.667-5.7499 33.723-0.07876 43.969 10.719-10.527-11.537-23.923-18.134-45.156-13.875-16.144 3.2382-28.298-2.5767-33.469-12.125z"/>
   <path d="m383.75 467.59c-10.248 0.31774-17.654 5.5698-20.344 13.156 7.6966-8.4889 23.758-11.727 42.938-2.6875 10.681 5.0338 31.572 22.427 35.062 41.688-3.3308-20.093-23.275-39.31-33.469-45.156-8.9711-5.1447-17.233-7.2156-24.188-7z"/>
   <path transform="matrix(1.0244 0 0 .8686 -7.6191 71.963)" d="m358.72 329.84c-9.3318 23.381 286.12 45.02 285.2 74.586-0.48646 15.586 2.7422 35.561 8.5521 52.391-23.728 0.16307-33.913 30.7 3.2753 77.622-15.269 4.9082-10.318 16.057-3.9424 18.667-67.209 27.066-369.65 93.535-337.21 112.45-4.2195-41.126 13.86-62.536 52.586-68.391 14.274-4.1869 26.698-10.476 37.241-18.38l0.15163-0.12308c62.926-62.558 49.862-154.9-2.0622-193.97-21.272-21.929-42.057-32.165-43.791-54.852z" clip-path="url(#i)" fill="#f0f" filter="url(#h)"/>
  </g>
  <g transform="matrix(.96593 -.25882 .25882 .96593 -99.542 79.53)">
   <path transform="translate(-86.786 -9.5)" d="m386.79 418.43a11.429 11.429 0 1 1 -22.857 0 11.429 11.429 0 1 1 22.857 0z" fill="url(#c)"/>
   <path d="m288.56 397.5c-5.2712 0-9.6819 3.5817-11 8.4375 1.8192-4.6207 7.5098-6.9502 13.344-5.2188 4.6987 1.3945 8.1647 5.0249 9.0625 9 0.01794-0.26168 0.03125-0.51504 0.03125-0.78125 0-6.3086-5.1289-11.438-11.438-11.438z"/>
  </g>
  <path d="m395.71 560.22c-3.6763 20.19-2.5766 38.578 7.8571 28.571 5.1007-4.8918 2.365-6.6599 16.429-15 14.796-8.7745 19.801-16.593 28.036-37.143 3.942-9.8372 9.3148-17.371 20.893-23.75 23.121-12.739 7.0566-24.124-2.8571-17.143-8.4206 5.9293-3.3944 12.625-22.5 20.179-22.551 8.9154-44.135 23.843-47.857 44.286z" fill-rule="evenodd"/>
  <path transform="matrix(1 0 0 .97251 0 13.623)" d="m472.41 495.66c-2.1936-0.14207-4.7004 0.49698-6.875 2.0625-3.8123 2.7445-4.4828 5.4194-6.6562 8.7188s-5.7755 6.8786-15 10.781c-21.372 9.042-41.622 23.564-45.062 41.875-1.7403 9.2627-2.3262 18.097-1.3125 23.156 0.50687 2.5296 1.4151 3.9284 2.3125 4.25 0.44868 0.16078 0.99795 0.13478 1.8125-0.21875s1.8418-1.071 3.0312-2.2188c2.3313-2.2495 2.8453-3.71 4.5625-5.8125s4.5259-4.6084 11.281-8.75c13.987-8.5752 18.507-15.615 26.344-34.75 3.8119-9.3081 9.1367-16.676 20.344-23.094 8.136-4.6591 10.815-8.8323 10.844-11.438 0.01451-1.3026-0.54055-2.329-1.5312-3.125s-2.4471-1.3309-4.0938-1.4375z" fill="url(#j)" fill-rule="evenodd"/>
  <path transform="matrix(1.0185 0 0 1.0185 -8.8808 -10.927)" d="m473 493.62c-2.2827-0.05254-4.7689 0.59798-6.9375 2.125-8.4206 5.9293-3.3944 12.634-22.5 20.188-22.551 8.9154-44.122 23.839-47.844 44.281-3.6763 20.19-2.59 38.569 7.8438 28.562 5.1007-4.8918 2.374-6.6599 16.438-15 14.796-8.7745 19.796-16.575 28.031-37.125 3.942-9.8372 9.3282-17.371 20.906-23.75 18.063-9.9522 12.215-19.094 4.0625-19.281zm-1.4375 2c0.28273-0.00674 0.56955 0.01398 0.84375 0.03125 1.6467 0.10371 3.103 0.63214 4.0938 1.4062s1.5458 1.7644 1.5312 3.0312c-0.02902 2.5336-2.7077 6.5939-10.844 11.125-11.207 6.2414-16.532 13.416-20.344 22.469-7.8363 18.609-12.357 25.442-26.344 33.781-6.7553 4.0278-9.5641 6.4553-11.281 8.5s-2.2312 3.4686-4.5625 5.6562c-1.1895 1.1162-2.2167 1.8124-3.0312 2.1562s-1.3638 0.37509-1.8125 0.21875c-0.89736-0.31271-1.8056-1.6649-2.3125-4.125-1.0137-4.9202-0.4278-13.523 1.3125-22.531 3.4404-17.808 23.69-31.925 45.062-40.719 9.2245-3.7954 12.827-7.2601 15-10.469s2.8439-5.8309 6.6562-8.5c1.9028-1.3322 4.0522-1.984 6.0312-2.0312z" clip-path="url(#l)" fill-rule="evenodd" filter="url(#k)"/>
  <path d="m410 409.51c-27.919-22.614-55-29.286-38.571-63.571-19.286 26.429-27.917 45.785-29.286 77.143-0.52862 12.116 2.9724 27.921 9.2857 41.429-25.784-1.4649-36.84 21.647 3.5714 60.714-16.592 2.801-11.213 11.824-4.2857 14.286-80.839 18.36-75.44 79.649-27.857 89.286-4.3832-32.31 13.52-49.099 52.093-53.681 88.602-20.42 106.15-104.47 35.05-165.6z" fill-rule="evenodd"/>
  <path d="m364.43 369.84c-9.3318 17.81-13.877 34.292-14.799 56.812-0.48646 11.872 2.7422 27.087 8.5521 39.906-23.728 0.12421-33.913 23.384 3.2753 59.125-15.269 3.7386-10.318 12.231-3.9424 14.219-67.209 20.617-69.655 71.246-37.211 85.656-4.2195-31.326 13.86-47.634 52.586-52.094 14.274-3.1892 26.698-7.9796 37.241-14l0.15163-0.09375c26.815-17.027 41.311-42.426 42.215-69.5-3.2e-4 -0.01028 3.3e-4 -0.02097 0-0.03125-0.81989-25.984-15.168-53.959-44.277-78.219-21.272-16.703-42.057-24.5-43.791-41.781z" fill="url(#g)" fill-rule="evenodd"/>
  <path d="m442.2 519.27c7.7935-25.198-4.1122-58.964-12.515-71.616-19.721-29.693-46.305-31.033-57.827-15.423-13.901 18.833-4.854 43.366 25.699 49.267 27.239 5.2607 39.05 19.354 44.643 37.773z" fill="url(#f)" fill-rule="evenodd"/>
  <path d="m441.39 519.75c-3.3308-20.092-23.257-39.318-33.45-45.163-23.923-13.719-42.779-5.4859-45.347 9.2673-3.0982 17.799 11.654 31.631 34.835 25.182 20.667-5.7499 33.717-0.08303 43.963 10.714z" fill="url(#e)" fill-rule="evenodd"/>
  <path d="m442.77 517.21c-4.456 15.743-22.05 29.338-30.692 33.109-20.283 8.8505-34.56 0.62605-35.28-11.373-0.86951-14.477 12.12-24.221 30.001-17.041 15.942 6.4014 26.843 3.0234 35.972-4.695z" fill="url(#d)" fill-rule="evenodd"/>
  <path transform="translate(-6.7857 -7.5)" d="m386.79 418.43a11.429 11.429 0 1 1 -22.857 0 11.429 11.429 0 1 1 22.857 0z" fill="url(#c)"/>
  <path d="m391.88 422.38c-8.1825-0.01778-15.35 3.5023-20.031 9.8438-1.4775 2.0017-2.6642 4.0862-3.625 6.1875 11.348-14.355 36.315-14.368 56.812 11.625 9.0571 11.486 22.832 42.916 17.375 68.438 7.3046-25.108-4.404-58.293-12.719-70.812-11.709-17.63-25.853-25.255-37.812-25.281z" fill-rule="evenodd"/>
  <path d="m442.31 518.62c-5.0914 14.645-21.846 25.992-30.219 28.875-19.383 6.6754-33.27-1.7413-35.094-13.031-0.21531 1.4308-0.2809 2.9137-0.1875 4.4688 0.72072 11.999 14.999 20.226 35.281 11.375 8.3828-3.658 25.15-16.549 30.219-31.688z" fill-rule="evenodd"/>
  <path d="m362.78 493.75c2.8509 12.548 16.026 20.465 34.656 15.281 20.667-5.7499 33.723-0.07876 43.969 10.719-10.527-11.537-23.923-18.134-45.156-13.875-16.144 3.2382-28.298-2.5767-33.469-12.125z" fill-rule="evenodd"/>
  <path d="m383.75 467.59c-10.248 0.31774-17.654 5.5698-20.344 13.156 7.6966-8.4889 23.758-11.727 42.938-2.6875 10.681 5.0338 31.572 22.427 35.062 41.688-3.3308-20.093-23.275-39.31-33.469-45.156-8.9711-5.1447-17.233-7.2156-24.188-7z" fill-rule="evenodd"/>
  <path transform="matrix(1.0244 0 0 .8686 -7.6191 71.963)" d="m358.72 329.84c-9.3318 23.381 286.12 45.02 285.2 74.586-0.48646 15.586 2.7422 35.561 8.5521 52.391-23.728 0.16307-33.913 30.7 3.2753 77.622-15.269 4.9082-10.318 16.057-3.9424 18.667-67.209 27.066-369.65 93.535-337.21 112.45-4.2195-41.126 13.86-62.536 52.586-68.391 14.274-4.1869 26.698-10.476 37.241-18.38l0.15163-0.12308c62.926-62.558 49.862-154.9-2.0622-193.97-21.272-21.929-42.057-32.165-43.791-54.852z" clip-path="url(#i)" fill="#f0f" fill-rule="evenodd" filter="url(#h)"/>
  <path d="m513.59 445.5c-6.5477-0.08344-11.398 1.9364-15 5.3125s-5.9653 7.9769-8.0625 13.125c-4.1206 10.115-7.3021 22.389-15.531 32.281 0.56479 0.22426 1.081 0.51634 1.5 0.84375 0.35925 0.28071 0.66795 0.59573 0.90625 0.9375 8.692-10.506 11.924-23.163 15.906-32.938 2.0341-4.9932 4.2382-9.1808 7.3125-12.062s6.9973-4.5757 12.938-4.5l0.03125-3z" fill-rule="evenodd"/>
  <path d="m506.06 423.06c-6.4209 1.5627-10.905 5.3571-14.156 10.438s-5.376 11.415-7.3438 18.406c-3.9046 13.873-7.2738 30.337-17 44.625 1.3861-0.59576 2.8091-0.89542 4.1562-0.90625 8.8613-14.248 12.113-29.985 15.75-42.906 1.9439-6.9068 3.9858-13.013 6.9375-17.625s6.7046-7.7449 12.375-9.125l-0.71875-2.9062z" fill-rule="evenodd"/>
  <path transform="matrix(.93333 0 0 .93333 33.905 28.253)" d="m513.93 423.79a5.3571 5.3571 0 1 1 -10.714 0 5.3571 5.3571 0 1 1 10.714 0z"/>
  <path transform="matrix(.93333 0 0 .93333 43.012 52.003)" d="m513.93 423.79a5.3571 5.3571 0 1 1 -10.714 0 5.3571 5.3571 0 1 1 10.714 0z"/>
  <path d="m368.56 399.5c-5.2712 0-9.6819 3.5817-11 8.4375 1.8192-4.6207 7.5098-6.9502 13.344-5.2188 4.6987 1.3945 8.1647 5.0249 9.0625 9 0.01794-0.26168 0.03125-0.51504 0.03125-0.78125 0-6.3086-5.1289-11.438-11.438-11.438z"/>
 </g>
</svg>
