<?xml version="1.0" encoding="utf-8"?>
<!-- Generator: Adobe Illustrator 24.2.0, SVG Export Plug-In . SVG Version: 6.00 Build 0)  -->
<svg version="1.1" id="Layer_1" xmlns="http://www.w3.org/2000/svg" xmlns:xlink="http://www.w3.org/1999/xlink" x="0px" y="0px"
	 viewBox="0 0 414.2 452.62" style="enable-background:new 0 0 414.2 452.62;" xml:space="preserve">
<style type="text/css">
	.st0{fill:#98CEEC;}
	.st1{fill:#BEE1F4;}
	.st2{fill:#B197C7;}
	.st3{fill:#FBE796;}
	.st4{fill:#F7B6D2;}
	.st5{fill:#333E73;}
</style>
<g>
	<g>
		<path class="st0" d="M80.36,128.05C56,121.68,29,134.39,15.07,155.36s-25.39,67.33-0.15,94.53
			c15.33,16.52,48.72,32.02,71.67,23.12c4.62-1.79,9.41-4.22,14.27-3.28c4.4,0.85,7.75,4.28,11.22,7.11
			c21.81,17.76,61.15,13.88,78.48-10.04c23.48,23.59,60.61,18.53,70.11-2.76c12.3,8.6,37.93,20.8,52.93,21.29
			c26.56,0.86,44.93-2.84,67.5-16.87c18.46-11.48,31.04-39.6,32.16-61.31s-8.95-43.69-26.12-57.02c-4.23-3.28-9.06-6.31-11.23-11.2
			c-3.05-6.86,0.16-14.67,1.78-22c5-22.72-10.96-48.96-35.4-57.73c-21.9-7.86-42.81-0.5-55.75,18.83
			c9.2-20.58,0.23-46.21-17.15-60.56C252.01,3.11,228.16-1.35,205.68,0.34C183.6,2,161.33,9.54,145.42,24.92
			s-24.34,39.38-17.79,60.53c-10.47-8.72-31.17-8.59-41.83-0.1s-18.56,21.94-5.06,43.87"/>
	</g>
	<g>
		<path class="st1" d="M86.75,133.29c-23.95-6.17-50.5,6.14-64.2,26.46S-2.42,225,22.4,251.35c15.07,16.01,47.91,31.03,70.48,22.41
			c4.54-1.74,9.25-4.09,14.03-3.18c4.33,0.82,7.62,4.15,11.03,6.89c21.45,17.21,60.13,13.45,77.18-9.73
			c23.09,22.86,59.6,17.95,68.95-2.67c12.09,8.33,37.3,20.16,52.05,20.63c26.12,0.83,44.18-2.75,66.38-16.35
			c18.15-11.12,30.52-38.37,31.63-59.4c1.11-21.03-8.8-42.34-25.69-55.25c-4.16-3.18-8.91-6.12-11.04-10.85
			c-3-6.65,0.16-14.22,1.75-21.32c4.91-22.02-10.78-47.44-34.81-55.94c-21.53-7.61-42.09-0.48-54.83,18.24
			c9.05-19.94,0.23-44.78-16.86-58.69S232.08,7.91,209.98,9.55c-21.71,1.61-43.61,8.91-59.26,23.82s-23.93,38.16-17.49,58.65
			c-10.3-8.45-30.65-8.32-41.13-0.1s-18.25,21.26-4.98,42.51"/>
	</g>
	<g>
		<path class="st1" d="M342.63,343.25c7.97-9.26,18.92-18.77,23.59-30.06c2.05-4.95,3.12-11.35-0.74-15.07
			c-3.7-3.56-10.17-2.36-13.9,1.17c-3.73,3.53-7.13,8.68-8.67,13.58c0.28-0.88-2.45-5.8-3.94-8.44c-3.66-6.47-8.09-10.36-14.34-8.44
			c-7.31,2.25-6.79,10.81-2.81,19.12c3.09,6.47,18,26.72,19.97,28.12"/>
	</g>
	<g>
		<path class="st2" d="M292.9,443.29c7.97-9.26,18.92-18.77,23.59-30.06c2.05-4.95,3.12-11.35-0.74-15.07
			c-3.7-3.56-10.17-2.36-13.9,1.17c-3.73,3.53-7.13,8.68-8.67,13.58c0.28-0.88-2.45-5.8-3.94-8.44c-3.66-6.47-8.09-10.36-14.34-8.44
			c-7.31,2.25-6.79,10.81-2.81,19.12c3.09,6.47,18,26.72,19.97,28.12"/>
	</g>
	<g>
		<path class="st3" d="M228.41,347.79c6.99-10.02,16.92-20.59,20.43-32.29c1.54-5.13,1.96-11.61-2.26-14.91
			c-4.04-3.17-10.36-1.32-13.71,2.57c-3.35,3.89-6.21,9.36-7.25,14.39c0.19-0.91-3.02-5.52-4.77-8c-4.29-6.07-9.09-9.49-15.12-6.94
			c-7.05,2.98-5.66,11.45-0.86,19.31c3.73,6.12,20.61,24.76,22.71,25.96"/>
	</g>
	<g>
		<path class="st4" d="M171.02,452.62c7.97-9.26,18.92-18.77,23.59-30.06c2.05-4.95,3.12-11.35-0.74-15.07
			c-3.7-3.56-10.17-2.36-13.9,1.17c-3.73,3.53-7.13,8.68-8.67,13.58c0.28-0.88-2.45-5.8-3.94-8.44c-3.66-6.47-8.09-10.36-14.34-8.44
			c-7.31,2.25-6.79,10.81-2.81,19.12c3.09,6.47,18,26.72,19.97,28.12"/>
	</g>
	<g>
		<path class="st0" d="M109.34,355.55c5.4-10.96,13.62-22.9,15.33-35c0.75-5.3,0.18-11.77-4.48-14.4
			c-4.47-2.52-10.44,0.26-13.17,4.61c-2.73,4.35-4.73,10.19-5,15.32c0.05-0.93-3.82-5-5.92-7.19c-5.16-5.35-10.42-8.01-16-4.58
			c-6.52,4.01-3.87,12.17,2.06,19.22c4.61,5.49,24.11,21.37,26.36,22.24"/>
	</g>
	<g>
		<g>
			<g>
				<g>
					<path class="st5" d="M155.23,164.62c3.92,6.68,10.25,11.71,17.59,14.16c7.49,2.5,15.62,1.8,22.77-1.41
						c4.01-1.8,7.66-4.51,10.55-7.82c0.93-1.06,1.05-2.65,0-3.7c-0.95-0.95-2.77-1.07-3.7,0c-4.34,4.98-10.49,8.34-17.09,9.08
						c-6.55,0.74-13.01-1.11-18.35-4.93c-2.95-2.11-5.41-4.89-7.24-8.01C158.05,159.08,153.52,161.71,155.23,164.62L155.23,164.62z"
						/>
				</g>
			</g>
			<g>
				<g>
					<path class="st5" d="M160.58,165.94c-2.21,0.68-4.43,1.36-6.64,2.04c-0.64,0.2-1.22,0.62-1.56,1.2
						c-0.33,0.56-0.47,1.39-0.26,2.02c0.43,1.32,1.82,2.26,3.22,1.83c2.21-0.68,4.43-1.36,6.64-2.04c0.64-0.2,1.22-0.62,1.56-1.2
						c0.33-0.56,0.47-1.39,0.26-2.02C163.37,166.45,161.98,165.51,160.58,165.94L160.58,165.94z"/>
				</g>
			</g>
			<g>
				<g>
					<path class="st5" d="M162.32,172.87c-0.84,0.29-1.68,0.57-2.53,0.86c-0.34,0.08-0.64,0.24-0.89,0.47
						c-0.28,0.18-0.51,0.43-0.67,0.73c-0.19,0.3-0.29,0.62-0.31,0.97c-0.08,0.35-0.06,0.7,0.05,1.04c0.09,0.21,0.18,0.42,0.26,0.62
						c0.23,0.39,0.55,0.71,0.94,0.94c0.21,0.09,0.42,0.18,0.62,0.26c0.46,0.12,0.93,0.12,1.39,0c0.84-0.29,1.68-0.57,2.53-0.86
						c0.34-0.08,0.64-0.24,0.89-0.47c0.28-0.18,0.51-0.43,0.67-0.73c0.19-0.3,0.29-0.62,0.31-0.97c0.08-0.35,0.06-0.7-0.05-1.04
						c-0.09-0.21-0.18-0.42-0.26-0.62c-0.23-0.39-0.55-0.71-0.94-0.94c-0.21-0.09-0.42-0.18-0.62-0.26
						C163.25,172.75,162.78,172.75,162.32,172.87L162.32,172.87z"/>
				</g>
			</g>
		</g>
		<g>
			<g>
				<g>
					<path class="st5" d="M283.55,162.6c-6.71,11.45-21.42,16.35-33.55,10.71c-3.52-1.64-6.59-3.92-9.14-6.85
						c-0.93-1.06-2.75-0.95-3.7,0c-1.06,1.06-0.93,2.63,0,3.7c5.25,6.01,12.71,9.69,20.59,10.59c7.54,0.86,15.39-1.36,21.49-5.85
						c3.56-2.62,6.57-5.85,8.82-9.67C289.77,162.33,285.25,159.7,283.55,162.6L283.55,162.6z"/>
				</g>
			</g>
			<g>
				<g>
					<path class="st5" d="M281.33,171.6c2.21,0.68,4.43,1.36,6.64,2.04c1.31,0.4,2.91-0.48,3.22-1.83c0.32-1.42-0.43-2.79-1.83-3.22
						c-2.21-0.68-4.43-1.36-6.64-2.04c-1.31-0.4-2.91,0.48-3.22,1.83C279.18,169.8,279.93,171.17,281.33,171.6L281.33,171.6z"/>
				</g>
			</g>
			<g>
				<g>
					<path class="st5" d="M279.59,178.53c0.84,0.29,1.68,0.57,2.53,0.86c0.35,0.11,0.7,0.12,1.04,0.05
						c0.35-0.02,0.67-0.12,0.97-0.31c0.3-0.16,0.55-0.39,0.73-0.67c0.23-0.25,0.39-0.55,0.47-0.89c0.03-0.23,0.06-0.46,0.09-0.7
						c0-0.47-0.12-0.91-0.36-1.32c-0.14-0.18-0.27-0.35-0.41-0.53c-0.33-0.32-0.71-0.55-1.15-0.67c-0.84-0.29-1.68-0.57-2.53-0.86
						c-0.35-0.11-0.7-0.12-1.04-0.05c-0.35,0.02-0.67,0.12-0.97,0.31c-0.3,0.16-0.55,0.39-0.73,0.67c-0.23,0.25-0.39,0.55-0.47,0.89
						c-0.03,0.23-0.06,0.46-0.09,0.7c0,0.47,0.12,0.91,0.36,1.32c0.14,0.18,0.27,0.35,0.41,0.53
						C278.76,178.18,279.14,178.41,279.59,178.53L279.59,178.53z"/>
				</g>
			</g>
		</g>
		<g>
			<g>
				<path class="st5" d="M201.07,213.18c11.03,9.29,27.96,10.44,39.95,2.26c1.11-0.76,1.61-2.2,0.9-3.42
					c-0.65-1.1-2.3-1.66-3.42-0.9c-10.04,6.85-24.51,6.42-33.89-1.48c-1.03-0.87-2.52-1.01-3.54,0
					C200.18,210.54,200.03,212.31,201.07,213.18L201.07,213.18z"/>
			</g>
		</g>
	</g>
</g>
<ellipse class="st4" cx="150.48" cy="202.03" rx="10.01" ry="5.02"/>
<ellipse class="st4" cx="300.11" cy="195.89" rx="10.01" ry="5.02"/>
<path class="st1" d="M104.36,337.64"/>
</svg>
