<?xml version="1.0" encoding="UTF-8"?>
<svg viewBox="0 0 744.09447 1052.362179" xmlns="http://www.w3.org/2000/svg" xmlns:xlink="http://www.w3.org/1999/xlink">
 <defs>
  <filter id="c">
   <feGaussianBlur stdDeviation="5.182"/>
  </filter>
  <filter id="g">
   <feGaussianBlur stdDeviation="2.184"/>
  </filter>
  <filter id="h">
   <feGaussianBlur stdDeviation="2.233"/>
  </filter>
  <filter id="i">
   <feGaussianBlur stdDeviation="2.648"/>
  </filter>
  <filter id="a">
   <feGaussianBlur stdDeviation="9.487"/>
  </filter>
  <filter id="j">
   <feGaussianBlur stdDeviation="4.546"/>
  </filter>
  <filter id="q">
   <feGaussianBlur stdDeviation="4.239"/>
  </filter>
  <filter id="r">
   <feGaussianBlur stdDeviation="4.66"/>
  </filter>
  <filter id="d" x="-.2257" y="-.195" width="1.4515" height="1.39">
   <feGaussianBlur stdDeviation="8.285"/>
  </filter>
  <filter id="e" x="-.3075" y="-.19" width="1.615" height="1.38">
   <feGaussianBlur stdDeviation="11.911"/>
  </filter>
  <filter id="f" x="-.1109" y="-.0753" width="1.2218" height="1.1505">
   <feGaussianBlur stdDeviation="3.636"/>
  </filter>
  <linearGradient id="b">
   <stop stop-color="#ff9b00" offset="0"/>
   <stop stop-color="#afaf00" offset="1"/>
  </linearGradient>
  <linearGradient id="p" x1="-392.21" x2="-376.03" y1="607.98" y2="803.88" gradientUnits="userSpaceOnUse">
   <stop offset="0"/>
   <stop stop-opacity="0" offset="1"/>
  </linearGradient>
  <linearGradient id="o" x1="-372.15" x2="-371.14" y1="504.98" y2="615.63" gradientTransform="matrix(.35126 .2028 -.20941 .3627 632.18 314.73)" gradientUnits="userSpaceOnUse" xlink:href="#b"/>
  <radialGradient id="k" cx="-369.8" cy="785.14" r="126.5" gradientTransform="matrix(.4797 .16597 -.07392 .21365 583.46 400.65)" gradientUnits="userSpaceOnUse">
   <stop stop-color="#ffff8d" offset="0"/>
   <stop stop-color="#ffbf00" offset="1"/>
  </radialGradient>
  <radialGradient id="n" cx="-485.2" cy="658.21" r="55.589" gradientTransform="matrix(1.0057 0 0 1.1138 2.4444 -77.148)" gradientUnits="userSpaceOnUse" xlink:href="#b"/>
  <radialGradient id="m" cx="-485.2" cy="658.21" r="55.589" gradientTransform="matrix(-.34629 -.19993 -.22143 .38353 384.48 151.13)" gradientUnits="userSpaceOnUse" xlink:href="#b"/>
  <radialGradient id="l" cx="-489.29" cy="656.01" r="74.896" gradientUnits="userSpaceOnUse" xlink:href="#b"/>
 </defs>
 <path d="m300.6769,595.12c-.1224.2713-1.0926-.1006-2.6648-1.0358-.7861-.4677-1.7209-1.076-2.7794-1.7767s-2.2399-1.4944-3.5399-2.2805c-1.4447-.8778-3.0664-1.7187-4.8364-2.481s-3.6881-1.4465-5.6997-2.0574l-.0849-.0257c-2.3097-.6906-4.6553-.7644-6.8302-.588-2.4.192-4.5944.7163-6.4781,1.2619-4.1598,1.6996-6.9114,2.5466-7.087,2.0677h-1e-005v-1e-005l-.0006-.001-.0006-.002c-.164-.4846 2.3101-2.2108 6.4252-4.5858 1.9271-.8681 4.26-1.6741 6.9063-2.0655 2.3638-.3484 5.0034-.3333 7.6893.4534l.0988.0293c2.0975.6325 4.1089,1.4089 5.9606,2.3144s3.543,1.94 5.0255,3.0375c1.3116.9762 2.4511,1.9548 3.4382,2.8469s1.8217,1.699 2.4986,2.381c1.3538,1.364 2.0814,2.2363 1.959,2.5076z" fill="#008000" fill-rule="evenodd"/>
 <path d="m301.4 594.88c-2.4683-2.086-0.8275-2.8928-7.0316-17.287-2.971-6.8933-15.06-21.219-27.065-6.9849-6.5088 7.7172-21.224 14.079-23.339 13.334s8.3511 3.217 13.378 9.5501c9.7853 12.327 20.974 4.4625 27.813 2.1994s16.244-0.8115 16.244-0.8115z" fill="none" stroke="#008000" stroke-linecap="round" stroke-linejoin="round" stroke-width="3.234"/>
 <path d="m59.693 852.47c0.0137-0.038 0.0474-0.068 0.0987-0.091s0.118-0.04 0.2035-0.05c0.1702-0.021 0.4095-0.019 0.7196 0 0.6188 0.045 1.5129 0.1687 2.6884 0.3403 2.3484 0.3428 5.7959 0.8671 10.333 1.3205 4.6071 0.4607 10.306 0.8585 17.038 0.8935s14.501-0.3041 23.178-1.1717c9.7216-0.9684 20.528-2.571 32.247-5.1022s24.35-5.9954 37.71-10.565 27.448-10.249 42.066-17.033 29.765-14.672 45.226-23.445c15.374-8.7565 30.069-20.378 43.037-34.551 11.645-12.71 21.932-27.503 31.08-43.603 8.681-15.287 16.32-31.777 23.612-48.952 6.8838-16.227 13.433-33.099 20.523-50.212 4.6123-11.149 9.4706-22.438 14.96-33.634 2.258-4.605 4.6073-9.1611 7.0712-13.653 7.8817-14.409 17.146-28.193 28.512-40.086 11.453-11.958 25.116-21.558 40.049-27.829 18.026-7.4778 37.03-10.11 55.137-9.9208 14.926 0.0711 29.831 2.7519 43.231 8.7877 11.477 5.2148 21.451 12.973 29.054 22.37 7.3856 9.1842 12.432 19.621 15.431 30.208 3.0984 10.908 4.1427 21.958 3.5737 32.523-0.5529 10.592-2.7463 20.816-6.473 30.103-3.4847 8.7915-8.5939 16.869-15.303 23.104-6.556 6.0925-14.857 9.8584-23.316 10.535-5.4633 0.3193-10.594-0.5423-15.273-2.0738s-8.9076-3.7334-12.62-6.2123v-1e-5c-4.5416-2.9321-8.5489-6.6085-11.485-10.92-2.5414-3.765-4.0713-7.9733-4.5654-12.154-0.4622-4.4997 0.1888-8.67 1.4011-12.368s2.988-6.9257 4.9482-9.6466c2.4124-3.4303 5.1356-6.2487 7.8719-8.4276s5.4863-3.7243 8.0374-4.7674c1.4655-0.6134 2.9252-1.041 4.2893-1.2652s2.6336-0.2479 3.7597-0.1204c1.1706 0.1332 2.1518 0.4864 2.9209 0.8946s1.3302 0.8721 1.723 1.2878c0.7858 0.8315 0.9314 1.4281 0.7717 1.5604s-0.6213-0.1818-1.4975-0.5773c-0.4381-0.1977-0.9876-0.4092-1.6597-0.5585s-1.4705-0.2363-2.3405-0.1721c-0.9017 0.0589-1.892 0.2556-2.9645 0.6229s-2.2273 0.9076-3.4483 1.5785c-2.124 1.1919-4.3642 2.8134-6.5605 4.9674s-4.3496 4.8469-6.2602 8.0175c-1.4602 2.5018-2.7522 5.3466-3.5591 8.4079s-1.1303 6.3409-0.4979 9.586c0.521 3.0008 1.86 6.0337 3.8772 8.7192 2.3462 3.1629 5.7316 5.8766 9.6677 8.2297v2e-5c3.3658 1.9339 7.0321 3.6401 10.86 4.7624s7.8164 1.6615 11.766 1.1482c6.0333-0.605 12.14-3.797 17.042-8.5615 5.2-5.0484 9.1346-11.935 12.025-19.618 3.0179-8.1436 4.6725-17.176 4.9531-26.579 0.2615-9.3623-0.8752-19.058-3.7717-28.45-2.8061-9.0746-7.262-17.9-13.555-25.389-6.3892-7.6573-14.841-13.979-24.444-18.184-11.271-4.9887-24.273-7.0486-37.648-7.0564-16.672 0.0923-33.762 2.5355-49.34 9.244-12.889 5.4738-24.814 14.002-34.919 24.599-10.148 10.614-18.587 23.348-26.092 36.982-2.3386 4.2605-4.5794 8.6095-6.7461 13.032-5.2677 10.753-10.01 21.755-14.608 32.765-7.0437 16.89-13.688 33.793-20.789 50.266-7.5082 17.432-15.546 34.39-24.769 50.296-9.72 16.773-20.851 32.316-33.517 45.792-14.158 15.046-30.186 27.258-46.92 36.368-15.879 8.6655-31.53 16.378-46.681 22.92s-29.801 11.918-43.699 16.128-27.045 7.2583-39.217 9.3255-23.37 3.158-33.399 3.5747c-8.9641 0.3695-17.001 0.1534-23.926-0.4584s-12.742-1.6083-17.378-2.6718c-4.5669-1.0477-8.0006-2.1876-10.242-3.1321-1.1222-0.4728-1.9533-0.8992-2.4866-1.2429-0.2673-0.1723-0.4616-0.3245-0.5813-0.4517-0.0598-0.064-0.1013-0.1212-0.1244-0.1721s-0.0279-0.097-0.0137-0.1347z" fill="#008000" fill-rule="evenodd"/>
 <path d="m305.94 761.72c-0.1291-0.1389 0.422-0.8899 1.5317-2.2463s2.7771-3.3228 4.7797-5.9687 4.3405-5.9763 6.6871-10.067 4.7027-8.9451 6.6243-14.576c1.7036-4.9713 3.074-10.531 3.9459-16.603s1.2433-12.657 1.0417-19.581c-0.1742-5.9056-0.7586-12.06-1.7471-18.406s-2.3817-12.884-4.1174-19.544c-3.1223-11.965-7.3972-24.317-12.513-36.86-2.3873-5.6555-4.399-11.581-5.953-17.703-2.9405-11.584-4.0908-23.329-3.4767-34.634 0.4825-8.7013 1.9669-17.069 4.1424-24.945s5.0411-15.26 8.3105-22.052c3.9176-8.1406 8.3717-15.454 12.965-21.972s9.3264-12.242 13.884-17.228v-1e-5c4.726-5.1726 9.2705-9.5665 13.396-13.247s7.8324-6.6488 10.929-8.9688 5.582-3.9934 7.312-5.0578 2.7033-1.5215 2.8239-1.3569-0.617 0.9434-2.1046 2.3093-3.7249 3.3208-6.5603 5.89-6.2685 5.7546-10.107 9.6079-8.0823 8.3761-12.499 13.622v1e-5c-4.2559 5.0581-8.6765 10.794-12.955 17.246s-8.4148 13.623-12.023 21.529c-3.0052 6.5866-5.6321 13.698-7.611 21.231s-3.3092 15.488-3.6938 23.71c-0.5119 10.673 0.6267 21.78 3.4232 32.777 1.4779 5.8114 3.3787 11.447 5.6253 16.837 5.1605 12.78 9.426 25.46 12.481 37.791 1.7004 6.8556 3.0286 13.618 3.9264 20.2s1.3656 12.985 1.4017 19.132c0.0456 7.2202-0.5482 14.094-1.6788 20.42s-2.7972 12.104-4.8076 17.239c-2.2886 5.8249-5.018 10.758-7.7209 14.84s-5.3796 7.3181-7.6952 9.8122-4.2713 4.2511-5.652 5.367-2.1869 1.5947-2.3164 1.4558z" fill="#008000" fill-rule="evenodd"/>
 <path d="m246.86 811.65c3.3219-5.3978 6.4427-11.023 8.353-17.327 4.0741-12.234-3.9616-24.599-15.664-22.882-19.22 0.2912-22.027 28.781-11.031 25.001 10.115-3.4763-3.1673-8.0056 0.3519-17.524 1.8923-5.1077 13.043-6.6229 19.449 0.2728 3.5059 4.1779 4.684 9.7434 4.2085 14.583-0.6278 6.0594-3.4023 11.956-5.6664 17.876z" fill="#008000" fill-rule="evenodd"/>
 <path d="m260.24 803.18c2.9552-12.978 9.0064-22.584 8.364-36.286-0.4841-26.863-29.918-48.709-52.989-36.723-39.74 14.754-24.727 72.38-4.6346 56.894 18.482-14.245-12.443-13.272-12.093-34.431 0.1956-11.356 22.266-22.542 40.629-13.824 10.345 5.5589 20.548 19.208 23.101 28.996 3.1294 12.279-2.0033 22.159-2.3773 35.374z" fill="#008000" fill-rule="evenodd"/>
 <path d="m264.89 795.02c16.948-21.609 30.071-32.884 35.709-57.953 11.742-52.215-19.537-107.74-64.634-103.38-79.016 15.244-84.555 110.24-42.084 97.037 38.823-12.073-25.426-40.335 1.0384-69.569 40.026-44.216 96.937 3.2456 93.748 69.072-1.1898 24.561-8.9705 30.2-23.778 64.794z" fill="#008000" fill-rule="evenodd"/>
 <path d="m369.41 710c4.633-4.3251 9.5287-8.4982 15.329-11.619 11.185-6.4164 24.896-0.9888 25.531 10.822 3.521 18.896-23.848 27.291-22.321 15.764 1.4042-10.603 8.4743 1.5191 17.107-3.8157 4.6317-2.8664 3.9085-14.096-4.1193-19.009-4.7895-2.609-10.478-2.6615-15.128-1.2369-5.8151 1.8154-11.045 5.7029-16.4 9.0945z" fill="#008000" fill-rule="evenodd"/>
 <path d="m375.07 695.21c12.135-5.4669 20.353-13.301 33.911-15.385 26.427-4.8458 53.669 19.679 46.49 44.666-6.5916 41.875-66.049 38.573-54.849 15.811 10.302-20.937 15.474 9.5678 36.144 5.0345 11.093-2.4409 17.685-26.29 5.5032-42.562-7.4977-9.0395-22.897-16.337-32.997-16.901-12.656-0.6356-21.324 6.3523-34.202 9.3361z" fill="#008000" fill-rule="evenodd"/>
 <path d="m382.15 689.04c17.824-20.892 26.277-35.988 49.733-46.479 48.855-21.851 109.48-2.1884 114.14 42.878 0.7075 80.469-91.315 104.71-86.78 60.469 4.1451-40.445 44.571 16.934 67.986-14.796 35.413-47.99-22.38-94.374-86.271-78.211-23.839 6.0306-27.826 14.774-58.802 36.14z" fill="#008000" fill-rule="evenodd"/>
 <path d="m309.892,522.278c-.3851-1.6175-.8497-3.24-1.6647-4.7637-1.5137-3.0253-5.2981-3.8283-7.1505-1.339-3.5113,3.6193 1.2528,9.4251 2.5915,6.6842 1.2314-2.5212-2.0726-.8975-3.1855-3.3161-.5965-1.2985 1.1909-3.6481 3.6584-3.5572 1.4254.1247 2.6763.9386 3.4859,1.9245 1.0076,1.2405 1.5868,2.8491 2.2649,4.3672z" fill="#008000" fill-rule="evenodd"/>
 <path d="m310.8 518.23c-1.8592-2.9556-2.5187-5.8601-5.1797-8.2828-5.073-4.8934-14.586-3.4857-16.642 3.0174-4.6349 10.109 8.8398 18.014 9.6943 11.414 0.7861-6.0709-4.7703-0.1539-8.6304-4.1438-2.0704-2.143-0.051-8.3121 4.9725-10.101 2.9503-0.8879 7.3749-0.2486 9.6642 1.0935 2.8583 1.6973 3.739 4.4822 6.121 7.003z" fill="#008000" fill-rule="evenodd"/>
 <path d="m310.15 515.85c-0.8645-7.1525-0.5217-11.678-4.1263-17.375-7.5079-11.864-23.611-16.362-31.168-7.188-11.83 17.486 4.7657 36.136 10.194 25.808 4.9622-9.4414-12.199-2.7657-12.713-13.098-0.7773-15.627 18.584-17.38 30.204-4.5774 4.3355 4.7769 3.9383 7.2664 7.6087 16.43z" fill="#008000" fill-rule="evenodd"/>
 <path d="m608.25 529.4c2.7856 0.0422 5.6153-0.0492 8.4462-0.7812 5.5725-1.275 8.5982-7.3849 5.4291-11.622-4.2336-7.5555-15.778-1.9367-11.968 1.5324 3.5043 3.1909 2.3955-3.1484 6.806-4.0018 2.3675-0.4564 5.3408 3.609 4.0661 7.7797-0.8528 2.3781-2.7377 4.1607-4.6984 5.1158-2.4619 1.1829-5.3217 1.4758-8.0809 1.9767z" fill="#008000" fill-rule="evenodd"/>
 <path d="m614.37 532.7c5.6181-1.8946 10.605-1.7643 15.73-5.2573 10.214-6.5404 12.292-23.379 2.7405-29.699-14.189-12.278-33.102 7.2957-22.845 11.607 9.4345 3.9654 2.4292-8.0727 10.631-12.934 4.4037-2.6062 13.433 3.506 14.022 12.851 0.0836 5.4177-2.9706 12.691-6.1823 16.017-4.0449 4.1432-8.9404 4.442-14.096 7.4166z" fill="#008000" fill-rule="evenodd"/>
 <path d="m618.5 532.62c11.934 1.6168 19.079 4.1581 29.916 0.4701 22.573-7.6815 37.191-33.212 25.845-50.072-22.8-27.743-60.475-7.4893-46.295 6.2375 12.963 12.548 10.039-19.618 26.942-16.029 25.566 5.4288 19.542 39.222-6.4241 53.513-9.6884 5.3323-13.523 3.5785-29.985 5.8798z" fill="#008000" fill-rule="evenodd"/>
 <path d="m310.44 566.94c2.1516-1.8183 0.7213-2.5216 6.1293-15.069 2.5898-6.0089 13.127-18.496 23.592-6.0887 5.6737 6.7271 18.5 12.273 20.344 11.623s-7.2796 2.8042-11.662 8.3248c-8.5297 10.745-18.283 3.89-24.244 1.9172s-14.16-0.7074-14.16-0.7074z" fill="none" stroke="#008000" stroke-linecap="round" stroke-linejoin="round" stroke-width="2.819"/>
 <path d="m484.03 501.68c-1.0946-3.0406 0.7298-2.919 2.5541-18.487 0.8737-7.4553-2.4325-25.906-19.946-19.582-9.4955 3.4289-25.42 1.5811-26.879-0.1216s5.6237 6.9615 6.811 14.96c2.3109 15.568 15.933 14.352 22.987 15.811s14.473 7.4191 14.473 7.4191z" fill="none" stroke="#008000" stroke-linecap="round" stroke-linejoin="round" stroke-width="3.234"/>
 <path d="m428.69 578.78c2.4075 0.2021 1.9667-1.0918 12.856-5.4215 5.2146-2.0734 19.178-3.2561 18 10.615-0.6388 7.5203 3.7767 18.662 5.2887 19.386s-6.1152-2.714-12.121-2.0238c-11.689 1.3436-13.446-8.7285-15.865-13.54s-8.158-9.016-8.158-9.016z" fill="none" stroke="#008000" stroke-linecap="round" stroke-linejoin="round" stroke-width="2.4177"/>
 <path d="m341.29 758.85c2.2731 0.8183 2.1822-0.5455 13.821-1.9094 5.5736-0.6532 19.367 1.8185 14.639 14.912-2.5634 7.0987-1.182 19.004 0.0909 20.095s-5.2044-4.2043-11.184-5.0919c-11.638-1.7276-10.729-11.911-11.82-17.185s-5.5465-10.82-5.5465-10.82z" fill="none" stroke="#008000" stroke-linecap="round" stroke-linejoin="round" stroke-width="2.4177"/>
 <g transform="matrix(.22878 0 0 .38141 476.54 51.466)">
  <path d="m112.02 529.63c-78.111 27.216-159.64 76.698-174.5 211.09 64.914 57.985 20.227 149.12 81.625 180.12 30.133-3.7095 60.214 57.567 76 87.281 0 0 26.026-50.452 28.125-61.938 26.667-145.95-60.346-166.17-118.22-227.97 87.016 12.724 114.8-96.62 106.97-188.59z" fill-rule="evenodd"/>
  <path d="m93.207 995.44c0-5.1944-26.828-43.51-39.862-56.93-9.8447-10.136-16.032-14.806-25.013-18.879-20.298-9.2036-31.694-22.193-37.629-42.89-1.5575-5.4316-5.2283-23.744-8.1575-40.693-8.2267-47.604-16.515-68.377-34.825-87.281l-9.09-9.385 4.0719-18.304c8.5517-38.442 19.199-65.689 35.422-90.644 12.336-18.977 40.983-47.172 61.536-60.566 14.627-9.5321 64.772-35.764 68.367-35.764 2.2678 0 1.2861 37.045-1.5238 57.501-4.0637 29.584-10.614 53.698-19.649 72.339-15.81 32.618-38.641 48.494-74.86 52.056l-10.709 1.0532 16.064 16.752c8.8351 9.2134 25.702 24.976 37.482 35.029 25.308 21.597 37.638 34.321 45.995 47.468 17.861 28.097 24.528 67.731 18.99 112.89-1.4422 11.759-3.9987 20.661-9.9962 34.805-4.4321 10.453-9.3747 22.418-10.984 26.591-2.9391 7.622-5.6305 9.942-5.6305 4.8534z" fill="#e0ac00" filter="url(#c)" opacity=".635"/>
  <g fill="#808000">
   <path transform="matrix(1.3881 0 0 1.3881 -553.53 90.077)" d="m403.78 379.29c18.193-25.91 54.289-33.963 54.289-33.963s4.5127 53.539-14.631 74.083c-20.425 21.919-72.986 27.883-72.986 27.883s1.3638-22.481 33.328-68.003z" filter="url(#d)" opacity=".87"/>
   <path transform="matrix(1.472 0 0 1.464 -589.53 48.735)" d="m416.65 557.76c2.7841 19.398 58.775 62.336 58.775 62.336s-6.6691-62.203-15.079-88.995c-8.5207-27.144-77.893-61.455-77.893-61.455s26.972 37.77 34.197 88.114z" filter="url(#e)" opacity=".733"/>
  </g>
  <path d="m6.9592 620.13c25.254-35.965 75.358-47.144 75.358-47.144s6.264 74.317-20.31 102.83c-28.352 30.425-101.31 38.704-101.31 38.704s1.893-31.206 46.262-94.395z" fill="#800080" opacity=".415" stroke="#800080" stroke-width="5.5982"/>
  <path d="m-5.9191 654.18c19.184-22.328 46.566-28.211 46.566-28.211s8.2499 41.174-7.4739 59.608c-20.834 24.425-75.072 31.033-75.072 31.033s4.4782-25.768 35.98-62.43z" fill="#b544c6" filter="url(#g)" opacity=".415" stroke="#800080" stroke-linecap="round" stroke-linejoin="round" stroke-width="1.3881"/>
  <path d="m12.991 863.44c3.8645 26.927 81.586 86.528 81.586 86.528s-9.2574-86.343-20.932-123.53c-11.828-37.679-108.12-85.305-108.12-85.305s37.439 52.428 47.469 122.31z" fill="#800080" opacity=".415" stroke="#800080" stroke-width="5.5982"/>
  <path d="m1.3971 812.04c8.3054 31.23 47.672 48.511 47.672 48.511s-3.0737-41.402-9.8952-62.051c-6.9111-20.921-68.784-53.904-68.784-53.904s19.664 24.793 31.007 67.444z" fill="#b544c6" filter="url(#f)" opacity=".415" stroke="#800080" stroke-width="3.1887"/>
 </g>
 <g transform="matrix(.38816 0 0 .41561 402.66 197.03)">
  <path d="m318.62 145.12c-78.111 27.216-159.64 76.698-174.5 211.09 64.914 57.985 20.227 149.12 81.625 180.12 30.133-3.7095 60.214 57.567 76 87.281 0 0 26.026-50.452 28.125-61.938 26.667-145.95-60.346-166.17-118.22-227.97 87.016 12.724 114.8-96.62 106.97-188.59z" fill="#4d4d4d" fill-rule="evenodd"/>
  <path d="m299.81 610.94c0-5.1944-26.828-43.51-39.862-56.93-9.8447-10.136-16.032-14.806-25.013-18.879-20.298-9.2035-31.694-22.193-37.629-42.89-1.5575-5.4316-5.2283-23.744-8.1575-40.693-8.2267-47.604-16.515-68.377-34.825-87.281l-9.09-9.385 4.0719-18.304c8.5517-38.442 19.199-65.689 35.422-90.644 12.336-18.977 40.983-47.172 61.536-60.566 14.627-9.5321 64.772-35.764 68.367-35.764 2.2678 0 1.2861 37.045-1.5238 57.501-4.0637 29.584-10.614 53.698-19.649 72.339-15.81 32.618-38.641 48.494-74.86 52.056l-10.709 1.0532 16.064 16.752c8.8351 9.2134 25.702 24.976 37.482 35.029 25.308 21.597 37.638 34.321 45.995 47.468 17.861 28.097 24.528 67.731 18.99 112.89-1.4422 11.759-3.9987 20.661-9.9962 34.805-4.4321 10.453-9.3747 22.418-10.984 26.591-2.9391 7.622-5.6305 9.942-5.6305 4.8534z" fill="#ff0" filter="url(#c)"/>
  <path transform="matrix(1.3881 0 0 1.3881 -346.92 -294.43)" d="m403.78 379.29c18.193-25.91 54.289-33.963 54.289-33.963s4.5127 53.539-14.631 74.083c-20.425 21.919-72.986 27.883-72.986 27.883s1.3638-22.481 33.328-68.003z" fill="#bf40cc" filter="url(#d)" opacity=".87"/>
  <path transform="matrix(1.472 0 0 1.464 -382.93 -335.77)" d="m416.65 557.76c2.7841 19.398 58.775 62.336 58.775 62.336s-6.6691-62.203-15.079-88.995c-8.5207-27.144-77.893-61.455-77.893-61.455s26.972 37.77 34.197 88.114z" fill="#800080" filter="url(#e)" opacity=".733"/>
  <path d="m213.57 235.63c25.254-35.965 75.358-47.144 75.358-47.144s6.264 74.317-20.31 102.83c-28.352 30.425-101.31 38.704-101.31 38.704s1.893-31.206 46.262-94.395z" fill="#bf40cc" stroke="#800080" stroke-width="5.5982"/>
  <path d="m200.69 269.68c19.184-22.328 46.566-28.211 46.566-28.211s8.2499 41.174-7.4739 59.608c-20.834 24.425-75.072 31.033-75.072 31.033s4.4782-25.768 35.98-62.43z" fill="#ffa4ff" filter="url(#g)" stroke="#800080" stroke-linecap="round" stroke-linejoin="round" stroke-width="1.3881"/>
  <path d="m219.6 478.93c3.8645 26.927 81.586 86.528 81.586 86.528s-9.2574-86.343-20.932-123.53c-11.828-37.679-108.12-85.305-108.12-85.305s37.439 52.428 47.469 122.31z" fill="#bf40cc" stroke="#800080" stroke-width="5.5982"/>
  <path d="m208 427.53c8.3054 31.23 47.672 48.511 47.672 48.511s-3.0737-41.402-9.8952-62.051c-6.9111-20.921-68.784-53.904-68.784-53.904s19.664 24.793 31.007 67.444z" fill="#ffa4ff" filter="url(#f)" stroke="#800080" stroke-width="3.1887"/>
 </g>
 <g transform="matrix(.41561 0 0 .41561 260.49 77.135)" fill-rule="evenodd">
  <g transform="translate(-26.958 11.242)">
   <path d="m480.49 554.32c-0.0156-0.0501 0.3161-0.2029 0.9634-0.4782s1.6107-0.6742 2.8385-1.2589 2.7206-1.3567 4.3976-2.3997 3.5391-2.3586 5.4616-4.0287c1.688-1.4668 3.424-3.2091 5.088-5.2668s3.2565-4.4318 4.6149-7.1347c1.0798-2.1467 2.0096-4.5005 2.7222-7.0336s1.2079-5.2458 1.4164-8.0832c0.1804-2.4656 0.1444-5.0278-0.1543-7.6329s-0.8598-5.2531-1.73-7.8722c-1.5748-4.7476-4.1779-9.4098-7.7426-13.519-3.3124-3.8159-7.4612-7.1618-12.268-9.5514-4.5378-2.2591-9.6692-3.6592-14.996-4.0179-5.0901-0.3408-10.369 0.2691-15.381 1.9746-5.4958 1.8645-10.668 5.062-15.039 9.2356-3.4 3.2493-6.3247 7.091-8.5701 11.346-0.5613 1.0636-1.0771 2.1473-1.5456 3.2474-2.4175 5.6578-3.5993 11.71-3.7282 17.696s0.7947 11.903 2.5827 17.374c1.6045 4.9256 3.8792 9.4967 6.51 13.751s5.617 8.1911 8.6995 11.846c3.4819 4.1218 7.107 7.9122 10.66 11.531s7.0347 7.0658 10.296 10.44l1e-5 1e-5c6.4442 6.6669 12.022 13.005 16.761 18.738s8.6412 10.86 11.743 15.134 5.4061 7.6923 6.9263 10.046 2.2589 3.641 2.1711 3.7005-0.9973-1.1117-2.6771-3.3478-4.1323-5.5361-7.3659-9.6875-7.2508-9.1535-12.084-14.759-10.483-11.814-16.975-18.354v-1e-5c-3.2859-3.3092-6.8027-6.7087-10.41-10.307s-7.3058-7.3964-10.888-11.562c-3.1791-3.6916-6.2668-7.7044-9.0033-12.082s-5.1216-9.1191-6.8399-14.269c-1.9086-5.7375-2.8999-11.947-2.774-18.246s1.3693-12.687 3.9193-18.695c0.4977-1.1691 1.0454-2.3201 1.6412-3.4493 2.3836-4.5173 5.4868-8.5871 9.1-12.03 4.6447-4.4291 10.158-7.8107 16.046-9.793 5.3721-1.8037 10.994-2.4298 16.404-2.0368 5.6622 0.4093 11.104 1.9352 15.923 4.3752 5.1019 2.5867 9.4661 6.1673 12.928 10.237 3.7282 4.38 6.4173 9.3342 8.0212 14.372 0.8836 2.7801 1.4373 5.577 1.7123 8.3189s0.2712 5.4286 0.0394 8.0066c-0.266 2.9669-0.8345 5.7926-1.6291 8.4228s-1.8155 5.0653-2.9898 7.2778v1e-5c-1.4792 2.7849-3.1924 5.2074-4.9711 7.2889s-3.6234 3.8224-5.4103 5.2702c-2.0347 1.6491-3.9963 2.9206-5.7584 3.9049s-3.3256 1.683-4.6114 2.1859-2.2948 0.8117-2.9804 0.9925-1.0483 0.2347-1.0639 0.1846z"/>
   <path d="m460.94 561.38c-0.028-0.0444 0.2528-0.2778 0.8068-0.7113s1.3814-1.0681 2.4159-1.9507 2.2768-2.0146 3.6267-3.4561 2.808-3.1942 4.2328-5.305c1.2508-1.8537 2.4767-3.9859 3.5515-6.4042s1.9985-5.1236 2.6111-8.086c0.4874-2.353 0.7763-4.8673 0.8089-7.4985s-0.191-5.3797-0.724-8.1743c-0.4638-2.4283-1.1619-4.8938-2.1246-7.3329s-2.1901-4.8516-3.7085-7.1562c-2.7499-4.1782-6.471-8.0078-10.978-11.054-4.1872-2.8286-9.0606-4.9867-14.322-6.0507-4.9678-1.0076-10.287-1.032-15.525 2e-4 -5.0048 0.9883-9.9461 2.9436-14.346 5.8883-4.826 3.2234-8.9941 7.6505-12.136 12.813-2.4431 4.0186-4.2739 8.4863-5.3415 13.178-0.2669 1.1726-0.4846 2.3529-0.6525 3.5368-0.8708 6.0907-0.4458 12.243 0.9789 18.058s3.8485 11.292 6.9916 16.114c2.8247 4.3425 6.205 8.1691 9.8471 11.597s7.5456 6.4582 11.469 9.1907c4.4301 3.0802 8.9126 5.8032 13.281 8.3789s8.6238 5.0043 12.647 7.4196l1e-5 1e-5c7.9502 4.7718 14.978 9.45 21.04 13.761s11.158 8.2537 15.26 11.579c4.1023 3.325 7.2128 6.031 9.2904 7.9109s3.1243 2.9322 3.0549 3.0125-1.251-0.8157-3.4523-2.5409-5.4243-4.278-9.6222-7.451-9.3728-6.965-15.492-11.129-13.184-8.6984-21.147-13.335c-4.0304-2.346-8.3073-4.7195-12.723-7.2618s-8.9712-5.2535-13.51-8.3505c-4.0263-2.743-8.0473-5.8199-11.824-9.3398s-7.3072-7.4828-10.3-12.012c-3.3286-5.048-5.8932-10.789-7.402-16.907s-1.961-12.609-1.053-19.073c0.1782-1.2581 0.4093-2.5116 0.6925-3.7565 1.1332-4.9803 3.0774-9.7146 5.6764-13.975 3.3401-5.4803 7.7907-10.174 12.965-13.612 4.7222-3.1327 9.9901-5.1924 15.318-6.2131 5.5752-1.0702 11.226-1.0047 16.513 0.105 5.5976 1.1781 10.74 3.5071 15.137 6.5421 4.7348 3.2658 8.6145 7.3552 11.468 11.806 1.573 2.4566 2.8318 5.015 3.807 7.5922s1.667 5.1734 2.1103 7.7236c0.5109 2.9346 0.6932 5.8112 0.6064 8.5575s-0.4427 5.3626-1.0043 7.8036v1e-5c-0.708 3.0728-1.7358 5.8563-2.9152 8.3271s-2.5106 4.6299-3.862 6.4909c-1.5386 2.1195-3.1043 3.8554-4.5515 5.2622s-2.7767 2.4863-3.8885 3.305-2.0065 1.378-2.6219 1.73-0.9518 0.498-0.9799 0.4537z"/>
  </g>
  <path d="m472.68 638.12c0.5121-0.3501 1.8778 0.5671 3.8693 2.6319s4.6035 5.2836 7.485 9.5649 6.0272 9.6301 9.0395 15.901 5.8861 13.465 8.2515 21.336l1e-5 1e-5c1.0632 3.5386 2.0232 7.2112 2.855 10.987 2.0584 9.3443 3.1226 18.432 3.4374 26.704s-0.1118 15.726-0.8879 21.918-1.8909 11.122-2.9458 14.462-2.037 5.094-2.7177 4.9808-0.9976-2.0773-1.1384-5.5019-0.1179-8.3145-0.2585-14.309-0.4532-13.097-1.2444-20.918-2.066-16.358-4.0102-25.185c-0.7856-3.5668-1.6489-7.0447-2.5716-10.411-2.0526-7.4915-4.4001-14.433-6.7536-20.625s-4.7096-11.635-6.7366-16.179-3.721-8.1933-4.7619-10.808-1.4232-4.199-0.9112-4.5491z"/>
 </g>
 <g transform="matrix(.99989 -.01513 .01513 .99989 4.1742 21.414)">
  <path d="m257.87 211.61c4.8464 16.445 5.3201 38.452-21.864 71.273-21.559 4.8548-35.223 31.626-50.43 30.741-3.3464-4.7838-20.821 5.372-29.46 10.14 0 0 7.3866-14.989 9.5956-17.902 28.071-37.017 44.46-30.309 65.88-36.96-14.761-8.429 5.1934-37.179 26.278-57.292z" fill-rule="evenodd"/>
  <path transform="matrix(-.13783 -.13047 -.21751 .22978 388.51 104.52)" d="m93.207 995.44c0-5.1944-26.828-43.51-39.862-56.93-9.8447-10.136-16.032-14.806-25.013-18.879-20.298-9.2036-31.694-22.193-37.629-42.89-1.5575-5.4316-5.2283-23.744-8.1575-40.693-8.2267-47.604-16.515-68.377-34.825-87.281l-9.09-9.385 4.0719-18.304c8.5517-38.442 19.199-65.689 35.422-90.644 12.336-18.977 40.983-47.172 61.536-60.566 14.627-9.5321 64.772-35.764 68.367-35.764 2.2678 0 1.2861 37.045-1.5238 57.501-4.0637 29.584-10.614 53.698-19.649 72.339-15.81 32.618-38.641 48.494-74.86 52.056l-10.709 1.0532 16.064 16.752c8.8351 9.2134 25.702 24.976 37.482 35.029 25.308 21.597 37.638 34.321 45.995 47.468 17.861 28.097 24.528 67.731 18.99 112.89-1.4422 11.759-3.9987 20.661-9.9962 34.805-4.4321 10.453-9.3747 22.418-10.984 26.591-2.9391 7.622-5.6305 9.942-5.6305 4.8534z" fill="#cd1bbc" filter="url(#c)" opacity=".635"/>
  <g fill="#808000">
   <path transform="matrix(-.19132 -.1811 -.30193 .31896 445.21 197.44)" d="m403.78 379.29c18.193-25.91 54.289-33.963 54.289-33.963s4.5127 53.539-14.631 74.083c-20.425 21.919-72.986 27.883-72.986 27.883s1.3638-22.481 33.328-68.003z" filter="url(#d)" opacity=".87"/>
   <path transform="matrix(-.20289 -.19205 -.31843 .3364 459.17 192.64)" d="m416.65 557.76c2.7841 19.398 58.775 62.336 58.775 62.336s-6.6691-62.203-15.079-88.995c-8.5207-27.144-77.893-61.455-77.893-61.455s26.972 37.77 34.197 88.114z" filter="url(#e)" opacity=".733"/>
  </g>
  <path d="m252.67 246.11c4.3421-11.559-0.1324-20.665-0.1324-20.665s-17.028 16.26-19.568 26.28c-2.7101 10.69 5.5451 22.112 5.5451 22.112s6.5267-7.4177 14.156-27.726z" fill="#800080" opacity=".415" stroke="#800080" stroke-width="1.3718"/>
  <path transform="matrix(-.13783 -.13047 -.21751 .22978 388.51 104.52)" d="m-5.9191 654.18c19.184-22.328 46.566-28.211 46.566-28.211s8.2499 41.174-7.4739 59.608c-20.834 24.425-75.072 31.033-75.072 31.033s4.4782-25.768 35.98-62.43z" fill="#b544c6" filter="url(#g)" opacity=".415" stroke="#800080" stroke-linecap="round" stroke-linejoin="round" stroke-width="1.3881"/>
  <path d="m198.91 301.24c-6.3895 5.6832-30.066 9.2385-30.066 9.2385s20.056-18.633 29.755-25.655c9.8257-7.1149 33.457-5.4952 33.457-5.4952s-16.564 7.1625-33.146 21.912z" fill="#800080" opacity=".415" stroke="#800080" stroke-width="1.3718"/>
  <path transform="matrix(-.13783 -.13047 -.21751 .22978 388.51 104.52)" d="m1.3971 812.04c8.3054 31.23 47.672 48.511 47.672 48.511s-3.0737-41.402-9.8952-62.051c-6.9111-20.921-68.784-53.904-68.784-53.904s19.664 24.793 31.007 67.444z" fill="#b544c6" filter="url(#f)" opacity=".415" stroke="#800080" stroke-width="3.1887"/>
  <path d="m241.11 200.16c11.816 24.105 19.152 54.54-9.2249 91.481-28.923 0.1493-40.072 32.859-61.779 27.032-6.1674-7.599-27.725 1.0851-38.459 5.0308 0 0 5.8714-18.394 8.1028-21.734 28.357-42.448 53.495-28.247 81.676-30.911-23.364-16.076-3.945-49.603 19.684-70.899z" fill="#4d4d4d" fill-rule="evenodd"/>
  <path transform="matrix(-.23385 -.22136 -.23701 .25038 350.01 234.35)" d="m299.81 610.94c0-5.1944-26.828-43.51-39.862-56.93-9.8447-10.136-16.032-14.806-25.013-18.879-20.298-9.2035-31.694-22.193-37.629-42.89-1.5575-5.4316-5.2283-23.744-8.1575-40.693-8.2267-47.604-16.515-68.377-34.825-87.281l-9.09-9.385 4.0719-18.304c8.5517-38.442 19.199-65.689 35.422-90.644 12.336-18.977 40.983-47.172 61.536-60.566 14.627-9.5321 64.772-35.764 68.367-35.764 2.2678 0 1.2861 37.045-1.5238 57.501-4.0637 29.584-10.614 53.698-19.649 72.339-15.81 32.618-38.641 48.494-74.86 52.056l-10.709 1.0532 16.064 16.752c8.8351 9.2134 25.702 24.976 37.482 35.029 25.308 21.597 37.638 34.321 45.995 47.468 17.861 28.097 24.528 67.731 18.99 112.89-1.4422 11.759-3.9987 20.661-9.9962 34.805-4.4321 10.453-9.3747 22.418-10.984 26.591-2.9391 7.622-5.6305 9.942-5.6305 4.8534z" fill="#ff509b" filter="url(#c)"/>
  <path transform="matrix(-.3246 -.30726 -.32899 .34756 500.92 237.42)" d="m403.78 379.29c18.193-25.91 54.289-33.963 54.289-33.963s4.5127 53.539-14.631 74.083c-20.425 21.919-72.986 27.883-72.986 27.883s1.3638-22.481 33.328-68.003z" fill="#bf40cc" filter="url(#d)" opacity=".87"/>
  <path transform="matrix(-.34423 -.32584 -.34697 .36655 519.14 235.04)" d="m416.65 557.76c2.7841 19.398 58.775 62.336 58.775 62.336s-6.6691-62.203-15.079-88.995c-8.5207-27.144-77.893-61.455-77.893-61.455s26.972 37.77 34.197 88.114z" fill="#800080" filter="url(#e)" opacity=".733"/>
  <path transform="matrix(-.25038 -.23701 -.23701 .25038 300 329.83)" d="m284.5-65.234c23.586-35.965 70.381-47.144 70.381-47.144s5.8503 74.317-18.968 102.83c-26.479 30.425-94.62 38.704-94.62 38.704s1.768-31.206 43.207-94.395z" fill="#b2df06" filter="url(#h)" stroke="#920080" stroke-width="5.4101"/>
  <path transform="matrix(-.23385 -.22136 -.23701 .25038 350.01 234.35)" d="m200.69 269.68c19.184-22.328 46.566-28.211 46.566-28.211s8.2499 41.174-7.4739 59.608c-20.834 24.425-75.072 31.033-75.072 31.033s4.4782-25.768 35.98-62.43z" fill="#a6fe0f" filter="url(#i)" stroke="#800080" stroke-linecap="round" stroke-linejoin="round" stroke-width="1.3881"/>
  <path transform="matrix(-.25038 -.23701 -.23701 .25038 300 329.83)" d="m290.13 178.07c3.6093 26.927 76.197 86.528 76.197 86.528s-8.6459-86.343-19.549-123.53c-11.046-37.679-100.98-85.305-100.98-85.305s34.966 52.428 44.334 122.31z" fill="#b2df06" filter="url(#h)" stroke="#920080" stroke-width="5.4101"/>
  <path transform="matrix(-.23385 -.22136 -.23701 .25038 350.01 234.35)" d="m208 427.53c8.3054 31.23 47.672 48.511 47.672 48.511s-3.0737-41.402-9.8952-62.051c-6.9111-20.921-68.784-53.904-68.784-53.904s19.664 24.793 31.007 67.444z" fill="#a6fe0f" filter="url(#i)" stroke="#800080" stroke-width="3.1887"/>
  <g transform="matrix(-.25038 -.23701 -.23701 .25038 504.03 243.2)" fill-rule="evenodd">
   <g transform="translate(-26.958 11.242)">
    <path d="m480.49 554.32c-0.0156-0.0501 0.3161-0.2029 0.9634-0.4782s1.6107-0.6742 2.8385-1.2589 2.7206-1.3567 4.3976-2.3997 3.5391-2.3586 5.4616-4.0287c1.688-1.4668 3.424-3.2091 5.088-5.2668s3.2565-4.4318 4.6149-7.1347c1.0798-2.1467 2.0096-4.5005 2.7222-7.0336s1.2079-5.2458 1.4164-8.0832c0.1804-2.4656 0.1444-5.0278-0.1543-7.6329s-0.8598-5.2531-1.73-7.8722c-1.5748-4.7476-4.1779-9.4098-7.7426-13.519-3.3124-3.8159-7.4612-7.1618-12.268-9.5514-4.5378-2.2591-9.6692-3.6592-14.996-4.0179-5.0901-0.3408-10.369 0.2691-15.381 1.9746-5.4958 1.8645-10.668 5.062-15.039 9.2356-3.4 3.2493-6.3247 7.091-8.5701 11.346-0.5613 1.0636-1.0771 2.1473-1.5456 3.2474-2.4175 5.6578-3.5993 11.71-3.7282 17.696s0.7947 11.903 2.5827 17.374c1.6045 4.9256 3.8792 9.4967 6.51 13.751s5.617 8.1911 8.6995 11.846c3.4819 4.1218 7.107 7.9122 10.66 11.531s7.0347 7.0658 10.296 10.44l1e-5 1e-5c6.4442 6.6669 12.022 13.005 16.761 18.738s8.6412 10.86 11.743 15.134 5.4061 7.6923 6.9263 10.046 2.2589 3.641 2.1711 3.7005-0.9973-1.1117-2.6771-3.3478-4.1323-5.5361-7.3659-9.6875-7.2508-9.1535-12.084-14.759-10.483-11.814-16.975-18.354v-1e-5c-3.2859-3.3092-6.8027-6.7087-10.41-10.307s-7.3058-7.3964-10.888-11.562c-3.1791-3.6916-6.2668-7.7044-9.0033-12.082s-5.1216-9.1191-6.8399-14.269c-1.9086-5.7375-2.8999-11.947-2.774-18.246s1.3693-12.687 3.9193-18.695c0.4977-1.1691 1.0454-2.3201 1.6412-3.4493 2.3836-4.5173 5.4868-8.5871 9.1-12.03 4.6447-4.4291 10.158-7.8107 16.046-9.793 5.3721-1.8037 10.994-2.4298 16.404-2.0368 5.6622 0.4093 11.104 1.9352 15.923 4.3752 5.1019 2.5867 9.4661 6.1673 12.928 10.237 3.7282 4.38 6.4173 9.3342 8.0212 14.372 0.8836 2.7801 1.4373 5.577 1.7123 8.3189s0.2712 5.4286 0.0394 8.0066c-0.266 2.9669-0.8345 5.7926-1.6291 8.4228s-1.8155 5.0653-2.9898 7.2778v1e-5c-1.4792 2.7849-3.1924 5.2074-4.9711 7.2889s-3.6234 3.8224-5.4103 5.2702c-2.0347 1.6491-3.9963 2.9206-5.7584 3.9049s-3.3256 1.683-4.6114 2.1859-2.2948 0.8117-2.9804 0.9925-1.0483 0.2347-1.0639 0.1846z"/>
    <path d="m460.94 561.38c-0.028-0.0444 0.2528-0.2778 0.8068-0.7113s1.3814-1.0681 2.4159-1.9507 2.2768-2.0146 3.6267-3.4561 2.808-3.1942 4.2328-5.305c1.2508-1.8537 2.4767-3.9859 3.5515-6.4042s1.9985-5.1236 2.6111-8.086c0.4874-2.353 0.7763-4.8673 0.8089-7.4985s-0.191-5.3797-0.724-8.1743c-0.4638-2.4283-1.1619-4.8938-2.1246-7.3329s-2.1901-4.8516-3.7085-7.1562c-2.7499-4.1782-6.471-8.0078-10.978-11.054-4.1872-2.8286-9.0606-4.9867-14.322-6.0507-4.9678-1.0076-10.287-1.032-15.525 2e-4 -5.0048 0.9883-9.9461 2.9436-14.346 5.8883-4.826 3.2234-8.9941 7.6505-12.136 12.813-2.4431 4.0186-4.2739 8.4863-5.3415 13.178-0.2669 1.1726-0.4846 2.3529-0.6525 3.5368-0.8708 6.0907-0.4458 12.243 0.9789 18.058s3.8485 11.292 6.9916 16.114c2.8247 4.3425 6.205 8.1691 9.8471 11.597s7.5456 6.4582 11.469 9.1907c4.4301 3.0802 8.9126 5.8032 13.281 8.3789s8.6238 5.0043 12.647 7.4196l1e-5 1e-5c7.9502 4.7718 14.978 9.45 21.04 13.761s11.158 8.2537 15.26 11.579c4.1023 3.325 7.2128 6.031 9.2904 7.9109s3.1243 2.9322 3.0549 3.0125-1.251-0.8157-3.4523-2.5409-5.4243-4.278-9.6222-7.451-9.3728-6.965-15.492-11.129-13.184-8.6984-21.147-13.335c-4.0304-2.346-8.3073-4.7195-12.723-7.2618s-8.9712-5.2535-13.51-8.3505c-4.0263-2.743-8.0473-5.8199-11.824-9.3398s-7.3072-7.4828-10.3-12.012c-3.3286-5.048-5.8932-10.789-7.402-16.907s-1.961-12.609-1.053-19.073c0.1782-1.2581 0.4093-2.5116 0.6925-3.7565 1.1332-4.9803 3.0774-9.7146 5.6764-13.975 3.3401-5.4803 7.7907-10.174 12.965-13.612 4.7222-3.1327 9.9901-5.1924 15.318-6.2131 5.5752-1.0702 11.226-1.0047 16.513 0.105 5.5976 1.1781 10.74 3.5071 15.137 6.5421 4.7348 3.2658 8.6145 7.3552 11.468 11.806 1.573 2.4566 2.8318 5.015 3.807 7.5922s1.667 5.1734 2.1103 7.7236c0.5109 2.9346 0.6932 5.8112 0.6064 8.5575s-0.4427 5.3626-1.0043 7.8036v1e-5c-0.708 3.0728-1.7358 5.8563-2.9152 8.3271s-2.5106 4.6299-3.862 6.4909c-1.5386 2.1195-3.1043 3.8554-4.5515 5.2622s-2.7767 2.4863-3.8885 3.305-2.0065 1.378-2.6219 1.73-0.9518 0.498-0.9799 0.4537z"/>
   </g>
   <path d="m472.68 638.12c0.5121-0.3501 1.8778 0.5671 3.8693 2.6319s4.6035 5.2836 7.485 9.5649 6.0272 9.6301 9.0395 15.901 5.8861 13.465 8.2515 21.336l1e-5 1e-5c1.0632 3.5386 2.0232 7.2112 2.855 10.987 2.0584 9.3443 3.1226 18.432 3.4374 26.704s-0.1118 15.726-0.8879 21.918-1.8909 11.122-2.9458 14.462-2.037 5.094-2.7177 4.9808-0.9976-2.0773-1.1384-5.5019-0.1179-8.3145-0.2585-14.309-0.4532-13.097-1.2444-20.918-2.066-16.358-4.0102-25.185c-0.7856-3.5668-1.6489-7.0447-2.5716-10.411-2.0526-7.4915-4.4001-14.433-6.7536-20.625s-4.7096-11.635-6.7366-16.179-3.721-8.1933-4.7619-10.808-1.4232-4.199-0.9112-4.5491z"/>
  </g>
 </g>
 <path d="m264.5 819.29c38.383-15.727 43.889-16.685 66.578-15.017 28.356 2.0849 58.472 33.221 46.486 56.292-14.754 39.74-72.38 24.727-56.894 4.6346 14.245-18.482 13.272 12.443 34.431 12.093 11.356-0.1955 22.542-22.266 13.824-40.629-5.5589-10.345-23.118-22.642-38.118-26.232-21.686-5.1914-55.644 8.4198-66.307 8.8593z" fill="#008000" fill-rule="evenodd"/>
 <path d="m297.92 815.5c0.356 1.9784 1.301 1.3455 7.1256 9.1644 2.7894 3.7444 6.7468 14.712-4.6548 16.752-6.1816 1.1061-14.185 7.0541-14.442 8.4253s0.8643-5.4992-0.9837-10.177c-3.597-9.1051 4.1193-12.686 7.4654-15.667s5.4892-8.498 5.4892-8.498z" fill="none" stroke="#008000" stroke-linecap="round" stroke-linejoin="round" stroke-width="2.0116"/>
 <path d="m310.9782,566.6625c.1224.2713 1.0926-.1006 2.6648-1.0358 .7861-.4677 1.7209-1.076 2.7794-1.7767s2.2399-1.4944 3.5399-2.2805c1.4447-.8778 3.0664-1.7187 4.8364-2.481s3.6881-1.4465 5.6997-2.0574l.0849-.0257c2.3097-.6906 4.6553-.7644 6.8302-.588 2.4.192 4.5944.7163 6.4781,1.2619 4.1598,1.6996 6.9114,2.5466 7.087,2.0677h1e-005v-1e-005l.0006-.001 .0006-.002c.164-.4846-2.3101-2.2108-6.4252-4.5858-1.9271-.8681-4.26-1.6741-6.9063-2.0655-2.3638-.3484-5.0034-.3333-7.6893.4534l-.0988.0293c-2.0975.6325-4.1089,1.4089-5.9606,2.3144s-3.543,1.94-5.0255,3.0375c-1.3116.9762-2.4511,1.9548-3.4382,2.8469s-1.8217,1.699-2.4986,2.381c-1.3538,1.364-2.0814,2.2363-1.959,2.5076z" fill="#008000" fill-rule="evenodd"/>
 <path d="m431.4901,579.2817c-.1204.1864.6252.5783 2.0578,1.0702 .7163.2459 1.6032.5158 2.6156.8163s2.1501.6309 3.3432,1.032c1.3287.444 2.7229,1.0046 4.1398,1.6834s2.8567,1.4755 4.2947,2.357l.0606.0372c1.6439,1.0168 2.8903,2.3196 3.881,3.633 1.095,1.4482 1.8612,2.9226 2.4544,4.2293 .9766,3.0988 1.8095,5.0292 2.2219,4.9228l1e-005,1e-005h1e-005l.0008-.0001 .002-.0006c.4103-.1153.3116-2.2665-.1869-5.6307-.398-1.4703-1.0449-3.1448-2.1312-4.8191-.9711-1.495-2.328-2.9904-4.2285-4.1798l-.0702-.0436c-1.4965-.921-3.046-1.7312-4.6011-2.3948s-3.1153-1.1805-4.6114-1.5513c-1.3272-.3259-2.5682-.5528-3.6732-.7303s-2.0746-.3049-2.8797-.3963c-1.6101-.1829-2.5693-.2212-2.6897-.0348z" fill="#008000" fill-rule="evenodd"/>
 <path d="m453.0006,474.733c-.1379.2112.7159.6553 2.3564,1.2125 .8203.2786 1.8359.5844 2.9951.9249s2.4621.7148 3.8284,1.1693c1.5215.503 3.118,1.1382 4.7405,1.9073s3.2712,1.6717 4.9179,2.6705l.0694.0421c1.8825,1.152 3.3097,2.6281 4.4442,4.1163 1.2539,1.6408 2.1313,3.3113 2.8106,4.7918 1.1183,3.5109 2.072,5.698 2.5443,5.5775l2e-005,1e-005h1e-005l.001-.0001 .002-.0006c.4699-.1307.3569-2.5679-.214-6.3795-.4558-1.6659-1.1966-3.563-2.4404-5.46-1.1121-1.6938-2.6658-3.3881-4.8421-4.7357l-.0804-.0494c-1.7137-1.0435-3.488-1.9614-5.2687-2.7133s-3.5673-1.3375-5.2806-1.7576c-1.5198-.3692-2.9409-.6263-4.2062-.8274s-2.3757-.3454-3.2975-.449c-1.8438-.2072-2.9421-.2506-3.08-.0394z" fill="#008000" fill-rule="evenodd"/>
 <path d="m343.0446,760.8525c-.0976.1512.5069.4689 1.6684.8677 .5808.1994 1.2999.4182 2.1207.6619s1.7433.5115 2.7106.8368c1.0773.36 2.2077.8145 3.3565,1.3648s2.3161,1.1963 3.4821,1.911l.0491.0302c1.3329.8244 2.3434,1.8807 3.1467,2.9456 .8878,1.1742 1.509,2.3696 1.99,3.4291 .7918,2.5124 1.4671,4.0776 1.8015,3.9913l1e-005,1e-005h1e-005l.0007-9e-005 .002-.0005c.3327-.0935.2527-1.8376-.1515-4.5652-.3227-1.1921-.8472-2.5497-1.7279-3.9072-.7874-1.2121-1.8875-2.4246-3.4284-3.3889l-.0569-.0353c-1.2133-.7468-2.4697-1.4036-3.7305-1.9416s-2.5258-.9571-3.7389-1.2578c-1.0761-.2642-2.0823-.4482-2.9781-.5921s-1.6821-.2472-2.3348-.3213c-1.3055-.1483-2.0831-.1794-2.1808-.0282z" fill="#008000" fill-rule="evenodd"/>
 <path d="m298.5719,818.0132c-.1713-.0552-.3217.611-.4063,1.8361-.0423.6126-.0675,1.3638-.0904,2.2197s-.0429,1.8163-.1067,2.8348c-.0689,1.1338-.2154,2.3433-.4496,3.5954s-.5561,2.5468-.9446,3.8581l-.0169.0552c-.4513,1.5008-1.2101,2.7503-2.0308,3.8018-.9044,1.1615-1.8983,2.0709-2.7971,2.8098-2.2219,1.4151-3.5589,2.4724-3.3891,2.7731l-1e-005,3e-005h1e-005l.0003.0006 .002.001c.1762.2973 1.8404-.2315 4.3705-1.3279 1.068-.6201 2.2436-1.4783 3.3269-2.6803 .9671-1.0743 1.8534-2.4507 2.3861-4.1887 .007-.0213.0135-.0426.0192-.0641 .4073-1.3653.7166-2.7488.91-4.1059s.2707-2.6875.2472-3.937c-.0233-1.1078-.106-2.1273-.1989-3.0299s-.1966-1.6887-.2939-2.3384c-.1946-1.2993-.3659-2.0586-.5372-2.1138z" fill="#008000" fill-rule="evenodd"/>
 <path d="m300.6769,595.12c-.1224.2713-1.0926-.1006-2.6648-1.0358-.7861-.4677-1.7209-1.076-2.7794-1.7767s-2.2399-1.4944-3.5399-2.2805c-1.4447-.8778-3.0664-1.7187-4.8364-2.481s-3.6881-1.4465-5.6997-2.0574l-.0849-.0257c-2.3097-.6906-4.6553-.7644-6.8302-.588-2.4.192-4.5944.7163-6.4781,1.2619-4.1598,1.6996-6.9114,2.5466-7.087,2.0677h-1e-005v-1e-005l-.0006-.001-.0006-.002c-.164-.4846 2.3101-2.2108 6.4252-4.5858 1.9271-.8681 4.26-1.6741 6.9063-2.0655 2.3638-.3484 5.0034-.3333 7.6893.4534l.0988.0293c2.0975.6325 4.1089,1.4089 5.9606,2.3144s3.543,1.94 5.0255,3.0375c1.3116.9762 2.4511,1.9548 3.4382,2.8469s1.8217,1.699 2.4986,2.381c1.3538,1.364 2.0814,2.2363 1.959,2.5076z" fill="#0f0" fill-rule="evenodd" filter="url(#a)" opacity=".83"/>
 <path d="m301.4 594.88c-2.4683-2.086-0.8275-2.8928-7.0316-17.287-2.971-6.8933-15.06-21.219-27.065-6.9849-6.5088 7.7172-21.224 14.079-23.339 13.334s8.3511 3.217 13.378 9.5501c9.7853 12.327 20.974 4.4625 27.813 2.1994s16.244-0.8115 16.244-0.8115z" fill="#0f0" filter="url(#a)" opacity=".83" stroke="#008000" stroke-linecap="round" stroke-linejoin="round" stroke-width="3.234"/>
 <path d="m59.693 852.47c0.0137-0.038 0.0474-0.068 0.0987-0.091s0.118-0.04 0.2035-0.05c0.1702-0.021 0.4095-0.019 0.7196 0 0.6188 0.045 1.5129 0.1687 2.6884 0.3403 2.3484 0.3428 5.7959 0.8671 10.333 1.3205 4.6071 0.4607 10.306 0.8585 17.038 0.8935s14.501-0.3041 23.178-1.1717c9.7216-0.9684 20.528-2.571 32.247-5.1022s24.35-5.9954 37.71-10.565 27.448-10.249 42.066-17.033 29.765-14.672 45.226-23.445c15.374-8.7565 30.069-20.378 43.037-34.551 11.645-12.71 21.932-27.503 31.08-43.603 8.681-15.287 16.32-31.777 23.612-48.952 6.8838-16.227 13.433-33.099 20.523-50.212 4.6123-11.149 9.4706-22.438 14.96-33.634 2.258-4.605 4.6073-9.1611 7.0712-13.653 7.8817-14.409 17.146-28.193 28.512-40.086 11.453-11.958 25.116-21.558 40.049-27.829 18.026-7.4778 37.03-10.11 55.137-9.9208 14.926 0.0711 29.831 2.7519 43.231 8.7877 11.477 5.2148 21.451 12.973 29.054 22.37 7.3856 9.1842 12.432 19.621 15.431 30.208 3.0984 10.908 4.1427 21.958 3.5737 32.523-0.5529 10.592-2.7463 20.816-6.473 30.103-3.4847 8.7915-8.5939 16.869-15.303 23.104-6.556 6.0925-14.857 9.8584-23.316 10.535-5.4633 0.3193-10.594-0.5423-15.273-2.0738s-8.9076-3.7334-12.62-6.2123v-1e-5c-4.5416-2.9321-8.5489-6.6085-11.485-10.92-2.5414-3.765-4.0713-7.9733-4.5654-12.154-0.4622-4.4997 0.1888-8.67 1.4011-12.368s2.988-6.9257 4.9482-9.6466c2.4124-3.4303 5.1356-6.2487 7.8719-8.4276s5.4863-3.7243 8.0374-4.7674c1.4655-0.6134 2.9252-1.041 4.2893-1.2652s2.6336-0.2479 3.7597-0.1204c1.1706 0.1332 2.1518 0.4864 2.9209 0.8946s1.3302 0.8721 1.723 1.2878c0.7858 0.8315 0.9314 1.4281 0.7717 1.5604s-0.6213-0.1818-1.4975-0.5773c-0.4381-0.1977-0.9876-0.4092-1.6597-0.5585s-1.4705-0.2363-2.3405-0.1721c-0.9017 0.0589-1.892 0.2556-2.9645 0.6229s-2.2273 0.9076-3.4483 1.5785c-2.124 1.1919-4.3642 2.8134-6.5605 4.9674s-4.3496 4.8469-6.2602 8.0175c-1.4602 2.5018-2.7522 5.3466-3.5591 8.4079s-1.1303 6.3409-0.4979 9.586c0.521 3.0008 1.86 6.0337 3.8772 8.7192 2.3462 3.1629 5.7316 5.8766 9.6677 8.2297v2e-5c3.3658 1.9339 7.0321 3.6401 10.86 4.7624s7.8164 1.6615 11.766 1.1482c6.0333-0.605 12.14-3.797 17.042-8.5615 5.2-5.0484 9.1346-11.935 12.025-19.618 3.0179-8.1436 4.6725-17.176 4.9531-26.579 0.2615-9.3623-0.8752-19.058-3.7717-28.45-2.8061-9.0746-7.262-17.9-13.555-25.389-6.3892-7.6573-14.841-13.979-24.444-18.184-11.271-4.9887-24.273-7.0486-37.648-7.0564-16.672 0.0923-33.762 2.5355-49.34 9.244-12.889 5.4738-24.814 14.002-34.919 24.599-10.148 10.614-18.587 23.348-26.092 36.982-2.3386 4.2605-4.5794 8.6095-6.7461 13.032-5.2677 10.753-10.01 21.755-14.608 32.765-7.0437 16.89-13.688 33.793-20.789 50.266-7.5082 17.432-15.546 34.39-24.769 50.296-9.72 16.773-20.851 32.316-33.517 45.792-14.158 15.046-30.186 27.258-46.92 36.368-15.879 8.6655-31.53 16.378-46.681 22.92s-29.801 11.918-43.699 16.128-27.045 7.2583-39.217 9.3255-23.37 3.158-33.399 3.5747c-8.9641 0.3695-17.001 0.1534-23.926-0.4584s-12.742-1.6083-17.378-2.6718c-4.5669-1.0477-8.0006-2.1876-10.242-3.1321-1.1222-0.4728-1.9533-0.8992-2.4866-1.2429-0.2673-0.1723-0.4616-0.3245-0.5813-0.4517-0.0598-0.064-0.1013-0.1212-0.1244-0.1721s-0.0279-0.097-0.0137-0.1347z" fill="#0f0" fill-rule="evenodd" filter="url(#a)" opacity=".83"/>
 <path d="m305.94 761.72c-0.1291-0.1389 0.422-0.8899 1.5317-2.2463s2.7771-3.3228 4.7797-5.9687 4.3405-5.9763 6.6871-10.067 4.7027-8.9451 6.6243-14.576c1.7036-4.9713 3.074-10.531 3.9459-16.603s1.2433-12.657 1.0417-19.581c-0.1742-5.9056-0.7586-12.06-1.7471-18.406s-2.3817-12.884-4.1174-19.544c-3.1223-11.965-7.3972-24.317-12.513-36.86-2.3873-5.6555-4.399-11.581-5.953-17.703-2.9405-11.584-4.0908-23.329-3.4767-34.634 0.4825-8.7013 1.9669-17.069 4.1424-24.945s5.0411-15.26 8.3105-22.052c3.9176-8.1406 8.3717-15.454 12.965-21.972s9.3264-12.242 13.884-17.228v-1e-5c4.726-5.1726 9.2705-9.5665 13.396-13.247s7.8324-6.6488 10.929-8.9688 5.582-3.9934 7.312-5.0578 2.7033-1.5215 2.8239-1.3569-0.617 0.9434-2.1046 2.3093-3.7249 3.3208-6.5603 5.89-6.2685 5.7546-10.107 9.6079-8.0823 8.3761-12.499 13.622v1e-5c-4.2559 5.0581-8.6765 10.794-12.955 17.246s-8.4148 13.623-12.023 21.529c-3.0052 6.5866-5.6321 13.698-7.611 21.231s-3.3092 15.488-3.6938 23.71c-0.5119 10.673 0.6267 21.78 3.4232 32.777 1.4779 5.8114 3.3787 11.447 5.6253 16.837 5.1605 12.78 9.426 25.46 12.481 37.791 1.7004 6.8556 3.0286 13.618 3.9264 20.2s1.3656 12.985 1.4017 19.132c0.0456 7.2202-0.5482 14.094-1.6788 20.42s-2.7972 12.104-4.8076 17.239c-2.2886 5.8249-5.018 10.758-7.7209 14.84s-5.3796 7.3181-7.6952 9.8122-4.2713 4.2511-5.652 5.367-2.1869 1.5947-2.3164 1.4558z" fill="#0f0" fill-rule="evenodd" filter="url(#a)" opacity=".83"/>
 <path d="m246.86 811.65c3.3219-5.3978 6.4427-11.023 8.353-17.327 4.0741-12.234-3.9616-24.599-15.664-22.882-19.22 0.2912-22.027 28.781-11.031 25.001 10.115-3.4763-3.1673-8.0056 0.3519-17.524 1.8923-5.1077 13.043-6.6229 19.449 0.2728 3.5059 4.1779 4.684 9.7434 4.2085 14.583-0.6278 6.0594-3.4023 11.956-5.6664 17.876z" fill="#0f0" fill-rule="evenodd" filter="url(#a)" opacity=".83"/>
 <path d="m260.24 803.18c2.9552-12.978 9.0064-22.584 8.364-36.286-0.4841-26.863-29.918-48.709-52.989-36.723-39.74 14.754-24.727 72.38-4.6346 56.894 18.482-14.245-12.443-13.272-12.093-34.431 0.1956-11.356 22.266-22.542 40.629-13.824 10.345 5.5589 20.548 19.208 23.101 28.996 3.1294 12.279-2.0033 22.159-2.3773 35.374z" fill="#0f0" fill-rule="evenodd" filter="url(#a)" opacity=".83"/>
 <path d="m264.89 795.02c16.948-21.609 30.071-32.884 35.709-57.953 11.742-52.215-19.537-107.74-64.634-103.38-79.016 15.244-84.555 110.24-42.084 97.037 38.823-12.073-25.426-40.335 1.0384-69.569 40.026-44.216 96.937 3.2456 93.748 69.072-1.1898 24.561-8.9705 30.2-23.778 64.794z" fill="#0f0" fill-rule="evenodd" filter="url(#a)" opacity=".83"/>
 <path d="m369.41 710c4.633-4.3251 9.5287-8.4982 15.329-11.619 11.185-6.4164 24.896-0.9888 25.531 10.822 3.521 18.896-23.848 27.291-22.321 15.764 1.4042-10.603 8.4743 1.5191 17.107-3.8157 4.6317-2.8664 3.9085-14.096-4.1193-19.009-4.7895-2.609-10.478-2.6615-15.128-1.2369-5.8151 1.8154-11.045 5.7029-16.4 9.0945z" fill="#0f0" fill-rule="evenodd" filter="url(#a)" opacity=".83"/>
 <path d="m375.07 695.21c12.135-5.4669 20.353-13.301 33.911-15.385 26.427-4.8458 53.669 19.679 46.49 44.666-6.5916 41.875-66.049 38.573-54.849 15.811 10.302-20.937 15.474 9.5678 36.144 5.0345 11.093-2.4409 17.685-26.29 5.5032-42.562-7.4977-9.0395-22.897-16.337-32.997-16.901-12.656-0.6356-21.324 6.3523-34.202 9.3361z" fill="#0f0" fill-rule="evenodd" filter="url(#a)" opacity=".83"/>
 <path d="m382.15 689.04c17.824-20.892 26.277-35.988 49.733-46.479 48.855-21.851 109.48-2.1884 114.14 42.878 0.7075 80.469-91.315 104.71-86.78 60.469 4.1451-40.445 44.571 16.934 67.986-14.796 35.413-47.99-22.38-94.374-86.271-78.211-23.839 6.0306-27.826 14.774-58.802 36.14z" fill="#0f0" fill-rule="evenodd" filter="url(#a)" opacity=".83"/>
 <path d="m309.892,522.278c-.3851-1.6175-.8497-3.24-1.6647-4.7637-1.5137-3.0253-5.2981-3.8283-7.1505-1.339-3.5113,3.6193 1.2528,9.4251 2.5915,6.6842 1.2314-2.5212-2.0726-.8975-3.1855-3.3161-.5965-1.2985 1.1909-3.6481 3.6584-3.5572 1.4254.1247 2.6763.9386 3.4859,1.9245 1.0076,1.2405 1.5868,2.8491 2.2649,4.3672z" fill="#0f0" fill-rule="evenodd" filter="url(#a)" opacity=".83"/>
 <path d="m310.8 518.23c-1.8592-2.9556-2.5187-5.8601-5.1797-8.2828-5.073-4.8934-14.586-3.4857-16.642 3.0174-4.6349 10.109 8.8398 18.014 9.6943 11.414 0.7861-6.0709-4.7703-0.1539-8.6304-4.1438-2.0704-2.143-0.051-8.3121 4.9725-10.101 2.9503-0.8879 7.3749-0.2486 9.6642 1.0935 2.8583 1.6973 3.739 4.4822 6.121 7.003z" fill="#0f0" fill-rule="evenodd" filter="url(#a)" opacity=".83"/>
 <path d="m310.15 515.85c-0.8645-7.1525-0.5217-11.678-4.1263-17.375-7.5079-11.864-23.611-16.362-31.168-7.188-11.83 17.486 4.7657 36.136 10.194 25.808 4.9622-9.4414-12.199-2.7657-12.713-13.098-0.7773-15.627 18.584-17.38 30.204-4.5774 4.3355 4.7769 3.9383 7.2664 7.6087 16.43z" fill="#0f0" fill-rule="evenodd" filter="url(#a)" opacity=".83"/>
 <path d="m608.25 529.4c2.7856 0.0422 5.6153-0.0492 8.4462-0.7812 5.5725-1.275 8.5982-7.3849 5.4291-11.622-4.2336-7.5555-15.778-1.9367-11.968 1.5324 3.5043 3.1909 2.3955-3.1484 6.806-4.0018 2.3675-0.4564 5.3408 3.609 4.0661 7.7797-0.8528 2.3781-2.7377 4.1607-4.6984 5.1158-2.4619 1.1829-5.3217 1.4758-8.0809 1.9767z" fill="#0f0" fill-rule="evenodd" filter="url(#a)" opacity=".83"/>
 <path d="m614.37 532.7c5.6181-1.8946 10.605-1.7643 15.73-5.2573 10.214-6.5404 12.292-23.379 2.7405-29.699-14.189-12.278-33.102 7.2957-22.845 11.607 9.4345 3.9654 2.4292-8.0727 10.631-12.934 4.4037-2.6062 13.433 3.506 14.022 12.851 0.0836 5.4177-2.9706 12.691-6.1823 16.017-4.0449 4.1432-8.9404 4.442-14.096 7.4166z" fill="#0f0" fill-rule="evenodd" filter="url(#a)" opacity=".83"/>
 <path d="m618.5 532.62c11.934 1.6168 19.079 4.1581 29.916 0.4701 22.573-7.6815 37.191-33.212 25.845-50.072-22.8-27.743-60.475-7.4893-46.295 6.2375 12.963 12.548 10.039-19.618 26.942-16.029 25.566 5.4288 19.542 39.222-6.4241 53.513-9.6884 5.3323-13.523 3.5785-29.985 5.8798z" fill="#0f0" fill-rule="evenodd" filter="url(#a)" opacity=".83"/>
 <path d="m310.44 566.94c2.1516-1.8183 0.7213-2.5216 6.1293-15.069 2.5898-6.0089 13.127-18.496 23.592-6.0887 5.6737 6.7271 18.5 12.273 20.344 11.623s-7.2796 2.8042-11.662 8.3248c-8.5297 10.745-18.283 3.89-24.244 1.9172s-14.16-0.7074-14.16-0.7074z" fill="#0f0" filter="url(#a)" opacity=".83" stroke="#008000" stroke-linecap="round" stroke-linejoin="round" stroke-width="2.819"/>
 <path d="m484.03 501.68c-1.0946-3.0406 0.7298-2.919 2.5541-18.487 0.8737-7.4553-2.4325-25.906-19.946-19.582-9.4955 3.4289-25.42 1.5811-26.879-0.1216s5.6237 6.9615 6.811 14.96c2.3109 15.568 15.933 14.352 22.987 15.811s14.473 7.4191 14.473 7.4191z" fill="#0f0" filter="url(#a)" opacity=".83" stroke="#008000" stroke-linecap="round" stroke-linejoin="round" stroke-width="3.234"/>
 <path d="m428.69 578.78c2.4075 0.2021 1.9667-1.0918 12.856-5.4215 5.2146-2.0734 19.178-3.2561 18 10.615-0.6388 7.5203 3.7767 18.662 5.2887 19.386s-6.1152-2.714-12.121-2.0238c-11.689 1.3436-13.446-8.7285-15.865-13.54s-8.158-9.016-8.158-9.016z" fill="#0f0" filter="url(#a)" opacity=".83" stroke="#008000" stroke-linecap="round" stroke-linejoin="round" stroke-width="2.4177"/>
 <path d="m341.29 758.85c2.2731 0.8183 2.1822-0.5455 13.821-1.9094 5.5736-0.6532 19.367 1.8185 14.639 14.912-2.5634 7.0987-1.182 19.004 0.0909 20.095s-5.2044-4.2043-11.184-5.0919c-11.638-1.7276-10.729-11.911-11.82-17.185s-5.5465-10.82-5.5465-10.82z" fill="#0f0" filter="url(#a)" opacity=".83" stroke="#008000" stroke-linecap="round" stroke-linejoin="round" stroke-width="2.4177"/>
 <path d="m264.5 819.29c38.383-15.727 43.889-16.685 66.578-15.017 28.356 2.0849 58.472 33.221 46.486 56.292-14.754 39.74-72.38 24.727-56.894 4.6346 14.245-18.482 13.272 12.443 34.431 12.093 11.356-0.1955 22.542-22.266 13.824-40.629-5.5589-10.345-23.118-22.642-38.118-26.232-21.686-5.1914-55.644 8.4198-66.307 8.8593z" fill="#0f0" fill-rule="evenodd" filter="url(#a)" opacity=".83"/>
 <path d="m297.92 815.5c0.356 1.9784 1.301 1.3455 7.1256 9.1644 2.7894 3.7444 6.7468 14.712-4.6548 16.752-6.1816 1.1061-14.185 7.0541-14.442 8.4253s0.8643-5.4992-0.9837-10.177c-3.597-9.1051 4.1193-12.686 7.4654-15.667s5.4892-8.498 5.4892-8.498z" fill="#0f0" filter="url(#a)" opacity=".83" stroke="#008000" stroke-linecap="round" stroke-linejoin="round" stroke-width="2.0116"/>
 <path d="m310.9782,566.6625c.1224.2713 1.0926-.1006 2.6648-1.0358 .7861-.4677 1.7209-1.076 2.7794-1.7767s2.2399-1.4944 3.5399-2.2805c1.4447-.8778 3.0664-1.7187 4.8364-2.481s3.6881-1.4465 5.6997-2.0574l.0849-.0257c2.3097-.6906 4.6553-.7644 6.8302-.588 2.4.192 4.5944.7163 6.4781,1.2619 4.1598,1.6996 6.9114,2.5466 7.087,2.0677h1e-005v-1e-005l.0006-.001 .0006-.002c.164-.4846-2.3101-2.2108-6.4252-4.5858-1.9271-.8681-4.26-1.6741-6.9063-2.0655-2.3638-.3484-5.0034-.3333-7.6893.4534l-.0988.0293c-2.0975.6325-4.1089,1.4089-5.9606,2.3144s-3.543,1.94-5.0255,3.0375c-1.3116.9762-2.4511,1.9548-3.4382,2.8469s-1.8217,1.699-2.4986,2.381c-1.3538,1.364-2.0814,2.2363-1.959,2.5076z" fill="#0f0" fill-rule="evenodd" filter="url(#a)" opacity=".83"/>
 <path d="m431.4901,579.2817c-.1204.1864.6252.5783 2.0578,1.0702 .7163.2459 1.6032.5158 2.6156.8163s2.1501.6309 3.3432,1.032c1.3287.444 2.7229,1.0046 4.1398,1.6834s2.8567,1.4755 4.2947,2.357l.0606.0372c1.6439,1.0168 2.8903,2.3196 3.881,3.633 1.095,1.4482 1.8612,2.9226 2.4544,4.2293 .9766,3.0988 1.8095,5.0292 2.2219,4.9228l1e-005,1e-005h1e-005l.0008-.0001 .002-.0006c.4103-.1153.3116-2.2665-.1869-5.6307-.398-1.4703-1.0449-3.1448-2.1312-4.8191-.9711-1.495-2.328-2.9904-4.2285-4.1798l-.0702-.0436c-1.4965-.921-3.046-1.7312-4.6011-2.3948s-3.1153-1.1805-4.6114-1.5513c-1.3272-.3259-2.5682-.5528-3.6732-.7303s-2.0746-.3049-2.8797-.3963c-1.6101-.1829-2.5693-.2212-2.6897-.0348z" fill="#0f0" fill-rule="evenodd" filter="url(#a)" opacity=".83"/>
 <path d="m453.0006,474.733c-.1379.2112.7159.6553 2.3564,1.2125 .8203.2786 1.8359.5844 2.9951.9249s2.4621.7148 3.8284,1.1693c1.5215.503 3.118,1.1382 4.7405,1.9073s3.2712,1.6717 4.9179,2.6705l.0694.0421c1.8825,1.152 3.3097,2.6281 4.4442,4.1163 1.2539,1.6408 2.1313,3.3113 2.8106,4.7918 1.1183,3.5109 2.072,5.698 2.5443,5.5775l2e-005,1e-005h1e-005l.001-.0001 .002-.0006c.4699-.1307.3569-2.5679-.214-6.3795-.4558-1.6659-1.1966-3.563-2.4404-5.46-1.1121-1.6938-2.6658-3.3881-4.8421-4.7357l-.0804-.0494c-1.7137-1.0435-3.488-1.9614-5.2687-2.7133s-3.5673-1.3375-5.2806-1.7576c-1.5198-.3692-2.9409-.6263-4.2062-.8274s-2.3757-.3454-3.2975-.449c-1.8438-.2072-2.9421-.2506-3.08-.0394z" fill="#0f0" fill-rule="evenodd" filter="url(#a)" opacity=".83"/>
 <path d="m343.0446,760.8525c-.0976.1512.5069.4689 1.6684.8677 .5808.1994 1.2999.4182 2.1207.6619s1.7433.5115 2.7106.8368c1.0773.36 2.2077.8145 3.3565,1.3648s2.3161,1.1963 3.4821,1.911l.0491.0302c1.3329.8244 2.3434,1.8807 3.1467,2.9456 .8878,1.1742 1.509,2.3696 1.99,3.4291 .7918,2.5124 1.4671,4.0776 1.8015,3.9913l1e-005,1e-005h1e-005l.0007-9e-005 .002-.0005c.3327-.0935.2527-1.8376-.1515-4.5652-.3227-1.1921-.8472-2.5497-1.7279-3.9072-.7874-1.2121-1.8875-2.4246-3.4284-3.3889l-.0569-.0353c-1.2133-.7468-2.4697-1.4036-3.7305-1.9416s-2.5258-.9571-3.7389-1.2578c-1.0761-.2642-2.0823-.4482-2.9781-.5921s-1.6821-.2472-2.3348-.3213c-1.3055-.1483-2.0831-.1794-2.1808-.0282z" fill="#0f0" fill-rule="evenodd" filter="url(#a)" opacity=".83"/>
 <path d="m298.5719,818.0132c-.1713-.0552-.3217.611-.4063,1.8361-.0423.6126-.0675,1.3638-.0904,2.2197s-.0429,1.8163-.1067,2.8348c-.0689,1.1338-.2154,2.3433-.4496,3.5954s-.5561,2.5468-.9446,3.8581l-.0169.0552c-.4513,1.5008-1.2101,2.7503-2.0308,3.8018-.9044,1.1615-1.8983,2.0709-2.7971,2.8098-2.2219,1.4151-3.5589,2.4724-3.3891,2.7731l-1e-005,3e-005h1e-005l.0003.0006 .002.001c.1762.2973 1.8404-.2315 4.3705-1.3279 1.068-.6201 2.2436-1.4783 3.3269-2.6803 .9671-1.0743 1.8534-2.4507 2.3861-4.1887 .007-.0213.0135-.0426.0192-.0641 .4073-1.3653.7166-2.7488.91-4.1059s.2707-2.6875.2472-3.937c-.0233-1.1078-.106-2.1273-.1989-3.0299s-.1966-1.6887-.2939-2.3384c-.1946-1.2993-.3659-2.0586-.5372-2.1138z" fill="#0f0" fill-rule="evenodd" filter="url(#a)" opacity=".83"/>
 <g transform="translate(6.083 -38.526)">
  <path d="m375.6531,510.9358c.0693-.1201 2.1909-.4633 3.5052-.567 4.5999-.363 8.7545.4863 19.0852,1.1672 14.5441,3.7929 31.8829,1.7513 34.8045-13.6255 .7942-4.5282-.9074-9.3803-4.4341-12.6441-2.2386-2.0717-7.0147-4.6669-10.9561-5.9532-5.298-1.7291-10.7312-1.6683-15.5524.1738-8.1688,3.1213-15.7075,11.066-22.4088,23.6158-.9574,1.7929-2.0059,3.8039-2.33,4.4688s-.8668,1.7056-1.2059,2.3127-.6033,1.1115-.5871,1.1208 .052-.0219.0795-.0695z" fill="url(#m)"/>
  <path transform="matrix(-.30979 -.17886 -.1988 .34433 384.62 186.63)" d="m-430.68 718.25c-0.2469 0.3343-2.0321-0.5178-5.2387-2.2521s-7.8468-4.3292-13.907-7.3839-13.554-6.5484-22.366-10.31-18.954-7.7787-30.023-12.369c-4.5907-1.888-9.3937-3.9086-14.285-6.2593s-9.8703-5.0317-14.766-8.3049l-1e-5 -1e-5c-3.8905-2.6029-7.7207-5.6707-11.167-9.4044-3.1618-3.4318-5.8959-7.4435-7.8829-11.967-3.0816-6.8296-4.964-14.917-3.6163-23.376 1.1989-6.6017 4.5468-12.664 9.3312-17.325 4.3983-4.2631 9.6248-7.4476 15.1-9.7334 0.4249-0.1774 0.8507-0.3491 1.2769-0.5153 6.0054-2.3756 12.232-3.839 18.417-4.5345 6.0074-0.6984 12.06-0.9806 18.026-0.7095s11.844 1.0957 17.519 2.5699c9.4115 2.4613 18.028 6.9407 24.973 12.962 6.784 5.9352 11.779 13.063 15.312 20.317 3.9103 8.023 6.1866 16.113 7.5849 23.69 1.6809 9.0997 2.1946 17.519 2.1773 25.006s-0.568 14.043-1.248 19.531c-0.7821 6.341-1.771 11.287-2.6416 14.68-1.0064 3.6161-1.7348 5.4855-2.1465 5.4142h-1e-5l-2e-3 -3e-4 -2e-3 -3e-4h-1e-5c-0.4098-0.0826-0.4799-2.0998-0.2478-5.7948 0.1472-3.4551 0.433-8.3871 0.5518-14.621 0.1013-5.4173 0.1041-11.824-0.3629-19.022s-1.4011-15.192-3.3949-23.662c-1.6571-7.0323-4.0296-14.383-7.7742-21.4-3.3675-6.306-7.8685-12.388-13.71-17.207-5.9073-4.9267-13.337-8.5607-21.451-10.58-9.8944-2.4838-20.84-2.5746-32.02-1.2862-5.3999 0.6457-10.776 1.9155-15.874 3.9444-0.3597 0.1455-0.7178 0.2942-1.0741 0.4462-4.5916 1.9587-8.7851 4.4313-12.025 7.6336-3.3959 3.3339-5.8458 7.5694-6.5983 11.926-1.1771 5.7204 0.3789 12.015 2.7338 17.871 1.4359 3.4634 3.5436 6.6513 6.0218 9.4714 2.723 3.105 5.9556 5.7877 9.3586 8.2113h1e-5c4.3256 3.082 8.8808 5.6867 13.464 8.0537s9.1933 4.4962 13.673 6.5606c10.832 4.9527 20.855 9.497 29.543 13.857s16.048 8.5203 21.89 12.246 10.177 6.9959 12.993 9.3931 4.1248 3.9013 3.8779 4.2355z" fill="url(#l)" fill-rule="evenodd" filter="url(#j)" opacity=".509"/>
  <g transform="matrix(.34433 .1988 -.1988 .34433 622.81 325.07)">
   <path d="m-430.8 717.66c0-0.3488-4.1895-3.7643-6.9219-5.643-9.5627-6.5752-19.68-9.9499-43.038-21.458-36.449-10.028-71.648-36.28-58.674-73.447 3.9646-10.862 13.773-19.29 25.559-21.964 7.4814-1.6973 21.148-1.3438 31.35 0.8109 13.714 2.8963 25.472 9.8612 33.657 19.937 13.868 17.071 20.297 43.856 19.111 79.619-0.1694 5.1092-0.4145 10.808-0.5446 12.664s-0.2569 4.8051-0.2817 6.5539-0.0837 3.1796-0.1308 3.1796-0.0858-0.1131-0.0858-0.2513z" fill="url(#n)"/>
   <path transform="matrix(.89969 0 0 1 -42.49 0)" d="m-430.68 718.25c-0.2469 0.3343-2.0321-0.5178-5.2387-2.2521s-7.8468-4.3292-13.907-7.3839-13.554-6.5484-22.366-10.31-18.954-7.7787-30.023-12.369c-4.5907-1.888-9.3937-3.9086-14.285-6.2593s-9.8703-5.0317-14.766-8.3049l-1e-5 -1e-5c-3.8905-2.6029-7.7207-5.6707-11.167-9.4044-3.1618-3.4318-5.8959-7.4435-7.8829-11.967-3.0816-6.8296-4.964-14.917-3.6163-23.376 1.1989-6.6017 4.5468-12.664 9.3312-17.325 4.3983-4.2631 9.6248-7.4476 15.1-9.7334 0.4249-0.1774 0.8507-0.3491 1.2769-0.5153 6.0054-2.3756 12.232-3.839 18.417-4.5345 6.0074-0.6984 12.06-0.9806 18.026-0.7095s11.844 1.0957 17.519 2.5699c9.4115 2.4613 18.028 6.9407 24.973 12.962 6.784 5.9352 11.779 13.063 15.312 20.317 3.9103 8.023 6.1866 16.113 7.5849 23.69 1.6809 9.0997 2.1946 17.519 2.1773 25.006s-0.568 14.043-1.248 19.531c-0.7821 6.341-1.771 11.287-2.6416 14.68-1.0064 3.6161-1.7348 5.4855-2.1465 5.4142h-1e-5l-2e-3 -3e-4 -2e-3 -3e-4h-1e-5c-0.4098-0.0826-0.4799-2.0998-0.2478-5.7948 0.1472-3.4551 0.433-8.3871 0.5518-14.621 0.1013-5.4173 0.1041-11.824-0.3629-19.022s-1.4011-15.192-3.3949-23.662c-1.6571-7.0323-4.0296-14.383-7.7742-21.4-3.3675-6.306-7.8685-12.388-13.71-17.207-5.9073-4.9267-13.337-8.5607-21.451-10.58-9.8944-2.4838-20.84-2.5746-32.02-1.2862-5.3999 0.6457-10.776 1.9155-15.874 3.9444-0.3597 0.1455-0.7178 0.2942-1.0741 0.4462-4.5916 1.9587-8.7851 4.4313-12.025 7.6336-3.3959 3.3339-5.8458 7.5694-6.5983 11.926-1.1771 5.7204 0.3789 12.015 2.7338 17.871 1.4359 3.4634 3.5436 6.6513 6.0218 9.4714 2.723 3.105 5.9556 5.7877 9.3586 8.2113h1e-5c4.3256 3.082 8.8808 5.6867 13.464 8.0537s9.1933 4.4962 13.673 6.5606c10.832 4.9527 20.855 9.497 29.543 13.857s16.048 8.5203 21.89 12.246 10.177 6.9959 12.993 9.3931 4.1248 3.9013 3.8779 4.2355z" fill-rule="evenodd" filter="url(#j)" opacity=".509"/>
  </g>
  <path d="m342.97 495.39c-8.2068-22.989-12.312-47.888-9.9044-60.074 1.074-5.4359 4.1017-11.085 7.0891-13.226 2.7928-2.0019 7.9206-3.1322 11.917-2.6267 7.2575 0.918 11.159 5.1636 18.054 19.646 5.4304 11.407 7.4489 14.823 9.4354 15.97 1.7624 1.0175 8.0886 1.0917 17.264 0.2025 2.9696-0.2878 8.4523-0.2487 12.184 0.087 5.6812 0.511 7.5392 1.0017 11.426 3.0172 4.0091 2.0791 4.8321 2.7674 6.0412 5.0529 2.4147 4.5643 2.0923 7.5108-1.4825 13.549-2.4324 4.1085-4.1043 6.0884-7.5834 8.9801-8.2099 6.8238-15.686 10.067-32.856 14.251-9.9719 2.4303-35.457 7.3097-36.801 7.0461-0.3212-0.063-2.4733-5.4068-4.7824-11.875z" fill="url(#o)"/>
  <path transform="matrix(.34433 .1988 -.1988 .34433 622.81 325.07)" d="m-370.02 740.46c-0.01-0.014-0.0147-0.0318-0.0143-0.0533s6e-3 -0.0455 0.0163-0.0735c0.0207-0.0558 0.0612-0.1256 0.1211-0.2092 0.1189-0.1659 0.3143-0.3863 0.5847-0.6607 0.5319-0.5397 1.3536-1.2879 2.4519-2.24 2.1171-1.8354 5.2612-4.4269 9.332-7.7473 7.4147-6.0481 17.917-14.492 30.755-25.307 10.686-9.0028 23.027-19.599 36.128-32.174 5.2902-5.0781 10.692-10.471 16.014-16.297 4.3151-4.7276 8.5819-9.692 12.436-15.089 6.0115-8.4083 10.699-18.333 13.246-29.159 2.0987-8.95 2.8082-18.508 1.4862-27.991-1.0904-7.5091-3.2376-14.986-7.4811-21.016-1.684-2.4002-3.6207-4.5508-5.8606-6.0962-1.9916-1.382-4.2435-2.3747-6.5123-2.6953-2.4005-0.4713-5.3327 0.2539-8.5348 1.1756-4.1002 1.287-8.156 3.2649-12.275 5.4887-9.8773 5.3582-19.39 12.074-29.097 19.088-9.0342 6.5408-18.116 13.513-27.77 20.157-3.4766 2.4006-7.135 4.8377-11.148 6.9829-1.2498 0.6737-2.6168 1.3402-4.1231 1.925-0.2167 0.0841-0.4362 0.1665-0.6586 0.247-1.1879 0.4868-2.8064 0.8854-4.8334 0.9461-1.8747-0.0627-3.4271-0.4309-4.633-0.9205-1.6294-0.6076-3.0688-1.3339-4.346-2.0778-3.4546-1.995-6.5157-4.2717-9.3657-6.5047-7.8486-6.1166-15.074-12.562-22.298-18.571-7.9652-6.6069-15.816-12.893-24.114-17.898-3.6814-2.2143-7.359-4.165-11.108-5.5159l-3e-5 -1e-5c-3.2052-1.1217-6.327-1.908-9.2088-1.7811-6.3333 0.1365-12.624 2.4174-18.067 5.8339-6.1141 3.875-11.124 9.3392-14.44 15.513-3.9051 7.2081-5.4263 15.548-4.9338 23.512 0.3192 5.5339 1.6039 10.922 3.4895 16.067s4.3722 10.049 7.1526 14.635c4.249 6.9619 9.0019 13.346 13.906 19.316s9.9598 11.526 14.906 16.784c6.4539 6.8496 12.782 13.128 18.828 18.906s11.81 11.057 17.176 15.876c12.652 11.364 23.092 20.154 30.461 26.412 8.2959 6.8758 12.632 10.789 12.332 11.212h-1e-5l-9e-4 1e-3 -9e-4 1e-3c-0.3179 0.4092-5.2517-2.7021-14.144-8.8501-7.9127-5.6117-18.907-13.824-32.137-24.719-11.209-9.2305-24.085-20.36-37.588-33.925-5.1653-5.1802-10.474-10.727-15.678-16.786s-10.307-12.629-14.968-19.905c-3.1504-4.8911-5.9807-10.238-8.1729-15.991s-3.7464-11.913-4.2874-18.409c-0.7534-9.4576 0.9497-19.428 5.6018-28.397 3.971-7.6025 9.96-14.298 17.427-19.145 6.5952-4.314 14.456-7.1737 22.825-7.5148 4.5647-0.115 8.892 0.8277 12.79 2.2593l3e-5 1e-5c4.5798 1.6432 8.8489 3.84 12.863 6.2503 9.0414 5.4148 17.34 11.955 25.41 18.63 7.4249 6.1263 14.594 12.494 22.106 18.318 2.7655 2.1325 5.4425 4.1464 8.2059 5.7122 1.0184 0.5707 1.9459 1.058 2.8079 1.3602 0.6841 0.2005 1.1108 0.366 1.2521 0.313 0.1147 0.0711 0.5976-0.1348 1.4316-0.3677l0.4084-0.1493c0.9537-0.366 1.9571-0.8677 3.031-1.43 3.4313-1.8143 6.7714-4.0545 10.187-6.3887 9.3796-6.4324 18.423-13.343 27.634-19.958 9.7832-7.0391 19.706-13.939 30.273-19.61 4.3903-2.3671 9.0353-4.5549 14.016-6.1122 3.7659-1.2608 8.1708-2.0587 12.89-1.4106 3.8967 0.6487 7.4759 2.2197 10.51 4.414 3.3166 2.4089 5.993 5.3679 8.1018 8.5234 5.1974 7.7989 7.7345 16.619 8.7461 25.104 1.3379 10.757 0.409 21.384-2.0824 31.221-3.0144 11.937-8.3698 22.747-15.156 31.845-4.2523 5.6913-8.824 10.793-13.373 15.538-5.6185 5.8657-11.27 11.23-16.779 16.23-13.638 12.378-26.438 22.628-37.56 31.204-13.364 10.307-24.385 18.154-32.319 23.547-4.3561 2.961-7.7885 5.1776-10.194 6.6241-1.2481 0.7504-2.2205 1.2937-2.9033 1.6253-0.3471 0.1686-0.6194 0.2825-0.8152 0.3411-0.0986 0.0295-0.1779 0.045-0.2375 0.0464-0.0299 7e-4 -0.0549-2e-3 -0.0749-9e-3l-0.0457-0.0309z" fill-rule="evenodd" filter="url(#q)" opacity=".29"/>
  <g transform="matrix(.28114 .28114 -.28114 .28114 723.56 440.54)">
   <path d="m-573.5914,710.2806c-.1269.0634-.3008.0337-.5138-.1013s-.4623-.3797-.7305-.6951c-.3702-.4398-.793-1.0558-1.2535-1.828-.889-1.4906-1.9326-3.5956-3.0603-6.2331-2.2416-5.2425-4.8405-12.6568-7.3169-21.7076-1.9723-7.2051-3.8849-15.4628-5.4968-24.4959s-2.921-18.8414-3.7408-29.1059c-.5054-6.3275-.8012-12.5142-.9139-18.4781-.4091-21.8249-.1619-40.6302.5933-52.9641 .3133-5.1163.7125-9.1225 1.177-11.7683 .2136-1.2166.4409-2.1465.6791-2.7647 .1143-.2967.2312-.5219.3501-.6726 .0583-.0738.117-.1299.1762-.1677 .1748-.0381.1822-.057.1824-.0584l1e-005-5e-005 1e-005,5e-005c.0003.001.008.0202.1835.0549 .06.0365.1199.091.1798.1632 .1223.1476.2443.3691.3662.6621 .2539.6104.5072,1.5302.7598,2.7368 .5494,2.624 1.0964,6.6 1.6335,11.6899 1.2948,12.27 2.5401,30.993 3.4908,52.7843 .2542,5.8059.6183,11.8245 1.1105,17.9865 .7985,9.996 1.8737,19.5665 3.0826,28.4351s2.5498,17.0351 3.8263,24.2406c1.6056,9.0554 3.118,16.5605 4.164,22.0563 .5272,2.7682.9294,5.0105 1.1631,6.6895 .1215.871.1941,1.5817.2144,2.1363 .0195.4173-.004.7273-.0519.9585s-.1275.3833-.2544.4467z" fill="#a40" fill-rule="evenodd"/>
   <g transform="translate(43.192 -6.0469)" fill="#f60">
    <path d="m-631.47 531.03a3.0235 3.8873 0 1 1 -6.0469 0 3.0235 3.8873 0 1 1 6.0469 0z"/>
    <path transform="translate(0 13.822)" d="m-631.47 531.03a3.0235 3.8873 0 1 1 -6.0469 0 3.0235 3.8873 0 1 1 6.0469 0z"/>
    <path transform="translate(5.1831 24.188)" d="m-631.47 531.03a3.0235 3.8873 0 1 1 -6.0469 0 3.0235 3.8873 0 1 1 6.0469 0z"/>
    <path transform="translate(-6.0469 29.371)" d="m-631.47 531.03a3.0235 3.8873 0 1 1 -6.0469 0 3.0235 3.8873 0 1 1 6.0469 0z"/>
    <path transform="translate(-.8638 37.145)" d="m-631.47 531.03a3.0235 3.8873 0 1 1 -6.0469 0 3.0235 3.8873 0 1 1 6.0469 0z"/>
    <path transform="translate(5.1831 33.69)" d="m-631.47 531.03a3.0235 3.8873 0 1 1 -6.0469 0 3.0235 3.8873 0 1 1 6.0469 0z"/>
    <path transform="translate(5.1831 47.69)" d="m-631.47 531.03a3.0235 3.8873 0 1 1 -6.0469 0 3.0235 3.8873 0 1 1 6.0469 0z"/>
    <path transform="translate(-10.817 49.69)" d="m-631.47 531.03a3.0235 3.8873 0 1 1 -6.0469 0 3.0235 3.8873 0 1 1 6.0469 0z"/>
    <path transform="translate(-.8169 57.69)" d="m-631.47 531.03a3.0235 3.8873 0 1 1 -6.0469 0 3.0235 3.8873 0 1 1 6.0469 0z"/>
    <path transform="translate(-10.817 65.69)" d="m-631.47 531.03a3.0235 3.8873 0 1 1 -6.0469 0 3.0235 3.8873 0 1 1 6.0469 0z"/>
    <path transform="translate(7.1831 63.69)" d="m-631.47 531.03a3.0235 3.8873 0 1 1 -6.0469 0 3.0235 3.8873 0 1 1 6.0469 0z"/>
    <path transform="translate(-4.8169 73.69)" d="m-631.47 531.03a3.0235 3.8873 0 1 1 -6.0469 0 3.0235 3.8873 0 1 1 6.0469 0z"/>
    <path transform="translate(5.1831 79.69)" d="m-631.47 531.03a3.0235 3.8873 0 1 1 -6.0469 0 3.0235 3.8873 0 1 1 6.0469 0z"/>
    <path transform="translate(-6.8169 83.69)" d="m-631.47 531.03a3.0235 3.8873 0 1 1 -6.0469 0 3.0235 3.8873 0 1 1 6.0469 0z"/>
    <path transform="translate(5.1831 95.69)" d="m-631.47 531.03a3.0235 3.8873 0 1 1 -6.0469 0 3.0235 3.8873 0 1 1 6.0469 0z"/>
    <path transform="translate(-6.8169 95.69)" d="m-631.47 531.03a3.0235 3.8873 0 1 1 -6.0469 0 3.0235 3.8873 0 1 1 6.0469 0z"/>
    <path transform="translate(-.8169 107.69)" d="m-631.47 531.03a3.0235 3.8873 0 1 1 -6.0469 0 3.0235 3.8873 0 1 1 6.0469 0z"/>
   </g>
  </g>
  <g transform="matrix(.34433 .1988 -.1988 .34433 703.07 347.73)">
   <path d="m-573.5914,710.2806c-.1269.0634-.3008.0337-.5138-.1013s-.4623-.3797-.7305-.6951c-.3702-.4398-.793-1.0558-1.2535-1.828-.889-1.4906-1.9326-3.5956-3.0603-6.2331-2.2416-5.2425-4.8405-12.6568-7.3169-21.7076-1.9723-7.2051-3.8849-15.4628-5.4968-24.4959s-2.921-18.8414-3.7408-29.1059c-.5054-6.3275-.8012-12.5142-.9139-18.4781-.4091-21.8249-.1619-40.6302.5933-52.9641 .3133-5.1163.7125-9.1225 1.177-11.7683 .2136-1.2166.4409-2.1465.6791-2.7647 .1143-.2967.2312-.5219.3501-.6726 .0583-.0738.117-.1299.1762-.1677 .1748-.0381.1822-.057.1824-.0584l1e-005-5e-005 1e-005,5e-005c.0003.001.008.0202.1835.0549 .06.0365.1199.091.1798.1632 .1223.1476.2443.3691.3662.6621 .2539.6104.5072,1.5302.7598,2.7368 .5494,2.624 1.0964,6.6 1.6335,11.6899 1.2948,12.27 2.5401,30.993 3.4908,52.7843 .2542,5.8059.6183,11.8245 1.1105,17.9865 .7985,9.996 1.8737,19.5665 3.0826,28.4351s2.5498,17.0351 3.8263,24.2406c1.6056,9.0554 3.118,16.5605 4.164,22.0563 .5272,2.7682.9294,5.0105 1.1631,6.6895 .1215.871.1941,1.5817.2144,2.1363 .0195.4173-.004.7273-.0519.9585s-.1275.3833-.2544.4467z" fill="#a40" fill-rule="evenodd"/>
   <g transform="translate(43.192 -6.0469)" fill="#f60">
    <path d="m-631.47 531.03a3.0235 3.8873 0 1 1 -6.0469 0 3.0235 3.8873 0 1 1 6.0469 0z"/>
    <path transform="translate(0 13.822)" d="m-631.47 531.03a3.0235 3.8873 0 1 1 -6.0469 0 3.0235 3.8873 0 1 1 6.0469 0z"/>
    <path transform="translate(5.1831 24.188)" d="m-631.47 531.03a3.0235 3.8873 0 1 1 -6.0469 0 3.0235 3.8873 0 1 1 6.0469 0z"/>
    <path transform="translate(-6.0469 29.371)" d="m-631.47 531.03a3.0235 3.8873 0 1 1 -6.0469 0 3.0235 3.8873 0 1 1 6.0469 0z"/>
    <path transform="translate(-.8638 37.145)" d="m-631.47 531.03a3.0235 3.8873 0 1 1 -6.0469 0 3.0235 3.8873 0 1 1 6.0469 0z"/>
    <path transform="translate(5.1831 33.69)" d="m-631.47 531.03a3.0235 3.8873 0 1 1 -6.0469 0 3.0235 3.8873 0 1 1 6.0469 0z"/>
    <path transform="translate(5.1831 47.69)" d="m-631.47 531.03a3.0235 3.8873 0 1 1 -6.0469 0 3.0235 3.8873 0 1 1 6.0469 0z"/>
    <path transform="translate(-10.817 49.69)" d="m-631.47 531.03a3.0235 3.8873 0 1 1 -6.0469 0 3.0235 3.8873 0 1 1 6.0469 0z"/>
    <path transform="translate(-.8169 57.69)" d="m-631.47 531.03a3.0235 3.8873 0 1 1 -6.0469 0 3.0235 3.8873 0 1 1 6.0469 0z"/>
    <path transform="translate(-10.817 65.69)" d="m-631.47 531.03a3.0235 3.8873 0 1 1 -6.0469 0 3.0235 3.8873 0 1 1 6.0469 0z"/>
    <path transform="translate(7.1831 63.69)" d="m-631.47 531.03a3.0235 3.8873 0 1 1 -6.0469 0 3.0235 3.8873 0 1 1 6.0469 0z"/>
    <path transform="translate(-4.8169 73.69)" d="m-631.47 531.03a3.0235 3.8873 0 1 1 -6.0469 0 3.0235 3.8873 0 1 1 6.0469 0z"/>
    <path transform="translate(5.1831 79.69)" d="m-631.47 531.03a3.0235 3.8873 0 1 1 -6.0469 0 3.0235 3.8873 0 1 1 6.0469 0z"/>
    <path transform="translate(-6.8169 83.69)" d="m-631.47 531.03a3.0235 3.8873 0 1 1 -6.0469 0 3.0235 3.8873 0 1 1 6.0469 0z"/>
    <path transform="translate(5.1831 95.69)" d="m-631.47 531.03a3.0235 3.8873 0 1 1 -6.0469 0 3.0235 3.8873 0 1 1 6.0469 0z"/>
    <path transform="translate(-6.8169 95.69)" d="m-631.47 531.03a3.0235 3.8873 0 1 1 -6.0469 0 3.0235 3.8873 0 1 1 6.0469 0z"/>
    <path transform="translate(-.8169 107.69)" d="m-631.47 531.03a3.0235 3.8873 0 1 1 -6.0469 0 3.0235 3.8873 0 1 1 6.0469 0z"/>
   </g>
  </g>
  <g transform="matrix(.1988 .34433 -.34433 .1988 719.34 535.49)">
   <path d="m-573.5914,710.2806c-.1269.0634-.3008.0337-.5138-.1013s-.4623-.3797-.7305-.6951c-.3702-.4398-.793-1.0558-1.2535-1.828-.889-1.4906-1.9326-3.5956-3.0603-6.2331-2.2416-5.2425-4.8405-12.6568-7.3169-21.7076-1.9723-7.2051-3.8849-15.4628-5.4968-24.4959s-2.921-18.8414-3.7408-29.1059c-.5054-6.3275-.8012-12.5142-.9139-18.4781-.4091-21.8249-.1619-40.6302.5933-52.9641 .3133-5.1163.7125-9.1225 1.177-11.7683 .2136-1.2166.4409-2.1465.6791-2.7647 .1143-.2967.2312-.5219.3501-.6726 .0583-.0738.117-.1299.1762-.1677 .1748-.0381.1822-.057.1824-.0584l1e-005-5e-005 1e-005,5e-005c.0003.001.008.0202.1835.0549 .06.0365.1199.091.1798.1632 .1223.1476.2443.3691.3662.6621 .2539.6104.5072,1.5302.7598,2.7368 .5494,2.624 1.0964,6.6 1.6335,11.6899 1.2948,12.27 2.5401,30.993 3.4908,52.7843 .2542,5.8059.6183,11.8245 1.1105,17.9865 .7985,9.996 1.8737,19.5665 3.0826,28.4351s2.5498,17.0351 3.8263,24.2406c1.6056,9.0554 3.118,16.5605 4.164,22.0563 .5272,2.7682.9294,5.0105 1.1631,6.6895 .1215.871.1941,1.5817.2144,2.1363 .0195.4173-.004.7273-.0519.9585s-.1275.3833-.2544.4467z" fill="#a40" fill-rule="evenodd"/>
   <g transform="translate(43.192 -6.0469)" fill="#f60">
    <path d="m-631.47 531.03a3.0235 3.8873 0 1 1 -6.0469 0 3.0235 3.8873 0 1 1 6.0469 0z"/>
    <path transform="translate(0 13.822)" d="m-631.47 531.03a3.0235 3.8873 0 1 1 -6.0469 0 3.0235 3.8873 0 1 1 6.0469 0z"/>
    <path transform="translate(5.1831 24.188)" d="m-631.47 531.03a3.0235 3.8873 0 1 1 -6.0469 0 3.0235 3.8873 0 1 1 6.0469 0z"/>
    <path transform="translate(-6.0469 29.371)" d="m-631.47 531.03a3.0235 3.8873 0 1 1 -6.0469 0 3.0235 3.8873 0 1 1 6.0469 0z"/>
    <path transform="translate(-.8638 37.145)" d="m-631.47 531.03a3.0235 3.8873 0 1 1 -6.0469 0 3.0235 3.8873 0 1 1 6.0469 0z"/>
    <path transform="translate(5.1831 33.69)" d="m-631.47 531.03a3.0235 3.8873 0 1 1 -6.0469 0 3.0235 3.8873 0 1 1 6.0469 0z"/>
    <path transform="translate(5.1831 47.69)" d="m-631.47 531.03a3.0235 3.8873 0 1 1 -6.0469 0 3.0235 3.8873 0 1 1 6.0469 0z"/>
    <path transform="translate(-10.817 49.69)" d="m-631.47 531.03a3.0235 3.8873 0 1 1 -6.0469 0 3.0235 3.8873 0 1 1 6.0469 0z"/>
    <path transform="translate(-.8169 57.69)" d="m-631.47 531.03a3.0235 3.8873 0 1 1 -6.0469 0 3.0235 3.8873 0 1 1 6.0469 0z"/>
    <path transform="translate(-10.817 65.69)" d="m-631.47 531.03a3.0235 3.8873 0 1 1 -6.0469 0 3.0235 3.8873 0 1 1 6.0469 0z"/>
    <path transform="translate(7.1831 63.69)" d="m-631.47 531.03a3.0235 3.8873 0 1 1 -6.0469 0 3.0235 3.8873 0 1 1 6.0469 0z"/>
    <path transform="translate(-4.8169 73.69)" d="m-631.47 531.03a3.0235 3.8873 0 1 1 -6.0469 0 3.0235 3.8873 0 1 1 6.0469 0z"/>
    <path transform="translate(5.1831 79.69)" d="m-631.47 531.03a3.0235 3.8873 0 1 1 -6.0469 0 3.0235 3.8873 0 1 1 6.0469 0z"/>
    <path transform="translate(-6.8169 83.69)" d="m-631.47 531.03a3.0235 3.8873 0 1 1 -6.0469 0 3.0235 3.8873 0 1 1 6.0469 0z"/>
    <path transform="translate(5.1831 95.69)" d="m-631.47 531.03a3.0235 3.8873 0 1 1 -6.0469 0 3.0235 3.8873 0 1 1 6.0469 0z"/>
    <path transform="translate(-6.8169 95.69)" d="m-631.47 531.03a3.0235 3.8873 0 1 1 -6.0469 0 3.0235 3.8873 0 1 1 6.0469 0z"/>
    <path transform="translate(-.8169 107.69)" d="m-631.47 531.03a3.0235 3.8873 0 1 1 -6.0469 0 3.0235 3.8873 0 1 1 6.0469 0z"/>
   </g>
  </g>
  <path transform="matrix(.34433 .1988 -.1988 .34433 622.81 325.07)" d="m-371.8382,754.8616c-.009-.015-.0118-.033-.01-.0539s.009-.0437.0207-.0697h1e-005c.0236-.0519.067-.1149.1298-.1889 .1246-.1469.3257-.3373.6019-.5707 .543-.459 1.3755-1.0841 2.4852-1.8722 2.1365-1.5172 5.2993-3.6371 9.3945-6.3415 7.4322-4.9081 17.9453-11.7202 30.8606-20.4652 10.6561-7.2159 22.976-15.6971 36.2003-25.8692 5.2672-4.0519 10.6644-8.3641 16.0297-13.0656 4.2728-3.7483 8.521-7.689 12.4158-12.0515 6.2142-6.9594 11.8435-14.9491 15.9971-23.9543 3.2942-7.239 5.8169-15.0363 5.7104-22.8858-.0346-3.2014-.4722-6.3688-1.5388-9.2342-.9827-2.6814-2.5185-5.1922-4.5135-7.2197-2.1501-2.234-4.9762-3.9853-8.0838-5.2927-3.8443-1.6152-8.1788-2.457-12.701-2.879-9.8362-.9019-20.1539.5727-30.2997,3.518-9.454,2.7581-18.7694,6.8535-28.0361,11.568-7.6146,3.8807-15.2183,8.3237-23.2091,12.5807-2.8912,1.5479-5.9467,3.1227-9.2708,4.4651-1.757.7872-3.9496,1.5391-6.5759,1.8393-.5701.0652-1.1602.1089-1.7702.1271-3.3844-.1128-6.1669-.9819-8.3517-1.8909-3.3886-1.2828-6.5354-2.8011-9.5247-4.3228-7.9901-4.0522-15.5562-8.4174-23.0354-12.4535-8.3622-4.5034-16.5901-8.7479-24.9386-12.0392-3.8711-1.5246-7.7151-2.8431-11.5542-3.7546l-2e-005-1e-005c-3.4012-.7936-6.7127-1.3219-9.8593-1.2354-7.1125.1527-14.1174,1.5752-20.5793,4.0535-6.7031,2.6547-12.8076,6.3303-16.6615,11.447-1.9446,2.518-3.3803,5.39-4.12,8.3591-.8903,3.4235-.8688,7.1395-.2748,10.7624 .9247,5.9356 3.3299,11.4775 6.4137,16.6952s6.8461,10.111 10.646,14.735c12.2482,14.6464 25.1046,26.7725 37.2167,37.0157s23.4857,18.6024 33.2681,25.4677c11.3148,7.9351 20.5827,13.8216 27.0571,17.9251 3.414,2.1637 6.052,3.8262 7.8263,5.0095 .9075.6052 1.5881,1.0844 2.0315,1.44 .224.1797.3872.3276.4884.4442 .0508.0586.0858.1092.1051.1519-.004.0481-.001.0745.002.089s.007.0168.008.017l1e-005,1e-005h-1e-005l-.0181.004c-.0134.006-.0359.0203-.0721.0521v1e-005c-.0459.0102-.1078.0123-.1855.006-.1545-.012-.3717-.0562-.6498-.1328-.5504-.1516-1.3406-.4305-2.3582-.8386-1.9895-.7978-4.8529-2.0905-8.4961-3.9002-6.9093-3.4321-16.6515-8.7157-28.4761-16.144-10.2209-6.4159-22.0765-14.4104-34.7431-24.4429s-26.1507-22.1035-39.1236-36.9267c-4.1426-4.6565-8.2823-9.8286-11.7831-15.64s-6.3625-12.2619-7.7876-19.4866c-.8743-4.6004-.9327-9.5272.1996-14.4206 1.0151-4.2469 2.9296-8.2624 5.5778-11.7683 5.269-6.8486 12.6687-11.6472 20.4954-14.6655 7.4284-2.9451 15.4885-4.6637 23.7445-4.9098 4.267-.1059 8.4078.4758 12.3242,1.4005l3e-005,1e-005c4.4426,1.0331 8.741,2.462 12.905,4.0844 8.9694,3.4915 17.585,7.8631 26.0659,12.4069 7.6621,4.0969 15.1729,8.4078 22.8494,12.2806 2.8916,1.4531 5.7102,2.8232 8.5348,3.8763 2.0663.6891 3.6939,1.3442 4.8723,1.249 .1875.0213.3904.0176.6088-.007 1.0059-.1126 2.3354-.6649 3.9782-1.2405 2.7343-1.0863 5.468-2.5083 8.2997-4.0045 7.7656-4.1241 15.4428-8.5817 23.4056-12.6119 9.6136-4.8736 19.5353-9.151 29.8125-12.106 11.0548-3.1933 22.602-4.6865 33.9058-3.61 5.2072.4886 10.4683,1.6177 15.4511,3.7174 4.0923,1.7227 7.9268,4.2276 11.103,7.52 2.9176,3.0697 5.088,6.7031 6.441,10.5765 1.4107,4.0867 1.9668,8.2748 1.9166,12.3124-.1445,9.7244-3.0954,18.6856-6.944,26.527-4.7693,9.8334-11.0265,18.3715-17.8573,25.6647-4.3322,4.6262-8.8963,8.6742-13.3928,12.4109-5.659,4.7084-11.2949,8.9644-16.7624,12.9141-13.7246,9.9153-26.4521,18.003-37.486,24.7522-13.3778,8.184-24.3371,14.3494-32.2135,18.5559-4.3401,2.3179-7.7497,4.0359-10.1325,5.1378-1.2377.5724-2.1989.9786-2.8704,1.2154-.3415.1205-.6082.1972-.7983.2296-.0958.0163-.1722.0215-.2289.0153-.0285-.003-.052-.009-.0706-.0179s-.0328-.021-.0413-.036z" fill="url(#p)" fill-rule="evenodd" filter="url(#r)" opacity=".931"/>
  <path d="m339.28 499.87c-13.65-28.382-18.684-51.967-12.471-58.44 3.416-3.5593 9.2128-4.279 15.668-1.9451 5.7911 2.0939 8.4818 4.9464 17.268 18.307 4.5257 6.8816 8.9436 12.844 9.9308 13.402 0.9781 0.5531 6.7115 1.2293 12.741 1.5025 15.149 0.6865 19.697 1.6187 26.411 5.4128 4.6216 2.6117 5.6804 3.5095 6.9584 5.9003 4.2296 7.9126-4.4768 17.013-20.272 21.191-4.5468 1.2025-10.719 2.4558-13.716 2.7852-10.089 1.1089-36.361 2.777-37.027 2.351-0.3629-0.2322-2.8337-4.9423-5.4907-10.467z" fill="url(#k)"/>
 </g>
</svg>
