<?xml version='1.0' encoding='utf-8'?>
<svg xmlns="http://www.w3.org/2000/svg" version="1.1" id="Capa_1" x="0px" y="0px" viewBox="0 0 576 720" style="enable-background:new 0 0 576 720;"> <style type="text/css"> .st0{fill:#EFC97B;} .st1{fill:#606060;} .st2{fill:#FCDAA4;} </style> <g> <path class="st0" d="M355.5,247.6c-0.4,8.3-2.4,16.2-5.5,23.9c-4.1,10-10.2,18.7-18.2,26c-9.1,8.3-19.7,13.6-31.8,16 c-2.1,0.4-4.3,0.8-6.5,0.8c-0.7,0-1,0.1-0.7,1c0.7,2,1.3,4,1.9,6.2c-2.3-1-4.3-1.2-6.2,0.5c-0.9,1.5-1.2,1.6-2.7,0.9 c-0.8-0.4-1.6-0.6-2.5-0.8c-2.1-0.2-4.2,0-6,1.2c-0.3,0.2-0.6,0.4-1,0.2c-0.4-0.3-0.2-0.7-0.1-1.1c0.5-2.2,1.2-4.4,2-6.5 c0.6-1.5,0.6-1.5-1-1.8c-12.2-2.1-22.9-7.4-32.2-15.5c-8.6-7.5-14.9-16.6-19.2-27c-2.6-6.3-4.3-12.8-5.1-19.5 c-0.2-1.3-0.2-2.6-0.2-3.9c0-0.6,0-1.2,0-1.7c-0.1-0.5,0.1-1-0.1-1.5c0-1.6,0-3.2,0-4.8c0.3-0.6,0.1-1.2,0.1-1.7c0-0.6,0-1.2,0-1.8 c0-6.1,1.2-12.1,3-17.9c1.6-5.4,3.7-10.6,6.6-15.4c0.5-0.9,0.4-1.4-0.5-1.9c-4.4-2.8-7.2-6.7-8.7-11.7c-0.3-1-0.4-2-0.4-3.1 c-0.1-0.5,0.1-1-0.1-1.5c0-0.8,0-1.6,0-2.4c0.3-0.5,0.1-1,0.1-1.4c0-3.9,1.7-7.2,4-10.2c2.3-3,5.3-5.1,8.8-6.5c1.7-0.7,3.4-1,5.2-1 c1.3-0.1,2.6,0.2,3.9-0.1c0.2,0,0.5,0,0.7,0c3.4,0.2,6.5,1.4,9.3,3.3c2.8,1.9,4.9,4.3,6.5,7.2c0.5,0.9,0.9,1.1,1.9,0.7 c5.2-2.3,10.5-3.7,16.1-4.5c5.6-0.8,11.2-0.7,16.8,0c6.4,0.8,12.6,2.6,18.5,5.2c1.1,0.5,1.4-0.1,1.8-0.9c2.8-5.4,7.1-8.8,12.9-10.6 c0.9-0.3,1.9-0.1,2.8-0.5c0.2,0,0.5,0,0.7,0c1.2,0.3,2.3,0,3.5,0.1c0.4,0,0.8,0,1.2,0c4.4,0.1,8,2.1,11.2,4.9 c4.5,3.9,6.8,9,6.9,14.9c0.1,5.3-1.5,10.2-5.2,14.2c-1.1,1.2-2.3,2.5-3.7,3.4c-0.7,0.4-0.6,0.9-0.2,1.5c1.5,2.4,3,4.8,4.3,7.4 c3.5,7.2,5.9,14.7,7,22.6c0.2,1.3,0.2,2.7,0.2,4.1c0.1,0.6-0.1,1.3,0.1,1.9c0,2.4,0,4.8,0,7.2C355.4,246.1,355.7,246.9,355.5,247.6 z"/> <path class="st1" d="M258.2,556.7c-0.1-0.3-0.4-0.3-0.6-0.4c-1.7-0.8-2.1-2.2-1.2-3.8c1.9-3.2,3.1-6.6,3.7-10.3 c0.8-5.6-0.1-10.8-2.9-15.7c-1.3-2.4-2.7-4.7-4.1-7c-5.3-9-4-17.8,2.4-25.5c5-6,11.3-10.6,17.8-14.9c9.3-6.1,19.4-10.6,29.5-15.1 c5.6-2.5,11.1-5.1,15.9-9c2.5-2,4.8-4.2,6.7-6.8c4.9-6.8,5.8-14,2.4-21.7c-3-7-7.9-12.5-13.6-17.4c-7.1-6.2-15.2-10.9-23.3-15.5 c-5.1-2.9-10.2-5.7-14.7-9.4c-2.4-1.9-4.5-3.9-6.3-6.4c-4.6-6.4-5-13.2-1.4-20.2c1.8-3.5,4.2-6.5,6.6-9.5c3.3-4.3,6.3-8.8,7.4-14.2 c0.8-4,0.9-8,0.9-12.1c0.6,0.2,1.4,0.3,1.9,0.6c1.2,0.8,2.2,0.7,3.1-0.4c0.1,9-1.3,17.6-6.4,25.3c-1.6,2.4-3.5,4.6-5.3,6.8 c-1.2,1.5-2.3,3.1-3.3,4.7c-3.5,6-3,11.6,1.4,17c3.2,3.9,7.2,6.8,11.5,9.3c5.6,3.3,11.4,6.4,16.9,9.8c7.7,4.7,14.9,10.2,20.9,17.1 c3.7,4.3,6.9,8.9,8.9,14.3c3.6,9.5,1.9,18.2-4.3,26.1c-4.4,5.6-10,9.4-16.2,12.7c-6.3,3.3-13,5.8-19.5,8.9 c-9.5,4.5-18.6,9.7-26.7,16.3c-3,2.4-5.6,5.1-7.9,8.2c-4.4,5.8-4.7,11.8-1.1,18.1c1.7,2.9,3.6,5.6,5.1,8.7 c4.8,10.3,3.9,20.3-1.6,30.1c-0.4,0.8-1.2,1-1.9,1.5C258.7,556.7,258.5,556.7,258.2,556.7z"/> <path class="st2" d="M267.6,179.4c0.8,0,1.5,0.2,2.2,0.4c1.9,0.6,2.4,1.7,1.6,3.5c-1.1,2.5-2.8,4.6-4.5,6.7 c-4.2,5.3-8.7,10.4-12.5,16c-2.9,4.4-5.6,8.9-8.3,13.4c-3,4.8-5.9,9.7-9.4,14.1c-0.9,1.2-2,2.3-3.3,3.1c-1.2,0.7-2.1,0.5-2.9-0.7 c-0.7-1-1-2.1-1.1-3.3c-0.4-4.9,0.9-9.5,2-14.2c1.2-5.1,2.7-10,4.9-14.7c1.7-3.6,4-7,6.6-10.1c4.2-4.9,9.4-8.3,15-11.3 C260.9,180.9,264.2,179.6,267.6,179.4z"/> </g> </svg>