<?xml version='1.0' encoding='utf-8'?>
<svg xmlns="http://www.w3.org/2000/svg" enable-background="new 0 0 243.22 429.661" version="1.1" viewBox="0 0 243.22 429.661">
	<path d="m214.3 17.593c-7.92-1.951-16.184 0.062-18.255 4.552-40.051 92.862-27.998 198.26-68.001 291.13-2.065 4.499 2.52 9.69 10.443 11.646 7.92 1.952 14.399-0.507 14.655-5.448 7.76-100.83 67.419-188.53 75.197-289.36 0.25-4.941-6.11-10.569-14.04-12.527z" fill="#A17105"/>
<path d="m143.1 322.37c7.764-100.83 67.422-188.54 75.2-289.36 0.255-4.936-6.108-10.564-14.039-12.522-2.101-0.518-4.222-0.749-6.249-0.736 3.437-2.736 9.967-3.71 16.287-2.153 7.931 1.958 14.294 7.586 14.039 12.522-7.778 100.83-67.438 188.53-75.197 289.36-0.219 4.212-4.964 6.608-11.264 6.02 0.72-0.89 1.16-1.93 1.22-3.13z" fill="#5D3E00"/>
		<linearGradient id="a" x1=".3159" x2=".3159" y1="404.57" y2="404.57" gradientTransform="matrix(-.5412 -.8409 -.8409 .5412 397.54 216.9)" gradientUnits="userSpaceOnUse">
		<stop stop-color="#C0870F" offset="0"/>
		<stop stop-color="#A17105" offset=".2753"/>
		<stop stop-color="#7B5500" offset=".5787"/>
		<stop stop-color="#5D3E00" offset="1"/>
	</linearGradient>
	<path d="m57.165 435.59" fill="url(#a)"/>
	<path d="m12.213 399.96s82.931 16.837 101.96-65.62c19.03-82.46 151.34 104.46-101.96 65.62z" fill="#1C75BC"/>
	<path d="m143.91 317.02c23.989 24.293 30.271 87.696-89.504 82.714-15.547 3.658-29.708 2.827-36.774 1.999 182.3 26.43 158.72-66.99 126.28-84.71zm-131.01 84.01s1.73 0.352 4.73 0.704c-1.561-0.23-3.135-0.45-4.73-0.7z" fill="#034EA2"/>
		<path d="m41.127 388.57s62.779 3.702 75.317-57.879c12.55-61.6 116.17 60.09-75.313 57.88z" fill="#1C75BC"/>
		<path d="m141.94 317.28c12.823 17.394 10.593 51.419-57.347 61.816-15.66 9.046-32.235 10.482-39.333 10.644 131.25 0.47 119.52-58.65 96.68-72.46zm-100.26 72.43s1.309 0.084 3.576 0.029c-1.188-0.01-2.373-0.02-3.576-0.03z" fill="#034EA2"/>
</svg>