<?xml version="1.0" encoding="UTF-8"?>
<svg viewBox="0 0 600 1100" xmlns="http://www.w3.org/2000/svg" xmlns:xlink="http://www.w3.org/1999/xlink">
 <defs>
  <linearGradient id="al" x1=".79383" x2=".36084" y1=".44205" y2=".4721" spreadMethod="reflect" xlink:href="#c"/>
  <linearGradient id="aj" x1=".42963" x2=".43181" y1=".005407" y2="1.0579" xlink:href="#b"/>
  <linearGradient id="ah" x1=".67514" x2=".46607" y1="1.2494" y2="-.048095" xlink:href="#a"/>
  <linearGradient id="ai" x1="-1.5714" x2="1.5013" y1="-.31013" y2=".46705" xlink:href="#af"/>
  <linearGradient id="ag" x1=".38303" x2=".4919" y1=".047212" y2=".95708" xlink:href="#c"/>
  <linearGradient id="bb" x1=".56957" x2=".44983" y1="-.025823" y2=".99034" xlink:href="#ae"/>
  <linearGradient id="be" x1=".29126" x2=".59222" y1=".37872" y2=".43651" xlink:href="#a"/>
  <linearGradient id="bc" x1=".39805" x2=".43365" y1="1.0096" y2=".75436" xlink:href="#a"/>
  <linearGradient id="bd" x1=".28802" x2=".61811" y1="-.011376" y2=".62433" xlink:href="#a"/>
  <linearGradient id="ak" x1=".43397" x2=".69183" y1=".067431" y2=".4945" spreadMethod="reflect" xlink:href="#c"/>
  <linearGradient id="b">
   <stop stop-color="#fff" offset="0"/>
   <stop stop-color="#fff" stop-opacity="0" offset="1"/>
  </linearGradient>
  <linearGradient id="a">
   <stop offset="0"/>
   <stop stop-opacity="0" offset="1"/>
  </linearGradient>
  <linearGradient id="c">
   <stop stop-color="#525252" offset="0"/>
   <stop stop-color="#d9d9d9" offset="1"/>
  </linearGradient>
  <linearGradient id="af">
   <stop stop-color="#ff8dcd" stop-opacity="0" offset="0"/>
   <stop stop-color="#ff93d7" stop-opacity="0" offset=".5"/>
   <stop stop-color="#b149a9" offset="1"/>
  </linearGradient>
  <linearGradient id="am" x1=".60096" x2=".92668" y1=".54685" y2=".65171" spreadMethod="reflect" xlink:href="#c"/>
  <linearGradient id="ao" x1=".16583" x2=".66791" y1=".060159" y2=".39916" spreadMethod="reflect" xlink:href="#a"/>
  <linearGradient id="an" x1=".087384" x2=".26862" y1=".15973" y2="1.0294" xlink:href="#a"/>
  <linearGradient id="ae">
   <stop stop-color="#ffccfc" offset="0"/>
   <stop stop-color="#ca82b6" offset="1"/>
  </linearGradient>
  <radialGradient id="ar" cx="269.79" cy="1031.8" r="32.826" gradientTransform="matrix(1.3309 -.20558 .10261 .47158 -91.365 -27.628)" gradientUnits="userSpaceOnUse" xlink:href="#a"/>
  <radialGradient id="ax" cx="370.71" cy="771.55" r="27.48" gradientTransform="matrix(1.0154 0 0 .98487 0 -336)" gradientUnits="userSpaceOnUse" xlink:href="#c"/>
  <radialGradient id="az" cx="462.46" cy="233.67" r="330.33" gradientTransform="matrix(.96831 -.21503 .29652 1.3353 -211.6 -391.67)" gradientUnits="userSpaceOnUse" xlink:href="#ae"/>
  <radialGradient id="aq" cx="378.57" cy="752.36" r="8.5714" gradientTransform="matrix(.4687 -.17161 .34381 .93904 -50.684 -226.27)" gradientUnits="userSpaceOnUse" xlink:href="#b"/>
  <radialGradient id="au" cx="480.13" cy="516.87" r="175.44" gradientTransform="matrix(.70161 -.4618 .65455 .99446 -404.37 -111.82)" gradientUnits="userSpaceOnUse" xlink:href="#b"/>
  <radialGradient id="as" cx="457.14" cy="263.79" r="94.286" gradientTransform="matrix(.41416 -.091969 .091969 .41416 88.064 -256.35)" gradientUnits="userSpaceOnUse" xlink:href="#b"/>
  <radialGradient id="at" cx="457.14" cy="263.79" r="94.286" gradientTransform="matrix(1.1833 -.26277 .26277 1.1833 -308.6 -381.17)" gradientUnits="userSpaceOnUse" xlink:href="#b"/>
  <radialGradient id="av" cx="480.13" cy="516.87" r="175.44" gradientTransform="matrix(.41814 -.27522 .3667 .55713 -79.096 85.273)" gradientUnits="userSpaceOnUse" xlink:href="#b"/>
  <radialGradient id="aw" cx="413.89" cy="440.37" r="359.53" gradientTransform="matrix(.96831 -.21503 .29652 1.3353 -211.6 -391.67)" gradientUnits="userSpaceOnUse">
   <stop stop-color="#ff00d3" stop-opacity="0" offset="0"/>
   <stop stop-color="#ff00a5" stop-opacity="0" offset=".5"/>
   <stop stop-color="#7b0068" stop-opacity="0" offset=".75"/>
   <stop stop-color="#540049" offset="1"/>
  </radialGradient>
  <radialGradient id="ap" cx="214.76" cy="1378.8" r="15.406" gradientTransform="matrix(1.4686 0 0 .42526 72.665 -119.17)" gradientUnits="userSpaceOnUse" xlink:href="#b"/>
  <radialGradient id="ay" cx="478.66" cy="290.04" r="372.49" gradientTransform="matrix(.96831 -.21503 .29652 1.3353 -211.6 -391.67)" gradientUnits="userSpaceOnUse" xlink:href="#af"/>
  <radialGradient id="ba" cx="247.71" cy="1161.1" r="14.647" fy="1161.4" gradientTransform="matrix(1.5804 0 0 .63276 0 -330)" gradientUnits="userSpaceOnUse" xlink:href="#a"/>
 </defs>
 <g fill-rule="evenodd">
  <path d="m373.76 449.05l29.294 923.76h11.112l-34.345-926.47-6.0609 2.709z" fill="url(#ag)"/>
  <g stroke-linecap="round" stroke-linejoin="round" stroke-width=".625">
   <path d="m558.54-47.173c39.66 178.6-67.947 439.47-174.54 466.06-103.81 25.979-315.74-169.78-355.4-348.38s46.86-349.91 193.13-382.39 297.16 86.108 336.82 264.71z" fill="url(#az)" opacity=".75"/>
   <path d="m558.54-47.173c39.66 178.6-67.947 439.47-174.54 466.06-103.81 25.979-315.74-169.78-355.4-348.38s46.86-349.91 193.13-382.39 297.16 86.108 336.82 264.71z" fill="url(#ay)"/>
  </g>
  <path d="m171.19-262.61c-12.157 0.12381-36.516 19.763-45.87 30.673-19.234 22.433-30.838 37.65-41.846 61.974-16.9 37.343 4.575 39.084 32.847 16.12 21.599-17.544-12.858 35.603-15.812 47.412-4.934 19.723-24.964 31.75-34.405 42.761-9.848 11.486-7.2461 33.213-27.588 47.101-22.198 15.154 18.255 23.315 29.746 28.515 18.362 8.3097-10.76 46.533 27.888 20.148 22.79-15.558 16.77-31.547 31.92-1.2348 4.9966 9.997 47.588-37.134 49.59-40.28 2.3396-3.6754-3.8543-56.896-4.6394-60.431-0.01593-0.071777 13.061-19.124 28.823-15.181 24.45 6.1164 16.739 28.761 38.737 3.1049 11.176-13.035 25.825 50.398 26.334 52.687 7.2909 32.832 48.788-4.8665 62.29 3.7282 14.421 9.1801 9.0842 39.312 25.714 49.898 13.119 8.3514 43.278-30.363 47.42-36.871 13.556-21.296 0.68903-23.511 38.118 0.31567 26.363 16.782 22.406-31.973 58.262-1.2308 21.82 18.709 6.7702-20.076 7.1328-33.778 0.61194-23.122-11.942-57.191-20.132-77.478-4.6345-11.481 44.373 16.124 36.567 6.5134-14.238-17.529-32.694-32.145-45.858-48.351-17.055-20.997-24.405-34.878-36.559-59.197-10.501-21.011-5.9465-25.34-22.617-35.952-17.603-11.206-33.648 17.928-44.935-4.6553-7.8512-15.708-37.869 9.4224-52.683-0.007965-4.1717-2.6556-16.656-32.666-19.828-36.571-6.9822-8.5961-42.542 3.5936-54.234 6.1898l-11.157 2.4775c-12.796 2.8416-28.611 3.4268-42.457 6.5015-1.0072 0.22366-12.546 19.486-20.767 25.099z" fill="url(#aj)" opacity=".6"/>
  <g stroke-linecap="round" stroke-linejoin="round" stroke-width=".625">
   <path d="m340.7-197.82a39.049 39.049 0 1 1 -78.098 17.343 39.049 39.049 0 1 1 78.098 -17.343z" fill="url(#as)"/>
   <path d="m413.22-213.92a111.57 111.57 0 1 1 -223.14 49.55 111.57 111.57 0 1 1 223.14 -49.55z" fill="url(#at)" opacity=".6"/>
   <path d="m221.72-311.87c-146.27 32.48-232.8 203.77-193.14 382.37s251.61 374.37 355.42 348.39c106.6-26.598 214.21-287.48 174.55-466.08s-190.56-297.16-336.83-264.68zm-5.2444 5.3581c5.1999-1.6039 11.041-2.4297 17.65-2.2548 19.368 0.5126 32.664 26.514 38.091 26.658 20.479 0.54205 30.72-19.317 45.575-18.924 18.58 0.49176 21.189 8.7209 32.842 16.139 10.823 6.8899 24.287 20.228 38.738 29.427 11.837 7.5353 32.715 24.002 47.104 27.601 13.508 3.3792 31.702 11.002 34.698 24.498 6.3324 28.516-14.448 21.375-14.899 38.425-0.62003 23.426 41.676 16.277 48.04 44.936 6.5796 29.63-30.816 41.326-22.019 45.864 0.17764 0.091644 72.199 61.527 30.995 60.437-23.067-0.6105-67.778-34.504-74.698-6.8446-2.5144 10.051-25.863 61.413-44.016 39.065-38.873-47.858-17.132 7.8411-68.795 6.4738-17.014-0.45032-14.751-19.047-14.254-37.809 2.0721-78.29-54.609-11.471-55.159-37.497-1.6588-78.521 6.5776-10.145-17.647-39.969-14.593-17.967-25.614-36.775-52.063-23.555-40.782 20.383-6.405 29.476-4.9505 56.703 1.3524 25.317-31.749 21.715-17.676 39.041 4.7249 5.8171 30.882 53.188 22.316 47.735-3.4086-2.1698-6.8438-4.3566-10.252-6.5264-36.746-23.391-37.038 43.629-65.062-3.0943-21.787-36.324-21.001 20.857-50.222 37.498-11.176 33.51-15.372 9.7713-19.197-7.4531-3.4558-15.562-0.49431-28.606-4.3283-45.871-6.2542-28.164 15.771-21.03 28.811-41.514 7.5872-11.919 36.258-30.446 9.3167-37.185-14.15-3.5397-37.511 6.5336-19.844-10.222 11.358-10.773 59.758-50.389 37.207-69.724-12.698-10.888-49.658-41.663-8.3747-50.831 36.849-8.1828 45.989-9.051 46.799-39.65 0.65948-24.917 38.08-10.894 51.461-31.915 8.2807-13.008 18.212-24.848 33.812-29.66z" fill="url(#ai)" opacity=".4"/>
   <path d="m401.73 78.735a137.23 194.51 0 1 1 -274.46 180.65 137.23 194.51 0 1 1 274.46 -180.65z" fill="url(#au)" opacity=".53"/>
   <path d="m389.49 180.86a81.785 108.97 0 1 1 -163.57 107.66 81.785 108.97 0 1 1 163.57 -107.66z" fill="url(#av)" opacity=".3"/>
  </g>
  <path d="m223.16 317.36c-18.336-24.262-60.967-66.679-84.57-101.25-13.367-19.579-23.259-50.613 1.3223-49.962 37.268 0.98636 32.963 59.584 31.556-7.0075-0.090302-4.2743 28.978 44.927 54.782 4.3909 20.491-32.189 27.586 49.668 31.545 67.498 1.5402 6.9357 35.923 12.726 49.962 1.3224 35.296-28.67 6.933 34.372 6.5667 48.21-0.89096 33.662 73.164-41.607 76.704-46.006 32.961-40.966 50.845-10.706 72.759-45.13 23.006-36.141 48.395-65.382 66.192-93.341 14.1-22.149-23.01-31.227 10.087-47.769 25.06-12.525 21.8 45.562 16.208 54.347-13.638 21.424-38.608 14.175-39.451 46.012-0.52716 19.917-0.87958 33.317 4.374 56.975 4.6926 21.132-20.482 53.457-30.251 68.803-13.828 21.722-3.488 30.228-31.562 44.26-19.256 9.6243-21.792 50.293-39.451 46.012-13.722 11.146-36.205 27.079-46.023 35.054-18.363 14.915-39.258-16.116-68.368-9.6522-21.973 4.8795-45.83-9.4892-58.286-20.169-11.998-10.287-20.75-37.527-24.097-52.596z" fill="url(#ah)" opacity=".1"/>
  <g stroke-linecap="round" stroke-linejoin="round" stroke-width=".625">
   <path d="m558.54-47.173c39.66 178.6-67.947 439.47-174.54 466.06-103.81 25.979-315.74-169.78-355.4-348.38s46.86-349.91 193.13-382.39 297.16 86.108 336.82 264.71z" fill="url(#aw)"/>
   <path d="m417.26 396.76a43.688 15.48 0 1 1 -87.376 13.497 43.688 15.48 0 1 1 87.376 -13.497z" fill="url(#ar)" opacity=".3"/>
  </g>
  <path d="m372.75 405.24c-5.9356 3.6492-15.409 17.308-18.183 24.244-1.5433 3.8583-9.0917 5.051-13.132 7.0711-7.9485 3.9742-3.7394 11.112 4.0406 11.112 10.363 0 20.274 0.014282 30.305 2.0203 7.5648 1.513 15.433 1.0102 23.234 1.0102 7.9438 0 8.9786-5.2764 7.0711-9.0914-1.7358-3.4716-10.956-7.7692-13.132-12.122-2.0656-4.1312-1.8953-18.342-7.0711-22.223-0.38092-0.28571-6.7176-5.9639-13.132-2.0203z" fill="url(#bb)"/>
  <path d="m372.75 405.24c-5.9356 3.6492-15.409 17.308-18.183 24.244-1.5433 3.8583-9.0917 5.051-13.132 7.0711-7.9485 3.9742-3.7394 11.112 4.0406 11.112 10.363 0 20.274 0.014282 30.305 2.0203 7.5648 1.513 15.433 1.0102 23.234 1.0102 7.9438 0 8.9786-5.2764 7.0711-9.0914-1.7358-3.4716-10.956-7.7692-13.132-12.122-2.0656-4.1312-1.8953-18.342-7.0711-22.223-0.38092-0.28571-6.7176-5.9639-13.132-2.0203z" fill="url(#bc)"/>
  <path d="m372.75 405.24c-5.9356 3.6492-15.409 17.308-18.183 24.244-1.5433 3.8583-9.0917 5.051-13.132 7.0711-7.9485 3.9742-3.7394 11.112 4.0406 11.112 10.363 0 20.274 0.014282 30.305 2.0203 7.5648 1.513 15.433 1.0102 23.234 1.0102 7.9438 0 8.9786-5.2764 7.0711-9.0914-1.7358-3.4716-10.956-7.7692-13.132-12.122-2.0656-4.1312-1.8953-18.342-7.0711-22.223-0.38092-0.28571-6.7176-5.9639-13.132-2.0203z" fill="url(#bd)" opacity=".468"/>
  <path d="m372.75 405.24c-5.9356 3.6492-15.409 17.308-18.183 24.244-1.5433 3.8583-9.0917 5.051-13.132 7.0711-7.9485 3.9742-3.7394 11.112 4.0406 11.112 10.363 0 20.274 0.014282 30.305 2.0203 7.5648 1.513 15.433 1.0102 23.234 1.0102 7.9438 0 8.9786-5.2764 7.0711-9.0914-1.7358-3.4716-10.956-7.7692-13.132-12.122-2.0656-4.1312-1.8953-18.342-7.0711-22.223-0.38092-0.28571-6.7176-5.9639-13.132-2.0203z" fill="url(#be)" opacity=".509"/>
  <path d="m358.6 467.36c3.3826 0.43799 11.266-0.30615 16.576-1.5378 4.4948-1.0425 7.2171-1.3132 9.9457-3.8447 3.9482-3.6629 3.8424-0.52887 9.1169 1.895 2.9303 3.1287 7.1762 2.0828 10.147 8.1011 2.9303 2.7186-11.804 0-15.948 0-4.452 0-8.2997-0.76898-12.432-0.76898-2.8509 0-8.6656-1.0487-10.774-1.5378-3.2818-0.76117-1.5859-1.3707-6.6305-2.3068z" fill="url(#ap)" opacity=".676"/>
  <path d="m389.44 413.79a4.0175 8.0489 0 1 1 -8.0349 2.9419 4.0175 8.0489 0 1 1 8.0349 -2.9419z" fill="url(#aq)" opacity=".468" stroke-linecap="round" stroke-linejoin="round" stroke-width=".625"/>
 </g>
 <path d="m384.1 415.83c-0.3158 0.082092-0.62775-0.17841-0.94162-0.26758 7.0312 1.4633 0.11249-0.14807 1.1834-1.5578-0.28867-0.20966-0.10013 0.0979-0.23016 0.22504l4.0129-9.4232c1.896 1.2204 3.96 1.8661 5.0791 4.0618 4.6622 11.939-2.839 20.797-15.457 15.351-8.5854-7.9009-5.3668-17.927 6.3536-18.753v10.365z" fill="url(#ax)"/>
 <path d="m389.82 549.98c19.503 32.603-40.167 32.936-38.799 67.422 1.3817 34.843 32.218 19.788 50.782 50.331l1.3578 12.088c-27.176-37.964-52.844-27.652-53.919-61.72-1.0752-34.068 45.612-45.57 41.37-61.82l-0.7912-6.3017z" fill="url(#al)"/>
 <path d="m395.35 701.71c-9.2864 13.302-47.781 27.059-47.63 11.59 0.35989-36.898 55.373-18.881 56.594 11.288 0.59378 14.678-36.308 13.992-42.145 26.91l-1.0611-8.4871c4.8986-11.006 39.145-9.5745 37.448-17.73-5.8074-27.907-35.524-27.016-46.194-18.353 1.285 15.131 34.93 0.80151 42.614-12.701l0.3751 7.4821z" fill="url(#am)"/>
 <path d="m395.35 701.71c-9.2864 13.302-47.781 27.059-47.63 11.59l4.641-6.3715c1.285 15.131 34.93 0.80151 42.614-12.701l0.3751 7.4821z" fill="url(#an)"/>
 <path d="m384.1 415.83c-0.3158 0.082092-0.62775-0.17841-0.94162-0.26758 7.0312 1.4633 0.11249-0.14807 1.1834-1.5578-0.28867-0.20966-0.10013 0.0979-0.23016 0.22504l4.0129-9.4232c1.896 1.2204 3.96 1.8661 5.0791 4.0618 4.6622 11.939-2.839 20.797-15.457 15.351-8.5854-7.9009-5.3668-17.927 6.3536-18.753v10.365z" fill="url(#ao)"/>
 <path d="m392.33 406.55c-9.7508 22.191-12.99 1.4424-21.293 2.7533-12.743-0.024841-32.129 6.3088-38.989 16.556-9.4043 14.048-13.051 28.868-5.669 47.75 7.4303 19.005 31.709 25.712 55.78 39.274l0.3111 4.0082c-18.274-14.306-51.053-14.918-61.218-36.509-10.303-21.883-9.6147-39.626 10.162-58.705 10.473-9.7433 22.831-17.617 37.494-17.937l23.422 2.8103z" fill="url(#ak)"/>
 <path d="m392.33 406.55c-9.7508 22.191-12.99 1.4424-21.293 2.7533-12.743-0.024841-16.792-5.2438-2.1289-5.5636l23.422 2.8103z" fill="url(#ba)" opacity=".639"/>
</svg>
