<?xml version="1.0" encoding="UTF-8"?>
<svg viewBox="0 0 580.84998 272.5" xmlns="http://www.w3.org/2000/svg" xmlns:xlink="http://www.w3.org/1999/xlink">
 <defs>
  <linearGradient id="b">
   <stop stop-color="#fff" stop-opacity="0" offset="0"/>
   <stop stop-color="#fff" offset=".35714"/>
   <stop offset="1"/>
  </linearGradient>
  <linearGradient id="a">
   <stop stop-color="#fff" offset="0"/>
   <stop stop-color="#fff" offset=".51786"/>
   <stop stop-color="#d0d0d0" offset="1"/>
  </linearGradient>
  <linearGradient id="q" x1="2947.2" x2="2949.2" y1="3099.7" y2="2622.2" gradientUnits="userSpaceOnUse">
   <stop stop-color="#f00" offset="0"/>
   <stop stop-color="#f00" stop-opacity="0" offset="1"/>
  </linearGradient>
  <linearGradient id="p" x2="0" y1="3105.5" y2="2637.3" gradientUnits="userSpaceOnUse">
   <stop stop-color="#ff800a" offset="0"/>
   <stop stop-color="#ff800a" stop-opacity="0" offset="1"/>
  </linearGradient>
  <linearGradient id="o" x2="0" y1="3103.5" y2="2661.4" gradientUnits="userSpaceOnUse">
   <stop stop-color="#ffd42a" offset="0"/>
   <stop stop-color="#ffd42a" stop-opacity="0" offset="1"/>
  </linearGradient>
  <linearGradient id="n" x2="0" y1="3105.5" y2="2835.8" gradientUnits="userSpaceOnUse">
   <stop stop-color="#7fff2a" offset="0"/>
   <stop stop-color="#7fff2a" stop-opacity="0" offset="1"/>
  </linearGradient>
  <linearGradient id="m" x2="0" y1="3107.4" y2="2929.7" gradientUnits="userSpaceOnUse">
   <stop stop-color="#0cf" offset="0"/>
   <stop stop-color="#0cf" stop-opacity="0" offset="1"/>
  </linearGradient>
  <linearGradient id="l" x2="0" y1="3099.7" y2="2989.3" gradientUnits="userSpaceOnUse">
   <stop stop-color="#b380ff" offset="0"/>
   <stop stop-color="#b380ff" stop-opacity="0" offset="1"/>
  </linearGradient>
  <linearGradient id="k" x2="0" y1="3105.5" y2="3047.2" gradientUnits="userSpaceOnUse">
   <stop stop-color="#c837ab" offset="0"/>
   <stop stop-color="#c837ab" stop-opacity="0" offset="1"/>
  </linearGradient>
  <radialGradient id="j" cx="1650.7" cy="2846" r="385.91" gradientTransform="matrix(.87185 7.3043e-7 9.9749e-8 .77114 1578.1 725.85)" gradientUnits="userSpaceOnUse" xlink:href="#a"/>
  <radialGradient id="i" cx="2035.2" cy="3024" r="385.91" gradientTransform="matrix(.47159 .097611 -.11219 .542 2600.7 1185)" gradientUnits="userSpaceOnUse" xlink:href="#a"/>
  <radialGradient id="h" cx="1408.4" cy="3164" r="385.91" gradientTransform="matrix(-.47961 .38591 -.38521 -.47876 4706.5 4e3)" gradientUnits="userSpaceOnUse" xlink:href="#a"/>
  <radialGradient id="g" cx="1641.6" cy="2762.1" r="385.91" gradientTransform="matrix(1.8138 .57477 -.46395 1.4636 1274.4 -2096.1)" gradientUnits="userSpaceOnUse" xlink:href="#b"/>
  <radialGradient id="f" cx="1650.7" cy="2846" r="385.91" gradientTransform="matrix(.87185 7.3043e-7 9.9749e-8 .77114 -6.5902 658.46)" gradientUnits="userSpaceOnUse" xlink:href="#a"/>
  <radialGradient id="e" cx="2035.2" cy="3024" r="385.91" gradientTransform="matrix(.47159 .097611 -.11219 .542 1016 1117.6)" gradientUnits="userSpaceOnUse" xlink:href="#a"/>
  <radialGradient id="d" cx="1408.4" cy="3164" r="385.91" gradientTransform="matrix(-.47961 .38591 -.38521 -.47876 3121.8 3932.6)" gradientUnits="userSpaceOnUse" xlink:href="#a"/>
  <radialGradient id="c" cx="1641.6" cy="2762.1" r="385.91" gradientTransform="matrix(-.26428 -1.2967 2.6928 -.54847 -5618.3 6466.1)" gradientUnits="userSpaceOnUse" xlink:href="#b"/>
 </defs>
 <g transform="matrix(.33428 0 0 .33428 -687.2 -891.3)">
  <path d="m3367.7 2908.9c-66.793-92.067-164.32-162.75-282.6-194.69-246.19-66.483-499.18 57.325-602.44 281.48l51.918 26.795c91.073-200.27 316.22-311.05 535.3-251.89 106.04 28.634 193.26 92.382 252.53 175.34l45.296-37.036z" fill="url(#q)"/>
  <path d="m3276.3 2984.2 46.265-38.357c-59.27-82.958-146.49-146.71-252.53-175.34-219.08-59.162-444.23 51.619-535.17 251.73l52.929 27.262c78.624-175.57 275.31-273.03 466.67-221.36 93.506 25.251 170.27 82.429 221.83 156.07z" fill="url(#p)"/>
  <path d="m3275.7 2983.4-44.591 36.094c-44.144-64.733-110.72-114.63-192.24-136.64-164.82-44.508-334.24 40.207-400.47 192.18l-50.75-25.373c78.079-176.23 274.76-273.69 466.13-222.02 93.506 25.251 170.37 82.114 221.93 155.75z" fill="url(#o)"/>
  <path d="m3231.1 3020.8-45.868 36.448c-36.523-55.648-92.769-98.656-162.04-117.36-137.7-37.184-279.28 34.517-332.47 162.39l-52.778-26.583c66.233-151.98 235.66-236.69 400.47-192.18 81.517 22.013 148.54 72.557 192.68 137.29z" fill="url(#n)"/>
  <path d="m2742.7 3129.3c41.142-103.41 154.61-161.96 264.63-132.25 56.774 15.331 102.45 51.369 131.1 97.785l46.718-36.693c-36.766-56.931-93.012-99.938-162.28-118.64-137.7-37.184-279.28 34.517-333.13 162.45l52.956 27.353z" fill="url(#m)"/>
  <path d="m2793.9 3155.5c28.845-79.882 115.02-125.76 198.47-103.23 44.799 12.098 80.296 41.556 101.2 79.173l44.959-36.473c-28.804-46.533-74.483-82.571-131.26-97.903-110.02-29.71-223.18 28.738-264.32 132.14l50.939 26.286z" fill="url(#l)"/>
  <path d="m3093 3132.2-44.344 36.098c-12.839-29.155-38.271-52.465-71.398-61.411-57.46-15.517-116.67 17.962-132.65 75.857l-50.946-26.774c28.845-79.882 114.74-125.65 198.19-103.11 44.799 12.098 80.245 41.725 101.15 79.342z" fill="url(#k)"/>
 </g>
 <g transform="matrix(.33428 0 0 .33428 -36.52 -794.76)">
  <path d="m1665.2 2853.2c0 128.36-104.18 232.54-232.54 232.54s-232.54-104.18-232.54-232.54 104.18-232.54 232.54-232.54 232.54 104.18 232.54 232.54z" fill="url(#f)"/>
  <path d="m1816.5 2963.7c0 81.933-66.496 148.43-148.43 148.43s-148.43-66.496-148.43-148.43c21.048-195.72 266.9-185.55 296.86 0z" fill="url(#e)"/>
  <path d="m1366.8 2983c0 96.498-78.318 174.82-174.82 174.82s-174.82-78.318-174.82-174.82 78.318-174.82 174.82-174.82 174.82 78.318 174.82 174.82z" fill="url(#d)"/>
  <path d="m1433.1 2619.6c-113.14 0-207.46 80.942-228.25 188.03-4.1026-0.2884-8.2621-0.4688-12.438-0.4688-96.498 0-174.81 78.345-174.81 174.84s78.314 174.81 174.81 174.81c65.499 0 122.62-36.111 152.56-89.469 27.186 11.154 56.935 17.344 88.125 17.344 42.884 0 83.06-11.665 117.56-31.938 27.132 35.448 69.882 58.312 117.94 58.312 81.932-1e-4 148.41-66.474 148.41-148.41-15.114-93.625-85.188-142.6-153.62-143-15.819-113-112.94-200.06-230.28-200.06z" fill="url(#c)" opacity=".4"/>
 </g>
 <g transform="matrix(.33428 0 0 .33428 -859.75 -815.62)">
  <path d="m3249.9 2920.6c0 128.36-104.18 232.54-232.54 232.54s-232.54-104.18-232.54-232.54 104.18-232.54 232.54-232.54 232.54 104.18 232.54 232.54z" fill="url(#j)"/>
  <path d="m3401.3 3031.1c0 81.933-66.496 148.43-148.43 148.43s-148.43-66.496-148.43-148.43c21.048-195.72 266.9-185.55 296.86 0z" fill="url(#i)"/>
  <path d="m2951.5 3050.4c0 96.498-78.318 174.82-174.82 174.82s-174.82-78.318-174.82-174.82 78.318-174.82 174.82-174.82 174.82 78.318 174.82 174.82z" fill="url(#h)"/>
  <path d="m3017.8 2687c-113.14 0-207.46 80.942-228.25 188.03-4.1026-0.2884-8.2621-0.4688-12.438-0.4688-96.498 0-174.81 78.345-174.81 174.84s78.314 174.81 174.81 174.81c65.499 0 122.62-36.111 152.56-89.469 27.186 11.154 56.935 17.344 88.125 17.344 42.884 0 83.06-11.665 117.56-31.938 27.132 35.448 69.882 58.312 117.94 58.312 81.932-1e-4 148.41-66.474 148.41-148.41-15.114-93.625-85.188-142.6-153.62-143-15.819-113-112.94-200.06-230.28-200.06z" fill="url(#g)" opacity=".4"/>
 </g>
</svg>
