<?xml version="1.0" encoding="UTF-8"?>
<svg viewBox="0 0 640 480" xmlns="http://www.w3.org/2000/svg">
 <defs>
  <linearGradient id="b" x1=".64754" x2=".65574" y1=".64844" y2=".30469">
   <stop stop-color="#a00000" offset="0"/>
   <stop stop-color="#510000" offset="1"/>
  </linearGradient>
  <radialGradient id="a" cx=".19643" cy=".25781" r=".6609" fx=".21429" fy=".24219">
   <stop stop-color="#ff5f5f" offset="0"/>
   <stop stop-color="#890000" offset="1"/>
  </radialGradient>
 </defs>
 <g fill-rule="evenodd">
  <path d="m343.31 306.92c-2.7047 31.348-19.556 64.951-3.2239 95.173 21.352 32.589 69.064 36.458 85.498 73.723 13.753 23.799 11.533 51.69 8.9829 77.901-1.7872 20.539 1.5439 42.826 16.852 57.901 9.0526 12.181 17.176 26.574 15.821 42.306" fill="none" stroke="#000" stroke-linecap="round" stroke-linejoin="round" stroke-width="3.75"/>
  <g stroke-width="1.25">
   <path d="m336.6 283.43c1.6083 5.0533-0.20358 10.424-2.6535 14.883-0.93448 2.0801-2.5019 3.7425-3.7561 5.6118-0.93643 1.367-1.4654 3.7575 0.44943 4.5638 1.3915 0.50687 2.9394 0.41922 4.4108 0.41162 3.9059-0.25134 7.878-2.0743 11.763-0.73587 3.0551 1.35 6.041 3.3832 9.5326 3.1428 2.2834-0.025696 3.5905-2.7286 2.1521-4.5284-1.29-2.134-3.2307-3.9047-3.8544-6.4047-2.1524-5.6361-1.5973-11.871-0.17718-17.61 0.21338-2.3158-2.599-3.5933-4.5364-2.8198-3.9993 1.0401-7.3677 4.3819-11.732 3.9141-0.5491-0.066772-1.09-0.20801-1.5978-0.4281z" fill="url(#b)"/>
   <path d="m463.4 154.03c0.021606-72.886-50.798-131.98-113.5-131.98-62.697 0-113.52 59.099-113.5 131.98-0.021637 72.886 50.798 131.98 113.5 131.98 62.697 0 113.52-59.099 113.5-131.98v3.1e-5z" fill="url(#a)"/>
  </g>
 </g>
</svg>
