<?xml version="1.0" encoding="UTF-8"?>
<svg viewBox="0 0 800 600" xmlns="http://www.w3.org/2000/svg" xmlns:xlink="http://www.w3.org/1999/xlink">
 <defs>
  <linearGradient id="a">
   <stop stop-color="#fff" offset="0"/>
   <stop stop-color="#fff" stop-opacity="0" offset="1"/>
  </linearGradient>
  <linearGradient id="d" x1="71.759" x2="478.24" y1="117.5" y2="231.67" gradientUnits="userSpaceOnUse" xlink:href="#a"/>
  <radialGradient id="c" cx="222.47" cy="106.63" r="225.57" gradientUnits="userSpaceOnUse" xlink:href="#a"/>
  <radialGradient id="b" cx="86.031" cy="96.776" r="43.605" gradientUnits="userSpaceOnUse" xlink:href="#a"/>
 </defs>
 <g transform="matrix(1.4423 0 0 1.4423 274.14 -126.92)" fill-rule="evenodd" stroke="#000" stroke-width="10">
  <path transform="matrix(.84012 0 0 .84012 -53.098 64.95)" d="m412.48 385.51-129.98-6.2661 17.356 128.97-101.47-81.469-61.764 114.54-34.206-125.55-117.29 56.36 46.125-121.68-128.02-23.346 108.84-71.331-89.847-94.135 129.98 6.2661-17.356-128.97 101.47 81.47 61.764-114.54 34.206 125.55 117.29-56.36-46.125 121.68 128.02 23.346-108.84 71.331 89.847 94.135z" fill="#f00"/>
  <path transform="matrix(.66949 0 0 .66949 -25.535 110.63)" d="m412.48 385.51-129.98-6.2661 17.356 128.97-101.47-81.469-61.764 114.54-34.206-125.55-117.29 56.36 46.125-121.68-128.02-23.346 108.84-71.331-89.847-94.135 129.98 6.2661-17.356-128.97 101.47 81.47 61.764-114.54 34.206 125.55 117.29-56.36-46.125 121.68 128.02 23.346-108.84 71.331 89.847 94.135z" fill="#a00"/>
  <path transform="matrix(.49658 0 0 .49658 10.332 160.9)" d="m412.48 385.51-129.98-6.2661 17.356 128.97-101.47-81.469-61.764 114.54-34.206-125.55-117.29 56.36 46.125-121.68-128.02-23.346 108.84-71.331-89.847-94.135 129.98 6.2661-17.356-128.97 101.47 81.47 61.764-114.54 34.206 125.55 117.29-56.36-46.125 121.68 128.02 23.346-108.84 71.331 89.847 94.135z" fill="#f55"/>
  <path transform="matrix(.37678 0 0 .37678 37.311 198.63)" d="m412.48 385.51-129.98-6.2661 17.356 128.97-101.47-81.469-61.764 114.54-34.206-125.55-117.29 56.36 46.125-121.68-128.02-23.346 108.84-71.331-89.847-94.135 129.98 6.2661-17.356-128.97 101.47 81.47 61.764-114.54 34.206 125.55 117.29-56.36-46.125 121.68 128.02 23.346-108.84 71.331 89.847 94.135z" fill="#ff8080"/>
  <path transform="matrix(.2517 0 0 .2517 55.274 231.85)" d="m412.48 385.51-129.98-6.2661 17.356 128.97-101.47-81.469-61.764 114.54-34.206-125.55-117.29 56.36 46.125-121.68-128.02-23.346 108.84-71.331-89.847-94.135 129.98 6.2661-17.356-128.97 101.47 81.47 61.764-114.54 34.206 125.55 117.29-56.36-46.125 121.68 128.02 23.346-108.84 71.331 89.847 94.135z" fill="#500"/>
  <path transform="matrix(.1682 0 0 .1682 69.247 255.68)" d="m412.48 385.51-129.98-6.2661 17.356 128.97-101.47-81.469-61.764 114.54-34.206-125.55-117.29 56.36 46.125-121.68-128.02-23.346 108.84-71.331-89.847-94.135 129.98 6.2661-17.356-128.97 101.47 81.47 61.764-114.54 34.206 125.55 117.29-56.36-46.125 121.68 128.02 23.346-108.84 71.331 89.847 94.135z" fill="#ff2a2a"/>
 </g>
 <g transform="matrix(.78285 0 0 .78285 117.62 80.712)" fill-rule="evenodd">
  <path d="m164.17 155c53.178-66.811 151.25-79.478 200 9.1667 24.703-83.039 164.54-84.42 192.5-26.667 44.063 91-100.59 250.54-178.33 324.17-70.042-40.166-285.02-217.65-214.17-306.67z" fill="#f55" stroke="#000" stroke-width="15"/>
  <path d="m164.23 156.25c53.178-66.811 151.25-79.478 200 9.1667 24.703-83.039 164.54-84.42 192.5-26.667 44.063 91-100.59 250.54-178.33 324.17-70.042-40.166-285.02-217.65-214.17-306.67z" fill="url(#d)"/>
 </g>
 <path transform="matrix(.4769 0 0 .45934 167.68 170.64)" d="m381.31 265.48-161.57-155.85-29.146 222.58 21.115-223.49-192.2 115.99 187.9-122.83-210.52-77.945 213.19 70.316-70.316-213.19 77.945 210.52 122.83-187.9-115.99 192.2 223.49-21.115-222.58 29.146 155.85 161.57z" fill="url(#c)" fill-rule="evenodd"/>
 <path transform="matrix(.772 0 0 .772 202.66 145.01)" d="m129.64 96.776a43.605 43.605 0 1 1 -87.21 0 43.605 43.605 0 1 1 87.21 0z" fill="url(#b)" fill-rule="evenodd"/>
</svg>
