<?xml version="1.0" encoding="UTF-8"?>
<svg clip-rule="evenodd" fill-rule="evenodd" stroke-linejoin="round" stroke-miterlimit="1.4142" viewBox="0 0 185 133" xmlns="http://www.w3.org/2000/svg">
 <path d="m19.881 90.682c16.028 27.193 29.408 33.34 40.14 18.442 1.926 14.681 33.796 24.919 45.273 1.312 1.232 31.463 43.941 18.653 46.922-6.934 0 0 4.573 3.07 7.497 2.855 13.176-.973 18.38-20.957 18.38-20.957.799-2.839 15.724-13.37-5.943-30.286-18.13-17.211-35.301-18.35-50.002-16.108 2.336-19.43 1.524-15.996-6.46-28.551-1.503-2.362-3.351-4.238-8.127-3.061-4.268-7.152-31.752-6.457-43.635 4.528-4.378 1.471-2.053.379-9.586-6.255-4.08-3.068-19.449-8.213-26.784 6.022-17.361 24.046-24.747 29.281-24.934 59.622-.139 22.383 4.564 36.985 20.202 22.569 1.559-1.438-2.943-3.198-2.943-3.198z" fill="url(#a)"/>
 <path d="m70.283 72.095.072.203.114.32.114.319.115.316.114.314.115.312.115.311.115.308.116.307.115.305.116.303.116.301.117.299.116.297.117.295.117.293.117.292.118.289.117.288.118.285.118.284.118.282.119.279.119.278.118.276.018.039.1.236.118.272.117.271.118.269.119.267.118.265.119.263.119.261.119.259.119.257.119.256.12.253.12.251.12.25.12.247.12.246.121.243.12.242.121.239.122.238.121.236.121.233.122.232.122.23.122.228.122.226.122.223.123.222.122.22.123.218.123.216.123.214.123.212.124.21.123.208.124.206.124.204.043.071.079.131.123.201.122.199.123.197.123.195.123.193.123.191.124.189.123.187.124.185.123.183.124.181.124.178.124.177.124.175.124.173.125.171.124.169.125.167.124.164.125.163.125.161.125.158.124.157.046.057.079.098.124.154.124.151.124.15.124.147.124.146.124.143.124.142.125.139.124.138.125.135.124.133.125.131.124.13.125.127.124.125.125.123.124.122.125.119.125.117.124.115.125.113.125.111.124.109.125.107.124.105.125.103.124.101.121.096.003.003.124.098.123.096.123.095.123.092.123.09.123.089.124.086.122.084.123.083.123.08.123.079.123.076.123.075.122.073.123.07.122.069.123.067.122.065.122.063.122.061.122.06.122.057.122.056.122.053.122.052.121.05.122.048.121.046.122.045.121.042.122.041.121.039.121.037.041.012.08.024.121.035.12.033.121.032.121.029.121.028.12.026.121.024.121.023.121.021.121.019.121.017.121.016.122.014.121.012.121.01.122.009.092.005.03.002.122.007.122.005.122.003.123.001.122-.001.123-.002.123-.004.124-.005.124-.008.124-.009.124-.011.124-.012.125-.015.126-.016.125-.018.126-.02.042-.007.084-.013.127-.022.128-.023.127-.025.128-.027.129-.029.129-.031.129-.033.13-.034.13-.036.131-.038.131-.041.132-.041.131-.044.133-.046.133-.048.054-.02.079-.028.135-.05.135-.052.135-.054.136-.056.136-.057.137-.06.137-.062.138-.063.138-.066.139-.068.139-.07.139-.071.14-.074.141-.076.141-.078.047-.027.095-.051.143-.081.143-.082.144-.084.144-.087.145-.088.145-.091.146-.092.146-.095.147-.097.147-.099.147-.101.148-.103.148-.105.149-.108.149-.109.149-.112.15-.114.151-.115.15-.118.152-.121.151-.122.152-.124.152-.127.153-.128.153-.131.153-.133.154-.135.154-.138.107-.096.048-.043.156-.139.157-.143.157-.144.158-.146.157-.149.159-.151.158-.152.159-.156.159-.157.16-.159.16-.162.16-.164.33-.341.322-.338.157-.166.156-.165.153-.164.152-.164.149-.162.147-.161.145-.16.143-.159.141-.158.123-.139.016-.018.139-.155.136-.154.134-.153.132-.153.13-.151.128-.151.126-.15.125-.149.122-.148.12-.147.119-.147.116-.146.115-.145.112-.145.111-.143.109-.144.107-.142.105-.142.104-.142.101-.14.1-.141.098-.139.096-.14.094-.138.093-.139.09-.137.089-.138.088-.137.085-.136.084-.137.064-.105.018-.03.082-.136.079-.134.078-.135.077-.134.075-.135.073-.134.071-.133.07-.134.068-.134.067-.133.065-.134.063-.133.062-.134.061-.133.059-.133.057-.134.056-.134.054-.133.053-.134.051-.134.05-.135.048-.134.047-.135.045-.135.044-.135.043-.136.041-.136.04-.136.038-.136.037-.138.035-.137.035-.138.032-.138.032-.139.03-.14.028-.14.027-.14.026-.142.025-.141.023-.143.022-.143.021-.144.019-.144.018-.146.017-.146.015-.146.014-.148.013-.148.012-.149.01-.15.009-.151.008-.152.006-.153.005-.153.005-.155.002-.155.002-.157v-.157-.159l-.002-.16-.004-.16-.001-.036-.002-.126-.005-.163-.006-.164-.007-.165-.008-.166-.009-.168-.01-.169-.012-.17-.012-.171-.014-.172-.015-.174-.016-.175-.017-.176-.018-.177-.019-.179-.02-.181-.021-.181-.023-.183-.023-.185-.024-.185-.025-.188-.011-.078-.015-.11.028.107.02.077.048.183.046.182.045.18.044.18.043.178.041.178.04.176.04.175.037.174.037.173.036.172.034.171.033.17.032.17.031.168.029.167.028.167.027.166.025.165.025.164.018.127.005.036.02.163.02.162.018.161.017.161.015.16.015.159.012.159.012.158.01.157.009.157.007.157.006.156.005.155.003.155.002.155v.154l-.001.154-.002.153-.004.153-.006.153-.006.152-.009.152-.01.152-.011.151-.013.152-.014.151-.016.151-.017.15-.019.151-.021.15-.022.15-.023.15-.025.15-.027.15-.028.15-.03.15-.032.149-.033.15-.034.15-.037.149-.038.15-.039.15-.041.15-.043.15-.045.15-.046.15-.048.15-.049.151-.051.15-.053.151-.055.151-.056.151-.058.152-.059.151-.062.152-.063.152-.064.153-.067.153-.068.153-.07.153-.071.154-.016.034-.058.12-.076.154-.078.155-.079.155-.082.155-.083.156-.084.156-.087.157-.088.157-.09.158-.092.159-.093.159-.096.159-.097.161-.099.161-.1.161-.103.162-.104.163-.106.164-.108.165-.11.165-.111.166-.114.167-.115.167-.117.169-.119.169-.121.171-.122.171-.125.172-.126.173-.128.174-.015.02-.116.154-.133.175-.135.177-.137.177-.139.178-.141.179-.142.181-.145.181-.147.183-.149.185-.302.371-.31.376-.155.186-.155.183-.155.181-.155.18-.156.177-.155.175-.155.174-.156.171-.155.169-.156.167-.155.166-.156.163-.048.049-.109.111-.157.157-.158.156-.157.153-.158.152-.158.149-.158.147-.157.146-.158.143-.158.141-.159.139-.158.138-.158.135-.158.133-.159.131-.158.129-.159.127-.159.125-.159.123-.159.121-.159.119-.159.117-.16.115-.159.113-.16.11-.159.109-.16.107-.16.104-.161.103-.106.067-.054.033-.162.097-.161.094-.162.093-.162.09-.161.089-.162.086-.163.084-.162.082-.162.08-.163.078-.162.076-.163.073-.163.072-.163.069-.163.067-.096.039-.067.026-.164.061-.164.059-.164.057-.164.055-.164.052-.165.051-.164.048-.164.046-.165.044-.164.041-.164.04-.165.037-.164.034-.165.033-.164.03-.11.019-.055.009-.165.024-.165.022-.164.02-.165.017-.164.015-.165.013-.164.011-.164.008-.164.006-.164.004-.163.001-.164-.001-.163-.003-.163-.006-.163-.008-.163-.01-.039-.003-.123-.01-.162-.016-.162-.018-.162-.021-.161-.022-.161-.025-.16-.028-.16-.029-.16-.032-.16-.034-.159-.036-.158-.039-.158-.041-.158-.043-.158-.045-.156-.047-.157-.05-.103-.034-.053-.018-.155-.056-.155-.057-.154-.06-.153-.062-.153-.064-.153-.066-.152-.068-.151-.07-.151-.073-.151-.074-.149-.077-.15-.079-.148-.08-.149-.083-.147-.085-.147-.087-.147-.089-.146-.091-.145-.093-.145-.095-.144-.097-.144-.099-.143-.101-.143-.103-.142-.104-.141-.107-.141-.109-.141-.111-.14-.113-.139-.114-.139-.117-.138-.118-.138-.121-.004-.003-.132-.12-.136-.126-.135-.127-.135-.129-.134-.131-.133-.133-.133-.135-.132-.137-.132-.139-.131-.14-.131-.143-.131-.144-.129-.146-.13-.148-.128-.15-.129-.151-.127-.154-.128-.155-.126-.157-.127-.159-.125-.161-.126-.163-.124-.164-.125-.167-.124-.168-.123-.17-.123-.172-.122-.173-.077-.111-.045-.065-.12-.178-.12-.181-.119-.181-.119-.184-.118-.186-.118-.187-.118-.189-.117-.191-.116-.193-.116-.194-.116-.197-.115-.198-.115-.2-.114-.202-.113-.203-.114-.206-.113-.207-.112-.209-.112-.211-.111-.213-.112-.214-.11-.217-.11-.218-.071-.142-.039-.078-.107-.222-.107-.225-.107-.226-.106-.228-.106-.23-.106-.231-.105-.234-.104-.235-.104-.237-.104-.239-.103-.24-.102-.243-.103-.244-.101-.246-.102-.248-.101-.249-.1-.251-.1-.254-.1-.255-.099-.256-.098-.259-.099-.26-.098-.262-.097-.264-.097-.266-.096-.267-.096-.27-.096-.271-.095-.272-.095-.275-.094-.277-.094-.278-.093-.28-.093-.282-.093-.283-.092-.286-.078-.246-.013-.041-.09-.289-.089-.292-.088-.293-.088-.295-.088-.297-.087-.298-.087-.3-.086-.303-.086-.303-.085-.306-.085-.307-.085-.31-.084-.311-.083-.312-.084-.315-.082-.316-.082-.318-.082-.32-.081-.321-.081-.324-.081-.325-.08-.327-.079-.329-.079-.33-.05-.21-.028-.122.041.118z" fill="#196f81"/>
 <path d="m19.881 90.682c16.028 27.193 29.408 33.34 40.14 18.442 5.102 24.449 37.345 22.697 44.738 4.634 9.101 37.046 48.478 10.519 48.49-6.204 0 0 1.961 2.79 4.78 3.596 9.331 2.668 27.148-23.346 22.314-27.257 3.532 1.64 10.45-20.869-7.042-29.206 1.054-7.394-24.35-20.69-50.139-16.958 4.211-22.201.499-29.385-13.398-30.799-1.273-8.107-35.366-11.815-45.838 4.992-10.419-9.984-11.117-9.991-17.787-10.466-.509-3.068-17.165-1.878-20.028 9.337-8.289.505-30.607 50.641-24.671 60.59-4.929 11.917 3.206 37.744 18.19 26.215 1.906-1.34 1.79-1.965.611-2.212-14.178 10.604-20.485-12.55-14.019-23.533-9.168-12.912 18.171-60.204 21.53-56.161-.12-9.327 15.063-17.005 16.687-11.005 8.227-1.313 16.726 8.937 19.652 12.801 10.267-16.965 40.606-18.439 42.853-5.854 12.223-2.181 17.315 7.909 12.99 30.4 25.383-8.163 53.192 9.357 48.955 17.055 14.505.148 10.379 23.029 6.358 21.692 5.257 4.79-10.041 28.225-20.519 23.564-2.518-1.12-3.788-8.908-3.788-8.908 4.769 24.556-41.156 50.528-45.478 9.902-5.524 25.072-40.238 22.224-45.067-.263-10.154 13.703-22.815 9.862-37.981-15.148-1.566-1.387-2.353-1.005-2.533.754z" fill="#196f81"/>
 <path d="m87.611 41.767c2.023 0 3.788 1.984 3.788 4.127 0 1.288-2.309-.449-3.223.257-.606.468.241 3.379-.565 3.379-2.024 0-3.666-1.739-3.666-3.881 0-2.143 1.642-3.882 3.666-3.882z" fill="#196f81"/>
 <path d="m108.616 45.306c1.86 0 3.064 2.253 3.064 4.198 0 .888-2.828-.873-3.348-.253-.617.737 2.234 2.326 1.265 2.612-2.289.674-4.35-1.089-4.35-3.033 0-1.945 1.51-3.524 3.369-3.524z" fill="#196f81"/>
 <linearGradient id="a" x2="1" gradientTransform="matrix(3.4721 108.08 -108.08 3.4721 82.083 69.955)" gradientUnits="userSpaceOnUse">
  <stop stop-color="#fff" offset="0"/>
  <stop stop-color="#196f81" offset="1"/>
 </linearGradient>
</svg>
