<?xml version="1.0" encoding="UTF-8"?>
<!DOCTYPE svg PUBLIC "-//W3C//DTD SVG 1.1//EN" "http://www.w3.org/Graphics/SVG/1.1/DTD/svg11.dtd">
<!-- Creator: CorelDRAW SE -->
<svg xmlns="http://www.w3.org/2000/svg" xml:space="preserve" width="526.404mm" height="558.224mm" version="1.1" style="shape-rendering:geometricPrecision; text-rendering:geometricPrecision; image-rendering:optimizeQuality; fill-rule:evenodd; clip-rule:evenodd"
viewBox="0 0 183499 194591"
 xmlns:xlink="http://www.w3.org/1999/xlink">
 <defs>
  <style type="text/css">
   <![CDATA[
    .str0 {stroke:#F0DB30;stroke-width:69.7179}
    .str1 {stroke:#F17E23;stroke-width:69.7179}
    .fil2 {fill:#1A1A1A}
    .fil0 {fill:#F0DB30}
    .fil1 {fill:#F17E23}
   ]]>
  </style>
 </defs>
 <g id="Vrstva_x0020_1">
  <metadata id="CorelCorpID_0Corel-Layer"/>
  <g id="_529985760">
   <path class="fil0 str0" d="M81021 47178c-7196,1585 -15481,6002 -20886,10508 -4096,3416 -5933,5014 -9213,9435 -938,1265 -1681,2241 -2580,3689 -1454,2339 -5664,10441 -6248,12590 -771,2833 -2213,7296 -2271,10366 3288,760 5118,2146 6764,5007 1362,2367 3206,5888 3244,8568 87,6181 -253,11745 -5261,15395l-1747 1211c3287,9814 7403,12130 12476,17604 3377,3644 14257,9029 19946,10341 3185,734 3704,1306 8072,1876 2985,390 6427,683 9499,628 6928,-122 11127,-1628 17146,-2967 3153,-700 4880,-1210 7584,-2373 6108,-2627 13906,-7733 18069,-12192 1767,-1892 6574,-9949 6919,-13574 -1222,-497 -2696,-1921 -3435,-2830 -2729,-3354 -4693,-10033 -4093,-14647 240,-1843 189,-3825 1005,-5269 663,-1172 1545,-2999 2521,-3740 1784,-1355 -747,-195 3464,-2807 1115,-692 3169,-1602 4631,-1851 -221,-3349 -1646,-13040 -2861,-15985 -924,-2241 -599,75 -1713,-2896 -1596,-4254 -8561,-11668 -12300,-14297 -1105,-777 -2526,-1646 -3688,-2400 -1431,-929 -2347,-1553 -3904,-2380 -11399,-6058 -28110,-9881 -41140,-7010zm-18551 13913c85,391 -396,1130 -1143,507 162,-823 1012,-1108 1143,-507zm2173 -1815l-788 551c-370,-227 -445,-219 -632,-627 311,-413 1254,-1311 1420,76zm57783 34092c-1196,-201 -1361,-437 -1345,-1709 1946,-978 2644,-432 6063,19 2610,345 4715,456 4720,2682 -1642,1356 -1643,-119 -4474,-319 52,2831 -461,5551 -722,8286 -381,4002 -1552,6932 -2910,10529 -458,1210 -893,1869 -1419,2996 -1555,3333 -850,2580 -3087,5759 -2740,3893 -5241,5946 -9320,8552 -3974,2538 -7248,4234 -13427,4260 -5677,24 -10170,-1342 -14422,-3447 -3773,-1868 -8304,-4495 -10541,-7150 -1372,-1627 -2952,-2939 -4186,-4852 -4343,-6730 -4085,-8937 -6036,-16074 -331,-1212 -299,-2975 -785,-3693 -864,509 -3623,2285 -5098,1463 -1310,-1265 2856,-2552 4235,-3400 1271,-783 4981,-2549 5096,143 -505,375 -1025,660 -1858,907 268,3003 2277,10767 3337,13620 2189,5891 3435,6404 6689,10124 3118,3565 11088,7977 16117,9168 7997,1895 13802,967 20125,-3279 3227,-2167 4520,-3008 6828,-5910 586,-737 1074,-1570 1667,-2391 3063,-4247 6291,-12825 6791,-18520 186,-2112 807,-5378 769,-7383 -936,-87 -1847,-219 -2807,-381zm10531 34528c678,-1051 1492,-1799 2223,-2911 241,-367 1463,-3735 2187,-2435 272,487 -502,1333 -796,1819 -335,555 -648,1124 -964,1613 -538,829 -1755,2604 -2650,1914zm-2890 7676c2659,-2758 4249,-3528 6333,-7343 518,-948 1321,-2958 2009,-3358 434,-253 707,-224 821,212 117,446 -808,1554 -1389,2594 -1136,2039 -2325,4017 -3997,5569l-2714 2637c-153,125 -648,648 -673,662 -904,521 -1131,-204 -390,-973zm-52575 -85029l-208 716c-498,225 -1235,150 -2052,486 -2614,1074 -5418,2573 -7465,4543 -1542,1484 -2763,1773 -2262,700 192,-411 926,-731 1321,-1085 2169,-1940 2930,-2387 5670,-3919 1434,-802 3507,-2206 4996,-1441zm49516 87619c307,-747 450,-812 1218,-574 -113,610 -173,549 -547,854l-671 -280zm4982 -9235c136,-783 634,-730 1191,-333l-521 821c-618,-325 -327,9 -670,-488zm-1247 1544c266,-684 507,-628 1096,-354 -232,553 -80,412 -470,759 -579,-135 -305,-28 -626,-405zm-48074 -56328c1565,99 3284,-492 2246,1550 -5424,-661 -2045,-455 -6617,389 -4191,774 -3720,2017 -4820,2683 -1277,-896 625,-2037 1393,-2574 1521,-1064 1569,-1003 3608,-1373 1797,-326 1889,-821 4190,-675zm12583 -112c1336,-313 2525,-414 4041,-395 1617,20 5325,849 6626,1770 -5,2283 -452,295 -6032,-434 -4849,-633 -5873,1138 -7196,763 -108,-1505 1334,-1417 2561,-1704zm5393 8552c1863,1691 2629,4480 2705,7234 50,1840 -145,4362 -333,5915 -502,4163 -4979,5974 -7074,1886 -1256,-2451 -658,-9379 -58,-11965 658,-2834 416,-3672 2706,-3986 1144,-157 1376,301 2054,916zm-10763 19387c2243,3496 9190,947 10874,6446 1523,4972 -5199,6667 -8282,5908 -672,-165 -3035,-1107 -3425,-1445 492,-1290 1609,-335 2223,-95 3919,1532 10699,-183 8078,-4948 -1446,-2630 -6095,-1942 -8339,-3498 -1132,-785 -3294,-2343 -2253,-3704 688,204 697,671 1124,1336zm-8070 -19727c2290,314 2048,1153 2706,3986 600,2586 1198,9515 -58,11966 -2095,4088 -6572,2277 -7074,-1886 -188,-1553 -383,-4075 -333,-5915 76,-2755 842,-5544 2705,-7235 678,-615 910,-1073 2054,-916z"/>
   <path class="fil1 str1" d="M47803 103490c-675,-1380 -1196,-2283 -1858,-3679 -1063,-2243 -3778,-4560 -6343,-4736 -264,4944 -1009,9893 -181,14908 491,2973 2861,11689 2972,12739 1215,-257 2315,-1446 3205,-2264 3534,-3248 4326,-12633 2205,-16968z"/>
   <path class="fil1 str1" d="M136029 105764c-747,4316 1620,11002 3691,13514 659,797 2128,2395 3270,2684 997,-1357 3118,-12128 3303,-13348 439,-2903 1766,-12893 570,-15286 -1484,-16 -3055,915 -4275,1428 -2157,905 -4606,3922 -5571,6078 -232,518 -526,1553 -702,2289 -220,927 -117,1661 -286,2641z"/>
   <g>
    <path class="fil2" d="M42393 122722c-111,-1050 -2481,-9766 -2972,-12739 -828,-5015 -83,-9964 181,-14908 2565,176 5280,2493 6343,4736 662,1396 1183,2299 1858,3679 2121,4335 1329,13720 -2205,16968 -890,818 -1990,2007 -3205,2264zm100597 -760c-1142,-289 -2611,-1887 -3270,-2684 -2071,-2512 -4438,-9198 -3691,-13514 169,-980 66,-1714 286,-2641 176,-736 470,-1771 702,-2289 965,-2156 3414,-5173 5571,-6078 1220,-513 2791,-1444 4275,-1428 1196,2393 -131,12383 -570,15286 -185,1220 -2306,11991 -3303,13348zm-103167 -28196c58,-3070 1500,-7533 2271,-10366 584,-2149 4794,-10251 6248,-12590 899,-1448 1642,-2424 2580,-3689 3280,-4421 5117,-6019 9213,-9435 5405,-4506 13690,-8923 20886,-10508 13030,-2871 29741,952 41140,7010 1557,827 2473,1451 3904,2380 1162,754 2583,1623 3688,2400 3739,2629 10704,10043 12300,14297 1114,2971 789,655 1713,2896 1215,2945 2640,12636 2861,15985 -1462,249 -3516,1159 -4631,1851 -4211,2612 -1680,1452 -3464,2807 -976,741 -1858,2568 -2521,3740 -816,1444 -765,3426 -1005,5269 -600,4614 1364,11293 4093,14647 739,909 2213,2333 3435,2830 -345,3625 -5152,11682 -6919,13574 -4163,4459 -11961,9565 -18069,12192 -2704,1163 -4431,1673 -7584,2373 -6019,1339 -10218,2845 -17146,2967 -3072,55 -6514,-238 -9499,-628 -4368,-570 -4887,-1142 -8072,-1876 -5689,-1312 -16569,-6697 -19946,-10341 -5073,-5474 -9189,-7790 -12476,-17604l1747 -1211c5008,-3650 5348,-9214 5261,-15395 -38,-2680 -1882,-6201 -3244,-8568 -1646,-2861 -3476,-4247 -6764,-5007zm45874 -49693c-4891,805 -6399,764 -11358,2759 -3464,1394 -8678,4166 -11526,6170 -744,524 -1369,1020 -2017,1488 -717,518 -1417,974 -2031,1479 -377,311 -434,433 -877,762 -1678,1245 -3198,2752 -4618,4245 -5438,5717 -10658,14789 -13319,22072 -680,1862 -960,3466 -1422,5587 -480,2204 -835,3710 -1064,6171 -58,620 -187,790 -261,1328 -475,3422 -524,8729 -413,12138 106,3282 3498,16007 4967,19527l1222 2461c1534,2844 1847,4118 4050,6453l5181 5516c1286,1128 2253,2307 3814,3370 2712,1848 5600,3678 8754,5265 9822,4942 24914,7538 35580,5511 1998,-380 3856,-838 5864,-1186 981,-170 1821,-612 2679,-788 1061,-218 1903,-415 2920,-615 7213,-1421 17456,-7912 22774,-12413 4113,-3481 2238,-1813 5012,-5670 1457,-2025 2931,-4452 3646,-6884 434,-1476 1346,-2720 1979,-4991 863,-3098 3203,-11339 3396,-14268 88,-1339 705,-3064 820,-6458 102,-3018 590,-5157 381,-8494 -37,-582 -265,-1039 -333,-1499 -154,-1048 -212,-2199 -339,-3235 -446,-3628 -1752,-11278 -2957,-14524 -434,-1166 -1532,-2315 -2102,-3249 -1865,-3052 -718,-1754 -3473,-5378 -1059,-1392 -3580,-4776 -4885,-5804 -701,-553 -1188,-1050 -1863,-1635 -1333,-1153 -2487,-2037 -4097,-3109 -1419,-944 -2799,-1872 -4196,-2800 -1355,-899 -3022,-1666 -4559,-2451 -3098,-1582 -6448,-2873 -10116,-4083 -5240,-1727 -19078,-3778 -25213,-2768z"/>
    <path class="fil2" d="M121081 91659c-16,1272 149,1508 1345,1709 960,162 1871,294 2807,381 38,2005 -583,5271 -769,7383 -500,5695 -3728,14273 -6791,18520 -593,821 -1081,1654 -1667,2391 -2308,2902 -3601,3743 -6828,5910 -6323,4246 -12128,5174 -20125,3279 -5029,-1191 -12999,-5603 -16117,-9168 -3254,-3720 -4500,-4233 -6689,-10124 -1060,-2853 -3069,-10617 -3337,-13620 833,-247 1353,-532 1858,-907 -115,-2692 -3825,-926 -5096,-143 -1379,848 -5545,2135 -4235,3400 1475,822 4234,-954 5098,-1463 486,718 454,2481 785,3693 1951,7137 1693,9344 6036,16074 1234,1913 2814,3225 4186,4852 2237,2655 6768,5282 10541,7150 4252,2105 8745,3471 14422,3447 6179,-26 9453,-1722 13427,-4260 4079,-2606 6580,-4659 9320,-8552 2237,-3179 1532,-2426 3087,-5759 526,-1127 961,-1786 1419,-2996 1358,-3597 2529,-6527 2910,-10529 261,-2735 774,-5455 722,-8286 2831,200 2832,1675 4474,319 -5,-2226 -2110,-2337 -4720,-2682 -3419,-451 -4117,-997 -6063,-19z"/>
    <path class="fil2" d="M98591 81667c-2290,314 -2048,1152 -2706,3986 -600,2586 -1198,9514 58,11965 2095,4088 6572,2277 7074,-1886 188,-1553 383,-4075 333,-5915 -76,-2754 -842,-5543 -2705,-7234 -678,-615 -910,-1073 -2054,-916z"/>
    <path class="fil2" d="M81812 82243c2290,314 2048,1153 2706,3986 600,2586 1198,9515 -58,11966 -2095,4088 -6572,2277 -7074,-1886 -188,-1553 -383,-4075 -333,-5915 76,-2755 842,-5544 2705,-7235 678,-615 910,-1073 2054,-916z"/>
    <path class="fil2" d="M92100 169502c-41,3889 169,1659 -317,5919 -485,4253 -17,9071 -638,13044 -247,1582 -883,4920 245,5905 643,412 1871,292 2065,-737l995 -18215c252,-2533 1320,-7907 -2350,-5916z"/>
    <path class="fil2" d="M157660 130847c416,441 503,736 881,972l4737 2472c2860,1295 9556,3735 12603,4692 1031,323 2285,1050 3155,825l359 -144c548,-276 153,212 624,-575 280,-469 119,-586 -61,-1145 -1897,-1058 -3896,-1836 -5818,-2308 -2855,-700 -9178,-3321 -11879,-4747 -1045,-552 -4167,-3344 -4601,-42z"/>
    <path class="fil2" d="M5588 133908c268,228 912,638 1000,728 1115,-132 2299,-888 3135,-1380 506,-297 901,-576 1356,-871l8214 -5421c605,-345 833,-467 1356,-858 525,-392 736,-545 1313,-897l4158 -2847c542,-311 789,-715 685,-1544 -102,-820 -550,-1012 -1133,-1304 -1104,328 -597,128 -1201,834 -1433,1676 -14659,10207 -16768,11277 -662,337 -744,394 -1331,888 -479,404 -806,491 -784,1395z"/>
    <path class="fil2" d="M89917 771l21 14158c55,1264 -374,7835 63,8534 487,433 947,420 1610,574 798,-925 799,-731 795,-2467l-80 -19559c-28,-1086 -498,-1649 -1170,-2011 -828,369 109,-24 -519,406l-720 365z"/>
    <path class="fil2" d="M18293 160068l13200 -11135c3232,-2764 5819,-3201 3402,-5545 -1061,240 -6195,4893 -7457,5933l-5030 4017c-915,731 -1573,1461 -2409,2198 -612,539 -3180,2722 -2878,3769 186,645 166,-309 1172,763z"/>
    <path class="fil2" d="M156655 70637c954,1013 1225,855 2644,426 1055,-319 2165,-500 3240,-830 2175,-667 743,-399 3531,-1090l3809 -1336c991,-439 77,-449 1314,-741 691,-162 776,-296 1342,-639 344,-209 2250,-830 2730,-1306 1114,-1102 2594,-1287 2655,-2236 51,-803 -346,319 -16,-733 -635,-210 -641,-290 -642,-591l-5016 2373c-3743,2066 -9472,3760 -13698,4769 -1345,322 -1828,322 -1893,1934z"/>
    <path class="fil2" d="M160329 167076c876,-450 1017,-891 862,-2165l-14765 -9166c-831,-536 -1757,-1024 -2477,-1585 -855,-665 -1719,-1310 -2330,-62 -793,1620 1430,2264 2467,2876 2110,1247 3318,2202 6279,3860 3141,1759 8025,5464 9964,6242z"/>
    <path class="fil2" d="M24339 29802l-53 941c1228,1108 1735,912 3927,2669 1542,1237 10179,6999 12314,8152 1016,548 1911,1002 2862,1571 349,209 1157,627 1515,645 510,25 22,34 307,-63 18,-6 67,-31 83,-39 34,-16 120,-58 148,-82 1819,-1498 -4065,-4083 -4575,-4376 -1875,-1073 -9100,-5596 -10570,-6769 -990,-790 -3801,-3082 -5363,-3233l-595 584z"/>
    <path class="fil2" d="M21015 102468c19,-25 -182,-497 -316,-677 -1659,-2238 -11525,-1879 -14209,-2145 -1085,-107 -1741,192 -2766,208 -1143,18 -1788,-222 -2955,-193 -509,185 -2324,2583 2395,2807 1057,50 2040,-153 2977,-261l9944 335c1494,138 4703,1719 4930,-74z"/>
    <path class="fil2" d="M128765 186412c2468,-1143 195,-2853 -1058,-4765 -1076,-1639 -1941,-3356 -2887,-5230 -993,-1968 -2051,-3405 -2990,-5124 -672,-1228 -1976,-4972 -3019,-5049 -467,-34 -892,513 -1013,947 -171,610 130,1009 353,1533 1647,3860 2524,4511 4266,7906 1510,2940 3994,8515 6348,9782z"/>
    <path class="fil2" d="M7660 66763c1644,947 3638,1014 5603,1517 3464,888 11106,2822 13690,4206 1397,747 1702,469 2255,-373 -426,-1871 -2405,-2221 -4724,-3044 -3937,-1398 -10981,-2771 -15338,-4021 -1596,-458 -1956,388 -1486,1715z"/>
    <path class="fil2" d="M163321 98981c2094,1533 6029,844 9144,1147 2961,288 7369,-427 9969,500l1060 -508c96,-1994 -1104,-2332 -3087,-2398 -1938,-65 -3794,56 -5721,106l-8286 -305c-906,-48 -1557,-430 -2585,-309 -327,688 -503,741 -494,1767z"/>
    <path class="fil2" d="M139950 45464c2421,1411 1773,214 4351,-2474l5975 -6387c397,-383 740,-600 1107,-928l3080 -2995c1775,-1499 763,-1237 441,-2548l-855 -136c-1676,1399 -5767,5658 -7446,7364 -662,673 -1196,1137 -1876,1813l-3602 3765c-642,791 -1186,1197 -1175,2526z"/>
    <path class="fil2" d="M62279 26657c524,-146 -88,-287 562,-25 1012,408 -202,178 645,385 2325,-271 -2011,-6621 -2439,-7629 -407,-961 -769,-1813 -1260,-2804 -1227,-2478 -2644,-5302 -4134,-7663 -562,-891 -973,-1633 -2312,-1699 -898,1910 -106,1526 1702,4723 2359,4171 3315,7322 4700,9876 712,1313 2155,3305 2536,4836z"/>
    <path class="fil2" d="M115007 31670c1226,171 1622,429 2200,-632l4203 -9620c460,-952 815,-1361 1331,-2200 332,-541 2563,-4084 2510,-4473 -365,-662 -795,-1746 -1914,-1208 -209,101 -1169,1983 -1422,2440 -922,1669 -1649,3182 -2664,4905 -959,1630 -4563,8588 -4244,10788z"/>
    <path class="fil2" d="M52682 181441l905 152c304,132 -15,-18 307,228 290,-259 633,-389 823,-761 181,-354 292,-850 469,-1212 396,-809 647,-1517 987,-2321 1300,-3077 4403,-8861 4841,-11932 168,-1182 -304,-1753 -1032,-2304 -1291,520 -1293,2119 -1927,4272 -1005,3413 -5871,10977 -5373,13878z"/>
    <path class="fil2" d="M89049 112879c390,338 2753,1280 3425,1445 3083,759 9805,-936 8282,-5908 -1684,-5499 -8631,-2950 -10874,-6446 -427,-665 -436,-1132 -1124,-1336 -1041,1361 1121,2919 2253,3704 2244,1556 6893,868 8339,3498 2621,4765 -4159,6480 -8078,4948 -614,-240 -1731,-1195 -2223,95z"/>
    <path class="fil2" d="M92691 75735c1323,375 2347,-1396 7196,-763 5580,729 6027,2717 6032,434 -1301,-921 -5009,-1750 -6626,-1770 -1516,-19 -2705,82 -4041,395 -1227,287 -2669,199 -2561,1704z"/>
    <path class="fil2" d="M73478 78765c1100,-666 629,-1909 4820,-2683 4572,-844 1193,-1050 6617,-389 1038,-2042 -681,-1451 -2246,-1550 -2301,-146 -2393,349 -4190,675 -2039,370 -2087,309 -3608,1373 -768,537 -2670,1678 -1393,2574z"/>
    <path class="fil2" d="M138409 124871c-688,400 -1491,2410 -2009,3358 -2084,3815 -3674,4585 -6333,7343 -741,769 -514,1494 390,973 25,-14 520,-537 673,-662l2714 -2637c1672,-1552 2861,-3530 3997,-5569 581,-1040 1506,-2148 1389,-2594 -114,-436 -387,-465 -821,-212z"/>
    <path class="fil2" d="M77284 51259l208 -716c-1489,-765 -3562,639 -4996,1441 -2740,1532 -3501,1979 -5670,3919 -395,354 -1129,674 -1321,1085 -501,1073 720,784 2262,-700 2047,-1970 4851,-3469 7465,-4543 817,-336 1554,-261 2052,-486z"/>
    <path class="fil2" d="M132957 127896c895,690 2112,-1085 2650,-1914 316,-489 629,-1058 964,-1613 294,-486 1068,-1332 796,-1819 -724,-1300 -1946,2068 -2187,2435 -731,1112 -1545,1860 -2223,2911z"/>
    <path class="fil2" d="M63223 59200c187,408 262,400 632,627l788 -551c-166,-1387 -1109,-489 -1420,-76z"/>
    <path class="fil2" d="M61327 61598c747,623 1228,-116 1143,-507 -131,-601 -981,-316 -1143,507z"/>
    <path class="fil2" d="M131990 128927c343,497 52,163 670,488l521 -821c-557,-397 -1055,-450 -1191,333z"/>
    <path class="fil2" d="M127008 138162l671 280c374,-305 434,-244 547,-854 -768,-238 -911,-173 -1218,574z"/>
    <path class="fil2" d="M130743 130471c321,377 47,270 626,405 390,-347 238,-206 470,-759 -589,-274 -830,-330 -1096,354z"/>
   </g>
  </g>
 </g>
</svg>
