<?xml version="1.0" encoding="UTF-8"?>
<svg viewBox="0 0 1530 990" xmlns="http://www.w3.org/2000/svg">
 <path d="m862.79 332.76c8.1195 19.54 13.963 40.093 17.125 61.281 2.2382 14.996 3.0435 29.716 2.5312 44.062 17.271 11.12 28.39 31.352 28.062 55.656-0.16706 12.382-3.2802 24.376-8.625 35.125-2.2696-20.763-11.1-38.663-24.281-51.656-7.6479 35.631-23.864 67.903-46.844 94.844 10.923-1.354 21.976-3.72 33.062-7.1562 16.239-5.0336 31.651-12.089 46-20.812-20.521 42.68-56.627 76.974-101.38 90.844-24.875 7.7104-49.51 8.189-72.125 2.625-16.442 6.1552-33.938 10.708-52.312 13.438 30.662 13.797 64.547 21.183 99.219 20.312 111.37-2.7971 188.93-90.044 173.28-194.91-8.7142-58.386-44.488-109.93-93.719-143.66zm-126.47 304.81c37.76-14.136 69.943-36.783 94.438-65.5-86.379 10.707-164.93-41.888-192.12-129.84-7.1281 25.714-8.8294 53.158-3.9688 80.25 10.78 60.086 51.206 102.68 101.66 115.09zm141.28-160.34c2.7156-12.652 4.3651-25.72 4.8438-39.125-10.99-7.0755-24.462-10.453-39.094-8.8438-20.95 2.3044-39.822 14.339-52.531 31.438 7.0831-2.6275 14.491-4.4137 22.094-5.25 25.535-2.8088 48.425 5.7504 64.688 21.781z" fill="#ffcf00"/>
 <path d="m775.03 312.44c-109.56 0-198.36 83.189-198.36 185.83s88.8 185.86 198.36 185.86c21.855 0 42.88-3.3236 62.543-9.4392-12.366 2.0489-25.143 3.1464-38.184 3.1464-113.4 0-205.31-81.048-205.31-181.01s91.902-180.98 205.31-180.98c5.6518 0 11.251 0.18303 16.788 0.57791-13.272-2.6219-27.042-3.9812-41.147-3.9812z" fill="#ffcf00"/>
 <path d="m941 468.12c-7.421-118.65-111.02-177.69-199.3-148.22-41.105 13.722-72.859 43.434-91.749 81.133 62.404-54.182 124.69-71.686 185.91-53.144 56.83 17.214 86.126 71.007 105.14 120.23z" fill="#ffcf00"/>
 <path d="m778.23 430.98c-8.1989-38.92-43.864-60.503-79.667-48.212-19.934 6.8431-35.71 22.744-44.36 42.214 6.3343-4.117 13.169-7.4996 20.403-9.9831 43.992-15.102 87.801 7.9949 102.92 52.134 2.8572-11.66 3.2569-24.035 0.70435-36.152z" fill="#ffcf00"/>
 <path d="m876.54 295.96 90.048-75.3 86.565-81.105-129.03 165.56 57.096-57.41-66.549 89.455-9.5319-10.3-9.5319-10.3-9.5319-10.3z" fill="#ffcf00"/>
 <path d="m561.34 398.56-116.75-13.866-117.01-20.642 198.86 68.232-79.319-16.898 104.79 38.603 2.357-13.857 2.357-13.857 2.357-13.857z" fill="#ffcf00"/>
 <path d="m989.87 537.57 104.07 55.773 108.18 50.344-202.93-58.281 75.003 31.737-108.45-28.531 6.0343-12.761 6.0343-12.761 6.0343-12.761z" fill="#ffcf00"/>
 <path d="m613.25 657.21-52.094 104-58.485 101.96 130.25-162.16-42.35 68.142 71.098-84.56-12.104-6.8448-12.104-6.8447-12.104-6.8448z" fill="#ffcf00"/>
 <path d="m795.73 720.86-19.186 116.94-12.696 119.08-10.526-211.64-5.7925 81.534-8.1114-112.26 14.078 1.5884 14.078 1.5884 14.078 1.5884z" fill="#ffcf00"/>
 <path d="m876.28 695.08 88.153 78.642 84.462 84.369-124.46-170.69 55.583 59.585-64.059-92.123-9.9195 10.053-9.9195 10.053-9.9195 10.053z" fill="#ffcf00"/>
 <path d="m562.48 592.15-116 22.002-115.79 28.808 194.48-82.17-78.288 22.439 102.3-45.952 3.3239 13.718 3.3239 13.718 3.3239 13.718z" fill="#ffcf00"/>
 <path d="m990.41 452.58 103.93-56.84 108.1-51.429-203.08 60.198 74.974-32.478-108.56 29.547 6.1625 12.75 6.1625 12.75 6.1625 12.75z" fill="#ffcf00"/>
 <path d="m612.76 332.41-55.168-103.26-61.545-101.05 135.35 159.72-44.416-67.445 73.777 83.205-11.998 7.2074-11.998 7.2074-11.998 7.2074z" fill="#ffcf00"/>
 <path d="m796.22 270.93-12.555-118.02-5.9436-119.79-22.524 211.03-1.1694-81.857-14.476 111.8 14.167-0.79011 14.167-0.79011 14.167-0.7901z" fill="#ffcf00"/>
</svg>
