<?xml version='1.0' encoding='utf-8'?>
<svg xmlns="http://www.w3.org/2000/svg" width="210mm" height="297mm" viewBox="0 0 210 297" version="1.1" id="svg1028"> <defs id="defs1022"/> <metadata id="metadata1025"> </metadata> <g id="layer1"> <g style="display:inline;opacity:1" id="g6564" transform="matrix(1.8185687,0,0,1.8185687,-10.175096,33.950246)"> <g transform="matrix(0.92820402,0,0,0.92820402,189.54433,9.6714871)" id="g3558" style="display:inline"> <g id="g3518"> <path id="path3448" d="m -101.20312,93.93229 c -17.05387,-7.786398 -28.07141,-3.454039 -32.80834,8.46667 l 2.91042,8.06979 c 2.0573,-16.307626 46.62255,-15.624208 29.89792,-16.53646 z" style="fill:#e580ff;fill-opacity:1;stroke:#000000;stroke-width:0.26458332px;stroke-linecap:butt;stroke-linejoin:miter;stroke-opacity:1"/> <path id="path3442" d="m -82.387136,71.347668 c 1.280413,2.34572 2.932536,13.585831 -9.671825,16.357214 -6.531816,1.436183 -13.364829,0.924892 -20.108569,-0.05181 -7.66626,-1.110311 -17.88894,0.107965 -21.06697,9.488427 -2.90027,14.122111 7.58347,20.098261 3.89603,14.778861 -8.67011,-12.507287 8.25251,-18.611552 21.79135,-15.895262 11.823807,2.649081 22.403642,2.600952 27.942856,-5.07602 3.861429,-5.351677 3.455415,-16.008002 -2.782872,-19.60141 z" style="fill:#dd55ff;fill-opacity:1;stroke:#000000;stroke-width:0.20475943px;stroke-linecap:butt;stroke-linejoin:miter;stroke-opacity:1"/> <path style="fill:#d42aff;fill-opacity:1;stroke:#000000;stroke-width:0.21585254px;stroke-linecap:butt;stroke-linejoin:miter;stroke-opacity:1" d="m -86.662214,66.178828 c 1.349782,2.472802 3.03079,14.196737 -10.256428,17.118263 -6.885688,1.51399 -14.600048,-0.263308 -21.755808,-0.891369 -7.57608,-0.664952 -18.64659,0.325325 -22.2083,10.002475 -3.0574,14.887203 18.11802,26.471473 13.33781,21.602683 -11.25649,-11.46508 -1.98632,-28.288848 12.28601,-25.4254 12.46437,2.792595 24.841228,4.193333 31.176482,-4.160395 3.711724,-4.894316 6.084487,-15.881426 -2.579766,-18.246257 z" id="path3440"/> <path id="path3434" d="m -144.21956,7.8576854 -14.61812,-12.1667293 6.61458,12.1708332 z" style="fill:#fbffb9;fill-opacity:1;stroke:#000000;stroke-width:0.26458332px;stroke-linecap:butt;stroke-linejoin:miter;stroke-opacity:1"/> <path id="path3420" d="m -140.12941,34.140421 c 2.74624,1.651287 1.42721,7.482142 0.93544,10.102785 -0.80486,4.289124 -3.08956,8.916766 -2.28656,12.986615 1.74605,8.849531 2.01067,14.058129 1.72529,20.855683 l 44.901285,1.330373 c 6.599745,-2.039463 7.871377,-5.105565 9.541523,-10.102788 -2.835647,-4.700207 -7.526981,-9.171475 -15.715448,-12.53494 -4.06144,-1.668264 -12.90912,-2.619243 -12.90912,-2.619243 l -5.23848,-30.121275 -7.29646,-2.245064 z" style="fill:#f1b9ff;fill-opacity:1;stroke:#000000;stroke-width:0.26458332px;stroke-linecap:butt;stroke-linejoin:miter;stroke-opacity:1"/> <path id="path3410" d="m -146.8646,-1.0322501 c 3.99858,1.18121767 7.98182,2.3701025 7.10936,5.9868373 15.09781,0.2670426 10.58585,11.0726848 13.47039,17.7734238 1.67751,3.896832 -1.95828,11.078551 -6.17393,11.03823 -12.92189,-0.123594 -11.35016,3.310168 -17.50494,7.557148 -4.08931,0.659356 -6.70185,-2.217727 -5.79975,-4.490127 1.95469,-4.923856 2.73265,-8.05488 3.84747,-13.169808 1.25161,-5.742537 0.26132,-11.048045 5.79975,-16.6508915 -1.05082,-2.5014865 -1.5907,-4.9161452 -0.74835,-8.0448126 z" style="fill:#f5cdff;fill-opacity:1;stroke:#000000;stroke-width:0.26458332px;stroke-linecap:butt;stroke-linejoin:miter;stroke-opacity:1"/> <path id="path3412" d="m -139.75524,4.9545872 c 2.44126,-7.1291736 9.16299,-8.2044843 14.75342,-7.9994172 4.64389,0.1703465 10.13499,2.41591497 11.73568,7.5250476 -6.0961,5.2116821 -8.10092,18.5634454 -9.27694,25.7313384 -1.54343,-2.338712 -4.74014,-9.713974 -6.83928,-11.990864 -4.1474,-4.498602 -8.08341,-3.376849 -10.37288,-13.2661048 z" style="fill:#8800aa;fill-opacity:1;stroke:#000000;stroke-width:0.26458332px;stroke-linecap:butt;stroke-linejoin:miter;stroke-opacity:1"/> <path id="path3414" d="m -113.79531,3.6864676 c 4.58522,1.8192476 7.10382,6.8814374 7.71603,11.1838194 -7.21823,7.947575 -10.16684,19.798948 -13.47037,30.682541 -3.58943,-3.817947 -4.88911,-11.426603 -4.58093,-17.193355 0.78291,-11.553425 5.06669,-19.1004773 10.33527,-24.6730054 z" style="fill:#d42aff;fill-opacity:1;stroke:#000000;stroke-width:0.26458332px;stroke-linecap:butt;stroke-linejoin:miter;stroke-opacity:1"/> <path id="path3416" d="m -106.07928,14.870287 c 2.34958,3.852448 5.49625,7.4392 3.55469,12.722029 -5.30728,7.352386 -10.04794,15.27139 -11.41241,26.56659 -3.02906,-1.324463 -5.54643,-3.331163 -5.61265,-8.606078 2.32566,-11.742636 6.1733,-22.419893 13.47037,-30.682541 z" style="fill:#dd55ff;fill-opacity:1;stroke:#000000;stroke-width:0.26458332px;stroke-linecap:butt;stroke-linejoin:miter;stroke-opacity:1"/> <path id="path3418" d="m -102.52459,27.592316 c 0.936,5.482686 2.30292,12.013103 -3.92886,21.889373 -3.52565,5.587522 5.42557,7.29646 5.42557,7.29646 -5.97201,3.855673 -9.92167,1.981356 -12.90912,-2.619243 0.29631,-10.131105 5.73788,-18.391205 11.41241,-26.56659 z" style="fill:#e580ff;stroke:#000000;stroke-width:0.26458332px;stroke-linecap:butt;stroke-linejoin:miter;stroke-opacity:1"/> <path id="path3422" d="m -146.11625,7.0125625 c -1.95384,-2.3167676 -8.25355,-1.4271243 -8.79317,1.4967095 -0.73552,3.98533 1.7602,8.606079 -1.49671,12.909118 5.01314,-0.09812 6.29618,-4.830377 8.32545,-8.138357 1.14482,-1.86621 10.13861,-4.153435 1.96443,-6.2674705 z" style="fill:#8800aa;fill-opacity:1;stroke:#000000;stroke-width:0.26458332px;stroke-linecap:butt;stroke-linejoin:miter;stroke-opacity:1"/> <path style="fill:#dd55ff;fill-opacity:1;stroke:#000000;stroke-width:0.26458332px;stroke-linecap:butt;stroke-linejoin:miter;stroke-opacity:1" d="m -143.07433,6.8333986 c -2.71026,-1.2224995 -8.72644,-0.4180006 -9.07253,2.5350015 -0.47172,4.0250849 2.3226,8.4716249 -0.64415,12.9796189 4.99582,-0.427727 5.52166,-5.65964 7.44124,-9.065342 1.11934,-1.985911 7.3266,-4.1708783 2.27544,-6.4492784 z" id="path3424"/> <path id="path3426" d="m -147.18682,39.024097 c 2.38765,-2.178379 3.03831,-4.200624 2.41894,-5.650029" style="fill:none;stroke:#000000;stroke-width:0.26458332px;stroke-linecap:round;stroke-linejoin:miter;stroke-opacity:1"/> <path id="path3428" d="m -154.77323,38.520383 c -0.11703,-1.625905 -0.2192,-1.411017 0.42136,-2.683439" style="fill:none;stroke:#000000;stroke-width:0.26458332px;stroke-linecap:round;stroke-linejoin:miter;stroke-opacity:1"/> <path id="path3430" d="m -144.59415,25.564936 c -0.0238,-1.317151 0.0425,-3.200559 1.11885,-4.142398 1.18627,-1.037973 3.32351,-0.99114 4.6885,-0.616083 -0.34953,1.333703 -0.63306,3.818239 -2.22447,4.840336 -1.31056,0.798806 -2.30527,0.352225 -3.58288,-0.08186 z" style="fill:#f1b9ff;fill-opacity:1;stroke:#dd55ff;stroke-width:0.5;stroke-linecap:round;stroke-linejoin:miter;stroke-miterlimit:4;stroke-dasharray:none;stroke-opacity:1"/> <path id="path3438" d="m -89.032291,64.034373 c -1.959003,5.096534 0.489323,8.59992 -11.377079,12.567708 -8.07324,2.699461 -16.33432,-4.393734 -25.26771,-3.704167 -9.29451,0.717441 -17.9915,4.939188 -22.35729,16.801042 -2.09915,5.703387 -0.72712,13.295434 3.0427,18.123954 4.41145,5.65033 26.10099,12.51323 19.71147,8.59897 -3.78072,-2.31609 -17.62081,-9.30835 -13.49376,-23.680216 2.29209,-7.981877 12.00478,-11.472866 20.10834,-9.657291 15.27831,3.423052 29.253461,0.930127 32.146871,-4.630209 2.531735,-4.865296 4.296139,-11.772834 -2.513542,-14.419791 z" style="fill:#8800aa;fill-opacity:1;stroke:#000000;stroke-width:0.26458332px;stroke-linecap:butt;stroke-linejoin:miter;stroke-opacity:1"/> <path id="path3450" d="m -127.0332,-1.0546875 c -4.0975,0.00269 -8.78446,1.5664954 -10.43946,5.6757813 0.5219,7.9212502 10.31919,9.8515902 12.99795,17.6244872 1.18198,-7.355913 4.3829,-12.7533708 8.69932,-18.5541748 -2.2331,-3.8115644 -7.15332,-4.9581335 -11.25781,-4.7460937 z" style="fill:#9800be;fill-opacity:1;stroke:none;stroke-width:0.26458332px;stroke-linecap:butt;stroke-linejoin:miter;stroke-opacity:1"/> <path id="path3454" d="m -114.14648,7.1074219 c -7.44271,9.1902121 -10.25161,22.4827731 -6.0625,33.6699221 2.79787,-9.26604 5.62458,-18.965858 11.99218,-26.503906 -0.67257,-3.165288 -2.29522,-6.3679881 -5.11523,-8.1230474 l -0.6481,0.7615557 z" style="fill:#d941ff;fill-opacity:1;stroke:none;stroke-width:0.26458332px;stroke-linecap:butt;stroke-linejoin:miter;stroke-opacity:1"/> <path id="path3458" d="m -106.4707,18.490234 c -6.00475,8.299465 -10.30091,18.918627 -10.84571,29.259766 0.0764,1.114376 2.10117,4.788828 2.08985,1.898438 1.46752,-9.003395 6.91717,-16.609345 11.22656,-24.269532 0.42564,-2.348514 -1.00102,-5.918436 -2.4707,-6.888672 z" style="fill:#e169ff;fill-opacity:1;stroke:none;stroke-width:0.26458332px;stroke-linecap:butt;stroke-linejoin:miter;stroke-opacity:1"/> <path id="path3462" d="m -103.97656,33.291016 c -3.80761,6.156654 -8.37998,13.464506 -7.53906,20.828125 0.8345,1.645248 4.27681,3.378603 4.92382,2.488281 -4.55112,-2.733283 -2.14657,-8.319472 0.35157,-11.583984 1.77308,-3.396422 3.12414,-8.950563 2.26367,-11.732422 z" style="fill:#e891ff;fill-opacity:1;stroke:none;stroke-width:0.26458332px;stroke-linecap:butt;stroke-linejoin:miter;stroke-opacity:1"/> <path id="path3466" d="m -141.48594,5.2968747 c 1.36239,-2.7385652 -2.65899,-3.4261687 -4.6302,-4.89479167" style="fill:none;stroke:#000000;stroke-width:0.26458332px;stroke-linecap:butt;stroke-linejoin:miter;stroke-opacity:1"/> <path id="path3470" d="m -146.90009,8.3156871 c -5.3179,-0.4600384 -2.66333,5.1240149 -2.55078,8.0820309 0.0327,2.547692 1.33414,-2.595667 1.98438,-3.386718 0.42743,-2.267861 6.47644,-4.4935115 1.77343,-4.7148441 l -0.58789,-0.00977 z" style="fill:#e169ff;fill-opacity:1;stroke:none;stroke-width:0.26458332px;stroke-linecap:butt;stroke-linejoin:miter;stroke-opacity:1"/> <path id="path3474" d="m -87.833984,67.150391 c -0.819578,8.46969 -10.722103,12.25156 -18.132816,11.988281 -8.85672,-1.308303 -17.62508,-6.846178 -26.64062,-2.832031 -12.36922,3.678157 -19.39893,21.108821 -10.02735,31.099609 2.23446,1.91361 4.89735,3.23172 7.54297,4.47266 -9.13066,-7.35647 -8.68282,-24.162769 2.65625,-29.130863 10.24112,-5.321898 21.31069,1.689252 32.03321,-0.318359 6.241025,-0.205088 13.653505,-3.070709 14.017574,-10.269532 0.347014,-1.668543 -0.01116,-4.31228 -1.449218,-5.009765 z" style="fill:#9800be;fill-opacity:1;stroke:none;stroke-width:0.26458332px;stroke-linecap:butt;stroke-linejoin:miter;stroke-opacity:1"/> <path id="path3478" d="m -83.10612,70.53151 c 0.585277,9.232739 -4.953957,15.480553 -17.68099,15.296615 -11.91972,0.872457 -24.05671,-5.173297 -34.0832,4.051823 -5.49834,5.136688 -2.70632,13.998662 0.95039,17.233332 -3.57287,-10.665819 6.54746,-22.317999 17.74557,-20.323827 9.70526,1.660824 21.814122,5.150311 29.98685,-2.939844 2.903959,-3.441585 5.37815,-9.808353 3.08138,-13.318099 z" style="fill:#d941ff;fill-opacity:1;stroke:none;stroke-width:0.21585254px;stroke-linecap:butt;stroke-linejoin:miter;stroke-opacity:1"/> <path id="path3482" d="m -79.740234,78.378906 c -1.456255,9.82546 -8.269009,14.628102 -16.654202,14.274772 -9.640334,0.303109 -22.816554,-4.474057 -32.236734,2.888982 -1.35262,1.349397 -3.26042,6.53136 -0.53105,2.981908 8.94296,-7.06697 20.12818,-4.88745 30.392689,-3.085115 8.523862,1.587796 20.053194,-2.659456 19.654297,-12.833984 0.05751,-1.211197 -0.233528,-3.78715 -0.625,-4.226563 z" style="fill:#e169ff;fill-opacity:1;stroke:none;stroke-width:0.20475943px;stroke-linecap:butt;stroke-linejoin:miter;stroke-opacity:1"/> <path id="path3486" d="m -119.58712,96.811119 c -4.16369,0.889056 -10.17302,3.015035 -10.48248,7.502081 0.43227,2.21935 2.64568,-2.42702 4.20651,-3.27763 3.42635,-1.867283 6.41205,-2.931599 11.05162,-3.86019 -2.28388,-0.80516 -2.34953,-0.428878 -4.77565,-0.364261 z" style="fill:#e891ff;fill-opacity:1;stroke:none;stroke-width:0.18064217px;stroke-linecap:butt;stroke-linejoin:miter;stroke-opacity:1"/> <path style="fill:#f5cdff;fill-opacity:1;stroke:none;stroke-width:0.26458332px;stroke-linecap:butt;stroke-linejoin:miter;stroke-opacity:1" d="m -137.08008,35.552083 c 3.12166,8.366012 -4.84612,16.047449 -1.83984,24.508464 0.94286,5.302735 1.11935,9.672018 0.9289,15.058724 8.96252,-7.141536 21.60608,-2.533381 34.84535,-0.813144 4.253549,0.552682 14.10534,-5.853537 9.947884,-9.048835 -6.484363,-7.65124 -15.715074,-2.397136 -22.059634,-8.366406 -6.52136,-5.628008 -9.20964,-14.827299 -10.9698,-24.952995 -5.07968,4.581944 -4.25297,3.810808 -10.85286,3.614192 z" id="path3520"/> <path id="path3436" d="m -128.5875,63.372915 c 1.44839,5.19017 0.71439,6.114685 0.19844,9.75651" style="fill:none;stroke:#000000;stroke-width:0.26458332px;stroke-linecap:butt;stroke-linejoin:miter;stroke-opacity:1"/> <path id="path3432" d="m -144.59415,25.564936 c 0.29507,-1.124143 0.61203,-2.451152 1.56487,-3.117558 0.97303,-0.680526 2.60643,0.326557 3.53862,-0.408913 1.00846,-0.795646 1.35462,-2.497063 1.32098,-3.620141" style="fill:none;stroke:#8800aa;stroke-width:0.5;stroke-linecap:round;stroke-linejoin:miter;stroke-miterlimit:4;stroke-dasharray:none;stroke-opacity:1"/> </g> </g> <g style="display:inline" id="g5832" transform="matrix(-0.57203348,0,0,0.57203348,-35.449803,53.068534)"> <g id="g5830"> <path style="fill:#e580ff;fill-opacity:1;stroke:#000000;stroke-width:0.26458332px;stroke-linecap:butt;stroke-linejoin:miter;stroke-opacity:1" d="m -101.20312,93.93229 c -17.05387,-7.786398 -28.07141,-3.454039 -32.80834,8.46667 l 2.91042,8.06979 c 2.0573,-16.307626 46.62255,-15.624208 29.89792,-16.53646 z" id="path5772"/> <path style="fill:#dd55ff;fill-opacity:1;stroke:#000000;stroke-width:0.20475943px;stroke-linecap:butt;stroke-linejoin:miter;stroke-opacity:1" d="m -82.387136,71.347668 c 1.280413,2.34572 2.932536,13.585831 -9.671825,16.357214 -6.531816,1.436183 -13.364829,0.924892 -20.108569,-0.05181 -7.66626,-1.110311 -17.88894,0.107965 -21.06697,9.488427 -2.90027,14.122111 7.58347,20.098261 3.89603,14.778861 -8.67011,-12.507287 8.25251,-18.611552 21.79135,-15.895262 11.823807,2.649081 22.403642,2.600952 27.942856,-5.07602 3.861429,-5.351677 3.455415,-16.008002 -2.782872,-19.60141 z" id="path5774"/> <path id="path5776" d="m -86.662214,66.178828 c 1.349782,2.472802 3.03079,14.196737 -10.256428,17.118263 -6.885688,1.51399 -14.600048,-0.263308 -21.755808,-0.891369 -7.57608,-0.664952 -18.64659,0.325325 -22.2083,10.002475 -3.0574,14.887203 18.11802,26.471473 13.33781,21.602683 -11.25649,-11.46508 -1.98632,-28.288848 12.28601,-25.4254 12.46437,2.792595 24.841228,4.193333 31.176482,-4.160395 3.711724,-4.894316 6.084487,-15.881426 -2.579766,-18.246257 z" style="fill:#d42aff;fill-opacity:1;stroke:#000000;stroke-width:0.21585254px;stroke-linecap:butt;stroke-linejoin:miter;stroke-opacity:1"/> <path style="fill:#fbffb9;fill-opacity:1;stroke:#000000;stroke-width:0.26458332px;stroke-linecap:butt;stroke-linejoin:miter;stroke-opacity:1" d="m -144.21956,7.8576854 -14.61812,-12.1667293 6.61458,12.1708332 z" id="path5778"/> <path style="fill:#f1b9ff;fill-opacity:1;stroke:#000000;stroke-width:0.26458332px;stroke-linecap:butt;stroke-linejoin:miter;stroke-opacity:1" d="m -140.12941,34.140421 c 2.74624,1.651287 1.42721,7.482142 0.93544,10.102785 -0.80486,4.289124 -3.08956,8.916766 -2.28656,12.986615 1.74605,8.849531 2.01067,14.058129 1.72529,20.855683 l 44.901285,1.330373 c 6.599745,-2.039463 7.871377,-5.105565 9.541523,-10.102788 -2.835647,-4.700207 -7.526981,-9.171475 -15.715448,-12.53494 -4.06144,-1.668264 -12.90912,-2.619243 -12.90912,-2.619243 l -5.23848,-30.121275 -7.29646,-2.245064 z" id="path5780"/> <path style="fill:#f5cdff;fill-opacity:1;stroke:#000000;stroke-width:0.26458332px;stroke-linecap:butt;stroke-linejoin:miter;stroke-opacity:1" d="m -146.8646,-1.0322501 c 3.99858,1.18121767 7.98182,2.3701025 7.10936,5.9868373 15.09781,0.2670426 10.58585,11.0726848 13.47039,17.7734238 1.67751,3.896832 -1.95828,11.078551 -6.17393,11.03823 -12.92189,-0.123594 -11.35016,3.310168 -17.50494,7.557148 -4.08931,0.659356 -6.70185,-2.217727 -5.79975,-4.490127 1.95469,-4.923856 2.73265,-8.05488 3.84747,-13.169808 1.25161,-5.742537 0.26132,-11.048045 5.79975,-16.6508915 -1.05082,-2.5014865 -1.5907,-4.9161452 -0.74835,-8.0448126 z" id="path5782"/> <path style="fill:#8800aa;fill-opacity:1;stroke:#000000;stroke-width:0.26458332px;stroke-linecap:butt;stroke-linejoin:miter;stroke-opacity:1" d="m -139.75524,4.9545872 c 2.44126,-7.1291736 9.16299,-8.2044843 14.75342,-7.9994172 4.64389,0.1703465 10.13499,2.41591497 11.73568,7.5250476 -6.0961,5.2116821 -8.10092,18.5634454 -9.27694,25.7313384 -1.54343,-2.338712 -4.74014,-9.713974 -6.83928,-11.990864 -4.1474,-4.498602 -8.08341,-3.376849 -10.37288,-13.2661048 z" id="path5784"/> <path style="fill:#d42aff;fill-opacity:1;stroke:#000000;stroke-width:0.26458332px;stroke-linecap:butt;stroke-linejoin:miter;stroke-opacity:1" d="m -113.79531,3.6864676 c 4.58522,1.8192476 7.10382,6.8814374 7.71603,11.1838194 -7.21823,7.947575 -10.16684,19.798948 -13.47037,30.682541 -3.58943,-3.817947 -4.88911,-11.426603 -4.58093,-17.193355 0.78291,-11.553425 5.06669,-19.1004773 10.33527,-24.6730054 z" id="path5786"/> <path style="fill:#dd55ff;fill-opacity:1;stroke:#000000;stroke-width:0.26458332px;stroke-linecap:butt;stroke-linejoin:miter;stroke-opacity:1" d="m -106.07928,14.870287 c 2.34958,3.852448 5.49625,7.4392 3.55469,12.722029 -5.30728,7.352386 -10.04794,15.27139 -11.41241,26.56659 -3.02906,-1.324463 -5.54643,-3.331163 -5.61265,-8.606078 2.32566,-11.742636 6.1733,-22.419893 13.47037,-30.682541 z" id="path5788"/> <path style="fill:#e580ff;stroke:#000000;stroke-width:0.26458332px;stroke-linecap:butt;stroke-linejoin:miter;stroke-opacity:1" d="m -102.52459,27.592316 c 0.936,5.482686 2.30292,12.013103 -3.92886,21.889373 -3.52565,5.587522 5.42557,7.29646 5.42557,7.29646 -5.97201,3.855673 -9.92167,1.981356 -12.90912,-2.619243 0.29631,-10.131105 5.73788,-18.391205 11.41241,-26.56659 z" id="path5790"/> <path style="fill:#8800aa;fill-opacity:1;stroke:#000000;stroke-width:0.26458332px;stroke-linecap:butt;stroke-linejoin:miter;stroke-opacity:1" d="m -146.11625,7.0125625 c -1.95384,-2.3167676 -8.25355,-1.4271243 -8.79317,1.4967095 -0.73552,3.98533 1.7602,8.606079 -1.49671,12.909118 5.01314,-0.09812 6.29618,-4.830377 8.32545,-8.138357 1.14482,-1.86621 10.13861,-4.153435 1.96443,-6.2674705 z" id="path5792"/> <path id="path5794" d="m -143.07433,6.8333986 c -2.71026,-1.2224995 -8.72644,-0.4180006 -9.07253,2.5350015 -0.47172,4.0250849 2.3226,8.4716249 -0.64415,12.9796189 4.99582,-0.427727 5.52166,-5.65964 7.44124,-9.065342 1.11934,-1.985911 7.3266,-4.1708783 2.27544,-6.4492784 z" style="fill:#dd55ff;fill-opacity:1;stroke:#000000;stroke-width:0.26458332px;stroke-linecap:butt;stroke-linejoin:miter;stroke-opacity:1"/> <path style="fill:none;stroke:#000000;stroke-width:0.26458332px;stroke-linecap:round;stroke-linejoin:miter;stroke-opacity:1" d="m -147.18682,39.024097 c 2.38765,-2.178379 3.03831,-4.200624 2.41894,-5.650029" id="path5796"/> <path style="fill:none;stroke:#000000;stroke-width:0.26458332px;stroke-linecap:round;stroke-linejoin:miter;stroke-opacity:1" d="m -154.77323,38.520383 c -0.11703,-1.625905 -0.2192,-1.411017 0.42136,-2.683439" id="path5798"/> <path style="fill:#f1b9ff;fill-opacity:1;stroke:#dd55ff;stroke-width:0.5;stroke-linecap:round;stroke-linejoin:miter;stroke-miterlimit:4;stroke-dasharray:none;stroke-opacity:1" d="m -144.59415,25.564936 c -0.0238,-1.317151 0.0425,-3.200559 1.11885,-4.142398 1.18627,-1.037973 3.32351,-0.99114 4.6885,-0.616083 -0.34953,1.333703 -0.63306,3.818239 -2.22447,4.840336 -1.31056,0.798806 -2.30527,0.352225 -3.58288,-0.08186 z" id="path5800"/> <path style="fill:#8800aa;fill-opacity:1;stroke:#000000;stroke-width:0.26458332px;stroke-linecap:butt;stroke-linejoin:miter;stroke-opacity:1" d="m -89.032291,64.034373 c -1.959003,5.096534 0.489323,8.59992 -11.377079,12.567708 -8.07324,2.699461 -16.33432,-4.393734 -25.26771,-3.704167 -9.29451,0.717441 -17.9915,4.939188 -22.35729,16.801042 -2.09915,5.703387 -0.72712,13.295434 3.0427,18.123954 4.41145,5.65033 26.10099,12.51323 19.71147,8.59897 -3.78072,-2.31609 -17.62081,-9.30835 -13.49376,-23.680216 2.29209,-7.981877 12.00478,-11.472866 20.10834,-9.657291 15.27831,3.423052 29.253461,0.930127 32.146871,-4.630209 2.531735,-4.865296 4.296139,-11.772834 -2.513542,-14.419791 z" id="path5802"/> <path style="fill:#9800be;fill-opacity:1;stroke:none;stroke-width:0.26458332px;stroke-linecap:butt;stroke-linejoin:miter;stroke-opacity:1" d="m -127.0332,-1.0546875 c -4.0975,0.00269 -8.78446,1.5664954 -10.43946,5.6757813 0.5219,7.9212502 10.31919,9.8515902 12.99795,17.6244872 1.18198,-7.355913 4.3829,-12.7533708 8.69932,-18.5541748 -2.2331,-3.8115644 -7.15332,-4.9581335 -11.25781,-4.7460937 z" id="path5804"/> <path style="fill:#d941ff;fill-opacity:1;stroke:none;stroke-width:0.26458332px;stroke-linecap:butt;stroke-linejoin:miter;stroke-opacity:1" d="m -114.14648,7.1074219 c -7.44271,9.1902121 -10.25161,22.4827731 -6.0625,33.6699221 2.79787,-9.26604 5.62458,-18.965858 11.99218,-26.503906 -0.67257,-3.165288 -2.29522,-6.3679881 -5.11523,-8.1230474 l -0.6481,0.7615557 z" id="path5806"/> <path style="fill:#e169ff;fill-opacity:1;stroke:none;stroke-width:0.26458332px;stroke-linecap:butt;stroke-linejoin:miter;stroke-opacity:1" d="m -106.4707,18.490234 c -6.00475,8.299465 -10.30091,18.918627 -10.84571,29.259766 0.0764,1.114376 2.10117,4.788828 2.08985,1.898438 1.46752,-9.003395 6.91717,-16.609345 11.22656,-24.269532 0.42564,-2.348514 -1.00102,-5.918436 -2.4707,-6.888672 z" id="path5808"/> <path style="fill:#e891ff;fill-opacity:1;stroke:none;stroke-width:0.26458332px;stroke-linecap:butt;stroke-linejoin:miter;stroke-opacity:1" d="m -103.97656,33.291016 c -3.80761,6.156654 -8.37998,13.464506 -7.53906,20.828125 0.8345,1.645248 4.27681,3.378603 4.92382,2.488281 -4.55112,-2.733283 -2.14657,-8.319472 0.35157,-11.583984 1.77308,-3.396422 3.12414,-8.950563 2.26367,-11.732422 z" id="path5810"/> <path style="fill:none;stroke:#000000;stroke-width:0.26458332px;stroke-linecap:butt;stroke-linejoin:miter;stroke-opacity:1" d="m -141.48594,5.2968747 c 1.36239,-2.7385652 -2.65899,-3.4261687 -4.6302,-4.89479167" id="path5812"/> <path style="fill:#e169ff;fill-opacity:1;stroke:none;stroke-width:0.26458332px;stroke-linecap:butt;stroke-linejoin:miter;stroke-opacity:1" d="m -146.90009,8.3156871 c -5.3179,-0.4600384 -2.66333,5.1240149 -2.55078,8.0820309 0.0327,2.547692 1.33414,-2.595667 1.98438,-3.386718 0.42743,-2.267861 6.47644,-4.4935115 1.77343,-4.7148441 l -0.58789,-0.00977 z" id="path5814"/> <path style="fill:#9800be;fill-opacity:1;stroke:none;stroke-width:0.26458332px;stroke-linecap:butt;stroke-linejoin:miter;stroke-opacity:1" d="m -87.833984,67.150391 c -0.819578,8.46969 -10.722103,12.25156 -18.132816,11.988281 -8.85672,-1.308303 -17.62508,-6.846178 -26.64062,-2.832031 -12.36922,3.678157 -19.39893,21.108821 -10.02735,31.099609 2.23446,1.91361 4.89735,3.23172 7.54297,4.47266 -9.13066,-7.35647 -8.68282,-24.162769 2.65625,-29.130863 10.24112,-5.321898 21.31069,1.689252 32.03321,-0.318359 6.241025,-0.205088 13.653505,-3.070709 14.017574,-10.269532 0.347014,-1.668543 -0.01116,-4.31228 -1.449218,-5.009765 z" id="path5816"/> <path style="fill:#d941ff;fill-opacity:1;stroke:none;stroke-width:0.21585254px;stroke-linecap:butt;stroke-linejoin:miter;stroke-opacity:1" d="m -83.10612,70.53151 c 0.585277,9.232739 -4.953957,15.480553 -17.68099,15.296615 -11.91972,0.872457 -24.05671,-5.173297 -34.0832,4.051823 -5.49834,5.136688 -2.70632,13.998662 0.95039,17.233332 -3.57287,-10.665819 6.54746,-22.317999 17.74557,-20.323827 9.70526,1.660824 21.814122,5.150311 29.98685,-2.939844 2.903959,-3.441585 5.37815,-9.808353 3.08138,-13.318099 z" id="path5818"/> <path style="fill:#e169ff;fill-opacity:1;stroke:none;stroke-width:0.20475943px;stroke-linecap:butt;stroke-linejoin:miter;stroke-opacity:1" d="m -79.740234,78.378906 c -1.456255,9.82546 -8.269009,14.628102 -16.654202,14.274772 -9.640334,0.303109 -22.816554,-4.474057 -32.236734,2.888982 -1.35262,1.349397 -3.26042,6.53136 -0.53105,2.981908 8.94296,-7.06697 20.12818,-4.88745 30.392689,-3.085115 8.523862,1.587796 20.053194,-2.659456 19.654297,-12.833984 0.05751,-1.211197 -0.233528,-3.78715 -0.625,-4.226563 z" id="path5820"/> <path style="fill:#e891ff;fill-opacity:1;stroke:none;stroke-width:0.18064217px;stroke-linecap:butt;stroke-linejoin:miter;stroke-opacity:1" d="m -119.58712,96.811119 c -4.16369,0.889056 -10.17302,3.015035 -10.48248,7.502081 0.43227,2.21935 2.64568,-2.42702 4.20651,-3.27763 3.42635,-1.867283 6.41205,-2.931599 11.05162,-3.86019 -2.28388,-0.80516 -2.34953,-0.428878 -4.77565,-0.364261 z" id="path5822"/> <path id="path5824" d="m -137.08008,35.552083 c 3.12166,8.366012 -4.84612,16.047449 -1.83984,24.508464 0.94286,5.302735 1.11935,9.672018 0.9289,15.058724 8.96252,-7.141536 21.60608,-2.533381 34.84535,-0.813144 4.253549,0.552682 14.10534,-5.853537 9.947884,-9.048835 -6.484363,-7.65124 -15.715074,-2.397136 -22.059634,-8.366406 -6.52136,-5.628008 -9.20964,-14.827299 -10.9698,-24.952995 -5.07968,4.581944 -4.25297,3.810808 -10.85286,3.614192 z" style="fill:#f5cdff;fill-opacity:1;stroke:none;stroke-width:0.26458332px;stroke-linecap:butt;stroke-linejoin:miter;stroke-opacity:1"/> <path style="fill:none;stroke:#000000;stroke-width:0.26458332px;stroke-linecap:butt;stroke-linejoin:miter;stroke-opacity:1" d="m -128.5875,63.372915 c 1.44839,5.19017 0.71439,6.114685 0.19844,9.75651" id="path5826"/> <path style="fill:none;stroke:#8800aa;stroke-width:0.5;stroke-linecap:round;stroke-linejoin:miter;stroke-miterlimit:4;stroke-dasharray:none;stroke-opacity:1" d="m -144.59415,25.564936 c 0.29507,-1.124143 0.61203,-2.451152 1.56487,-3.117558 0.97303,-0.680526 2.60643,0.326557 3.53862,-0.408913 1.00846,-0.795646 1.35462,-2.497063 1.32098,-3.620141" id="path5828"/> </g> </g> </g> </g> </svg>