<?xml version="1.0" encoding="UTF-8"?>
<svg viewBox="0 0 1024 768" xmlns="http://www.w3.org/2000/svg">
 <defs>
  <filter id="a" x="-.048482" y="-.10946" width="1.097" height="1.2189">
   <feGaussianBlur stdDeviation="5.58425"/>
  </filter>
 </defs>
 <g stroke-linejoin="round" stroke-width=".5">
  <path d="m678.25 14c-82.668 0-154.47 46.768-190.49 115.21-36.101-36.859-86.373-59.796-142-59.796-62.5 0-118.27 28.92-154.74 74.057-19.12-15.677-43.551-25.161-70.186-25.161-61.179 0-110.83 49.652-110.83 110.83 0 61.179 49.652 110.83 110.83 110.83 13.046 0 25.554-2.2719 37.181-6.4176 27.046 77.702 100.86 133.55 187.74 133.55 30.029 0 58.507-6.7068 84.04-18.642 19.649 39.978 60.757 67.538 108.28 67.538 49.933 0 92.819-30.366 111.14-73.65 9.5082 1.2862 19.173 1.9355 29.032 1.9355 44.454 0 85.799-13.544 120.1-36.672 22.081 28.234 56.446 46.451 95.042 46.451 66.577 0 120.61-54.033 120.61-120.61s-54.033-120.61-120.61-120.61c-0.23859 0-0.47492-0.001389-0.71307 0-8.3352-111.16-101.15-198.84-214.43-198.84z" fill="#e4eaed"/>
  <path d="m678.25 46.292c-70.496 0-131.36 39.832-161.97 97.996-4.8124 9.0984-13.676 15.356-23.86 16.845-10.184 1.4894-20.468-1.9679-27.685-9.3072-30.304-30.94-72.222-50.118-118.98-50.118-52.544 0-99.09 24.173-129.68 62.037-5.4025 6.681-13.246 10.932-21.793 11.812-8.5471 0.87961-17.092-1.6851-23.742-7.1258-13.631-11.176-30.737-17.827-49.711-17.827-43.718 0-78.539 34.822-78.539 78.539 0 43.718 34.822 78.539 78.539 78.539 9.2985 0 18.139-1.5426 26.384-4.4821 8.0907-2.8701 16.992-2.3986 24.734 1.3099 7.7423 3.7087 13.688 10.349 16.522 18.452 22.631 65.019 84.232 111.85 157.28 111.85 25.224 0 48.995-5.5849 70.39-15.586 15.904-7.4131 34.817-0.7619 42.58 14.974 14.379 29.256 44.303 49.507 79.354 49.507 36.849 0 68.009-22.264 81.392-53.888 5.6542-13.418 19.592-21.388 34.024-19.457 8.059 1.0901 16.312 1.6299 24.754 1.6299 37.899 0 72.893-11.498 102.07-31.171 14.067-9.4801 33.071-6.4536 43.497 6.9269 16.222 20.742 41.134 34.023 69.575 34.024 49.116 0 88.319-39.203 88.319-88.319s-39.203-88.319-88.319-88.319h-0.50934c-16.964 0.11021-31.118-12.931-32.394-29.847-7.0941-94.606-85.616-169-182.24-169z" fill="#fff" filter="url(#a)"/>
  <g fill="#e4eaed">
   <path d="m156.69 325.31s-15.484-89.643 11.409-104.31c-41.562 16.299-34.227 114.91-34.227 114.91l22.818-10.594z"/>
   <path d="m802.12 403.54s-15.484-89.643 11.409-104.31c-41.562 16.299-34.227 114.91-34.227 114.91l22.818-10.594z"/>
   <path d="m493.36 134.28s72.654 49.571 63.012 87.641c22.488-42.25-49.436-104.99-49.436-104.99l-13.576 17.345z"/>
   <path d="m539.14 281.3c-56.369 0-102.12 45.749-102.12 102.12 0 8.2229 1.0083 16.229 2.8463 23.891-0.010742-0.60425-0.086334-1.2045-0.086334-1.8112 0-56.369 45.749-102.12 102.12-102.12 48.137 0 88.501 33.379 99.272 78.228-0.97009-55.532-46.27-100.31-102.03-100.31z"/>
  </g>
 </g>
</svg>
