<?xml version='1.0' encoding='utf-8'?>
<svg xmlns="http://www.w3.org/2000/svg" clip-rule="evenodd" fill-rule="evenodd" image-rendering="optimizeQuality" shape-rendering="geometricPrecision" text-rendering="geometricPrecision" viewBox="0 0 8509 6979">
 <defs>
  <style type="text/css">
    .str1 {stroke:#141515;stroke-width:16.09}
    .str2 {stroke:#141515;stroke-width:23.04}
    .str3 {stroke:#141515;stroke-width:24.79}
    .str0 {stroke:#141515;stroke-width:33.13}
    .fil0 {fill:none}
    .fil58 {fill:black}
    .fil2 {fill:#5F3862}
    .fil3 {fill:#633966}
    .fil4 {fill:#673A6A}
    .fil5 {fill:#6B3B6E}
    .fil6 {fill:#703D72}
    .fil7 {fill:#743E75}
    .fil8 {fill:#783F79}
    .fil9 {fill:#7C407D}
    .fil10 {fill:#804181}
    .fil11 {fill:#854284}
    .fil12 {fill:#894388}
    .fil13 {fill:#8D448C}
    .fil14 {fill:#914590}
    .fil86 {fill:#934692}
    .fil15 {fill:#964794}
    .fil87 {fill:#994A96}
    .fil16 {fill:#9B4C98}
    .fil88 {fill:#A0519C}
    .fil17 {fill:#A1529D}
    .fil18 {fill:#A658A2}
    .fil19 {fill:#AC5EA6}
    .fil89 {fill:#AD5FA7}
    .fil20 {fill:#B163AB}
    .fil90 {fill:#B466AD}
    .fil21 {fill:#B769B0}
    .fil91 {fill:#BA6CB2}
    .fil22 {fill:#BD6FB4}
    .fil92 {fill:#C173B8}
    .fil23 {fill:#C275B9}
    .fil24 {fill:#C87ABE}
    .fil25 {fill:#CD80C2}
    .fil93 {fill:#CE81C3}
    .fil26 {fill:#D386C7}
    .fil94 {fill:#D588C9}
    .fil27 {fill:#D98CCC}
    .fil95 {fill:#D98ECD}
    .fil96 {fill:#EC6900}
    .fil97 {fill:#ED6B01}
    .fil98 {fill:#EE6E02}
    .fil59 {fill:#EE7003}
    .fil60 {fill:#EF7204}
    .fil61 {fill:#F07505}
    .fil62 {fill:#F07705}
    .fil63 {fill:#F17906}
    .fil64 {fill:#F27C07}
    .fil65 {fill:#F27E08}
    .fil66 {fill:#F38009}
    .fil67 {fill:#F4830A}
    .fil68 {fill:#F4850A}
    .fil69 {fill:#F5870B}
    .fil70 {fill:#F68A0C}
    .fil71 {fill:#F68C0D}
    .fil28 {fill:#F75973}
    .fil29 {fill:#F75C74}
    .fil30 {fill:#F75F75}
    .fil72 {fill:#F78E0E}
    .fil31 {fill:#F86277}
    .fil32 {fill:#F86578}
    .fil73 {fill:#F8910F}
    .fil74 {fill:#F89213}
    .fil75 {fill:#F89418}
    .fil76 {fill:#F8961D}
    .fil77 {fill:#F89822}
    .fil78 {fill:#F89926}
    .fil79 {fill:#F89B2B}
    .fil80 {fill:#F89D30}
    .fil81 {fill:#F89F35}
    .fil82 {fill:#F8A039}
    .fil83 {fill:#F8A23E}
    .fil84 {fill:#F8A443}
    .fil33 {fill:#F96879}
    .fil34 {fill:#F96B7B}
    .fil85 {fill:#F9A648}
    .fil35 {fill:#FA6E7C}
    .fil36 {fill:#FA717E}
    .fil37 {fill:#FB757F}
    .fil38 {fill:#FB7880}
    .fil39 {fill:#FB7B82}
    .fil40 {fill:#FC7E83}
    .fil41 {fill:#FC8185}
    .fil42 {fill:#FD8486}
    .fil43 {fill:#FD8787}
    .fil44 {fill:#FE8A89}
    .fil45 {fill:#FE8D8A}
    .fil1 {fill:#FEFEFE}
    .fil46 {fill:#FF918C}
    .fil47 {fill:#FF948F}
    .fil48 {fill:#FF9892}
    .fil49 {fill:#FF9C95}
    .fil50 {fill:#FFA098}
    .fil51 {fill:#FFA39B}
    .fil52 {fill:#FFA79E}
    .fil53 {fill:#FFABA2}
    .fil54 {fill:#FFAFA5}
    .fil55 {fill:#FFB2A8}
    .fil56 {fill:#FFB6AB}
    .fil57 {fill:#FFBAAE}
  </style>
 </defs>
  <path class="fil0 str0" d="m5477 3277s-4017 2856-5466 3687"/>
  <path class="fil1" d="m2710 3112c-88 12-151 93-139 183 12 88 93 150 183 139 88-12 150-94 139-183-12-88-94-151-183-139z"/>
  <path class="fil2" d="m4015 2897c-391 325-851 449-1218 376 428-70 837-198 1218-376z"/>
  <path class="fil3" d="m4269 2644c-462 548-1107 747-1568 605-28-18-54-38-80-60 592-76 1149-265 1648-545z"/>
  <path class="fil4" d="m2797 3273c428-70 837-198 1218-376 154-128 298-288 420-479-565 361-1216 597-1915 673 55 62 116 115 181 158 31 10 63 18 96 24z"/>
  <path class="fil5" d="m2621 3189c592-76 1149-265 1648-545 85-101 165-215 235-340 17-33 34-65 50-98-608 431-1332 711-2115 783 55 77 116 144 182 200z"/>
  <path class="fil6" d="m2520 3091c699-76 1351-313 1915-673 24-37 47-75 69-114 54-105 106-208 153-311-639 502-1426 825-2285 892 44 76 94 145 148 206z"/>
  <path class="fil7" d="m2439 2989c783-72 1507-351 2115-783 74-146 142-290 197-432-661 575-1506 943-2435 1006 36 75 77 145 123 209z"/>
  <path class="fil8" d="m2372 2886c859-68 1646-390 2285-892 68-147 126-291 166-432-671 643-1565 1056-2554 1113 30 75 65 146 103 211z"/>
  <path class="fil9" d="m2316 2780c929-62 1773-431 2434-1005 54-140 96-278 117-412-672 702-1602 1154-2638 1205 25 74 54 146 86 213z"/>
  <path class="fil10" d="m2269 2674c989-57 1883-470 2554-1113 37-128 59-254 60-376-665 747-1619 1230-2686 1275 20 74 45 146 72 214z"/>
  <path class="fil11" d="m2230 2568c1036-51 1966-503 2638-1205 18-114 22-225 6-333-652 778-1618 1283-2703 1322 16 74 36 146 59 216z"/>
  <path class="fil12" d="m2197 2460c1068-45 2021-528 2686-1275 1-99-11-196-39-291-637 796-1604 1316-2694 1350 12 74 28 146 47 216z"/>
  <path class="fil13" d="m2170 2352c1085-39 2051-545 2703-1322-12-87-36-172-75-254-619 804-1580 1330-2665 1360 9 74 21 146 36 217z"/>
  <path class="fil14" d="m2150 2244c1090-34 2058-554 2694-1350-23-76-56-151-102-224-600 802-1547 1329-2618 1357 5 73 14 146 26 217z"/>
  <path class="fil15" d="m2134 2135c1085-30 2046-557 2665-1360-31-68-72-134-124-199-579 792-1507 1315-2557 1341 2 73 7 146 16 218z"/>
  <path class="fil16" d="m2124 2027c1071-28 2019-555 2618-1357-38-61-84-120-140-178-559 777-1461 1290-2484 1316-2 73 0 146 6 219z"/>
  <path class="fil17" d="m2118 1917c1051-26 1978-549 2557-1341-43-54-94-108-153-160-537 755-1409 1255-2400 1283-5 73-7 146-5 218z"/>
  <path class="fil18" d="m2118 1808c1023-27 1925-540 2484-1316-48-50-102-98-164-146-515 729-1353 1213-2305 1244-9 73-14 146-15 218z"/>
  <path class="fil19" d="m2123 1699c990-28 1863-528 2400-1283-51-46-109-90-173-134-492 697-1292 1163-2201 1199-12 72-21 146-26 219z"/>
  <path class="fil20" d="m2133 1590c952-31 1790-515 2305-1244-54-42-114-83-179-123-469 662-1226 1106-2088 1148-16 72-29 146-37 219z"/>
  <path class="fil21" d="m2149 1480c909-36 1709-501 2201-1199-57-39-118-77-186-114-444 623-1155 1042-1966 1093-21 72-37 146-50 221z"/>
  <path class="fil22" d="m2171 1370c863-42 1620-486 2088-1148-45-27-92-55-142-81-18-7-35-14-53-20-419 577-1078 968-1830 1027-7 21-14 41-20 62-17 53-31 106-43 160z"/>
  <path class="fil23" d="m2199 1260c810-50 1521-470 1966-1093-16-9-32-17-48-26-55-22-109-41-161-57-392 525-995 884-1683 952-21 58-41 116-59 175-5 16-10 33-15 50z"/>
  <path class="fil24" d="m2234 1148c752-59 1411-450 1830-1027-77-28-150-51-221-69-364 469-906 793-1525 869-31 75-59 151-84 227z"/>
  <path class="fil25" d="m2273 1035c688-68 1290-427 1683-952-80-25-157-45-231-58-333 408-811 694-1355 778-35 75-68 153-97 232z"/>
  <path class="fil26" d="m2318 921c619-76 1161-400 1525-869-86-22-168-37-245-44-297 341-704 584-1166 674-42 77-80 157-114 239z"/>
  <path class="fil27" d="m2370 804c544-84 1022-370 1355-778-95-18-184-26-268-26-253 266-581 462-949 553-51 79-97 163-139 251z"/>
  <path class="fil27" d="m2432 681c462-90 869-333 1166-674-111-11-213-9-308 5-192 177-422 314-676 397-68 83-128 174-181 272z"/>
  <path class="fil27" d="m2508 553c368-91 696-287 949-553-168 0-316 34-446 94-58 39-119 75-181 108-127 94-232 215-322 352z"/>
  <path class="fil27" d="m2613 409c254-83 484-220 676-397-288 42-507 192-676 397z"/>
  <path class="fil27" d="m2830 201c63-32 123-68 181-108-65 30-125 66-181 108z"/>
  <path class="fil1" d="m5755 3103c-80-17-160 34-177 115-18 80 33 160 115 178 80 17 160-34 177-115 18-80-33-160-115-178z"/>
  <path class="fil28" d="m5660 3452l9 12 4-17c-4 1-9 3-13 4z"/>
  <path class="fil29" d="m5660 3452l9 12 4-17c-4 1-9 3-13 4z"/>
  <path class="fil30" d="m5665 3459l5-2 4-18c-6 2-13 4-19 6l10 14z"/>
  <path class="fil31" d="m5660 3452c4-1 9-3 13-4l4-19c-9 3-18 6-27 9l10 14z"/>
  <path class="fil32" d="m5655 3445c7-2 13-4 19-6l5-20c-11 4-23 8-35 12l11 15z"/>
  <path class="fil33" d="m5650 3438c9-3 18-6 27-9l5-20c-14 6-28 11-42 14l11 15z"/>
  <path class="fil34" d="m5644 3431c12-3 23-7 35-12l4-20c-16 7-32 13-49 17l10 14z"/>
  <path class="fil35" d="m5639 3423c14-4 29-9 42-14l4-19c-18 8-37 15-57 20l10 14z"/>
  <path class="fil36" d="m5634 3417c17-5 33-10 49-17l5-21c-20 10-42 18-65 23l11 15z"/>
  <path class="fil37" d="m5629 3409c20-5 39-12 57-20l5-20c-23 11-47 20-72 26l10 14z"/>
  <path class="fil38" d="m5623 3402c23-5 44-13 65-23l5-21c-25 13-51 23-80 30l10 14z"/>
  <path class="fil39" d="m5619 3395c25-6 49-15 72-26l5-22c-27 15-56 27-88 33l11 15z"/>
  <path class="fil40" d="m5613 3388c28-6 55-16 80-30l5-21c-29 17-61 30-95 36l10 14z"/>
  <path class="fil41" d="m5608 3380c31-7 61-18 88-33l5-22c-31 20-66 34-103 40l10 14z"/>
  <path class="fil42" d="m5603 3373c34-7 66-19 95-36l5-24c-33 22-71 38-111 45l11 15z"/>
  <path class="fil43" d="m5597 3366c37-7 72-21 103-40l5-24c-34 25-75 43-119 49l10 14z"/>
  <path class="fil44" d="m5592 3358c41-7 79-22 111-45l6-25c-37 30-83 49-133 55l11 7 5 7z"/>
  <path class="fil45" d="m5587 3351c44-7 85-24 119-49l6-26c-40 34-91 56-147 61l22 15z"/>
  <path class="fil46" d="m5576 3344c50-6 95-26 133-55l6-26c-42 40-98 65-160 67l21 14z"/>
  <path class="fil46" d="m5565 3337c56-4 107-26 147-61l7-29c-43 46-105 74-173 74h-3l23 15z"/>
  <path class="fil46" d="m5555 3330c62-2 118-27 160-67l6-26-2-2c-42 48-104 78-173 78-5 0-11 0-16-1l26 17z"/>
  <path class="fil46" d="m5543 3321h3c68 0 129-29 173-74l2-10-8-8c-41 46-101 75-167 75-11 0-21-1-31-2l28 19z"/>
  <path class="fil46" d="m5529 3312c5 0 11 1 16 1 69 0 131-30 173-78l-11-11c-39 45-97 73-161 73-16 0-31-2-46-5l30 21z"/>
  <path class="fil46" d="m5514 3302c10 1 20 2 31 2 66 0 126-29 167-75l-12-12c-38 43-93 71-155 71-24 0-47-4-68-11l37 25z"/>
  <path class="fil46" d="m5499 3292c15 3 30 5 46 5 64 0 122-28 161-73l-12-12c-36 42-90 68-149 68-19 0-38-3-56-8l-12 5 22 15z"/>
  <path class="fil46" d="m5478 3277c21 7 44 11 68 11 62 0 118-27 155-71l-12-12c-35 41-86 66-144 66-15 0-30-2-45-5l-23 10z"/>
  <path class="fil46" d="m5489 3271c18 5 37 8 56 8 60 0 113-27 149-68l-12-12c-33 39-83 64-138 64-11 0-21-1-31-3l-25 11z"/>
  <path class="fil46" d="m5501 3267c14 4 29 5 45 5 57 0 109-26 144-66l-12-12c-32 37-79 61-132 61-5 0-11 0-16-1l-29 12z"/>
  <path class="fil46" d="m5514 3261c10 2 21 3 31 3 55 0 104-25 138-64l-8-8-10 4c-30 32-73 51-120 51l-31 13z"/>
  <path class="fil46" d="m5530 3254c5 0 11 1 16 1 53 0 100-24 132-61l-2-2-34 15c-20 16-45 27-71 31l-40 17z"/>
  <path class="fil46" d="m5545 3247c47 0 90-20 120-51l-120 51z"/>
  <path class="fil47" d="m5569 3237c27-4 51-15 71-31l-71 31z"/>
  <path class="fil32" d="m7130 3300c-297 123-596 162-861 132 298-8 586-54 861-132z"/>
  <path class="fil33" d="m7558 3060c-561 406-1197 465-1638 286 85 6 170 10 256 10 492 0 960-106 1382-295z"/>
  <path class="fil34" d="m6269 3433c298-8 586-54 861-132 197-81 393-199 577-358 36-34 72-67 108-101-483 277-1042 436-1639 436-150 0-297-10-441-29 147 98 331 162 535 184z"/>
  <path class="fil35" d="m5920 3346c85 6 170 10 256 10 492 0 960-106 1382-295 50-36 100-76 149-118 131-121 258-242 369-365-533 391-1190 622-1900 622-180 0-356-15-528-43 13 21 26 41 41 60 68 52 146 95 231 130z"/>
  <path class="fil36" d="m5735 3248c144 19 292 30 441 29 596 0 1156-159 1639-436 192-182 367-365 493-557-560 518-1309 835-2132 836-197 0-389-18-576-53 26 53 55 103 89 149 15 11 30 22 45 32z"/>
  <path class="fil37" d="m5648 3156c172 28 348 43 528 43 711 0 1368-231 1900-622 156-172 284-347 360-533-560 613-1365 997-2260 997-210 0-415-21-612-61 23 63 52 121 85 175z"/>
  <path class="fil38" d="m5600 3068c187 35 379 53 576 53 823 0 1572-317 2132-836 90-137 155-278 184-426-547 674-1381 1104-2316 1105-220 0-434-24-641-69 18 61 39 119 65 174z"/>
  <path class="fil39" d="m5564 2981c198 40 403 61 612 61 895 0 1700-384 2260-997 44-108 70-220 73-336-529 714-1377 1176-2333 1176-228 0-450-26-662-76 13 60 30 117 50 172z"/>
  <path class="fil40" d="m5535 2894c206 45 421 69 641 69 935 0 1769-431 2316-1105 18-90 22-182 11-278-509 740-1362 1225-2328 1225-234 0-461-29-678-82 9 59 21 116 37 170z"/>
  <path class="fil41" d="m5514 2809c213 50 434 76 662 76 956 0 1804-463 2333-1176 2-77-6-157-25-239-489 757-1340 1258-2308 1258-238 0-469-30-689-87 6 58 15 114 26 168z"/>
  <path class="fil42" d="m5498 2724c217 53 444 82 678 82 966 0 1818-485 2328-1225-8-69-24-139-49-212-469 768-1314 1281-2279 1281-240 0-473-32-695-91 3 57 9 112 17 166z"/>
  <path class="fil43" d="m5487 2640c220 57 451 87 689 87 968 0 1819-501 2308-1258-15-63-36-128-65-194-448 774-1285 1295-2243 1295-242 0-475-33-697-95 0 56 3 111 9 164z"/>
  <path class="fil44" d="m5481 2557c222 60 454 91 695 91 965 0 1810-512 2279-1280-20-58-46-118-78-179-427 777-1253 1303-2201 1303-242 0-475-34-696-98-2 55-2 109 1 163z"/>
  <path class="fil45" d="m5479 2476c222 62 456 95 697 95 958 0 1795-521 2243-1295-24-55-53-110-87-167-407 776-1219 1305-2155 1305-240 0-472-35-692-100-4 55-6 109-6 162z"/>
  <path class="fil46" d="m5480 2395c221 64 455 98 696 98 948 0 1774-526 2201-1303-27-51-59-104-95-157-386 773-1184 1303-2106 1303-238 0-468-35-684-101-6 54-10 108-12 160z"/>
  <path class="fil46" d="m5484 2314c219 65 451 100 692 100 936 0 1749-530 2155-1305-30-49-63-99-101-149-366 767-1148 1297-2054 1297-235 0-461-35-674-101-8 53-14 106-18 159z"/>
  <path class="fil46" d="m5492 2235c217 66 446 101 684 101 922 0 1720-530 2106-1303-32-47-67-94-106-143-346 760-1111 1289-2e3 1289-230 0-452-35-661-101-10 53-18 105-24 157z"/>
  <path class="fil46" d="m5502 2156c213 66 439 101 674 101 906 0 1689-530 2054-1297-33-45-70-90-110-137-326 751-1074 1277-1945 1277-225 0-441-35-645-100-12 52-21 104-29 156z"/>
  <path class="fil46" d="m5515 2077c209 66 430 101 661 101 889 0 1655-528 2e3 -1289-30-37-62-75-96-113-6-5-12-11-18-16-306 740-1035 1260-1886 1260-219 0-429-35-626-98-13 51-25 103-34 154z"/>
  <path class="fil46" d="m5531 2e3c203 65 420 100 645 100 870 0 1619-526 1945-1277-13-15-27-31-41-46-27-24-55-47-81-69-289 724-996 1235-1823 1235-211 0-415-34-606-95-15 50-28 101-39 152z"/>
  <path class="fil46" d="m5549 1923c197 64 408 98 626 98 850 0 1579-521 1886-1260-43-37-86-72-128-104-272 706-957 1207-1758 1207-203 0-399-32-582-92-16 50-31 100-44 150z"/>
  <path class="fil46" d="m5570 1848c191 62 394 95 606 95 826 0 1534-512 1823-1235-44-36-88-69-131-98-255 687-917 1177-1692 1177-194 0-381-31-557-88-18 49-35 99-49 149z"/>
  <path class="fil46" d="m5593 1773c183 60 379 92 582 92 801 0 1486-501 1758-1207-45-34-89-65-133-92-239 666-876 1143-1625 1143-184 0-362-29-528-82-20 49-38 98-54 148z"/>
  <path class="fil46" d="m5619 1699c175 57 362 88 557 88 775 0 1437-490 1692-1177-46-32-91-61-136-86-224 644-836 1106-1556 1106-173 0-340-27-497-76-21 48-41 97-59 146z"/>
  <path class="fil46" d="m5648 1625c166 53 344 82 528 82 748 0 1385-477 1625-1143-47-30-93-56-139-79-210 619-796 1065-1486 1065-161 0-317-24-464-70-23 47-45 96-65 144z"/>
  <path class="fil46" d="m5679 1553c157 50 324 76 497 76 720 0 1332-462 1556-1106-48-27-95-51-142-71-197 593-756 1020-1414 1020-148 0-292-22-427-62-25 47-49 95-70 143z"/>
  <path class="fil46" d="m5712 1481c147 45 302 70 464 70 690 0 1276-445 1486-1065-49-25-97-46-144-63-186 564-716 971-1342 971-134 0-264-19-388-54-27 46-52 93-76 141z"/>
  <path class="fil47" d="m5749 1410c135 40 279 62 427 62 658 0 1217-427 1414-1020-50-22-99-40-147-54-175 533-676 917-1267 917-119 0-235-16-345-45-29 46-56 92-82 140z"/>
  <path class="fil48" d="m5788 1340c123 35 253 54 388 54 626 0 1156-407 1342-971-51-19-101-34-151-45-166 499-637 859-1191 859-103 0-203-13-299-36-31 45-61 91-88 138z"/>
  <path class="fil49" d="m5831 1270c110 29 226 45 345 45 591 0 1092-384 1267-917-52-16-104-27-154-35-159 463-597 795-1113 795-85 0-169-9-249-26-34 44-66 90-96 138z"/>
  <path class="fil50" d="m5877 1201c96 23 196 36 299 36 554 0 1025-360 1191-859-54-12-107-20-158-23-153 423-558 726-1033 726-66 0-132-6-195-17-18 23-36 46-54 69-17 23-34 46-50 69z"/>
  <path class="fil51" d="m5927 1132c80 17 164 26 249 26 516 0 955-333 1113-795-56-8-110-12-163-11-148 380-518 649-950 649-46 0-92-3-137-9-39 46-76 93-112 140z"/>
  <path class="fil52" d="m5981 1063c63 11 128 17 195 17 475 0 880-303 1033-726-58-4-115-3-170 2-145 333-477 566-863 566-25 0-50-1-74-3-42 46-82 94-121 143z"/>
  <path class="fil53" d="m6039 992c45 6 91 9 137 9 432 0 802-269 950-649-62 1-122 7-180 19-142 281-434 473-770 473h-4c-46 48-90 97-133 148z"/>
  <path class="fil54" d="m6102 920c24 2 49 3 74 3 386 0 718-233 863-566-68 7-134 21-199 41-125 200-339 340-585 364-53 50-104 103-153 158z"/>
  <path class="fil55" d="m6172 844h4c336 0 627-192 770-473-83 16-163 43-240 78-88 99-203 174-334 211-69 57-136 119-199 184z"/>
  <path class="fil56" d="m6255 762c247-25 460-164 585-364-216 66-411 199-585 364z"/>
  <path class="fil57" d="m6371 660c131-38 246-112 334-211-118 53-230 126-334 211z"/>
  <path class="fil0 str1" d="m5663 3188c14 29 60 62 60 62"/>
  <path class="fil58" d="m3043 2096c-380-151-363-611-342-706 21-96 22-148-38-184-59-37-67 33-91 64s-217 273-340 241c-122-32-166-172-152-305 15-133 97-394 137-426 41-33 92-9 173 44 81 54 183 148 245 184s365 197 376 202-5 20 65 50c69 31 256 103 343 200s164 84 181 342l546 98c77 13 383 45 438 48 56 3 71 31 61 61-9 28-34 108-127 272s-75 0-39-40c37-39 140-226 120-239-112-45-579-86-1015-137 0 0-41 113-130 183-90 70-233 133-414 49zm-529-1138c39 24 362 227 450 258-90-18-193-15-224 47-1-24-74-152-151-96 10-45 4-66-74-210z"/>
  <path class="fil59" d="m4832 4439c-481 200-966 187-1317 25 189 26 383 40 580 40 251 0 498-22 737-65z"/>
  <path class="fil60" d="m5156 4269c-685 436-1445 391-1856 62 257 51 523 78 795 78 367 0 723-49 1061-140z"/>
  <path class="fil61" d="m3515 4464c189 26 383 40 580 40 251 0 498-22 737-65 161-67 321-157 475-274 27-22 53-43 79-65-405 139-839 214-1291 214-300 0-591-33-872-96 16 33 34 64 53 94 70 60 150 111 239 152z"/>
  <path class="fil62" d="m3300 4332c257 51 523 78 795 78 367 0 723-49 1061-140 51-32 101-67 151-105 101-82 199-164 291-247-462 194-970 301-1502 301-316 0-623-38-917-109 25 73 58 141 98 202 8 7 16 13 24 20z"/>
  <path class="fil63" d="m3223 4218c281 63 572 96 872 96 452 0 886-75 1291-214 150-125 292-250 414-379-513 258-1092 404-1705 404-327 0-644-41-947-119 18 76 43 147 75 213z"/>
  <path class="fil64" d="m3178 4110c294 71 601 109 917 109 533 0 1040-107 1502-301 142-128 269-259 368-396-549 322-1188 507-1871 507-335 0-659-45-968-128 11 74 29 144 51 210z"/>
  <path class="fil65" d="m3148 4005c303 78 620 119 947 119 613 0 1192-146 1705-404 114-122 210-247 278-380-569 375-1251 594-1983 594-340 0-668-47-980-135 6 71 17 140 33 206z"/>
  <path class="fil66" d="m3127 3901c309 83 633 128 968 128 682 0 1321-185 1871-507 79-109 141-223 179-343-577 415-1285 660-2050 660-342 0-673-49-985-140 2 69 7 137 18 202z"/>
  <path class="fil67" d="m3115 3799c312 88 640 135 980 135 732 0 1414-219 1983-594 50-97 84-199 100-305-577 444-1299 708-2083 708-342 0-673-51-985-144-2 68-1 135 5 200z"/>
  <path class="fil68" d="m3109 3699c313 91 643 140 985 140 765 0 1473-245 2050-660 28-87 43-178 44-273-572 464-1300 743-2093 743-341 0-669-51-979-147-6 67-8 132-7 197z"/>
  <path class="fil69" d="m3110 3599c312 94 642 144 985 144 784 0 1506-264 2083-708 12-79 13-161 3-246-563 477-1291 765-2086 765-337 0-663-52-968-148-9 65-14 130-17 193z"/>
  <path class="fil70" d="m3116 3502c309 95 638 147 979 147 794 0 1522-278 2093-743 0-73-8-148-27-226-552 484-1275 778-2067 778-332 0-653-52-953-148-12 64-20 128-26 191z"/>
  <path class="fil71" d="m3127 3406c306 96 631 148 968 148 796 0 1524-288 2086-765-8-68-24-138-48-210-539 488-1254 785-2038 785-326 0-640-51-934-146-14 63-26 126-34 189z"/>
  <path class="fil72" d="m3142 3311c301 96 621 148 953 148 792 0 1515-294 2067-778-15-64-37-130-65-197-525 487-1229 785-2002 785-318 0-624-51-911-144-17 62-31 124-42 186z"/>
  <path class="fil73" d="m3161 3217c294 95 608 146 934 146 784 0 1499-297 2038-785-20-60-46-122-79-186-511 484-1201 781-1960 781-309 0-606-49-884-140-19 61-36 123-50 184z"/>
  <path class="fil74" d="m3184 3125c287 93 593 144 911 144 773 0 1476-298 2002-785-24-57-54-116-89-177-495 478-1170 773-1913 773-298 0-585-48-854-135-22 60-41 120-57 181z"/>
  <path class="fil75" d="m3211 3034c278 91 576 140 884 140 759 0 1449-297 1960-781-28-55-60-112-98-170-480 470-1137 760-1862 760-286 0-561-45-820-129-24 59-46 119-65 179z"/>
  <path class="fil76" d="m3241 2944c269 88 556 135 854 135 743 0 1417-294 1913-773-31-53-66-107-105-163-464 461-1102 745-1808 746-273 0-535-43-782-122-26 58-51 117-72 177z"/>
  <path class="fil77" d="m3275 2855c258 83 534 129 820 129 725 0 1382-290 1862-760-33-51-70-104-111-157-447 450-1066 728-1750 728-258 0-507-40-740-113-29 57-55 115-79 174z"/>
  <path class="fil78" d="m3313 2767c247 79 509 122 782 122 705 0 1344-285 1808-746-27-38-56-77-87-116l-33-33c-430 435-1027 704-1687 704-242 0-475-36-695-103-32 56-61 114-87 172z"/>
  <path class="fil79" d="m3354 2681c234 73 482 113 740 113 684 0 1303-279 1750-728l-30-39c-34-35-69-67-103-97-413 416-985 674-1618 674-224 0-440-32-645-93-34 55-66 112-96 170z"/>
  <path class="fil80" d="m3400 2595c220 67 453 103 695 103 660 0 1257-269 1687-704-48-46-95-88-142-127-395 396-942 641-1545 641-205 0-403-28-591-81-37 54-72 110-104 167z"/>
  <path class="fil81" d="m3450 2511c204 60 421 93 645 93 632 0 1204-258 1618-674-50-44-99-85-148-121-377 374-897 604-1470 604-183 0-361-24-531-68-41 53-79 109-114 166z"/>
  <path class="fil82" d="m3504 2428c188 53 386 81 591 81 604 0 1150-245 1545-641-52-43-104-81-155-114-359 350-850 565-1391 565-160 0-316-19-465-55-44 52-86 107-125 164z"/>
  <path class="fil83" d="m3564 2345c170 44 347 68 531 68 573 0 1092-231 1470-604-55-41-109-76-163-107-340 323-801 522-1307 522-135 0-267-14-394-41-19 21-38 42-57 64-28 32-54 65-80 99z"/>
  <path class="fil84" d="m3629 2264c149 36 305 55 465 55 541 0 1031-215 1391-565-58-38-116-71-173-98-321 294-749 473-1218 473-108 0-214-10-317-28-46 48-91 97-134 146-5 6-10 12-15 17z"/>
  <path class="fil85" d="m3701 2183c127 27 259 41 394 41 506 0 967-198 1307-522-63-36-124-65-185-88-300 261-693 420-1122 420-79 0-157-6-234-16-55 53-109 109-160 165z"/>
  <path class="fil85" d="m3778 2101c103 18 209 28 317 28 469 0 897-179 1218-473-68-33-136-58-202-76-277 225-631 360-1016 360-48 0-95-2-141-6-61 53-119 109-176 168z"/>
  <path class="fil85" d="m3861 2018c76 10 154 16 234 16 429 0 821-158 1122-420-78-30-154-50-229-61-251 182-559 290-893 290h-32c-70 54-137 113-202 175z"/>
  <path class="fil85" d="m3954 1933c47 4 94 6 141 6 385 0 738-135 1016-360-95-26-187-38-277-37-186 113-401 185-630 202-87 55-170 119-250 188z"/>
  <path class="fil85" d="m4063 1843h32c334 0 642-108 893-290-343-51-653 81-925 290z"/>
  <path class="fil85" d="m4204 1745c230-17 444-89 630-202-226 1-437 80-630 202z"/>
  <path class="fil58" d="m6727 2418c330 240 710-21 779-89 70-68 114-97 176-66 62 30 8 75-7 111-13 37-114 330-21 416s234 49 338-35c104-83 282-292 288-344 6-51-42-82-131-122-88-41-222-76-286-109-63-33-362-204-371-210-10-8-14 14-78-28-62-42-223-161-352-183-128-22-159-94-385 30l-375-409c-52-58-243-299-276-346-32-45-64-43-83-19s-73 87-162 254c-89 166 41 62 54 10s116-239 137-229c98 70 383 444 660 785 0 0-75 94-86 207-11 114 12 267 180 376zm1244-162c-40-20-384-185-458-241 63 66 116 155 80 215 20-12 168-19 162 77 31-32 54-39 216-50z"/>
  <path class="fil58" d="m3942 3384c-242-176-66-610-17-699 50-89 69-138 37-178-33-40-64 27-95 54-29 27-265 239-349 198-84-42-69-178-10-302 59-125 215-365 258-393 44-27 75 0 119 58 45 58 91 155 126 195 36 40 215 219 223 224 7 5-10 18 32 53 44 35 163 120 197 220 33 98 98 94 19 340l1028 453c62 27 76 59 58 85-17 27-62 101-203 241-140 139-86-27-36-56 50-28 207-188 187-209l-1068-456s-72 103-167 162-227 106-339 10zm-10-1124c22 25 202 246 258 284-63-26-145-31-191 25 8-23-4-151-84-104 24-41 27-62 17-205z"/>
  <path class="fil0 str0" d="m2651 3411c-732 989-1050 2018-2640 3553"/>
  <path class="fil0 str0" d="m3166 4439s-1985 1937-3155 2524"/>
  <polygon class="fil86" points="2781 3596 2780 3596 2731 3563 2720 3256 2741 3266"/>
  <polygon class="fil87" points="2756 3387 2762 3584 2699 3541 2690 3242 2741 3266"/>
  <polygon class="fil88" points="2720 3256 2731 3563 2669 3520 2659 3228"/>
  <polygon class="fil18" points="2690 3242 2699 3541 2638 3499 2630 3253 2658 3227"/>
  <polygon class="fil89" points="2659 3228 2669 3520 2617 3484 2608 3482 2600 3281 2658 3227 2658 3227"/>
  <polygon class="fil90" points="2630 3253 2638 3499 2617 3484 2577 3474 2571 3309"/>
  <polygon class="fil91" points="2600 3281 2608 3482 2546 3467 2542 3336"/>
  <polygon class="fil92" points="2571 3309 2577 3474 2516 3459 2512 3364"/>
  <polygon class="fil24" points="2542 3336 2546 3467 2485 3451 2483 3391"/>
  <polygon class="fil93" points="2512 3364 2516 3459 2455 3444 2454 3419"/>
  <polygon class="fil94" points="2483 3391 2485 3451 2433 3438"/>
  <polygon class="fil95" points="2454 3419 2455 3444 2433 3438"/>
  <path class="fil0 str2" d="m2647 3221c34 33 110 54 110 54"/>
  <polygon class="fil96" points="3199 4675 3202 4681 3204 4675"/>
  <path class="fil97" d="m3191 4663l11 18 6-20c-6 1-12 1-17 2z"/>
  <path class="fil98" d="m3199 4675l6-1 8-26c-9 1-18 2-28 3l15 24z"/>
  <path class="fil59" d="m3191 4663c6-1 12-1 17-2l8-26c-13 2-26 3-40 4l15 24z"/>
  <path class="fil60" d="m3184 4652c9-1 19-2 28-3l8-28c-17 3-34 4-52 5l16 25z"/>
  <path class="fil61" d="m3177 4639c13-1 27-2 40-4l8-28c-21 3-42 5-64 6l16 25z"/>
  <path class="fil62" d="m3169 4626c17-1 35-3 52-5l8-26c-24 4-49 7-75 7l15 24z"/>
  <path class="fil63" d="m3161 4614c22-1 43-3 64-6l8-27c-28 5-57 8-87 8l15 24z"/>
  <path class="fil64" d="m3154 4602c25-1 50-3 75-7l9-28c-31 6-64 10-97 10h-2l16 26z"/>
  <path class="fil65" d="m3146 4589c30 0 59-3 87-8l9-28c-33 7-67 11-101 11h-10l16 26z"/>
  <path class="fil66" d="m3138 4576h2c33 0 66-3 97-10l8-27c-34 8-69 12-105 12h-17l15 25z"/>
  <path class="fil67" d="m3130 4563h10c35 0 69-4 101-11l8-27c-35 9-72 13-110 13-9 0-17 0-26-1l16 25z"/>
  <path class="fil68" d="m3122 4551h17c36 0 71-4 105-12l9-29c-36 10-75 15-114 15-12 0-23 0-34-1l17 27z"/>
  <path class="fil69" d="m3114 4538c9 0 17 1 26 1 38 0 75-5 110-13l9-29c-38 11-77 16-119 16-14 0-29-1-43-2l17 28z"/>
  <path class="fil70" d="m3106 4524c11 1 23 1 34 1 39 0 78-5 114-15l9-28c-39 12-80 18-123 18-18 0-35-1-52-3l2 2 15 25z"/>
  <path class="fil71" d="m3097 4510c14 1 28 2 43 2 41 0 81-6 119-16l9-29c-40 13-83 20-127 20-25 0-50-2-74-7l24 18 7 11z"/>
  <path class="fil72" d="m3088 4497c17 2 34 3 52 3 43 0 84-6 123-18l9-30c-41 15-86 22-132 22-34 0-67-4-98-12l47 35z"/>
  <path class="fil73" d="m3066 4481c24 4 48 7 74 7 44 0 87-7 127-20l9-31c-42 16-88 25-137 25-45 0-88-8-129-22l55 42z"/>
  <path class="fil74" d="m3041 4462c31 8 64 12 98 12 46 0 91-8 132-22l9-30c-43 18-91 28-141 28-61 0-118-15-168-41l70 53z"/>
  <path class="fil75" d="m3011 4439c40 14 84 22 129 22 48 0 94-9 137-25l9-31c-45 20-94 31-146 31-76 0-146-24-204-64l-9 3 84 64z"/>
  <path class="fil76" d="m2971 4409c51 26 108 41 168 41 50 0 97-10 141-28l10-33c-46 22-97 35-151 35-70 0-135-21-189-57l-24 8 45 34z"/>
  <path class="fil77" d="m2935 4372c58 41 128 64 204 64 52 0 101-11 146-31l10-34c-46 25-99 39-156 39-64 0-124-18-174-49l-30 11z"/>
  <path class="fil78" d="m2950 4366c54 36 119 57 189 57 54 0 105-13 151-35l10-33c-47 28-102 43-161 43-58 0-112-15-159-43l-30 11z"/>
  <path class="fil79" d="m2965 4361c51 31 110 49 174 49 57 0 110-14 156-39l10-34v-1c-48 31-105 49-166 49-52 0-100-13-143-35l-31 11z"/>
  <path class="fil80" d="m2980 4356c47 27 101 43 159 43 59 0 114-16 161-43l5-18-9-11c-45 29-99 46-157 46-45 0-88-10-126-28l-34 12z"/>
  <path class="fil81" d="m2997 4350c43 23 91 35 143 35 61 0 118-18 166-49l-18-20c-43 27-94 42-148 42-38 0-75-8-108-22l-35 12z"/>
  <path class="fil82" d="m3014 4344c38 18 81 28 126 28 58 0 112-17 157-46l-17-19c-41 25-89 40-140 40-32 0-63-6-91-16l-35 12z"/>
  <path class="fil83" d="m3032 4337c33 14 70 22 108 22 54 0 105-16 148-42l-17-19c-38 23-83 36-132 36-25 0-49-3-71-10l-37 13z"/>
  <path class="fil84" d="m3049 4331c28 10 59 16 91 16 51 0 99-15 140-40l-17-20c-36 21-78 33-123 33-17 0-33-2-49-5l-42 15z"/>
  <path class="fil85" d="m3069 4324c23 6 46 10 71 10 48 0 93-13 132-36l-18-20c-34 19-72 30-114 30-8 0-15 0-23-1l-49 17z"/>
  <path class="fil85" d="m3091 4316c16 3 32 5 49 5 45 0 87-12 123-33l-17-19c-29 16-63 26-98 28l-56 20z"/>
  <path class="fil85" d="m3117 4307c7 1 15 1 23 1 42 0 80-11 114-30l-13-15-123 44z"/>
  <path class="fil85" d="m3147 4296c36-1 69-11 98-28l-5-6-93 33z"/>
  <path class="fil0 str3" d="m3229 4247c19 47 85 102 85 102"/>
</svg>